<svg xmlns="http://www.w3.org/2000/svg" viewBox="663.17 68.12 594.13 591.55"><defs><style>.cls-1,.cls-2,.cls-3,.cls-7{fill:none;}.cls-1,.cls-2,.cls-3,.cls-4,.cls-5,.cls-6,.cls-7{stroke:#000;}.cls-1{stroke-linecap:round;}.cls-1,.cls-2,.cls-3,.cls-4,.cls-5,.cls-7,.cls-8{stroke-miterlimit:10;}.cls-1,.cls-7{stroke-width:4px;}.cls-2{stroke-width:8px;}.cls-3{stroke-width:10px;}.cls-4,.cls-5,.cls-6{fill:#050202;}.cls-4,.cls-6,.cls-7{stroke-linecap:square;}.cls-4{stroke-width:25px;}.cls-5{stroke-width:16px;}.cls-6{stroke-linejoin:round;stroke-width:12px;}.cls-8{stroke:#fff;stroke-width:19px;}</style></defs><g id="Layer_27" data-name="Layer 27"><path d="M1141,497c.52-3.06,5.79-4.26,9.33-4.73a230.67,230.67,0,0,0,13.33-21.63c-3.3-11.67-3.1-22.58,4.3-26.36a.17.17,0,0,1,.14,0l0,0c.59-.4,3.87-2,4-2.08a9.78,9.78,0,0,1,4.63-.26,228.57,228.57,0,0,0,10.4-36.84,29.81,29.81,0,0,1-3.83-6.67c-1-3,3.36-6.65,6.28-8.68a233,233,0,0,0,1.8-27.1c-8.12-8.7-12.8-18.26-8.08-24.94a.2.2,0,0,1,.12-.08h0c.33-.62,2.48-3.6,2.57-3.69a9.53,9.53,0,0,1,3.54-2.24,229.73,229.73,0,0,0-7.45-35.75,32,32,0,0,1-7.14-4.46c-2.46-2.39.23-8.26,1.88-11.29a228.67,228.67,0,0,0-11.57-25.95c-10.81-4-18.95-10.13-17.9-18a.17.17,0,0,1,.07-.13l0,0c0-.7.52-4.33.56-4.46a9.54,9.54,0,0,1,1.6-3,231.4,231.4,0,0,0-22.46-27.28c-3.36.1-7.13,0-9.29-.61-3.59-1.06-3.67-8.69-3.55-11.76a229.54,229.54,0,0,0-23-18.07c-10.87,1.23-20.31-.61-23-7.81a.26.26,0,0,1,0-.15s0,0,0,0c-.32-.63-1.56-4.08-1.58-4.21a9.24,9.24,0,0,1-.1-2.57,229.68,229.68,0,0,0-32.12-13.63c-3.12,1.81-7,3.85-9.48,4.34-4.23.83-8.38-8.21-9.05-9.72a228.74,228.74,0,0,0-28.76-5.17c-8.7,5.64-17.41,8-22.87,3a.18.18,0,0,1-.06-.13v0c-.58-.4-3.28-2.89-3.36-3a9.28,9.28,0,0,1-.88-1.39,232.8,232.8,0,0,0-35.36,2.82c-2,3.18-4.72,7.26-6.82,8.95-3.67,3-12.71-4.54-12.71-4.54l.19-.51a231.13,231.13,0,0,0-27.71,8.73c-5,8.6-11.46,14.31-18.38,12.52a.18.18,0,0,1-.12-.09v0c-.7-.09-4.24-1-4.36-1.09a9.26,9.26,0,0,1-.94-.49,229.57,229.57,0,0,0-31.08,19.62c-.26,3.79-.8,9-1.92,11.59-1.87,4.32-13.37,1.88-13.37,1.88s0-.32-.1-.87a232.36,232.36,0,0,0-19.84,20c-.54,9.69-3.6,17.47-10.43,19.08a.17.17,0,0,1-.14,0l0,0c-.66.24-4.24,1-4.37,1.06a6.94,6.94,0,0,1-.79,0,230,230,0,0,0-19.33,33.27c1.54,3.47,3.51,8.39,3.72,11.22.35,4.7-11,7.88-11,7.88l-.51-.76a227.89,227.89,0,0,0-7.75,25.18c4.12,8.92,5.09,17.35-.26,22a.17.17,0,0,1-.13,0h0c-.47.53-3.27,2.91-3.38,3a8.82,8.82,0,0,1-1,.51,233.87,233.87,0,0,0-1.89,29.64c0,3.52.11,7,.26,10.5,2.93,2.34,6.68,5.58,8.11,7.89,2.5,4-6,12.07-6,12.07l-.32-.17a229.93,229.93,0,0,0,4.35,23.63c8.17,6.09,13.28,13.3,10.62,20.07a.15.15,0,0,1-.09.1l0,0c-.18.68-1.55,4.08-1.61,4.19a9.52,9.52,0,0,1-1.07,1.43,229.75,229.75,0,0,0,17.79,37.43c3.56.72,7.91,1.79,10.09,3.07,3.59,2.1,1,11,.4,13.06q6.5,9.17,13.85,17.66c10.59,1.47,19,5.5,19.85,13a.18.18,0,0,1,0,.13l0,0c.16.69.53,4.34.53,4.46a9.12,9.12,0,0,1-.53,2.55,231.12,231.12,0,0,0,33.79,25.31c3.28-.92,7.05-1.79,9.33-1.68,3.69.17,5.59,7.37,6.24,10.45,6.5,3.33,13.17,6.38,20,9.09,10.53-4.05,20.5-4.71,24.89,1.81a.17.17,0,0,1,0,.14v0c.46.53,2.48,3.59,2.54,3.71a9.41,9.41,0,0,1,.81,3.45,230.06,230.06,0,0,0,41.7,6.57,33,33,0,0,1,6.73-5.13c3-1.41,7.45,3,9.75,5.6q11.4-.06,22.52-1.21c7.6-9,16.44-14.61,23.57-10.76a.17.17,0,0,1,.09.11.06.06,0,0,0,0,0c.65.25,3.87,2,4,2.1a9.58,9.58,0,0,1,2.68,3.31,228.94,228.94,0,0,0,39.22-13.32,30.55,30.55,0,0,1,3.35-7c1.92-2.52,7.33-1,10.67.21a227.49,227.49,0,0,0,20.42-12.16c2.52-11.78,7.76-21.25,16-21.16a.19.19,0,0,1,.13.05l0,0c.7-.08,4.37,0,4.5,0a9.73,9.73,0,0,1,4.18,1.89,232.58,232.58,0,0,0,27.6-29A29.36,29.36,0,0,1,1141,497Zm-7.74,1.37a20.9,20.9,0,0,1-13.17,10.12,218.66,218.66,0,0,1-65.25,48.23,47.59,47.59,0,0,1-5.34,6,20.84,20.84,0,0,1-16,2.93,217.15,217.15,0,0,1-73,12.56c-2.62,0-5.22-.06-7.82-.15a46.71,46.71,0,0,1-7.24,2.67,20.76,20.76,0,0,1-15.24-4.63,216.08,216.08,0,0,1-78.16-26.8,48.15,48.15,0,0,1-7.11-1,20.7,20.7,0,0,1-11.17-10.81,218.77,218.77,0,0,1-57.21-60.6,49.91,49.91,0,0,1-5.55-4,20.69,20.69,0,0,1-4.88-14.39,216.16,216.16,0,0,1-22.58-80.79,50.52,50.52,0,0,1-3-5.94,20.66,20.66,0,0,1,2.33-15,216.66,216.66,0,0,1,17.58-82.15,51.74,51.74,0,0,1,.14-6.56,20.67,20.67,0,0,1,9-12.14,218.6,218.6,0,0,1,53.64-64.29,48.54,48.54,0,0,1,3.32-6.05A20.73,20.73,0,0,1,840.5,179a216.48,216.48,0,0,1,76.84-31.79,48.79,48.79,0,0,1,6-4A20.75,20.75,0,0,1,939,144q10.61-1,21.49-1.06a217.75,217.75,0,0,1,60.57,8.55,47.54,47.54,0,0,1,7.57-.84,20.82,20.82,0,0,1,13.78,8.25,217.77,217.77,0,0,1,68.46,44.36,46.3,46.3,0,0,1,7.59,2.91,20.91,20.91,0,0,1,8.44,14.16,217.35,217.35,0,0,1,39.81,70.53,45.75,45.75,0,0,1,5.48,6.22,20.86,20.86,0,0,1,.84,16.59,219,219,0,0,1,2.48,80.66,45.27,45.27,0,0,1,2,8.21,20.92,20.92,0,0,1-7,15.11,216.79,216.79,0,0,1-35.28,72.61A45.28,45.28,0,0,1,1133.28,498.41Z"/><g id="inner"><path d="M847.34,546.64c6.17-6.19.78-73.05.78-73.05-1.44-7.92,11,57.56,3.26,72.83,11.12-3.46,15.94-24.86,14-42.44-2-18.88-19.47-44.92-19.47-44.92h0s-15.47,26.59-16.25,45.56S834.36,546.79,847.34,546.64Z"/><path d="M773.74,472.6c8.34-2.62,34.64-64.32,34.64-64.32,2.41-7.68-17,56.07-31,66,11.46,2.1,25.67-14.61,32.16-31,7-17.67,3.64-48.82,3.64-48.82h0s-26.05,16.35-35.56,32.79S762.18,466.7,773.74,472.6Z"/><path d="M743,372.83c8.61,1.56,60.57-40.86,60.57-40.86,5.7-5.68-41.12,41.74-58.09,44.06,9.17,7.18,29.52-1,42.91-12.55,14.38-12.4,25.91-41.54,25.91-41.54h0s-30.67,2.37-46.73,12.51S735.49,362.23,743,372.83Z"/><path d="M762.11,270.19c6.89,5.39,72.62-8,72.62-8,7.69-2.37-55.81,17.86-71.91,12C767.6,284.8,789.43,287,806.64,283c18.5-4.3,42.25-24.74,42.25-24.74h0s-28.25-12.15-47.19-10.64S760.4,257.33,762.11,270.19Z"/><path d="M826.75,188.21c3.6,8,68,26.63,68,26.63,7.91,1.47-57.71-10.13-69.26-22.77-.7,11.62,17.6,23.72,34.7,28.18C878.6,225,909.13,218,909.13,218h0s-19.37-23.89-36.84-31.35S831.21,176,826.75,188.21Z"/><path d="M922.08,145.65c-.51,8.73,47.86,55.2,47.86,55.2,6.33,5-46.39-35.79-50.74-52.35-6,10,4.56,29.18,17.63,41.08,14,12.78,44.36,20.72,44.36,20.72h0s-6.05-30.16-18.05-44.89S931.7,136.93,922.08,145.65Z"/><path d="M1026.27,152.27c-4.51,7.49,16.73,71.12,16.73,71.12,3.29,7.34-24.45-53.25-20.6-69.94-10,6-9.52,28-3.48,44.57,6.5,17.85,29.65,39,29.65,39h0s8.66-29.52,4.88-48.13S1038.84,149,1026.27,152.27Z"/><path d="M1115.46,206.55c-7.48,4.54-18.24,70.75-18.24,70.75-.51,8,3.09-58.52,14.26-71.5-11.63.7-21.43,20.33-23.8,37.84-2.54,18.83,8.15,48.28,8.15,48.28h0s21.38-22.11,26.69-40.35S1128.09,209.51,1115.46,206.55Z"/><path d="M1169.19,296.06c-8.72.54-49,54.16-49,54.16-4.18,6.88,29.93-50.37,45.85-56.67-10.62-4.78-28.42,8-38.65,22.45-11,15.48-15.23,46.53-15.23,46.53h0s29.21-9.64,42.38-23.33S1179,304.56,1169.19,296.06Z"/><path d="M1175.18,400.29c-8-3.58-68.58,25.18-68.58,25.18-6.9,4.15,49.91-30.69,66.94-28.88-7.18-9.17-28.9-6.09-44.66,1.92-16.94,8.6-35.1,34.12-35.1,34.12h0s30.34,5,48.36-.95S1179.92,412.37,1175.18,400.29Z"/><path d="M1132,495.36c-5.4-6.87-72.42-9.58-72.42-9.58-8,.47,58.46-4,72.69,5.54-2.1-11.45-22.76-18.82-40.44-19.05-19-.26-46.94,13.9-46.94,13.9h0s24.53,18.57,43.27,21.63S1130.63,508.27,1132,495.36Z"/><path d="M1049.67,559.5c-1.59-8.6-59.68-42.14-59.68-42.14-7.34-3.32,53.61,23.65,61.79,38.69,3.47-11.12-11.41-27.25-27-35.67-16.7-9.05-48-9.5-48-9.5h0s13.09,27.83,28.27,39.26S1042.42,570.27,1049.67,559.5Z"/><path d="M946.92,578c2.59-8.36-33.26-65-33.26-65-4.95-6.35,36.48,45.85,36.73,63,8.24-8.23,2.56-29.42-7.28-44.1C932.53,516.05,905,501.09,905,501.09h0s-1.35,30.73,6.78,47.9S935.49,584.17,946.92,578Z"/></g><g id="Flowers"><path class="cls-1" d="M740.42,264.75s21.34-22.68,8.75-42"/><path class="cls-1" d="M729.05,219.57c3.87,7,12.24,22.37,11.05,37.18a54,54,0,0,1-1.23,7.93"/><path class="cls-1" d="M734.86,219.08s15.7,18.57,6.83,45.84"/><line class="cls-1" x1="740.49" y1="265.73" x2="718.67" y2="223.39"/><path class="cls-1" d="M724.71,224.08s13.68,23,14.23,32.57"/><path class="cls-1" d="M741.53,265s-30.76,1.4-43.35-17.93"/><path class="cls-1" d="M705.85,240.7c4.81,6.34,13.69,15.86,27.58,20.54a51.93,51.93,0,0,0,7.66,1.95"/><path class="cls-1" d="M701.33,241.6s10.7,21.94,38.87,24.32"/><line class="cls-1" x1="741.4" y1="265.11" x2="715.01" y2="232.41"/><path class="cls-1" d="M709.62,234.21s15.71,21.64,24.17,25.91"/><path class="cls-1" d="M738.34,213.33s17.84,24.79,5.14,43.56"/><path d="M747.54,259.3s4.9,8.7,5.26,13.42-8.42,5.66-8.42,5.66-8.28-8.78-8.41-11.3S747.54,259.3,747.54,259.3Z"/><path class="cls-1" d="M810.53,172.68S840,162.52,837.8,139.55"/><path class="cls-1" d="M821.46,127.39c.18,8,.44,25.5-7.5,38.06a53.69,53.69,0,0,1-4.77,6.45"/><path class="cls-1" d="M826.83,129.66s5.27,23.74-15.25,43.76"/><line class="cls-1" x1="810.14" y1="173.58" x2="810.49" y2="125.95"/><path class="cls-1" d="M815.52,129.36s1.42,26.73-2.54,35.46"/><path class="cls-1" d="M811.39,173.44s-27.89-13.05-30.06-36"/><path class="cls-1" d="M791.09,135.32c1.31,7.85,4.76,20.4,14.88,31a52.16,52.16,0,0,0,5.88,5.29"/><path class="cls-1" d="M786.67,134s-.72,24.4,23.12,39.6"/><line class="cls-1" x1="811.23" y1="173.46" x2="803.06" y2="132.24"/><path class="cls-1" d="M797.45,131.33s3.85,26.46,9.36,34.17"/><path class="cls-1" d="M832.58,126.18s4.28,30.24-15.69,41"/><path d="M819.37,171.17s.3,10-1.59,14.32-10.08,1.1-10.08,1.1-3.25-11.63-2.2-13.91S819.37,171.17,819.37,171.17Z"/><path class="cls-1" d="M915.39,123.74s30.8,4.68,39.55-16.66"/><path class="cls-1" d="M946.12,88.72c-3.55,7.14-11.46,22.78-24.33,30.21a54.59,54.59,0,0,1-7.22,3.5"/><path class="cls-1" d="M949.82,93.22s-6.37,23.47-33.84,31.66"/><line class="cls-1" x1="914.63" y1="124.35" x2="937.07" y2="82.35"/><path class="cls-1" d="M939.94,87.7S928.78,112,921.22,117.92"/><path class="cls-1" d="M915.8,124.81S897.17,100.3,905.92,79"/><path class="cls-1" d="M915.55,81.63c-2.49,7.56-5.27,20.27-1.24,34.36a52.18,52.18,0,0,0,2.75,7.42"/><path class="cls-1" d="M912.24,78.42s-12,21.27,2.07,45.81"/><line class="cls-1" x1="915.65" y1="124.75" x2="927.57" y2="84.46"/><path class="cls-1" d="M923,81.05s-8.89,25.22-7.59,34.6"/><path class="cls-1" d="M956.53,92.82s-10.26,28.76-32.93,29"/><path d="M923.92,126.51s-4.37,9-8.06,11.94-9.43-3.71-9.43-3.71,2.52-11.8,4.51-13.34S923.92,126.51,923.92,126.51Z"/><path class="cls-1" d="M1031,129.14s25.09,18.45,42.76,3.62"/><path class="cls-1" d="M1074.47,112.4c-6.46,4.68-20.73,14.85-35.58,15.46a54.89,54.89,0,0,1-8-.27"/><path class="cls-1" d="M1075.66,118.11s-16.55,17.82-44.68,12.31"/><line class="cls-1" x1="1030.03" y1="129.33" x2="1069.42" y2="102.56"/><path class="cls-1" d="M1069.47,108.64s-21.18,16.35-30.62,18"/><path class="cls-1" d="M1030.85,130.28s-5.1-30.37,12.57-45.2"/><path class="cls-1" d="M1050.7,91.92c-5.72,5.54-14.09,15.5-17.07,29.85a52.18,52.18,0,0,0-1,7.84"/><path class="cls-1" d="M1049.26,87.54s-20.49,13.27-19.46,41.52"/><line class="cls-1" x1="1030.75" y1="130.16" x2="1060.03" y2="100.02"/><path class="cls-1" d="M1057.59,94.88S1038,113.09,1034.79,122"/><path class="cls-1" d="M1081.78,120.87s-22.45,20.71-42.62,10.36"/><path d="M1037.26,135.55s-8,5.91-12.69,6.83-6.63-7.67-6.63-7.67,7.72-9.28,10.2-9.71S1037.26,135.55,1037.26,135.55Z"/><path class="cls-1" d="M1130.84,187.64s13.64,28,36.18,23.08"/><path class="cls-1" d="M1177.11,193c-7.89,1.14-25.25,3.51-38.68-2.86a54.57,54.57,0,0,1-7-3.95"/><path class="cls-1" d="M1175.52,198.64s-22.94,8.08-45.29-9.87"/><line class="cls-1" x1="1129.9" y1="187.36" x2="1177.22" y2="181.96"/><path class="cls-1" d="M1174.44,187.37s-26.36,4.63-35.51,1.76"/><path class="cls-1" d="M1130.19,188.58s9.59-29.26,32.13-34.18"/><path class="cls-1" d="M1165.58,163.84c-7.63,2.25-19.68,7.18-29,18.5a51.81,51.81,0,0,0-4.54,6.48"/><path class="cls-1" d="M1166.34,159.3s-24.3,2.22-36.52,27.72"/><line class="cls-1" x1="1130.15" y1="188.43" x2="1170.08" y2="175.35"/><path class="cls-1" d="M1170.31,169.67s-25.8,7-32.79,13.41"/><path class="cls-1" d="M1179.66,203.92s-29.51,7.9-42.56-10.64"/><path d="M1133.41,196.23s-9.87,1.5-14.41.15-2.31-9.88-2.31-9.88,11.15-4.62,13.55-3.85S1133.41,196.23,1133.41,196.23Z"/><path class="cls-1" d="M1192.06,285.84s-.93,31.13,21.31,37.25"/><path class="cls-1" d="M1230.53,312.11c-7.52-2.65-24-8.62-32.93-20.5a55.21,55.21,0,0,1-4.33-6.75"/><path class="cls-1" d="M1226.51,316.34s-24.07-3.5-35.51-29.79"/><line class="cls-1" x1="1191.36" y1="285.16" x2="1235.77" y2="302.37"/><path class="cls-1" d="M1230.8,305.86s-25.5-8.15-32.26-14.94"/><path class="cls-1" d="M1191.05,286.37s22.09-21.45,44.33-15.33"/><path class="cls-1" d="M1233.89,280.91c-7.81-1.56-20.76-2.79-34.26,2.92a51.44,51.44,0,0,0-7,3.62"/><path class="cls-1" d="M1236.67,277.24s-22.55-9.32-45.22,7.58"/><line class="cls-1" x1="1191.09" y1="286.22" x2="1232.53" y2="293.19"/><path class="cls-1" d="M1235.37,288.27s-26.11-5.78-35.27-3.36"/><path class="cls-1" d="M1227.72,322.94s-29.79-6.71-32.74-29.19"/><path d="M1190.34,294.64s-9.43-3.26-12.82-6.56,2.55-9.82,2.55-9.82,12,1.08,13.78,2.88S1190.34,294.64,1190.34,294.64Z"/><path class="cls-1" d="M1200.64,401.24s-15.3,27.13,1.56,42.89"/><path class="cls-1" d="M1222.49,442.39c-5.42-5.85-17.24-18.8-19.63-33.46a56.11,56.11,0,0,1-.7-8"/><path class="cls-1" d="M1217,444.26s-19.69-14.28-17.61-42.88"/><line class="cls-1" x1="1200.34" y1="400.31" x2="1231.66" y2="436.19"/><path class="cls-1" d="M1225.63,437s-18.79-19.06-21.62-28.22"/><path class="cls-1" d="M1199.49,401.24s29.53-8.73,46.38,7"/><path class="cls-1" d="M1240,416.32c-6.18-5-17.09-12.12-31.69-13.34a52.55,52.55,0,0,0-7.91-.07"/><path class="cls-1" d="M1244.13,414.36s-15.63-18.74-43.56-14.3"/><line class="cls-1" x1="1199.6" y1="401.12" x2="1233.05" y2="426.56"/><path class="cls-1" d="M1237.85,423.52s-20.43-17.25-29.66-19.36"/><path class="cls-1" d="M1215,450.67s-23.26-19.79-15.42-41.06"/><path d="M1195,408.24s-6.84-7.27-8.31-11.77,6.82-7.51,6.82-7.51,10.14,6.54,10.87,9S1195,408.24,1195,408.24Z"/><path class="cls-1" d="M1154.6,507.41s-26.15,16.92-18.55,38.7"/><path class="cls-1" d="M1154.83,554c-2.09-7.7-6.53-24.65-1.83-38.75a54.31,54.31,0,0,1,3.09-7.4"/><path class="cls-1" d="M1149.07,553.09s-10.79-21.79,4.34-46.14"/><line class="cls-1" x1="1154.76" y1="506.45" x2="1165.82" y2="552.77"/><path class="cls-1" d="M1160.12,550.67s-7.77-25.61-6-35"/><path class="cls-1" d="M1153.59,506.88s30.2,6,37.8,27.78"/><path class="cls-1" d="M1182.41,539c-3.15-7.31-9.5-18.67-21.86-26.54a51.78,51.78,0,0,0-7-3.73"/><path class="cls-1" d="M1187,539.24s-5.13-23.86-31.92-32.91"/><line class="cls-1" x1="1153.73" y1="506.83" x2="1171.53" y2="544.89"/><path class="cls-1" d="M1177.2,544.44s-10.08-24.78-17.27-30.94"/><path class="cls-1" d="M1144.32,557.84s-11.4-28.34,5.43-43.53"/><path d="M1146.38,511s-2.68-9.62-1.89-14.29,9.53-3.47,9.53-3.47,5.94,10.5,5.46,13S1146.38,511,1146.38,511Z"/><path class="cls-1" d="M1064.5,580s-31,2.82-34.42,25.64"/><path class="cls-1" d="M1043.05,621.39c1.73-7.79,5.67-24.87,16.38-35.16a53.46,53.46,0,0,1,6.18-5.12"/><path class="cls-1" d="M1038.37,617.9s.57-24.31,25.29-38.84"/><line class="cls-1" x1="1065.09" y1="579.25" x2="1053.35" y2="625.41"/><path class="cls-1" d="M1049.29,620.89s5-26.29,10.94-33.82"/><path class="cls-1" d="M1063.85,579.08s24,19.35,20.56,42.17"/><path class="cls-1" d="M1074.43,621c.6-7.94.26-21-7-33.66a51.6,51.6,0,0,0-4.44-6.55"/><path class="cls-1" d="M1078.41,623.27s6.54-23.51-13-44"/><line class="cls-1" x1="1064" y1="579.11" x2="1062.07" y2="621.08"/><path class="cls-1" d="M1067.3,623.31s2.59-26.62-.91-35.41"/><path class="cls-1" d="M1032,619.9s3.08-30.39,25-36"/><path d="M1055.55,579.38s2.1-9.76,5-13.52,10,1.35,10,1.35.38,12.06-1.19,14S1055.55,579.38,1055.55,579.38Z"/><path class="cls-1" d="M951,602.45s-28.78-11.91-42.39,6.72"/><path class="cls-1" d="M912.76,629.11c5.15-6.09,16.57-19.38,30.84-23.52a54.26,54.26,0,0,1,7.85-1.67"/><path class="cls-1" d="M910.23,623.85S922,602.58,950.67,601.2"/><line class="cls-1" x1="951.85" y1="602.04" x2="920.01" y2="637.46"/><path class="cls-1" d="M918.51,631.57s16.66-21,25.41-24.86"/><path class="cls-1" d="M950.83,601.31s12.22,28.27-1.39,46.89"/><path class="cls-1" d="M940.74,643.31c4.23-6.75,10-18.43,9.42-33.07a52.1,52.1,0,0,0-.89-7.86"/><path class="cls-1" d="M943.19,647.21s16.71-17.78,8.95-45"/><line class="cls-1" x1="950.96" y1="601.41" x2="929.74" y2="637.68"/><path class="cls-1" d="M933.33,642.08S948,619.72,949,610.3"/><path class="cls-1" d="M903.63,622.63s16.84-25.47,38.9-20.25"/><path d="M943.35,597.72s6.39-7.66,10.68-9.66,8.27,5.86,8.27,5.86-5.27,10.86-7.57,11.87S943.35,597.72,943.35,597.72Z"/><path class="cls-1" d="M840,569.55s-19.95-23.92-40.65-13.75"/><path class="cls-1" d="M793.8,575.39c7.39-3,23.68-9.45,38.24-6.49a55.71,55.71,0,0,1,7.73,2.17"/><path class="cls-1" d="M794,569.56s20.33-13.34,46.33-1.25"/><line class="cls-1" x1="841" y1="569.59" x2="796.34" y2="586.16"/><path class="cls-1" d="M797.75,580.24s24.48-10.8,34-10.2"/><path class="cls-1" d="M840.43,568.48s-2.31,30.7-23,40.87"/><path class="cls-1" d="M812,601c6.87-4,17.39-11.68,23.71-24.9a52.72,52.72,0,0,0,2.86-7.37"/><path class="cls-1" d="M812.33,605.56s23.07-8,28.82-35.66"/><line class="cls-1" x1="840.5" y1="568.62" x2="804.86" y2="590.87"/><path class="cls-1" d="M806,596.44s23.38-13,28.63-20.87"/><path class="cls-1" d="M788.72,565.42s26.76-14.73,43.87.14"/><path d="M835.47,561.82s9.22-3.82,13.95-3.6,4.6,9,4.6,9-9.71,7.16-12.22,7S835.47,561.82,835.47,561.82Z"/><path class="cls-1" d="M757.08,488.86s-6.55-30.46-29.61-31.08"/><path class="cls-1" d="M713.43,472.55c7.94.78,25.37,2.63,36.88,12a54.58,54.58,0,0,1,5.83,5.52"/><path class="cls-1" d="M716.33,467.48s24.2-2.36,41.6,20.42"/><line class="cls-1" x1="757.92" y1="489.35" x2="710.68" y2="483.26"/><path class="cls-1" d="M714.67,478.68s26.71,1.81,34.9,6.79"/><path class="cls-1" d="M757.93,488.09s-16.31,26.12-39.37,25.5"/><path class="cls-1" d="M717.64,503.64c8-.35,20.83-2.26,32.57-11a50.88,50.88,0,0,0,6-5.19"/><path class="cls-1" d="M715.82,507.87s24.13,3.66,42.09-18.17"/><line class="cls-1" x1="757.93" y1="488.25" x2="716.03" y2="491.39"/><path class="cls-1" d="M714.45,496.85s26.73-.63,35-5.17"/><path class="cls-1" d="M713.57,461.36s30.54-.61,38.77,20.51"/><path d="M756.64,479.9s9.94.9,14,3.3-.12,10.14-.12,10.14-11.93,1.82-14.08.5S756.64,479.9,756.64,479.9Z"/><path class="cls-1" d="M721.13,378.86s8.36-30-11.78-41.27"/><path class="cls-1" d="M690.06,344.13c6.67,4.38,21.24,14.13,27.07,27.79a55.13,55.13,0,0,1,2.6,7.59"/><path class="cls-1" d="M695,341s22.53,9.16,27.35,37.42"/><line class="cls-1" x1="721.65" y1="379.68" x2="682.65" y2="352.34"/><path class="cls-1" d="M688.31,350.14s22.81,14,27.75,22.23"/><path class="cls-1" d="M722.24,378.58s-26.58,15.54-46.71,4.28"/><path class="cls-1" d="M679.34,373.63c7.2,3.38,19.49,7.67,34,5.37a54,54,0,0,0,7.7-1.84"/><path class="cls-1" d="M675.76,376.52S695.43,391,721.48,380"/><line class="cls-1" x1="722.17" y1="378.72" x2="683.6" y2="362.03"/><path class="cls-1" d="M679.67,366.13s24,11.86,33.43,11.7"/><path class="cls-1" d="M695.39,334.29s27.32,13.65,24.8,36.18"/><path d="M724.91,370.72s8.37,5.42,10.88,9.44-4.83,8.92-4.83,8.92-11.41-3.93-12.69-6.09S724.91,370.72,724.91,370.72Z"/></g><g id="Outer"><path d="M1170.61,445.41c8.38,2.69,37.29,74.47,37.29,74.47,2.37,7.75-19.61-66.05-33.57-76.14,11.54-2,25.73,14.88,32.14,31.47,6.9,17.83,3.33,49.16,3.33,49.16h0s-26.11-16.63-35.57-33.25S1158.93,451.26,1170.61,445.41Z"/><path d="M1106.92,533.85c6.17,6.27-1.59,83.27-1.59,83.27-1.5,8,13.33-67.59,5.65-83,11.17,3.56,15.87,25.14,13.84,42.81-2.18,19-19.9,45.07-19.9,45.07h0s-15.38-26.86-16-46S1093.86,533.61,1106.92,533.85Z"/><path d="M1009.42,582.56c2.55,8.42-40.11,73-40.11,73-5,6.35,43.22-53.66,43.59-70.89,8.24,8.35,2.37,29.63-7.64,44.34-10.75,15.8-38.56,30.66-38.56,30.66h0s-1.14-30.94,7.16-48.16S998,576.28,1009.42,582.56Z"/><path d="M900.45,580.38c-1.66,8.65-69.43,46-69.43,46-7.4,3.29,63.2-27.43,71.54-42.51,3.41,11.22-11.68,27.34-27.37,35.71-16.87,9-48.4,9.23-48.4,9.23h0s13.37-27.93,28.72-39.32S893.23,569.5,900.45,580.38Z"/><path d="M805,527.81c-5.49,6.89-82.86,8.47-82.86,8.47-8.08-.53,68.71,5.08,83.1-4.4-2.19,11.52-23,18.78-40.83,18.9-19.11.12-47.14-14.32-47.14-14.32h0S742.06,518,761,515,803.64,514.82,805,527.81Z"/><path d="M744.87,436.9c-8,3.55-77.3-31-77.3-31-6.91-4.23,58.48,36.43,75.63,34.72-7.3,9.18-29.13,5.93-44.94-2.24-17-8.77-35.09-34.59-35.09-34.59h0s30.58-4.86,48.67,1.31S749.73,424.78,744.87,436.9Z"/><path d="M733.9,328.47c-8.78-.61-54-63.39-54-63.39-4.16-6.95,34.84,59.44,50.82,65.9-10.72,4.73-28.55-8.3-38.75-22.87-11-15.66-15-46.93-15-46.93h0s29.33,9.9,42.49,23.77S743.83,320,733.9,328.47Z"/><path d="M774.58,227.35c-7.5-4.61-18.39-81.23-18.39-81.23-.45-8.09,3.23,68.82,14.38,82-11.7-.78-21.43-20.61-23.68-38.25-2.43-19,8.53-48.53,8.53-48.53h0s21.37,22.4,26.57,40.8S787.31,224.46,774.58,227.35Z"/><path d="M857.58,156.73c-4.49-7.57,21.47-80.48,21.47-80.48,3.36-7.37-29.12,62.44-25.36,79.26-10-6.13-9.39-28.21-3.19-44.88,6.66-17.91,30.11-39,30.11-39h0s8.51,29.76,4.57,48.47S870.2,160.08,857.58,156.73Z"/><path d="M963.9,132.76c-.45-8.79,56.41-61.28,56.41-61.28,6.4-5-54.8,41.76-59.28,58.4-6-10.07,4.79-29.34,18-41.22,14.23-12.77,44.79-20.54,44.79-20.54h0s-6.3,30.31-18.48,45S973.52,141.6,963.9,132.76Z"/><path d="M1069.18,161c3.68-8,78.43-28,78.43-28,8-1.42-67.93,11.51-79.64,24.15-.62-11.7,17.88-23.75,35.12-28.12,18.53-4.69,49.2,2.63,49.2,2.63h0s-19.66,23.91-37.29,31.29S1073.59,173.25,1069.18,161Z"/><path d="M1149.3,234.84c7-5.37,82.47,11.62,82.47,11.62,7.73,2.44-65.49-21.38-81.73-15.63,4.88-10.65,26.87-12.72,44.16-8.57,18.59,4.45,42.35,25.18,42.35,25.18h0s-28.52,12-47.57,10.39S1147.49,247.78,1149.3,234.84Z"/><path d="M1185.9,337.5c8.67-1.51,67.63,48.61,67.63,48.61,5.7,5.76-48-49.37-65.11-51.82,9.28-7.16,29.7,1.22,43.09,12.93,14.39,12.59,25.79,42,25.79,42h0s-30.84-2.59-46.94-12.91S1178.29,348.11,1185.9,337.5Z"/></g><path d="M946.92,578c2.59-8.36-33.26-65-33.26-65-4.95-6.35,36.48,45.85,36.73,63,8.24-8.23,2.56-29.42-7.28-44.1C932.53,516.05,905,501.09,905,501.09h0s-1.35,30.73,6.78,47.9S935.49,584.17,946.92,578Z"/><path class="cls-1" d="M721.13,378.86s8.36-30-11.78-41.27"/><path class="cls-1" d="M690.06,344.13c6.67,4.38,21.24,14.13,27.07,27.79a55.13,55.13,0,0,1,2.6,7.59"/><path class="cls-1" d="M695,341s22.53,9.16,27.35,37.42"/><line class="cls-1" x1="721.65" y1="379.68" x2="682.65" y2="352.34"/><path class="cls-1" d="M688.31,350.14s22.81,14,27.75,22.23"/><path class="cls-1" d="M722.24,378.58s-26.58,15.54-46.71,4.28"/><path class="cls-1" d="M679.34,373.63c7.2,3.38,19.49,7.67,34,5.37a54,54,0,0,0,7.7-1.84"/><path class="cls-1" d="M675.76,376.52S695.43,391,721.48,380"/><line class="cls-1" x1="722.17" y1="378.72" x2="683.6" y2="362.03"/><path class="cls-1" d="M679.67,366.13s24,11.86,33.43,11.7"/><path class="cls-1" d="M695.39,334.29s27.32,13.65,24.8,36.18"/><path d="M724.91,370.72s8.37,5.42,10.88,9.44-4.83,8.92-4.83,8.92-11.41-3.93-12.69-6.09S724.91,370.72,724.91,370.72Z"/><path d="M1185.9,337.5c8.67-1.51,67.63,48.61,67.63,48.61,5.7,5.76-48-49.37-65.11-51.82,9.28-7.16,29.7,1.22,43.09,12.93,14.39,12.59,25.79,42,25.79,42h0s-30.84-2.59-46.94-12.91S1178.29,348.11,1185.9,337.5Z"/></g><g id="blackBEEG"><path class="cls-2" d="M1031.5,460.67A90,90,0,0,0,1051.43,441a73.12,73.12,0,0,0,14.32-45.33H851.93A73.12,73.12,0,0,0,866.25,441a90.22,90.22,0,0,0,19.92,19.64Z"/><path class="cls-3" d="M889.13,395.38a73.14,73.14,0,0,0,14.32,45.34,90,90,0,0,0,19.93,19.64"/><path class="cls-3" d="M1032.6,395.7A73.21,73.21,0,0,1,1018.27,441a90.22,90.22,0,0,1-19.92,19.64"/><path class="cls-3" d="M924.59,392a73.17,73.17,0,0,0,14.32,45.33A89.87,89.87,0,0,0,958.84,457"/><path class="cls-3" d="M997.21,392a73.1,73.1,0,0,1-14.32,45.33A89.87,89.87,0,0,1,963,457"/><line class="cls-4" x1="930.74" y1="227.84" x2="990.15" y2="227.84"/><line class="cls-5" x1="960.44" y1="259.34" x2="960.44" y2="482.68"/><path class="cls-6" d="M960.44,241.72s-85,2.19-85,13.13"/><path class="cls-6" d="M956.38,240.61s85,2.19,85,13.13"/><line class="cls-6" x1="875.43" y1="263.53" x2="1041.31" y2="263.53"/><line class="cls-6" x1="881.24" y1="253.74" x2="1035.65" y2="253.74"/><line class="cls-1" x1="882.58" y1="289.37" x2="883.71" y2="309.24"/><line class="cls-1" x1="881.24" y1="281.94" x2="881.24" y2="263.55"/><line class="cls-1" x1="884.77" y1="318.02" x2="889.02" y2="338.54"/><path class="cls-1" d="M891.5,348.44A150.9,150.9,0,0,0,900,366.13"/><path class="cls-1" d="M904.58,377.1s9.55,12,12.38,14.14"/><line class="cls-1" x1="917.32" y1="279.82" x2="916.96" y2="264.97"/><line class="cls-1" x1="917.67" y1="309.89" x2="917.32" y2="289.37"/><line class="cls-1" x1="919.09" y1="337.48" x2="918.73" y2="319.09"/><path class="cls-1" d="M924.74,367.54s-3.89-15.21-3.89-20.51"/><line class="cls-1" x1="925.81" y1="377.1" x2="933.59" y2="392.31"/><ellipse class="cls-1" cx="881.98" cy="284.9" rx="6.93" ry="9.43" transform="translate(-21.43 77.74) rotate(-4.99)"/><ellipse class="cls-1" cx="884.52" cy="313.76" rx="6.82" ry="9.43" transform="translate(-36.84 135.12) rotate(-8.56)"/><ellipse class="cls-1" cx="890.03" cy="342.97" rx="6.49" ry="9.43" transform="translate(-62.18 287.53) rotate(-17.74)"/><ellipse class="cls-1" cx="902.17" cy="371.25" rx="6.59" ry="9.43" transform="translate(-64.76 500.82) rotate(-30)"/><ellipse class="cls-1" cx="917.83" cy="393.28" rx="6.66" ry="8.25" transform="translate(-56.44 612.07) rotate(-35.85)"/><ellipse class="cls-1" cx="917.87" cy="284.93" rx="6.93" ry="9.43" transform="translate(-14.15 50.38) rotate(-3.12)"/><ellipse class="cls-1" cx="918.49" cy="313.39" rx="6.93" ry="9.43" transform="translate(-13.81 43.83) rotate(-2.71)"/><ellipse class="cls-1" cx="920.96" cy="342.47" rx="6.93" ry="9.43" transform="translate(-38.34 129.85) rotate(-7.9)"/><ellipse class="cls-1" cx="925.87" cy="371.54" rx="6.76" ry="9.07" transform="translate(-68.74 293.9) rotate(-17.4)"/><line class="cls-1" x1="941.57" y1="412.76" x2="978.08" y2="413.07"/><line class="cls-1" x1="1039.97" y1="289.85" x2="1038.83" y2="309.71"/><line class="cls-1" x1="1041.31" y1="282.42" x2="1041.31" y2="264.03"/><line class="cls-1" x1="1037.77" y1="318.5" x2="1033.53" y2="339.02"/><path class="cls-1" d="M1031.05,348.92a150.74,150.74,0,0,1-8.49,17.69"/><path class="cls-1" d="M1018,377.57s-9.55,12-12.38,14.15"/><line class="cls-7" x1="1005.23" y1="280.3" x2="1005.58" y2="265.44"/><line class="cls-1" x1="1004.88" y1="310.37" x2="1005.23" y2="289.85"/><line class="cls-1" x1="1003.46" y1="337.96" x2="1003.82" y2="319.56"/><path class="cls-1" d="M997.8,368s3.89-15.21,3.89-20.51"/><line class="cls-1" x1="996.74" y1="377.57" x2="988.96" y2="392.78"/><ellipse class="cls-1" cx="1040.56" cy="285.37" rx="9.43" ry="6.93" transform="translate(665.82 1297.19) rotate(-85.01)"/><ellipse class="cls-1" cx="1038.02" cy="314.24" rx="9.43" ry="6.82" transform="translate(572.81 1293.94) rotate(-81.44)"/><ellipse class="cls-1" cx="1032.51" cy="343.45" rx="9.43" ry="6.49" transform="translate(390.76 1222.19) rotate(-72.26)"/><ellipse class="cls-1" cx="1020.38" cy="371.73" rx="9.43" ry="6.59" transform="translate(188.26 1069.54) rotate(-60)"/><ellipse class="cls-1" cx="1004.68" cy="285.41" rx="9.43" ry="6.93" transform="translate(665.02 1273.06) rotate(-86.88)"/><ellipse class="cls-1" cx="1004.06" cy="313.87" rx="9.43" ry="6.93" transform="translate(643.01 1301.95) rotate(-87.29)"/><ellipse class="cls-1" cx="1001.59" cy="342.95" rx="9.43" ry="6.93" transform="translate(524.2 1287.89) rotate(-82.1)"/><ellipse class="cls-1" cx="996.68" cy="372.01" rx="9.07" ry="6.76" transform="translate(343.62 1211.82) rotate(-72.6)"/><line class="cls-1" x1="1020.61" y1="295.96" x2="1019.4" y2="317.09"/><line class="cls-1" x1="1022.04" y1="288.06" x2="1022.04" y2="268.49"/><line class="cls-1" x1="1018.27" y1="326.44" x2="1013.76" y2="348.26"/><path class="cls-1" d="M1011.12,358.8a159.66,159.66,0,0,1-9,18.81"/><line class="cls-7" x1="983.65" y1="285.8" x2="984.03" y2="270"/><line class="cls-1" x1="983.28" y1="317.78" x2="983.65" y2="295.96"/><line class="cls-1" x1="981.77" y1="347.14" x2="982.15" y2="327.57"/><path class="cls-1" d="M975.75,379.12s4.14-16.18,4.14-21.82"/><line class="cls-1" x1="974.62" y1="389.28" x2="966.35" y2="405.46"/><ellipse class="cls-1" cx="1021.24" cy="291.2" rx="10.03" ry="7.37" transform="translate(642.38 1283.26) rotate(-85.01)"/><ellipse class="cls-1" cx="1018.54" cy="321.91" rx="10.03" ry="7.26" transform="matrix(0.15, -0.99, 0.99, 0.15, 548.64, 1281.2)"/><ellipse class="cls-1" cx="1012.68" cy="352.98" rx="10.03" ry="6.9" transform="translate(367.89 1209.93) rotate(-72.26)"/><ellipse class="cls-1" cx="999.77" cy="383.06" rx="10.03" ry="7.01" transform="translate(168.14 1057.36) rotate(-60)"/><ellipse class="cls-1" cx="983.11" cy="406.49" rx="8.78" ry="7.09" transform="translate(77.84 965.26) rotate(-54.15)"/><ellipse class="cls-1" cx="983.07" cy="291.23" rx="10.03" ry="7.37" transform="translate(638.76 1256.99) rotate(-86.88)"/><ellipse class="cls-1" cx="982.41" cy="321.51" rx="10.03" ry="7.37" transform="translate(614.75 1287.6) rotate(-87.29)"/><ellipse class="cls-1" cx="979.78" cy="352.45" rx="10.03" ry="7.37" transform="translate(495.99 1274.47) rotate(-82.1)"/><ellipse class="cls-1" cx="974.56" cy="383.37" rx="9.65" ry="7.19" transform="translate(317.28 1198.67) rotate(-72.6)"/><line class="cls-1" x1="901.46" y1="295.91" x2="902.69" y2="317.37"/><line class="cls-1" x1="900.01" y1="287.89" x2="900.01" y2="268.01"/><line class="cls-1" x1="903.83" y1="326.87" x2="908.42" y2="349.03"/><path class="cls-1" d="M911.09,359.73a163.06,163.06,0,0,0,9.18,19.11"/><line class="cls-1" x1="938.99" y1="285.59" x2="938.61" y2="269.54"/><line class="cls-1" x1="939.38" y1="318.08" x2="938.99" y2="295.91"/><line class="cls-1" x1="940.9" y1="347.89" x2="940.52" y2="328.01"/><path class="cls-1" d="M947,380.37s-4.21-16.43-4.21-22.16"/><line class="cls-1" x1="948.17" y1="390.69" x2="956.57" y2="407.12"/><ellipse class="cls-1" cx="900.82" cy="291.07" rx="7.48" ry="10.19" transform="translate(-21.89 79.4) rotate(-4.99)"/><ellipse class="cls-1" cx="903.56" cy="322.26" rx="7.37" ry="10.19" transform="translate(-37.9 138.05) rotate(-8.56)"/><ellipse class="cls-1" cx="909.52" cy="353.82" rx="7.01" ry="10.19" transform="translate(-64.56 293.99) rotate(-17.74)"/><ellipse class="cls-1" cx="922.63" cy="384.38" rx="7.12" ry="10.19" transform="translate(-68.58 512.81) rotate(-30)"/><ellipse class="cls-1" cx="939.54" cy="408.17" rx="7.2" ry="8.92" transform="translate(-61.05 627.62) rotate(-35.85)"/><ellipse class="cls-1" cx="939.59" cy="291.11" rx="7.48" ry="10.19" transform="translate(-14.45 51.57) rotate(-3.12)"/><ellipse class="cls-1" cx="940.26" cy="321.86" rx="7.48" ry="10.19" transform="translate(-14.18 44.87) rotate(-2.71)"/><ellipse class="cls-1" cx="942.93" cy="353.28" rx="7.48" ry="10.19" transform="translate(-39.61 132.98) rotate(-7.9)"/><ellipse class="cls-1" cx="948.23" cy="384.68" rx="7.3" ry="9.8" transform="matrix(0.95, -0.3, 0.3, 0.95, -71.65, 301.19)"/><line class="cls-4" x1="982.15" y1="247.17" x2="959.82" y2="247.98"/></g><g id="TextLayer"><g id="Bottom_Text" data-name="Bottom Text"><path class="cls-8" d="M799.24,536.46H780l-3.09,9h-14.4l19.77-51.94H797l19.77,51.94h-14.4Zm-3.58-10.26-6.06-17.29-6.06,17.29Z"/><path class="cls-8" d="M833.89,493.55v28.24c0,1.52.05,3.07.17,4.65a12.74,12.74,0,0,0,1,4.31,7.14,7.14,0,0,0,2.72,3.13,9.65,9.65,0,0,0,5.24,1.21,9.45,9.45,0,0,0,5.2-1.21,7.54,7.54,0,0,0,2.72-3.13,12.3,12.3,0,0,0,1.06-4.31q.18-2.37.18-4.65V493.55h13.43v30.1q0,12.12-5.55,17.7t-17,5.58q-11.5,0-17.09-5.58t-5.57-17.7v-30.1Z"/><path class="cls-8" d="M913.09,510.91a14.41,14.41,0,0,0-11.57-5.72,14.21,14.21,0,0,0-5.61,1.1,13.5,13.5,0,0,0-7.37,7.51,14.87,14.87,0,0,0-1.07,5.65,15.05,15.05,0,0,0,1.07,5.72,13.88,13.88,0,0,0,3,4.54,13.84,13.84,0,0,0,10,4.14q6.48,0,11.64-5.51v16l-1.37.49a41.44,41.44,0,0,1-5.79,1.62,28.38,28.38,0,0,1-5.3.51,27.09,27.09,0,0,1-19-7.75,28.52,28.52,0,0,1-6-8.74,28.08,28.08,0,0,1,0-22.05,27.1,27.1,0,0,1,14.71-14.25,27,27,0,0,1,10.4-2,28.25,28.25,0,0,1,6.09.65,36.94,36.94,0,0,1,6.3,2Z"/><path class="cls-8" d="M936.51,515,953,493.55h16.67l-20.59,24.59,22.52,27.35h-17.5L936.51,523v22.53H923V493.55h13.5Z"/><path class="cls-8" d="M990.23,493.55v40.5h16.19v11.44H976.73V493.55Z"/><path class="cls-8" d="M1046.51,536.46h-19.29l-3.1,9h-14.39l19.76-51.94h14.74L1064,545.49h-14.39Zm-3.59-10.26-6.06-17.29-6.06,17.29Z"/><path class="cls-8" d="M1069.1,545.49V493.55h13.5l24.93,31.76V493.55H1121v51.94h-13.43l-24.93-31.76v31.76Z"/><path class="cls-8" d="M1131,493.55h20a23.41,23.41,0,0,1,10,2.14,27.16,27.16,0,0,1,8.13,5.68,26.35,26.35,0,0,1,5.48,8.27,25.41,25.41,0,0,1,0,19.69,26.15,26.15,0,0,1-5.44,8.3,26.75,26.75,0,0,1-8.13,5.72,23.78,23.78,0,0,1-10,2.14h-20Zm13.5,40.5h3.1a16.8,16.8,0,0,0,6.26-1.1,13.21,13.21,0,0,0,4.65-3,13,13,0,0,0,2.9-4.58,16.54,16.54,0,0,0,1-5.82,16,16,0,0,0-1-5.79,12.94,12.94,0,0,0-7.57-7.64,16.5,16.5,0,0,0-6.2-1.1h-3.1Z"/><path class="cls-8" d="M768.42,567h14a16.59,16.59,0,0,1,7,1.49,19.11,19.11,0,0,1,5.69,4,18.56,18.56,0,0,1,3.83,5.79,17.61,17.61,0,0,1,1.4,6.92,17.81,17.81,0,0,1-1.37,6.87,18.53,18.53,0,0,1-3.81,5.81,18.94,18.94,0,0,1-5.69,4,16.56,16.56,0,0,1-7,1.49h-14Zm9.45,28.35H780a11.85,11.85,0,0,0,4.39-.77,9.44,9.44,0,0,0,3.25-2.12,9.06,9.06,0,0,0,2-3.21,11.63,11.63,0,0,0,.7-4.07,11,11,0,0,0-.73-4,9.15,9.15,0,0,0-2-3.23,9.37,9.37,0,0,0-3.25-2.13A11.69,11.69,0,0,0,780,575h-2.17Z"/><path class="cls-8" d="M815.19,567v36.35h-9.45V567Z"/><path class="cls-8" d="M842.19,576.3a11.55,11.55,0,0,0-3.09-1.86,8.21,8.21,0,0,0-3-.6,4.91,4.91,0,0,0-3,.86A2.71,2.71,0,0,0,832,577a2.24,2.24,0,0,0,.58,1.59,5.06,5.06,0,0,0,1.51,1.09,13.17,13.17,0,0,0,2.13.79c.78.23,1.56.47,2.33.72a14.59,14.59,0,0,1,6.78,4.13,10.16,10.16,0,0,1,2.14,6.72,13.09,13.09,0,0,1-.94,5.07,10.46,10.46,0,0,1-2.75,3.88,12.64,12.64,0,0,1-4.43,2.5,18.34,18.34,0,0,1-6,.9,21.91,21.91,0,0,1-12.77-4.1l4-7.62a16.47,16.47,0,0,0,4.19,2.8,10.08,10.08,0,0,0,4.1.91,4.9,4.9,0,0,0,3.45-1.06,3.28,3.28,0,0,0,.84-3.83,3.08,3.08,0,0,0-1-1.11,7.73,7.73,0,0,0-1.76-.94c-.73-.29-1.6-.61-2.63-1-1.22-.38-2.42-.81-3.59-1.27a11.44,11.44,0,0,1-3.14-1.86,8.58,8.58,0,0,1-2.21-2.92,10.19,10.19,0,0,1-.85-4.46A13,13,0,0,1,823,573a10.89,10.89,0,0,1,2.51-3.76,11.16,11.16,0,0,1,4-2.43,14.86,14.86,0,0,1,5.23-.87,23.26,23.26,0,0,1,5.64.74,24.72,24.72,0,0,1,5.64,2.2Z"/><path class="cls-8" d="M879,579.14a10.09,10.09,0,0,0-8.1-4,10,10,0,0,0-3.93.77,9.28,9.28,0,0,0-3.11,2.1,9.44,9.44,0,0,0-2.05,3.15,10.94,10.94,0,0,0,0,8,9.62,9.62,0,0,0,5.18,5.3,9.51,9.51,0,0,0,3.86.77,11,11,0,0,0,8.15-3.85v11.18l-1,.34a28.54,28.54,0,0,1-4,1.13,19.69,19.69,0,0,1-3.71.37A19,19,0,0,1,857,598.93a19.78,19.78,0,0,1-4.22-6.12,19.68,19.68,0,0,1,0-15.43,19,19,0,0,1,10.3-10A19,19,0,0,1,870.3,566a20.2,20.2,0,0,1,4.26.45,26.87,26.87,0,0,1,4.42,1.43Z"/><path class="cls-8" d="M917.88,583h18.76a52.13,52.13,0,0,1-.24,5.25,18.18,18.18,0,0,1-1,4.39,17.47,17.47,0,0,1-2.74,5,16.15,16.15,0,0,1-4.08,3.66,19.06,19.06,0,0,1-5.13,2.24,21.87,21.87,0,0,1-5.89.78,20.69,20.69,0,0,1-7.73-1.4,17.42,17.42,0,0,1-6-3.93A17.75,17.75,0,0,1,900,593a21.18,21.18,0,0,1-1.4-7.83,21.5,21.5,0,0,1,1.37-7.79,17.12,17.12,0,0,1,3.91-6.05,17.74,17.74,0,0,1,6.1-3.9,21.47,21.47,0,0,1,8-1.4,19.69,19.69,0,0,1,10,2.46,17,17,0,0,1,6.8,7.61l-9,3.72a9.11,9.11,0,0,0-3.25-4.3,8.22,8.22,0,0,0-4.56-1.3,9.11,9.11,0,0,0-3.85.8,8.45,8.45,0,0,0-3,2.26,11.1,11.1,0,0,0-1.93,3.55,14.57,14.57,0,0,0-.7,4.63,14.4,14.4,0,0,0,.61,4.29,9.64,9.64,0,0,0,1.8,3.42,8.13,8.13,0,0,0,3,2.24,10.11,10.11,0,0,0,4.15.8,11.47,11.47,0,0,0,2.7-.31,7.06,7.06,0,0,0,2.34-1,5.78,5.78,0,0,0,1.71-1.8,7.23,7.23,0,0,0,.92-2.7h-7.77Z"/><path class="cls-8" d="M940.4,585.17a19.12,19.12,0,0,1,1.49-7.55,18.64,18.64,0,0,1,10.49-10.17,23.11,23.11,0,0,1,16.22,0,19.15,19.15,0,0,1,6.39,4.07,18.51,18.51,0,0,1,4.17,6.1,19.73,19.73,0,0,1,0,15.09,18.4,18.4,0,0,1-4.17,6.1,19.17,19.17,0,0,1-6.39,4.08,23.11,23.11,0,0,1-16.22,0,19.05,19.05,0,0,1-6.34-4.08,18.81,18.81,0,0,1-4.15-6.1A19.07,19.07,0,0,1,940.4,585.17Zm9.88,0a9.8,9.8,0,0,0,.82,4,10.23,10.23,0,0,0,2.22,3.18,10.1,10.1,0,0,0,3.25,2.1,10.51,10.51,0,0,0,11.14-2.1,9.81,9.81,0,0,0,2.24-3.18,10.19,10.19,0,0,0,0-8,9.81,9.81,0,0,0-2.24-3.18,10.15,10.15,0,0,0-3.28-2.09,10.67,10.67,0,0,0-7.86,0,9.91,9.91,0,0,0-3.25,2.09,10.23,10.23,0,0,0-2.22,3.18A9.85,9.85,0,0,0,950.28,585.17Z"/><path class="cls-8" d="M995.51,567v28.35h11.33v8H986.06V567Z"/><path class="cls-8" d="M1032,575h-11.38v6.08h10.36v8h-10.36v14.27h-9.45V567H1032Z"/><path class="cls-8" d="M1079,579.14a10.26,10.26,0,0,0-12-3.23,9.39,9.39,0,0,0-5.15,5.25,10.94,10.94,0,0,0,0,8,9.64,9.64,0,0,0,9,6.07,10.92,10.92,0,0,0,8.14-3.85v11.18l-1,.34a28.54,28.54,0,0,1-4,1.13,19.69,19.69,0,0,1-3.71.37,19.06,19.06,0,0,1-13.29-5.43,19.92,19.92,0,0,1-4.21-6.12,19.57,19.57,0,0,1,0-15.43,19,19,0,0,1,4.2-6,19.32,19.32,0,0,1,6.09-4,19,19,0,0,1,7.29-1.42,20.27,20.27,0,0,1,4.26.45,26.48,26.48,0,0,1,4.41,1.43Z"/><path class="cls-8" d="M1093.86,567v28.35h11.33v8h-20.78V567Z"/><path class="cls-8" d="M1118.26,567v19.77c0,1.06,0,2.14.12,3.25a9,9,0,0,0,.72,3,5,5,0,0,0,1.91,2.19,6.74,6.74,0,0,0,3.66.84,6.6,6.6,0,0,0,3.64-.84,5.24,5.24,0,0,0,1.91-2.19,8.76,8.76,0,0,0,.74-3c.08-1.11.13-2.19.13-3.25V567h9.4v21.07q0,8.49-3.88,12.39t-11.94,3.91q-8.06,0-12-3.91t-3.91-12.39V567Z"/><path class="cls-8" d="M1147.52,567h14.08q5,0,7.62,2.41c1.74,1.61,2.6,3.92,2.6,6.94a9.42,9.42,0,0,1-1,4.56,8.33,8.33,0,0,1-3,3.06,11.54,11.54,0,0,1,3.45,1.18,7.45,7.45,0,0,1,2.32,2,7.33,7.33,0,0,1,1.27,2.6,11.76,11.76,0,0,1,.39,3.08,11,11,0,0,1-.89,4.54,9.2,9.2,0,0,1-2.51,3.32,10.78,10.78,0,0,1-3.93,2,18.59,18.59,0,0,1-5.21.67h-15.19Zm9.45,14.27h1.74q4.44,0,4.44-3.52c0-2.34-1.48-3.52-4.44-3.52H1157Zm0,14.75h2.08a10.56,10.56,0,0,0,5.11-.91,3.58,3.58,0,0,0,0-5.88,10.54,10.54,0,0,0-5.11-.92H1157Z"/><path d="M799.24,536.46H780l-3.09,9h-14.4l19.77-51.94H797l19.77,51.94h-14.4Zm-3.58-10.26-6.06-17.29-6.06,17.29Z"/><path d="M833.89,493.55v28.24c0,1.52.05,3.07.17,4.65a12.74,12.74,0,0,0,1,4.31,7.14,7.14,0,0,0,2.72,3.13,9.65,9.65,0,0,0,5.24,1.21,9.45,9.45,0,0,0,5.2-1.21,7.54,7.54,0,0,0,2.72-3.13,12.3,12.3,0,0,0,1.06-4.31q.18-2.37.18-4.65V493.55h13.43v30.1q0,12.12-5.55,17.7t-17,5.58q-11.5,0-17.09-5.58t-5.57-17.7v-30.1Z"/><path d="M913.09,510.91a14.41,14.41,0,0,0-11.57-5.72,14.21,14.21,0,0,0-5.61,1.1,13.5,13.5,0,0,0-7.37,7.51,14.87,14.87,0,0,0-1.07,5.65,15.05,15.05,0,0,0,1.07,5.72,13.88,13.88,0,0,0,3,4.54,13.84,13.84,0,0,0,10,4.14q6.48,0,11.64-5.51v16l-1.37.49a41.44,41.44,0,0,1-5.79,1.62,28.38,28.38,0,0,1-5.3.51,27.09,27.09,0,0,1-19-7.75,28.52,28.52,0,0,1-6-8.74,28.08,28.08,0,0,1,0-22.05,27.1,27.1,0,0,1,14.71-14.25,27,27,0,0,1,10.4-2,28.25,28.25,0,0,1,6.09.65,36.94,36.94,0,0,1,6.3,2Z"/><path d="M936.51,515,953,493.55h16.67l-20.59,24.59,22.52,27.35h-17.5L936.51,523v22.53H923V493.55h13.5Z"/><path d="M990.23,493.55v40.5h16.19v11.44H976.73V493.55Z"/><path d="M1046.51,536.46h-19.29l-3.1,9h-14.39l19.76-51.94h14.74L1064,545.49h-14.39Zm-3.59-10.26-6.06-17.29-6.06,17.29Z"/><path d="M1069.1,545.49V493.55h13.5l24.93,31.76V493.55H1121v51.94h-13.43l-24.93-31.76v31.76Z"/><path d="M1131,493.55h20a23.41,23.41,0,0,1,10,2.14,27.16,27.16,0,0,1,8.13,5.68,26.35,26.35,0,0,1,5.48,8.27,25.41,25.41,0,0,1,0,19.69,26.15,26.15,0,0,1-5.44,8.3,26.75,26.75,0,0,1-8.13,5.72,23.78,23.78,0,0,1-10,2.14h-20Zm13.5,40.5h3.1a16.8,16.8,0,0,0,6.26-1.1,13.21,13.21,0,0,0,4.65-3,13,13,0,0,0,2.9-4.58,16.54,16.54,0,0,0,1-5.82,16,16,0,0,0-1-5.79,12.94,12.94,0,0,0-7.57-7.64,16.5,16.5,0,0,0-6.2-1.1h-3.1Z"/><path d="M768.42,567h14a16.59,16.59,0,0,1,7,1.49,19.11,19.11,0,0,1,5.69,4,18.56,18.56,0,0,1,3.83,5.79,17.61,17.61,0,0,1,1.4,6.92,17.81,17.81,0,0,1-1.37,6.87,18.53,18.53,0,0,1-3.81,5.81,18.94,18.94,0,0,1-5.69,4,16.56,16.56,0,0,1-7,1.49h-14Zm9.45,28.35H780a11.85,11.85,0,0,0,4.39-.77,9.44,9.44,0,0,0,3.25-2.12,9.06,9.06,0,0,0,2-3.21,11.63,11.63,0,0,0,.7-4.07,11,11,0,0,0-.73-4,9.15,9.15,0,0,0-2-3.23,9.37,9.37,0,0,0-3.25-2.13A11.69,11.69,0,0,0,780,575h-2.17Z"/><path d="M815.19,567v36.35h-9.45V567Z"/><path d="M842.19,576.3a11.55,11.55,0,0,0-3.09-1.86,8.21,8.21,0,0,0-3-.6,4.91,4.91,0,0,0-3,.86A2.71,2.71,0,0,0,832,577a2.24,2.24,0,0,0,.58,1.59,5.06,5.06,0,0,0,1.51,1.09,13.17,13.17,0,0,0,2.13.79c.78.23,1.56.47,2.33.72a14.59,14.59,0,0,1,6.78,4.13,10.16,10.16,0,0,1,2.14,6.72,13.09,13.09,0,0,1-.94,5.07,10.46,10.46,0,0,1-2.75,3.88,12.64,12.64,0,0,1-4.43,2.5,18.34,18.34,0,0,1-6,.9,21.91,21.91,0,0,1-12.77-4.1l4-7.62a16.47,16.47,0,0,0,4.19,2.8,10.08,10.08,0,0,0,4.1.91,4.9,4.9,0,0,0,3.45-1.06,3.28,3.28,0,0,0,.84-3.83,3.08,3.08,0,0,0-1-1.11,7.73,7.73,0,0,0-1.76-.94c-.73-.29-1.6-.61-2.63-1-1.22-.38-2.42-.81-3.59-1.27a11.44,11.44,0,0,1-3.14-1.86,8.58,8.58,0,0,1-2.21-2.92,10.19,10.19,0,0,1-.85-4.46A13,13,0,0,1,823,573a10.89,10.89,0,0,1,2.51-3.76,11.16,11.16,0,0,1,4-2.43,14.86,14.86,0,0,1,5.23-.87,23.26,23.26,0,0,1,5.64.74,24.72,24.72,0,0,1,5.64,2.2Z"/><path d="M879,579.14a10.09,10.09,0,0,0-8.1-4,10,10,0,0,0-3.93.77,9.28,9.28,0,0,0-3.11,2.1,9.44,9.44,0,0,0-2.05,3.15,10.94,10.94,0,0,0,0,8,9.62,9.62,0,0,0,5.18,5.3,9.51,9.51,0,0,0,3.86.77,11,11,0,0,0,8.15-3.85v11.18l-1,.34a28.54,28.54,0,0,1-4,1.13,19.69,19.69,0,0,1-3.71.37A19,19,0,0,1,857,598.93a19.78,19.78,0,0,1-4.22-6.12,19.68,19.68,0,0,1,0-15.43,19,19,0,0,1,10.3-10A19,19,0,0,1,870.3,566a20.2,20.2,0,0,1,4.26.45,26.87,26.87,0,0,1,4.42,1.43Z"/><path d="M917.88,583h18.76a52.13,52.13,0,0,1-.24,5.25,18.18,18.18,0,0,1-1,4.39,17.47,17.47,0,0,1-2.74,5,16.15,16.15,0,0,1-4.08,3.66,19.06,19.06,0,0,1-5.13,2.24,21.87,21.87,0,0,1-5.89.78,20.69,20.69,0,0,1-7.73-1.4,17.42,17.42,0,0,1-6-3.93A17.75,17.75,0,0,1,900,593a21.18,21.18,0,0,1-1.4-7.83,21.5,21.5,0,0,1,1.37-7.79,17.12,17.12,0,0,1,3.91-6.05,17.74,17.74,0,0,1,6.1-3.9,21.47,21.47,0,0,1,8-1.4,19.69,19.69,0,0,1,10,2.46,17,17,0,0,1,6.8,7.61l-9,3.72a9.11,9.11,0,0,0-3.25-4.3,8.22,8.22,0,0,0-4.56-1.3,9.11,9.11,0,0,0-3.85.8,8.45,8.45,0,0,0-3,2.26,11.1,11.1,0,0,0-1.93,3.55,14.57,14.57,0,0,0-.7,4.63,14.4,14.4,0,0,0,.61,4.29,9.64,9.64,0,0,0,1.8,3.42,8.13,8.13,0,0,0,3,2.24,10.11,10.11,0,0,0,4.15.8,11.47,11.47,0,0,0,2.7-.31,7.06,7.06,0,0,0,2.34-1,5.78,5.78,0,0,0,1.71-1.8,7.23,7.23,0,0,0,.92-2.7h-7.77Z"/><path d="M940.4,585.17a19.12,19.12,0,0,1,1.49-7.55,18.64,18.64,0,0,1,10.49-10.17,23.11,23.11,0,0,1,16.22,0,19.15,19.15,0,0,1,6.39,4.07,18.51,18.51,0,0,1,4.17,6.1,19.73,19.73,0,0,1,0,15.09,18.4,18.4,0,0,1-4.17,6.1,19.17,19.17,0,0,1-6.39,4.08,23.11,23.11,0,0,1-16.22,0,19.05,19.05,0,0,1-6.34-4.08,18.81,18.81,0,0,1-4.15-6.1A19.07,19.07,0,0,1,940.4,585.17Zm9.88,0a9.8,9.8,0,0,0,.82,4,10.23,10.23,0,0,0,2.22,3.18,10.1,10.1,0,0,0,3.25,2.1,10.51,10.51,0,0,0,11.14-2.1,9.81,9.81,0,0,0,2.24-3.18,10.19,10.19,0,0,0,0-8,9.81,9.81,0,0,0-2.24-3.18,10.15,10.15,0,0,0-3.28-2.09,10.67,10.67,0,0,0-7.86,0,9.91,9.91,0,0,0-3.25,2.09,10.23,10.23,0,0,0-2.22,3.18A9.85,9.85,0,0,0,950.28,585.17Z"/><path d="M995.51,567v28.35h11.33v8H986.06V567Z"/><path d="M1032,575h-11.38v6.08h10.36v8h-10.36v14.27h-9.45V567H1032Z"/><path d="M1079,579.14a10.26,10.26,0,0,0-12-3.23,9.39,9.39,0,0,0-5.15,5.25,10.94,10.94,0,0,0,0,8,9.64,9.64,0,0,0,9,6.07,10.92,10.92,0,0,0,8.14-3.85v11.18l-1,.34a28.54,28.54,0,0,1-4,1.13,19.69,19.69,0,0,1-3.71.37,19.06,19.06,0,0,1-13.29-5.43,19.92,19.92,0,0,1-4.21-6.12,19.57,19.57,0,0,1,0-15.43,19,19,0,0,1,4.2-6,19.32,19.32,0,0,1,6.09-4,19,19,0,0,1,7.29-1.42,20.27,20.27,0,0,1,4.26.45,26.48,26.48,0,0,1,4.41,1.43Z"/><path d="M1093.86,567v28.35h11.33v8h-20.78V567Z"/><path d="M1118.26,567v19.77c0,1.06,0,2.14.12,3.25a9,9,0,0,0,.72,3,5,5,0,0,0,1.91,2.19,6.74,6.74,0,0,0,3.66.84,6.6,6.6,0,0,0,3.64-.84,5.24,5.24,0,0,0,1.91-2.19,8.76,8.76,0,0,0,.74-3c.08-1.11.13-2.19.13-3.25V567h9.4v21.07q0,8.49-3.88,12.39t-11.94,3.91q-8.06,0-12-3.91t-3.91-12.39V567Z"/><path d="M1147.52,567h14.08q5,0,7.62,2.41c1.74,1.61,2.6,3.92,2.6,6.94a9.42,9.42,0,0,1-1,4.56,8.33,8.33,0,0,1-3,3.06,11.54,11.54,0,0,1,3.45,1.18,7.45,7.45,0,0,1,2.32,2,7.33,7.33,0,0,1,1.27,2.6,11.76,11.76,0,0,1,.39,3.08,11,11,0,0,1-.89,4.54,9.2,9.2,0,0,1-2.51,3.32,10.78,10.78,0,0,1-3.93,2,18.59,18.59,0,0,1-5.21.67h-15.19Zm9.45,14.27h1.74q4.44,0,4.44-3.52c0-2.34-1.48-3.52-4.44-3.52H1157Zm0,14.75h2.08a10.56,10.56,0,0,0,5.11-.91,3.58,3.58,0,0,0,0-5.88,10.54,10.54,0,0,0-5.11-.92H1157Z"/></g></g></svg>