<svg xmlns="http://www.w3.org/2000/svg" viewBox="654.63 73.85 609.73 530.55"><defs><style>.cls-1,.cls-3,.cls-4,.cls-8,.cls-9{fill:none;}.cls-1,.cls-3,.cls-4,.cls-5,.cls-6,.cls-7,.cls-8,.cls-9{stroke:#fff;}.cls-1,.cls-8{stroke-linecap:round;}.cls-1,.cls-3,.cls-4,.cls-5,.cls-6,.cls-8,.cls-9{stroke-miterlimit:10;}.cls-1{stroke-width:2.2px;}.cls-2{fill:#fff;}.cls-3{stroke-width:8px;}.cls-4{stroke-width:10px;}.cls-5,.cls-6,.cls-7{fill:#fafdfd;}.cls-5,.cls-7,.cls-9{stroke-linecap:square;}.cls-5{stroke-width:25px;}.cls-6{stroke-width:16px;}.cls-7{stroke-linejoin:round;stroke-width:12px;}.cls-8,.cls-9{stroke-width:4px;}</style></defs><g id="black_dense_horeshoed" data-name="black dense horeshoed"><path class="cls-1" d="M1148.09,432.08s26.55-10.33,31.05-18.3-18.71-29-18.71-29"/><path class="cls-1" d="M1146.24,429.21s28.53-10.57,31.57-16.38S1165,383,1165,383"/><path class="cls-1" d="M1169.88,379.78s13.18,23.26,9.83,31.57-37.12,10.27-37.12,10.27"/><path class="cls-1" d="M1155.72,434.49s24.73-15.2,23.42-20.71-24.9-23.92-24.9-23.92"/><path class="cls-1" d="M1150.21,392.47S1178,407.71,1177.54,411s-36.2,6.78-36.2,6.78"/><path class="cls-1" d="M1147.72,395s31,10.33,31.07,15.48-37.27.64-37.27.64"/><line class="cls-1" x1="1144.86" y1="397.73" x2="1177.54" y2="410.96"/><path class="cls-1" d="M1157.28,386.82s20.62,16.18,20.58,21.09-32.46,18-32.46,18"/><path class="cls-1" d="M1167.37,380.31s13.77,21.61,12.59,25.88-38.79,1.88-38.79,1.88"/><path class="cls-1" d="M1151.87,434.05s24.56-18.7,23.82-23.13L1142.86,401"/><path class="cls-1" d="M1163.13,384.13s16.26,19.75,13.53,25.75"/><path class="cls-1" d="M1155.51,388s25.17,17.28,22.3,24.87l-37.19-8.39"/><path class="cls-1" d="M1146.26,427.31s24.56-7.3,28.08-13.35-27.52-3.23-27.52-3.23"/><path class="cls-1" d="M1141.9,415.07s30.76,3.11,32.34.68S1153,391.59,1153,391.59"/><path class="cls-2" d="M1196.29,391.39c-1.86,7.29,34.45,51.55,34.45,51.55,4.6,4.62-36.36-35.15-37.37-49.37-6.77,7.95-.85,24.83,8.37,35.74,9.92,11.72,34.5,20.5,34.5,20.5h0s-.27-25.75-8.12-38.95S1205.91,384.74,1196.29,391.39Z"/><path class="cls-2" d="M1193.87,378.46c4.5-5.44,61.49-5.53,61.49-5.53,6.48.55-49.94-5.13-61.63,2.26,1.93-9.21,18.77-14.73,33-14.56,15.35.18,37.63,12.19,37.63,12.19h0s-20.19,14.49-35.39,16.58S1194.75,388.91,1193.87,378.46Z"/><path class="cls-1" d="M1220,307.2s-23.46,13.95-26.46,22.19,22.25,24.45,22.25,24.45"/><path class="cls-1" d="M1222.14,309.61s-25.29,14.49-27.24,20.47,16.85,26.21,16.85,26.21"/><path class="cls-1" d="M1207.6,360.06s-16.12-19.9-14.27-28.29,33.46-15.55,33.46-15.55"/><path class="cls-1" d="M1212.35,306.12s-21,18.26-18.86,23.27,27.3,18.67,27.3,18.67"/><path class="cls-1" d="M1224.19,345s-28.64-10-28.74-13.17,33.14-12.12,33.14-12.12"/><path class="cls-1" d="M1226.14,342.2s-30.94-4.87-31.79-9.74,35.12-6.47,35.12-6.47"/><line class="cls-1" x1="1228.42" y1="339.15" x2="1195.45" y2="331.8"/><path class="cls-1" d="M1218.4,351.42s-22-12-22.77-16.69,27.83-22.18,27.83-22.18"/><path class="cls-1" d="M1209.89,359.16s-16.42-18.25-16-22.47,36.36-7.89,36.36-7.89"/><path class="cls-1" d="M1216.07,305.93s-20.27,21.54-18.87,25.61l32.59,4.2"/><path class="cls-1" d="M1213.29,354.89s-18.48-16.11-16.84-22.21"/><path class="cls-1" d="M1219.89,350.06s-26.51-12.36-25-20l36.47,2.06"/><path class="cls-1" d="M1222.43,311.42s-22.06,10.77-24.43,17,26.51-1.29,26.51-1.29"/><path class="cls-1" d="M1228.48,322.3s-29.57,1.9-30.67,4.46,23.91,19.47,23.91,19.47"/><path class="cls-2" d="M1183.87,372.44c-7.07.15-44.36-42.95-44.36-42.95-3.83-5.26,28.73,41.17,42,45.19-8.23,4.56-21,.94-30.21-10-9.89-11.73-17.76-42-17.76-42h0s24.16,5.82,35.68,16S1191.2,365,1183.87,372.44Z"/><path class="cls-2" d="M1177.47,286c5.54-4.38,61.3,7.42,61.3,7.42,6.22,1.88-47.78-15.44-60.75-10.64,3.81-8.61,21.43-10.5,35.36-7.36,15,3.38,34.26,19.77,34.26,19.77h0s-22.77,10-38.07,8.84S1176.15,296.36,1177.47,286Z"/><path class="cls-1" d="M1152.12,325.4s17.53-20.92,17.64-29.68S1140.68,280,1140.68,280"/><path class="cls-1" d="M1149.25,323.85s19.09-22,19-28.32-24.57-19.17-24.57-19.17"/><path class="cls-1" d="M1146.31,271.43s21.79,13.46,22.81,22-26.44,25.74-26.44,25.74"/><path class="cls-1" d="M1159.64,323.91s13.76-24.16,10.12-28.19-31.93-8.61-31.93-8.61"/><path class="cls-1" d="M1135.64,291.15s30.34,0,31.48,2.94-27.28,22.38-27.28,22.38"/><path class="cls-1" d="M1134.71,294.41s30.81-5.63,33.23-1.31-31,17.71-31,17.71"/><line class="cls-1" x1="1133.57" y1="298.04" x2="1167.12" y2="294.09"/><path class="cls-1" d="M1139,283.15s24.78,4.09,27,8.23S1147,321.51,1147,321.51"/><path class="cls-1" d="M1144.44,273S1166,284.84,1167,289s-31.72,19.45-31.72,19.45"/><path class="cls-1" d="M1156.2,325.32s12-27,9.35-30.41l-32.15,6.8"/><path class="cls-1" d="M1142.65,278.19s22.76,9.09,23.23,15.4"/><path class="cls-1" d="M1138,284.93s29.11,2.9,30.2,10.6l-35.11,10.1"/><path class="cls-1" d="M1148.39,322.24s17.26-17.46,17.42-24.16-24.6,10-24.6,10"/><path class="cls-1" d="M1139.08,314s27.27-11.57,27.48-14.34-29-10.48-29-10.48"/><path class="cls-2" d="M1132.16,225.38c-6.41,4.4-8.31,63.48-8.31,63.48.42,6.71-4.33-52,4.55-63.77-10.66,1.57-17.55,18.71-17.8,33.45-.28,15.85,12.84,39.4,12.84,39.4h0s17.31-20.18,20.2-35.78S1144.15,226.76,1132.16,225.38Z"/><path class="cls-1" d="M1150.33,186.17s-9.27,25.67-6.35,33.94,32.71,4.76,32.71,4.76"/><path class="cls-1" d="M1153.56,186.64s-10.34,27.25-8.06,33.11,29.67,9.55,29.67,9.55"/><path class="cls-1" d="M1174.36,234.85s-25.09-5.14-29-12.79,16-33.27,16-33.27"/><path class="cls-1" d="M1143.78,190.16s-4.6,27.42.2,30,33-2.9,33-2.9"/><path class="cls-1" d="M1177.59,212.65s-28.5,10.44-30.57,8.08,17.91-30.4,17.91-30.4"/><path class="cls-1" d="M1177.34,209.28s-27,15.88-30.74,12.66,23-27.3,23-27.3"/><line class="cls-1" x1="1177.16" y1="205.47" x2="1147.02" y2="220.73"/><path class="cls-1" d="M1177.21,221.32s-24.67,4.69-28.19,1.56,7.42-34.8,7.42-34.8"/><path class="cls-1" d="M1175.56,232.7s-24.28-3.68-26.62-7.22S1172,196.3,1172,196.3"/><path class="cls-1" d="M1146.52,187.65s-2,29.51,1.7,31.77L1176.05,202"/><path class="cls-1" d="M1175.47,227.24s-24.5-.71-27.12-6.46"/><path class="cls-1" d="M1177.5,219.31s-28.33,7.29-32,.44L1175,198.19"/><path class="cls-1" d="M1154.92,187.86s-10.2,22.32-8.05,28.67,19.67-17.83,19.67-17.83"/><path class="cls-1" d="M1166.51,192.42s-21.63,20.24-20.87,22.92,30.84-.14,30.84-.14"/><path class="cls-2" d="M1177.78,273.89c-2.92-6.83,26.11-54.5,26.11-54.5,3.69-6.29-30.47,38.75-29.28,52.86-7.78-6.62-3.92-23.8,2.65-36.48,7.14-13.74,30.35-26.07,30.35-26.07h0s3.69,25.29-1.91,39.59S1188.14,278.74,1177.78,273.89Z"/><path class="cls-1" d="M1109.5,236.58s4.33-28.16-.32-36-34.46,1.71-34.46,1.71"/><path class="cls-1" d="M1106.1,236.75s5.11-30,1.59-35.53-32.3-3.81-32.3-3.81"/><path class="cls-1" d="M1075.1,191.56s26.74.22,32.26,7.27-9.66,37.28-9.66,37.28"/><path class="cls-1" d="M1115.41,231.18s-.8-29-6.23-30.64-33.16,9.6-33.16,9.6"/><path class="cls-1" d="M1076.26,214.94s27.08-16.42,29.68-14.42-12.23,34.74-12.23,34.74"/><path class="cls-1" d="M1077.19,218.35s24.45-21.7,28.94-19.16-18.08,32.59-18.08,32.59"/><line class="cls-1" x1="1078.14" y1="222.21" x2="1105.94" y2="200.52"/><path class="cls-1" d="M1074.9,206s24.33-9.76,28.56-7.27-.6,37.14-.6,37.14"/><path class="cls-1" d="M1074.31,194s25.6-1.12,28.71,2-17.77,34.53-17.77,34.53"/><path class="cls-1" d="M1113.1,234.3s-3.91-30.62-8.12-32.2l-25,23.47"/><path class="cls-1" d="M1075.5,199.58s25.23-4.21,29.07,1.16"/><path class="cls-1" d="M1075,208.1s27.55-13.16,32.68-6.88l-25.85,28"/><path class="cls-1" d="M1104.46,235.78s6-24.92,2.48-31S1090.38,227,1090.38,227"/><path class="cls-1" d="M1091.68,233.44s18.08-25.09,16.76-27.67-31.56,6.34-31.56,6.34"/><path class="cls-2" d="M1098.36,174.5c5.39,5.25,61.88-4.07,61.88-4.07,6.3-1.66-48.63,13.91-61.44,7.69,3.5,9.83,21.07,13.15,35.13,10.61,15.11-2.72,35-19.62,35-19.62h0s-22.44-12.65-37.8-12.45S1097.42,162.84,1098.36,174.5Z"/><path class="cls-2" d="M1086,170.13c-2.46-6.62,26-56,26-56,3.71-5.34-29.42,40.68-28.86,54.5-7-6.27-3.37-23.62,3.91-35.9,7.83-13.2,29.37-26.49,29.37-26.49h0s2.46,24.73-3.33,38.94S1095.45,174.59,1086,170.13Z"/><path class="cls-1" d="M1037.28,111.91s.35,27.29,6,34,32.3-7,32.3-7"/><path class="cls-1" d="M1040.47,111.22s-.1,29.15,4.1,33.83,31.13-1.49,31.13-1.49"/><path class="cls-1" d="M1076.89,149s-25.3,4-31.63-1.78,3.25-36.76,3.25-36.76"/><path class="cls-1" d="M1032.55,118s5.33,27.29,10.72,28,29.82-14.3,29.82-14.3"/><path class="cls-1" d="M1072.11,127.12s-23,19.79-25.77,18.31,6.08-34.76,6.08-34.76"/><path class="cls-1" d="M1070.7,124.05s-19.69,24.36-24.34,22.67,12-33.66,12-33.66"/><line class="cls-1" x1="1069.19" y1="120.55" x2="1046.34" y2="145.43"/><path class="cls-1" d="M1074.81,135.36s-21.45,13.07-25.85,11.38-5.28-35.19-5.28-35.19"/><path class="cls-1" d="M1077.26,146.6s-24,5.1-27.46,2.61,11.35-35.44,11.35-35.44"/><path class="cls-1" d="M1034.24,114.64s8.53,28.32,12.75,29.14l19.93-26.12"/><path class="cls-1" d="M1075.25,141.52s-23.18,7.95-27.65,3.48"/><path class="cls-1" d="M1074.37,133.39s-23.95,16.78-29.8,11.66l20-30.56"/><path class="cls-1" d="M1042.18,111.88s-1.71,24.48,2.54,29.67,12.14-23.61,12.14-23.61"/><path class="cls-1" d="M1054.62,112.07s-13.13,26.56-11.47,28.8,28.82-11,28.82-11"/><path class="cls-2" d="M1075.75,175.78c-3.41,6.19-59.38,16.94-59.38,16.94-6.46.68,50-4.3,60.12-13.75-.17,9.4-9.69,18.67-23.75,21.17-15.11,2.7-45.23-5.61-45.23-5.61h0s17.12-18,31.66-22.92S1072.93,165.68,1075.75,175.78Z"/><path class="cls-2" d="M997.65,138.08c-1-7,37.08-49.38,37.08-49.38,4.74-4.45-37.26,33.66-39.59,47.29-5.55-7.6,1.62-23.81,11.31-34.3,10.41-11.27,34.25-19.78,34.25-19.78h0s-2.76,24.7-11.38,37.39S1006,144.42,997.65,138.08Z"/><path class="cls-1" d="M1019.13,179.75s-9.34-25.64-16.88-30.12S974.09,167,974.09,167"/><path class="cls-1" d="M1016.35,181.46s-9.53-27.54-15-30.57-28.89,11.69-28.89,11.69"/><path class="cls-1" d="M969.48,157.8S992,145.66,999.93,149,1009,184.8,1009,184.8"/><path class="cls-1" d="M1021.61,172.49s-14.05-24-19.36-22.86S978.82,173,978.82,173"/><path class="cls-1" d="M981.23,176.9s15.18-26.28,18.29-25.79,5.74,34.81,5.74,34.81"/><path class="cls-1" d="M983.58,179.34s10.54-29.5,15.48-29.44-.16,35.71-.16,35.71"/><line class="cls-1" x1="986.16" y1="182.14" x2="999.52" y2="151.11"/><path class="cls-1" d="M976,170s15.93-19.41,20.63-19.27,16.62,31.47,16.62,31.47"/><path class="cls-1" d="M970,160.22s21-12.75,25-11.53,1,37.19,1,37.19"/><path class="cls-1" d="M1021.1,176.18s-17.4-23.92-21.66-23.3l-10.18,31.24"/><path class="cls-1" d="M973.51,164.35s19.26-15.16,25-12.42"/><path class="cls-1" d="M977,171.74s17.07-23.76,24.28-20.85l-8.8,35.45"/><path class="cls-1" d="M1014.53,181.4s-6.49-23.67-12.21-27.17-3.66,26.3-3.66,26.3"/><path class="cls-1" d="M1002.71,185.33s3.62-29.4,1.32-31-23.58,19.88-23.58,19.88"/><path class="cls-2" d="M922.53,147c.61,7.75,50.82,38.94,50.82,38.94,6,3-47.23-22.28-53-35.83-4,10,7.43,24.55,20.07,32.14,13.59,8.16,40.54,8.58,40.54,8.58h0s-8.82-25.08-20.89-35.38S929.72,137.33,922.53,147Z"/><path class="cls-1" d="M897.66,111.69s17.6,20.86,26.22,22.47,20.48-25.95,20.48-25.95"/><path class="cls-1" d="M899.68,109.13s18.44,22.58,24.65,23.53,23.1-20.92,23.1-20.92"/><path class="cls-1" d="M951.83,115.22s-17,19.16-25.57,18.7-20.82-30.46-20.82-30.46"/><path class="cls-1" d="M897.84,119.36s21.45,17.69,26,14.8,14-30,14-30"/><path class="cls-1" d="M934.23,101.32s-5.21,29.9-8.3,30.51-17.36-30.71-17.36-30.71"/><path class="cls-1" d="M931.18,99.85s.26,31.32-4.4,33-12.14-33.59-12.14-33.59"/><line class="cls-1" x1="927.8" y1="98.1" x2="925.93" y2="131.83"/><path class="cls-1" d="M941.54,106s-8.27,23.71-12.74,25.19-26.43-23.82-26.43-23.82"/><path class="cls-1" d="M950.57,113.1S935.25,132.29,931,132.55,917.28,98,917.28,98"/><path class="cls-1" d="M897,115.72s24.57,16.47,28.36,14.42l-1.19-32.83"/><path class="cls-1" d="M945.8,110.45s-12.87,20.87-19.16,20.25"/><path class="cls-1" d="M940,104.73s-7.85,28.18-15.62,27.93l-3.94-36.32"/><path class="cls-1" d="M901.42,108.55s14.23,20,20.8,21.31-5.6-25.94-5.6-25.94"/><path class="cls-1" d="M911.16,100.8s6.72,28.85,9.42,29.53,15.29-26.78,15.29-26.78"/><path class="cls-2" d="M987.35,131.78c-7.37-.89-34.14-49.87-34.14-49.87-3.6-6.34,18.32,45.77,31.14,51.79-9.63,3.43-22.57-8.5-30.27-20.54-8.33-13-7.4-39.31-7.4-39.31h0S970.43,83.3,980,95.3,996.73,125.23,987.35,131.78Z"/><path class="cls-1" d="M920.9,172.25s-22.21-17.83-31.37-17.74-15.75,30.7-15.75,30.7"/><path class="cls-1" d="M919.35,175.28s-23.42-19.42-30-19.14-19.45,26.06-19.45,26.06"/><path class="cls-1" d="M864.72,179.53s13.55-23,22.42-24.3,27.46,27,27.46,27"/><path class="cls-1" d="M919.18,164.43s-25.52-13.81-29.65-9.92S881.27,188,881.27,188"/><path class="cls-1" d="M885.54,190.22s-.68-31.67,2.36-32.91,24,27.95,24,27.95"/><path class="cls-1" d="M889,191.12s-6.56-32-2.12-34.65,19.18,32,19.18,32"/><line class="cls-1" x1="892.78" y1="192.22" x2="887.9" y2="157.31"/><path class="cls-1" d="M877.12,186.92s3.7-25.95,8-28.37S917,177.64,917,177.64"/><path class="cls-1" d="M866.44,181.44s11.83-22.73,16.11-23.85,21,32.66,21,32.66"/><path class="cls-1" d="M920.73,168s-28.48-11.92-31.94-9.06l7.82,33.38"/><path class="cls-1" d="M871.86,183.2s9-24,15.54-24.6"/><path class="cls-1" d="M879,187.88s2.38-30.43,10.38-31.74l11.34,36.4"/><path class="cls-1" d="M917.69,176.21s-18.6-17.61-25.6-17.63,11,25.44,11,25.44"/><path class="cls-1" d="M909.27,186.11s-12.68-28.2-15.58-28.35-10.28,30.51-10.28,30.51"/><path class="cls-2" d="M861.57,150.86c7.24-2,27.42-55.62,27.42-55.62,1.7-6.29-12.27,49.06-24.07,57.05,10.27,1.88,21.93-11.68,26.76-25.12,5.19-14.45.51-40.13.51-40.13h0S870,100.15,862.51,113.55,851,145.85,861.57,150.86Z"/><path class="cls-2" d="M851.58,159.42c-7-1.18-35.53-50.5-35.53-50.5-2.77-5.88,20.52,45.82,32.77,52.25-8.94,2.93-22.15-8.89-29.14-21.34-7.51-13.38-8.25-38.69-8.25-38.69h0s22.64,10.24,32.05,22.36S860.19,153.43,851.58,159.42Z"/><path class="cls-1" d="M776.83,172.46s23.81,13.34,32.44,11.82,10.05-31.5,10.05-31.5"/><path class="cls-1" d="M777.82,169.35S803,184,809.17,182.72,823.44,155,823.44,155"/><path class="cls-1" d="M828.78,156.72s-9.18,23.91-17.36,26.5-30.2-21.2-30.2-21.2"/><path class="cls-1" d="M779.69,179.58s26.3,9,29.58,4.7,2.53-33,2.53-33"/><path class="cls-1" d="M807.42,149.9s5.63,29.82,3,31.48-27.06-22.65-27.06-22.65"/><path class="cls-1" d="M804.05,149.59s11.25,29.23,7.46,32.41-23.17-27.18-23.17-27.18"/><line class="cls-1" x1="800.26" y1="149.15" x2="810.38" y2="181.38"/><path class="cls-1" d="M815.9,151.69s.59,25.11-3.07,28.07-33.12-13-33.12-13"/><path class="cls-1" d="M826.86,155.19s-7.6,23.34-11.48,25.08-25-27.55-25-27.55"/><path class="cls-1" d="M777.67,176.46s28.79,6.77,31.61,3.53l-12.65-30.32"/><path class="cls-1" d="M821.46,154.38s-4.71,24.05-10.82,25.69"/><path class="cls-1" d="M814,151.08s2.56,29.14-4.8,31.64L792.72,150.1"/><path class="cls-1" d="M779.24,168.2s20.36,13.72,27,12.64-14.37-22.32-14.37-22.32"/><path class="cls-1" d="M785.64,157.52s16.43,24.65,19.2,24.34,4.9-30.45,4.9-30.45"/><path class="cls-2" d="M851.37,171.08c3.66,6-15,59.89-15,59.89-2.65,5.95,21.28-45.47,18.14-58.94,8.06,4.85,11.33,17.73,6.47,31.16-5.22,14.43-27.48,36.36-27.48,36.36h0s-7-23.83-4-38.87S841.22,168.48,851.37,171.08Z"/><path class="cls-2" d="M779.68,219.87c-6.57-2.61-24.23-56.8-24.23-56.8C754,156.74,766,212.16,776.61,221c-9.36,1-19.81-13.31-24.05-26.94-4.56-14.66,0-39.56,0-39.56h0s20,14.74,26.69,28.55S789.34,215.8,779.68,219.87Z"/><path class="cls-1" d="M826.5,222.1s-26.88-4.73-34.52-.44.92,33.05.92,33.05"/><path class="cls-1" d="M826.59,225.36s-28.62-5.51-34-2.26S788.27,254,788.27,254"/><path class="cls-1" d="M782.67,254.12s.76-25.6,7.63-30.75,35.51,10,35.51,10"/><path class="cls-1" d="M821.45,216.33s-27.8.17-29.47,5.33,8.51,32,8.51,32"/><path class="cls-1" d="M805.09,253.5s-15.17-26.29-13.2-28.73,33,12.43,33,12.43"/><path class="cls-1" d="M808.37,252.68s-20.27-23.88-17.75-28.13,30.84,18,30.84,18"/><line class="cls-1" x1="812.09" y1="251.84" x2="791.89" y2="224.77"/><path class="cls-1" d="M796.49,254.61s-8.85-23.5-6.37-27.5,35.55,1.34,35.55,1.34"/><path class="cls-1" d="M785,254.93s-.54-24.55,2.54-27.46,32.71,17.74,32.71,17.74"/><path class="cls-1" d="M824.39,218.6s-29.41,3.12-31,7.12l22,24.43"/><path class="cls-1" d="M790.35,253.91s-3.5-24.26,1.72-27.82"/><path class="cls-1" d="M798.51,254.55s-12-26.66-5.92-31.45l26.31,25.35"/><path class="cls-1" d="M825.63,226.91s-23.74-6.22-29.63-3,20.94,16.32,20.94,16.32"/><path class="cls-1" d="M823.13,239.11S799.47,221.27,797,222.48s5.42,30.36,5.42,30.36"/><path class="cls-2" d="M749.86,289.4c7,3.34,59.14-24.55,59.14-24.55,5.6-3.72-42.91,29.77-57.5,27.94,6.69,8.45,25,5.85,37.87-1.3,13.86-7.69,27.69-30.82,27.69-30.82h0s-26.13-4.9-41.08.4S745.07,278.32,749.86,289.4Z"/><path class="cls-1" d="M706.82,293.26s26.87-4.81,32.57-11.47-12.23-30.71-12.23-30.71"/><path class="cls-1" d="M705.62,290.23s28.77-4.67,32.7-9.58-6.56-30.46-6.56-30.46"/><path class="cls-1" d="M737,248.12s8.1,24.3,3.42,31.49-36.79,2.81-36.79,2.81"/><path class="cls-1" d="M713.55,297s26.05-9.73,25.84-15.16-19-27.08-19-27.08"/><path class="cls-1" d="M716.13,256.41s23.29,19.46,22.27,22.44-35.28-.31-35.28-.31"/><path class="cls-1" d="M713.33,258.31s27.25,15.44,26.34,20.3-35.15-6.28-35.15-6.28"/><line class="cls-1" x1="710.13" y1="260.37" x2="738.4" y2="278.85"/><path class="cls-1" d="M723.82,252.41s16.4,19,15.45,23.63-33.85,11-33.85,11"/><path class="cls-1" d="M734.5,248.15s9,22.86,7.07,26.66-36.82-5.4-36.82-5.4"/><path class="cls-1" d="M710,295.82s26.54-13.05,26.67-17.35l-29-15.38"/><path class="cls-1" d="M729.82,251s11.64,21.57,8,26.71"/><path class="cls-1" d="M721.94,253.16s20.48,20.89,16.38,27.49L704.9,265.9"/><path class="cls-1" d="M706,288.44s24.43-2.32,28.86-7.36S709.57,273,709.57,273"/><path class="cls-1" d="M704.14,276.13s28.35,8.61,30.29,6.61-15.55-26.64-15.55-26.64"/><path class="cls-2" d="M769.07,225.63c-4.46,6-60.26,4.64-60.26,4.64-7.29-.05,48.8,7,60.42-1.07-1.84,10.05-18.65,15.29-32.92,15.94-15.47.69-37.75-13.25-37.75-13.25h0s20.06-15.84,35.25-18.14S768.09,214.24,769.07,225.63Z"/><path class="cls-1" d="M770.89,303.42s-26.54,10.33-31,18.29,18.71,29,18.71,29"/><path class="cls-1" d="M772.74,306.28s-28.53,10.57-31.57,16.39S754,352.54,754,352.54"/><path class="cls-1" d="M749.11,355.72s-13.18-23.26-9.84-31.58,37.12-10.27,37.12-10.27"/><path class="cls-1" d="M763.26,301s-24.72,15.2-23.42,20.71,24.9,23.92,24.9,23.92"/><path class="cls-1" d="M768.77,343s-27.76-15.25-27.32-18.5,36.19-6.78,36.19-6.78"/><path class="cls-1" d="M771.26,340.52s-31-10.33-31.06-15.49,37.26-.64,37.26-.64"/><line class="cls-1" x1="774.13" y1="337.76" x2="741.45" y2="324.53"/><path class="cls-1" d="M761.7,348.67s-20.62-16.18-20.57-21.09,32.46-18.05,32.46-18.05"/><path class="cls-1" d="M751.62,355.18S737.85,333.57,739,329.3s38.79-1.87,38.79-1.87"/><path class="cls-1" d="M767.12,301.44s-24.56,18.7-23.83,23.13l32.83,9.92"/><path class="cls-1" d="M755.85,351.37s-16.26-19.75-13.53-25.76"/><path class="cls-1" d="M763.48,347.53s-25.18-17.28-22.31-24.86l37.2,8.38"/><path class="cls-1" d="M772.72,308.18s-24.56,7.3-28.08,13.35,27.52,3.23,27.52,3.23"/><path class="cls-1" d="M777.08,320.42s-30.76-3.11-32.34-.67S766,343.9,766,343.9"/><path class="cls-2" d="M722.7,344.11c1.86-7.3-34.46-51.56-34.46-51.56-4.59-4.62,36.36,35.16,37.38,49.37,6.76-7.95.85-24.83-8.38-35.73-9.91-11.72-34.5-20.51-34.5-20.51h0s.27,25.75,8.12,39S713.08,350.75,722.7,344.11Z"/><path class="cls-2" d="M725.12,357c-4.51,5.44-61.5,5.53-61.5,5.53-6.48-.54,49.94,5.13,61.63-2.26-1.93,9.21-18.77,14.74-33,14.57-15.34-.19-37.62-12.2-37.62-12.2h0s20.18-14.49,35.39-16.58S724.24,346.58,725.12,357Z"/><path class="cls-1" d="M699,428.29s23.46-13.94,26.45-22.18-22.25-24.46-22.25-24.46"/><path class="cls-1" d="M696.84,425.88s25.3-14.49,27.25-20.46-16.86-26.22-16.86-26.22"/><path class="cls-1" d="M711.38,375.43s16.12,19.91,14.27,28.29-33.46,15.56-33.46,15.56"/><path class="cls-1" d="M706.63,429.37s21-18.26,18.86-23.26-27.29-18.68-27.29-18.68"/><path class="cls-1" d="M694.79,390.52s28.64,10,28.74,13.18-33.13,12.11-33.13,12.11"/><path class="cls-1" d="M692.84,393.29s30.94,4.87,31.8,9.74-35.12,6.47-35.12,6.47"/><line class="cls-1" x1="690.57" y1="396.34" x2="723.53" y2="403.7"/><path class="cls-1" d="M700.59,384.07s22,12.05,22.77,16.7-27.83,22.17-27.83,22.17"/><path class="cls-1" d="M709.09,376.33s16.42,18.26,16,22.48-36.37,7.88-36.37,7.88"/><path class="cls-1" d="M702.92,429.57S723.18,408,721.78,404l-32.58-4.2"/><path class="cls-1" d="M705.69,380.61s18.48,16.1,16.85,22.21"/><path class="cls-1" d="M699.09,385.44s26.51,12.35,25,20l-36.47-2.06"/><path class="cls-1" d="M696.56,424.07s22.06-10.76,24.43-17-26.52,1.28-26.52,1.28"/><path class="cls-1" d="M690.5,413.2s29.57-1.91,30.68-4.46-23.92-19.48-23.92-19.48"/><path class="cls-2" d="M735.12,363.05c7.06-.15,44.36,42.95,44.36,42.95,3.82,5.26-28.74-41.17-42-45.19,8.24-4.55,21-.94,30.22,10,9.88,11.74,17.75,42,17.75,42h0s-24.16-5.82-35.67-16S727.78,370.54,735.12,363.05Z"/><path class="cls-2" d="M741.52,449.53c-5.54,4.38-61.3-7.42-61.3-7.42C674,440.23,728,457.55,741,452.75c-3.8,8.61-21.43,10.5-35.35,7.36-15-3.38-34.26-19.77-34.26-19.77h0s22.76-10,38.07-8.84S742.83,439.13,741.52,449.53Z"/><path class="cls-1" d="M766.87,410.09S749.33,431,749.22,439.78,778.3,455.5,778.3,455.5"/><path class="cls-1" d="M769.74,411.65s-19.09,22-19,28.31,24.56,19.17,24.56,19.17"/><path class="cls-1" d="M772.68,464.07s-21.8-13.46-22.82-22,26.44-25.74,26.44-25.74"/><path class="cls-1" d="M759.34,411.58s-13.76,24.17-10.12,28.2,31.94,8.61,31.94,8.61"/><path class="cls-1" d="M783.35,444.34s-30.35,0-31.48-2.94S779.14,419,779.14,419"/><path class="cls-1" d="M784.28,441.09s-30.82,5.62-33.23,1.31,31-17.72,31-17.72"/><line class="cls-1" x1="785.42" y1="437.45" x2="751.87" y2="441.4"/><path class="cls-1" d="M780,452.34s-24.78-4.08-27-8.23S772,414,772,414"/><path class="cls-1" d="M774.54,462.46S753,450.66,752,446.53s31.72-19.46,31.72-19.46"/><path class="cls-1" d="M762.78,410.17s-12,27-9.34,30.41l32.14-6.8"/><path class="cls-1" d="M776.33,457.3s-22.76-9.09-23.23-15.4"/><path class="cls-1" d="M781,450.56s-29.1-2.9-30.19-10.6l35.1-10.1"/><path class="cls-1" d="M770.6,413.26s-17.26,17.45-17.43,24.15,24.6-10,24.6-10"/><path class="cls-1" d="M779.91,421.52s-27.28,11.57-27.48,14.35,29,10.48,29,10.48"/><path class="cls-2" d="M741.2,461.6c2.93,6.83-26.11,54.5-26.11,54.5-3.68,6.29,30.47-38.75,29.28-52.86,7.79,6.62,3.93,23.8-2.65,36.48-7.13,13.75-30.34,26.07-30.34,26.07h0s-3.69-25.29,1.9-39.59S730.85,456.75,741.2,461.6Z"/><path class="cls-2" d="M1164,488.93c6-9.39,5.93-13.61,10.52-23.7a47.48,47.48,0,0,1,2-11,18.79,18.79,0,0,1,5.39-7.41,232.74,232.74,0,0,0,9.13-33.45c-2.82-7.95-3.13-15.78.92-20.54l2.33-1.74c.22-2.27.4-4.54.56-6.82a9.07,9.07,0,0,1-2.4-5.4l-.14-3.52a11.51,11.51,0,0,1,3.08-5.52c0-.68,0-1.36,0-2a241.07,241.07,0,0,0-1.23-24.27,33.28,33.28,0,0,1-1.75-3.66,29.34,29.34,0,0,1-1.6-10.09,18.42,18.42,0,0,1,.82-4.23A235.31,235.31,0,0,0,1185,298c-5.65-3.08-9.29-7.17-8.67-12.12l.57-3.33a7.34,7.34,0,0,1,1.6-2.88q-.9-2.25-1.85-4.47a8.49,8.49,0,0,1-1.51-.63l-2.45-1.54c-3.17-2.76-4.31-8.15-3.89-14.41a235.68,235.68,0,0,0-17.59-28.46,47.08,47.08,0,0,1-8.35-7.18,18.48,18.48,0,0,1-3.67-8.14q-6.13-7.19-12.87-13.94-5.7-5.7-11.71-10.94c-8.24-1.55-15.11-5.19-17.2-11.05l-.35-2.9c-1.83-1.33-3.68-2.62-5.55-3.89a9.12,9.12,0,0,1-6-.61l-3.12-1.64a11.58,11.58,0,0,1-3.28-5.57,233.83,233.83,0,0,0-23.1-12,33.39,33.39,0,0,1-4.28-.32,29.3,29.3,0,0,1-9.55-3.66,17.8,17.8,0,0,1-3.35-2.93,233.48,233.48,0,0,0-27.1-7.85C1006.33,140.89,1001,142,997,139l-2.59-2.16a7.44,7.44,0,0,1-1.67-2.74c-1.63-.22-3.27-.44-4.91-.64a8.5,8.5,0,0,1-1.21.91l-2.56,1.36c-3.94,1.35-9.1-.31-14.25-3.72-3.43-.14-6.87-.23-10.33-.23q-11.76,0-23.33,1.13a47.27,47.27,0,0,1-10.35,3.63,18.72,18.72,0,0,1-9-.92,234.22,234.22,0,0,0-33.61,8.71c-5.49,6.45-12.14,10.67-18.3,9.53l-2.78-1.18q-3,1.36-6,2.84a9.08,9.08,0,0,1-3.52,4.91l-3,1.88a11.49,11.49,0,0,1-6.48,0,232.82,232.82,0,0,0-22,14.21,32.89,32.89,0,0,1-2.32,3.37,29.24,29.24,0,0,1-7.94,6.44,19,19,0,0,1-4,1.39q-7.35,6.24-14.27,13.14-3.23,3.24-6.32,6.59c.12,6.36-1.61,11.48-6.17,13.4L777,222a7.49,7.49,0,0,1-3.2.07c-1,1.3-2,2.61-3,3.93a8.1,8.1,0,0,1,.18,1.51l-.1,2.89c-.81,4.12-4.89,7.79-10.49,10.56a233.83,233.83,0,0,0-15.88,29.26,48.08,48.08,0,0,1-2.06,11,18.69,18.69,0,0,1-5.39,7.41,234.37,234.37,0,0,0-9.12,33.45c2.81,8,3.12,15.78-.93,20.54l-2.33,1.74c-.22,2.27-.4,4.54-.55,6.83a9.07,9.07,0,0,1,2.4,5.4l.14,3.52a11.55,11.55,0,0,1-3.09,5.51c0,.68,0,1.36,0,2.05A238.31,238.31,0,0,0,724.74,392a33.23,33.23,0,0,1,1.74,3.65,29.4,29.4,0,0,1,1.6,10.1,18.61,18.61,0,0,1-.81,4.22,232.81,232.81,0,0,0,6.67,27.52c5.65,3.09,9.3,7.18,8.67,12.13L742,453a7.32,7.32,0,0,1-1.59,2.88c.6,1.5,1.21,3,1.85,4.47a8.72,8.72,0,0,1,1.5.63l2.45,1.54c3.17,2.77,4.31,8.15,3.9,14.41,5.15,9.85,3.82,7.65,10.38,16.75l4.48-11,1.42-3.11c-7.61-11.9-9.14-16.44-14.32-29.5a26.54,26.54,0,0,1-4.3-7.24,20.42,20.42,0,0,1-1-7.64,222.9,222.9,0,0,1-9.7-50.65c-5.61-8.31-8.21-16.87-3.36-21.83l2.5-2.34.39-.19a224.85,224.85,0,0,1,1.93-22.86c-1.33-4.56-2.83-10.92-2.05-14.19.82-3.44,4.32-7.68,6.79-10.35q2.64-10.44,6.27-20.55h0l-1.41-2.4c-3.32-7.65,2.8-15.7,11.84-21.9a222.36,222.36,0,0,1,24.46-38.29,27,27,0,0,1,4.22-7.62,20.49,20.49,0,0,1,6.38-4.8c2.2-2.39,4.44-4.75,6.75-7.06a224.34,224.34,0,0,1,32-26.61c4.39-9,10.49-15.48,17.19-13.76l3.28,1,.25.17a218.14,218.14,0,0,1,21-9.83c3.28-3.41,7.94-7.78,11.12-8.72,3.38-1,8.8-.11,12.34.7q10.31-2.89,20.92-4.77s0-.06,0-.09l1.36-2.42c5-6.74,15.14-5.4,25.1-.59,4.32-.24,8.65-.38,13-.38a226.53,226.53,0,0,1,32.23,2.3,27.33,27.33,0,0,1,8.66-.14,20.28,20.28,0,0,1,7.17,3,220,220,0,0,1,48.82,16.86c9.94-.66,18.56,1.38,20.42,8l.77,3.34c0,.11,0,.22,0,.34a222.44,222.44,0,0,1,18.86,13.2c4.61,1.13,10.84,3,13.28,5.31,2.62,2.48,4.57,7.79,5.63,11.26.62.6,1.25,1.2,1.86,1.81q6.63,6.63,12.61,13.71l.15,0,2.78,0c8.31,1,12.22,10.33,13,21.3a220.25,220.25,0,0,1,21.11,40.46,26.86,26.86,0,0,1,4.31,7.24,20.38,20.38,0,0,1,1,7.64,222.37,222.37,0,0,1,9.71,50.65c5.61,8.31,8.21,16.87,3.36,21.83l-2.51,2.34-.38.19a228,228,0,0,1-1.93,22.87c1.32,4.56,2.82,10.91,2,14.18-.81,3.44-4.31,7.69-6.78,10.35q-2.64,10.45-6.28,20.56h0l1.42,2.39c3.2,7.4-2.41,15.17-11,21.27-.17.13-4.95,10.68-7.93,16.63l5,1.69"/><path class="cls-2" d="M1169.12,446.09c-7-3.34-59.13,24.55-59.13,24.55-5.61,3.72,42.9-29.77,57.5-27.94-6.69-8.45-25-5.85-37.87,1.31-13.86,7.68-27.7,30.81-27.7,30.81h0s26.14,4.91,41.09-.39S1173.92,457.17,1169.12,446.09Z"/><path class="cls-1" d="M1212.16,442.23s-26.87,4.81-32.57,11.47,12.24,30.71,12.24,30.71"/><path class="cls-1" d="M1213.37,445.26s-28.78,4.67-32.71,9.58,6.57,30.46,6.57,30.46"/><path class="cls-1" d="M1182,487.38s-8.1-24.3-3.42-31.5,36.8-2.8,36.8-2.8"/><path class="cls-1" d="M1205.43,438.55s-26,9.72-25.84,15.15,19,27.08,19,27.08"/><path class="cls-1" d="M1202.85,479.08s-23.28-19.46-22.27-22.44,35.28.32,35.28.32"/><path class="cls-1" d="M1205.66,477.18s-27.26-15.44-26.35-20.3,35.16,6.29,35.16,6.29"/><line class="cls-1" x1="1208.86" y1="475.12" x2="1180.58" y2="456.64"/><path class="cls-1" d="M1195.16,483.08s-16.39-19-15.44-23.63,33.84-11,33.84-11"/><path class="cls-1" d="M1184.48,487.34s-9-22.86-7.06-26.66,36.81,5.4,36.81,5.4"/><path class="cls-1" d="M1209,439.67s-26.55,13.05-26.67,17.35l29,15.39"/><path class="cls-1" d="M1189.16,484.53s-11.63-21.57-8-26.71"/><path class="cls-1" d="M1197,482.33s-20.47-20.89-16.38-27.49l33.42,14.75"/><path class="cls-1" d="M1213,447.05s-24.44,2.33-28.86,7.36,25.27,8.12,25.27,8.12"/><path class="cls-1" d="M1214.84,459.36s-28.35-8.61-30.28-6.61,15.54,26.64,15.54,26.64"/></g><g id="blackBEEG"><path class="cls-3" d="M1031.5,460.67A90,90,0,0,0,1051.43,441a73.12,73.12,0,0,0,14.32-45.33H851.93A73.12,73.12,0,0,0,866.25,441a90.22,90.22,0,0,0,19.92,19.64Z"/><path class="cls-4" d="M889.13,395.38a73.14,73.14,0,0,0,14.32,45.34,90,90,0,0,0,19.93,19.64"/><path class="cls-4" d="M1032.6,395.7A73.21,73.21,0,0,1,1018.27,441a90.22,90.22,0,0,1-19.92,19.64"/><path class="cls-4" d="M924.59,392a73.17,73.17,0,0,0,14.32,45.33A89.87,89.87,0,0,0,958.84,457"/><path class="cls-4" d="M997.21,392a73.1,73.1,0,0,1-14.32,45.33A89.87,89.87,0,0,1,963,457"/><line class="cls-5" x1="930.74" y1="227.84" x2="990.15" y2="227.84"/><line class="cls-6" x1="960.44" y1="259.34" x2="960.44" y2="482.68"/><path class="cls-7" d="M960.44,241.72s-85,2.19-85,13.13"/><path class="cls-7" d="M956.38,240.61s85,2.19,85,13.13"/><line class="cls-7" x1="875.43" y1="263.53" x2="1041.31" y2="263.53"/><line class="cls-7" x1="881.24" y1="253.74" x2="1035.65" y2="253.74"/><line class="cls-8" x1="882.58" y1="289.37" x2="883.71" y2="309.24"/><line class="cls-8" x1="881.24" y1="281.94" x2="881.24" y2="263.55"/><line class="cls-8" x1="884.77" y1="318.02" x2="889.02" y2="338.54"/><path class="cls-8" d="M891.5,348.44A150.9,150.9,0,0,0,900,366.13"/><path class="cls-8" d="M904.58,377.1s9.55,12,12.38,14.14"/><line class="cls-8" x1="917.32" y1="279.82" x2="916.96" y2="264.97"/><line class="cls-8" x1="917.67" y1="309.89" x2="917.32" y2="289.37"/><line class="cls-8" x1="919.09" y1="337.48" x2="918.73" y2="319.09"/><path class="cls-8" d="M924.74,367.54s-3.89-15.21-3.89-20.51"/><line class="cls-8" x1="925.81" y1="377.1" x2="933.59" y2="392.31"/><ellipse class="cls-8" cx="881.98" cy="284.9" rx="6.93" ry="9.43" transform="translate(-21.43 77.74) rotate(-4.99)"/><ellipse class="cls-8" cx="884.52" cy="313.76" rx="6.82" ry="9.43" transform="translate(-36.84 135.12) rotate(-8.56)"/><ellipse class="cls-8" cx="890.03" cy="342.97" rx="6.49" ry="9.43" transform="translate(-62.18 287.53) rotate(-17.74)"/><ellipse class="cls-8" cx="902.17" cy="371.25" rx="6.59" ry="9.43" transform="translate(-64.76 500.82) rotate(-30)"/><ellipse class="cls-8" cx="917.83" cy="393.28" rx="6.66" ry="8.25" transform="translate(-56.44 612.07) rotate(-35.85)"/><ellipse class="cls-8" cx="917.87" cy="284.93" rx="6.93" ry="9.43" transform="translate(-14.15 50.38) rotate(-3.12)"/><ellipse class="cls-8" cx="918.49" cy="313.39" rx="6.93" ry="9.43" transform="translate(-13.81 43.83) rotate(-2.71)"/><ellipse class="cls-8" cx="920.96" cy="342.47" rx="6.93" ry="9.43" transform="translate(-38.34 129.85) rotate(-7.9)"/><ellipse class="cls-8" cx="925.87" cy="371.54" rx="6.76" ry="9.07" transform="translate(-68.74 293.9) rotate(-17.4)"/><line class="cls-8" x1="941.57" y1="412.76" x2="978.08" y2="413.07"/><line class="cls-8" x1="1039.97" y1="289.85" x2="1038.83" y2="309.71"/><line class="cls-8" x1="1041.31" y1="282.42" x2="1041.31" y2="264.03"/><line class="cls-8" x1="1037.77" y1="318.5" x2="1033.53" y2="339.02"/><path class="cls-8" d="M1031.05,348.92a150.74,150.74,0,0,1-8.49,17.69"/><path class="cls-8" d="M1018,377.57s-9.55,12-12.38,14.15"/><line class="cls-9" x1="1005.23" y1="280.3" x2="1005.58" y2="265.44"/><line class="cls-8" x1="1004.88" y1="310.37" x2="1005.23" y2="289.85"/><line class="cls-8" x1="1003.46" y1="337.96" x2="1003.82" y2="319.56"/><path class="cls-8" d="M997.8,368s3.89-15.21,3.89-20.51"/><line class="cls-8" x1="996.74" y1="377.57" x2="988.96" y2="392.78"/><ellipse class="cls-8" cx="1040.56" cy="285.37" rx="9.43" ry="6.93" transform="translate(665.82 1297.19) rotate(-85.01)"/><ellipse class="cls-8" cx="1038.02" cy="314.24" rx="9.43" ry="6.82" transform="translate(572.81 1293.94) rotate(-81.44)"/><ellipse class="cls-8" cx="1032.51" cy="343.45" rx="9.43" ry="6.49" transform="translate(390.76 1222.19) rotate(-72.26)"/><ellipse class="cls-8" cx="1020.38" cy="371.73" rx="9.43" ry="6.59" transform="translate(188.26 1069.54) rotate(-60)"/><ellipse class="cls-8" cx="1004.68" cy="285.41" rx="9.43" ry="6.93" transform="translate(665.02 1273.06) rotate(-86.88)"/><ellipse class="cls-8" cx="1004.06" cy="313.87" rx="9.43" ry="6.93" transform="translate(643.01 1301.95) rotate(-87.29)"/><ellipse class="cls-8" cx="1001.59" cy="342.95" rx="9.43" ry="6.93" transform="translate(524.2 1287.89) rotate(-82.1)"/><ellipse class="cls-8" cx="996.68" cy="372.01" rx="9.07" ry="6.76" transform="translate(343.62 1211.82) rotate(-72.6)"/><line class="cls-8" x1="1020.61" y1="295.96" x2="1019.4" y2="317.09"/><line class="cls-8" x1="1022.04" y1="288.06" x2="1022.04" y2="268.49"/><line class="cls-8" x1="1018.27" y1="326.44" x2="1013.76" y2="348.26"/><path class="cls-8" d="M1011.12,358.8a159.66,159.66,0,0,1-9,18.81"/><line class="cls-9" x1="983.65" y1="285.8" x2="984.03" y2="270"/><line class="cls-8" x1="983.28" y1="317.78" x2="983.65" y2="295.96"/><line class="cls-8" x1="981.77" y1="347.14" x2="982.15" y2="327.57"/><path class="cls-8" d="M975.75,379.12s4.14-16.18,4.14-21.82"/><line class="cls-8" x1="974.62" y1="389.28" x2="966.35" y2="405.46"/><ellipse class="cls-8" cx="1021.24" cy="291.2" rx="10.03" ry="7.37" transform="translate(642.38 1283.26) rotate(-85.01)"/><ellipse class="cls-8" cx="1018.54" cy="321.91" rx="10.03" ry="7.26" transform="matrix(0.15, -0.99, 0.99, 0.15, 548.64, 1281.2)"/><ellipse class="cls-8" cx="1012.68" cy="352.98" rx="10.03" ry="6.9" transform="translate(367.89 1209.93) rotate(-72.26)"/><ellipse class="cls-8" cx="999.77" cy="383.06" rx="10.03" ry="7.01" transform="translate(168.14 1057.36) rotate(-60)"/><ellipse class="cls-8" cx="983.11" cy="406.49" rx="8.78" ry="7.09" transform="translate(77.84 965.26) rotate(-54.15)"/><ellipse class="cls-8" cx="983.07" cy="291.23" rx="10.03" ry="7.37" transform="translate(638.76 1256.99) rotate(-86.88)"/><ellipse class="cls-8" cx="982.41" cy="321.51" rx="10.03" ry="7.37" transform="translate(614.75 1287.6) rotate(-87.29)"/><ellipse class="cls-8" cx="979.78" cy="352.45" rx="10.03" ry="7.37" transform="translate(495.99 1274.47) rotate(-82.1)"/><ellipse class="cls-8" cx="974.56" cy="383.37" rx="9.65" ry="7.19" transform="translate(317.28 1198.67) rotate(-72.6)"/><line class="cls-8" x1="901.46" y1="295.91" x2="902.69" y2="317.37"/><line class="cls-8" x1="900.01" y1="287.89" x2="900.01" y2="268.01"/><line class="cls-8" x1="903.83" y1="326.87" x2="908.42" y2="349.03"/><path class="cls-8" d="M911.09,359.73a163.06,163.06,0,0,0,9.18,19.11"/><line class="cls-8" x1="938.99" y1="285.59" x2="938.61" y2="269.54"/><line class="cls-8" x1="939.38" y1="318.08" x2="938.99" y2="295.91"/><line class="cls-8" x1="940.9" y1="347.89" x2="940.52" y2="328.01"/><path class="cls-8" d="M947,380.37s-4.21-16.43-4.21-22.16"/><line class="cls-8" x1="948.17" y1="390.69" x2="956.57" y2="407.12"/><ellipse class="cls-8" cx="900.82" cy="291.07" rx="7.48" ry="10.19" transform="translate(-21.89 79.4) rotate(-4.99)"/><ellipse class="cls-8" cx="903.56" cy="322.26" rx="7.37" ry="10.19" transform="translate(-37.9 138.05) rotate(-8.56)"/><ellipse class="cls-8" cx="909.52" cy="353.82" rx="7.01" ry="10.19" transform="translate(-64.56 293.99) rotate(-17.74)"/><ellipse class="cls-8" cx="922.63" cy="384.38" rx="7.12" ry="10.19" transform="translate(-68.58 512.81) rotate(-30)"/><ellipse class="cls-8" cx="939.54" cy="408.17" rx="7.2" ry="8.92" transform="translate(-61.05 627.62) rotate(-35.85)"/><ellipse class="cls-8" cx="939.59" cy="291.11" rx="7.48" ry="10.19" transform="translate(-14.45 51.57) rotate(-3.12)"/><ellipse class="cls-8" cx="940.26" cy="321.86" rx="7.48" ry="10.19" transform="translate(-14.18 44.87) rotate(-2.71)"/><ellipse class="cls-8" cx="942.93" cy="353.28" rx="7.48" ry="10.19" transform="translate(-39.61 132.98) rotate(-7.9)"/><ellipse class="cls-8" cx="948.23" cy="384.68" rx="7.3" ry="9.8" transform="matrix(0.95, -0.3, 0.3, 0.95, -71.65, 301.19)"/><line class="cls-5" x1="982.15" y1="247.17" x2="959.82" y2="247.98"/></g><g id="TextLayer"><g id="Bottom_Text" data-name="Bottom Text"><path class="cls-2" d="M789.24,536.46H770l-3.09,9h-14.4l19.77-51.94H787l19.77,51.94h-14.4Zm-3.58-10.26-6.06-17.29-6.06,17.29Z"/><path class="cls-2" d="M823.89,493.55v28.24c0,1.52.05,3.07.17,4.65a12.74,12.74,0,0,0,1,4.31,7.14,7.14,0,0,0,2.72,3.13,9.65,9.65,0,0,0,5.24,1.21,9.45,9.45,0,0,0,5.2-1.21,7.54,7.54,0,0,0,2.72-3.13,12.3,12.3,0,0,0,1.06-4.31q.18-2.37.18-4.65V493.55h13.43v30.1q0,12.12-5.55,17.7t-17,5.58q-11.5,0-17.09-5.58t-5.57-17.7v-30.1Z"/><path class="cls-2" d="M903.09,510.91a14.41,14.41,0,0,0-11.57-5.72,14.21,14.21,0,0,0-5.61,1.1,13.5,13.5,0,0,0-7.37,7.51,14.87,14.87,0,0,0-1.07,5.65,15.05,15.05,0,0,0,1.07,5.72,13.88,13.88,0,0,0,3,4.54,13.84,13.84,0,0,0,10,4.14q6.48,0,11.64-5.51v16l-1.37.49a41.44,41.44,0,0,1-5.79,1.62,28.38,28.38,0,0,1-5.3.51,27.09,27.09,0,0,1-19-7.75,28.52,28.52,0,0,1-6-8.74,28.08,28.08,0,0,1,0-22.05,27.1,27.1,0,0,1,14.71-14.25,27,27,0,0,1,10.4-2,28.25,28.25,0,0,1,6.09.65,36.94,36.94,0,0,1,6.3,2Z"/><path class="cls-2" d="M926.51,515,943,493.55h16.67l-20.59,24.59,22.52,27.35h-17.5L926.51,523v22.53H913V493.55h13.5Z"/><path class="cls-2" d="M980.23,493.55v40.5h16.19v11.44H966.73V493.55Z"/><path class="cls-2" d="M1036.51,536.46h-19.29l-3.1,9H999.73l19.76-51.94h14.74L1054,545.49h-14.39Zm-3.59-10.26-6.06-17.29-6.06,17.29Z"/><path class="cls-2" d="M1059.1,545.49V493.55h13.5l24.93,31.76V493.55H1111v51.94h-13.43l-24.93-31.76v31.76Z"/><path class="cls-2" d="M1121,493.55h20a23.41,23.41,0,0,1,10,2.14,27.16,27.16,0,0,1,8.13,5.68,26.35,26.35,0,0,1,5.48,8.27,25.41,25.41,0,0,1,0,19.69,26.15,26.15,0,0,1-5.44,8.3,26.75,26.75,0,0,1-8.13,5.72,23.78,23.78,0,0,1-10,2.14h-20Zm13.5,40.5h3.1a16.8,16.8,0,0,0,6.26-1.1,13.21,13.21,0,0,0,4.65-3,13,13,0,0,0,2.9-4.58,16.54,16.54,0,0,0,1-5.82,16,16,0,0,0-1-5.79,12.94,12.94,0,0,0-7.57-7.64,16.5,16.5,0,0,0-6.2-1.1h-3.1Z"/><path class="cls-2" d="M758.42,567h14a16.59,16.59,0,0,1,7,1.49,19.11,19.11,0,0,1,5.69,4,18.56,18.56,0,0,1,3.83,5.79,17.61,17.61,0,0,1,1.4,6.92,17.81,17.81,0,0,1-1.37,6.87,18.53,18.53,0,0,1-3.81,5.81,18.94,18.94,0,0,1-5.69,4,16.56,16.56,0,0,1-7,1.49h-14Zm9.45,28.35H770a11.85,11.85,0,0,0,4.39-.77,9.44,9.44,0,0,0,3.25-2.12,9.06,9.06,0,0,0,2-3.21,11.63,11.63,0,0,0,.7-4.07,11,11,0,0,0-.73-4,9.15,9.15,0,0,0-2-3.23,9.37,9.37,0,0,0-3.25-2.13A11.69,11.69,0,0,0,770,575h-2.17Z"/><path class="cls-2" d="M805.19,567v36.35h-9.45V567Z"/><path class="cls-2" d="M832.19,576.3a11.55,11.55,0,0,0-3.09-1.86,8.21,8.21,0,0,0-3-.6,4.91,4.91,0,0,0-3,.86A2.71,2.71,0,0,0,822,577a2.24,2.24,0,0,0,.58,1.59,5.06,5.06,0,0,0,1.51,1.09,13.17,13.17,0,0,0,2.13.79c.78.23,1.56.47,2.33.72a14.59,14.59,0,0,1,6.78,4.13,10.16,10.16,0,0,1,2.14,6.72,13.09,13.09,0,0,1-.94,5.07,10.46,10.46,0,0,1-2.75,3.88,12.64,12.64,0,0,1-4.43,2.5,18.34,18.34,0,0,1-6,.9,21.91,21.91,0,0,1-12.77-4.1l4-7.62a16.47,16.47,0,0,0,4.19,2.8,10.08,10.08,0,0,0,4.1.91,4.9,4.9,0,0,0,3.45-1.06,3.28,3.28,0,0,0,.84-3.83,3.08,3.08,0,0,0-1-1.11,7.73,7.73,0,0,0-1.76-.94c-.73-.29-1.6-.61-2.63-1-1.22-.38-2.42-.81-3.59-1.27a11.44,11.44,0,0,1-3.14-1.86,8.58,8.58,0,0,1-2.21-2.92,10.19,10.19,0,0,1-.85-4.46A13,13,0,0,1,813,573a10.89,10.89,0,0,1,2.51-3.76,11.16,11.16,0,0,1,4-2.43,14.86,14.86,0,0,1,5.23-.87,23.26,23.26,0,0,1,5.64.74,24.72,24.72,0,0,1,5.64,2.2Z"/><path class="cls-2" d="M869,579.14a10.09,10.09,0,0,0-8.1-4,10,10,0,0,0-3.93.77,9.28,9.28,0,0,0-3.11,2.1,9.44,9.44,0,0,0-2.05,3.15,10.94,10.94,0,0,0,0,8,9.62,9.62,0,0,0,5.18,5.3,9.51,9.51,0,0,0,3.86.77,11,11,0,0,0,8.15-3.85v11.18l-1,.34a28.54,28.54,0,0,1-4,1.13,19.69,19.69,0,0,1-3.71.37A19,19,0,0,1,847,598.93a19.78,19.78,0,0,1-4.22-6.12,19.68,19.68,0,0,1,0-15.43,19,19,0,0,1,10.3-10A19,19,0,0,1,860.3,566a20.2,20.2,0,0,1,4.26.45,26.87,26.87,0,0,1,4.42,1.43Z"/><path class="cls-2" d="M907.88,583h18.76a52.13,52.13,0,0,1-.24,5.25,18.18,18.18,0,0,1-1,4.39,17.47,17.47,0,0,1-2.74,5,16.15,16.15,0,0,1-4.08,3.66,19.06,19.06,0,0,1-5.13,2.24,21.87,21.87,0,0,1-5.89.78,20.69,20.69,0,0,1-7.73-1.4,17.42,17.42,0,0,1-6-3.93A17.75,17.75,0,0,1,890,593a21.18,21.18,0,0,1-1.4-7.83,21.5,21.5,0,0,1,1.37-7.79,17.12,17.12,0,0,1,3.91-6.05,17.74,17.74,0,0,1,6.1-3.9,21.47,21.47,0,0,1,8-1.4,19.69,19.69,0,0,1,10,2.46,17,17,0,0,1,6.8,7.61l-9,3.72a9.11,9.11,0,0,0-3.25-4.3,8.22,8.22,0,0,0-4.56-1.3,9.11,9.11,0,0,0-3.85.8,8.45,8.45,0,0,0-3,2.26,11.1,11.1,0,0,0-1.93,3.55,14.57,14.57,0,0,0-.7,4.63,14.4,14.4,0,0,0,.61,4.29,9.64,9.64,0,0,0,1.8,3.42,8.13,8.13,0,0,0,3,2.24,10.11,10.11,0,0,0,4.15.8,11.47,11.47,0,0,0,2.7-.31,7.06,7.06,0,0,0,2.34-1,5.78,5.78,0,0,0,1.71-1.8,7.23,7.23,0,0,0,.92-2.7h-7.77Z"/><path class="cls-2" d="M930.4,585.17a19.12,19.12,0,0,1,1.49-7.55,18.64,18.64,0,0,1,10.49-10.17,23.11,23.11,0,0,1,16.22,0,19.15,19.15,0,0,1,6.39,4.07,18.51,18.51,0,0,1,4.17,6.1,19.73,19.73,0,0,1,0,15.09,18.4,18.4,0,0,1-4.17,6.1,19.17,19.17,0,0,1-6.39,4.08,23.11,23.11,0,0,1-16.22,0,19.05,19.05,0,0,1-6.34-4.08,18.81,18.81,0,0,1-4.15-6.1A19.07,19.07,0,0,1,930.4,585.17Zm9.88,0a9.8,9.8,0,0,0,.82,4,10.23,10.23,0,0,0,2.22,3.18,10.1,10.1,0,0,0,3.25,2.1,10.51,10.51,0,0,0,11.14-2.1,9.81,9.81,0,0,0,2.24-3.18,10.19,10.19,0,0,0,0-8,9.81,9.81,0,0,0-2.24-3.18,10.15,10.15,0,0,0-3.28-2.09,10.67,10.67,0,0,0-7.86,0,9.91,9.91,0,0,0-3.25,2.09,10.23,10.23,0,0,0-2.22,3.18A9.85,9.85,0,0,0,940.28,585.17Z"/><path class="cls-2" d="M985.51,567v28.35h11.33v8H976.06V567Z"/><path class="cls-2" d="M1022,575h-11.38v6.08h10.36v8h-10.36v14.27h-9.45V567H1022Z"/><path class="cls-2" d="M1069,579.14a10.26,10.26,0,0,0-12-3.23,9.39,9.39,0,0,0-5.15,5.25,10.94,10.94,0,0,0,0,8,9.64,9.64,0,0,0,9,6.07,10.92,10.92,0,0,0,8.14-3.85v11.18l-1,.34a28.54,28.54,0,0,1-4,1.13,19.69,19.69,0,0,1-3.71.37,19.06,19.06,0,0,1-13.29-5.43,19.92,19.92,0,0,1-4.21-6.12,19.57,19.57,0,0,1,0-15.43,19,19,0,0,1,4.2-6,19.32,19.32,0,0,1,6.09-4,19,19,0,0,1,7.29-1.42,20.27,20.27,0,0,1,4.26.45,26.48,26.48,0,0,1,4.41,1.43Z"/><path class="cls-2" d="M1083.86,567v28.35h11.33v8h-20.78V567Z"/><path class="cls-2" d="M1108.26,567v19.77c0,1.06,0,2.14.12,3.25a9,9,0,0,0,.72,3,5,5,0,0,0,1.91,2.19,6.74,6.74,0,0,0,3.66.84,6.6,6.6,0,0,0,3.64-.84,5.24,5.24,0,0,0,1.91-2.19,8.76,8.76,0,0,0,.74-3c.08-1.11.13-2.19.13-3.25V567h9.4v21.07q0,8.49-3.88,12.39t-11.94,3.91q-8.06,0-12-3.91t-3.91-12.39V567Z"/><path class="cls-2" d="M1137.52,567h14.08q5,0,7.62,2.41c1.74,1.61,2.6,3.92,2.6,6.94a9.42,9.42,0,0,1-1,4.56,8.33,8.33,0,0,1-3,3.06,11.54,11.54,0,0,1,3.45,1.18,7.45,7.45,0,0,1,2.32,2,7.33,7.33,0,0,1,1.27,2.6,11.76,11.76,0,0,1,.39,3.08,11,11,0,0,1-.89,4.54,9.2,9.2,0,0,1-2.51,3.32,10.78,10.78,0,0,1-3.93,2,18.59,18.59,0,0,1-5.21.67h-15.19Zm9.45,14.27h1.74q4.44,0,4.44-3.52c0-2.34-1.48-3.52-4.44-3.52H1147Zm0,14.75h2.08a10.56,10.56,0,0,0,5.11-.91,3.58,3.58,0,0,0,0-5.88,10.54,10.54,0,0,0-5.11-.92H1147Z"/></g></g></svg>