<svg xmlns="http://www.w3.org/2000/svg" viewBox="0 0 646.92 688.28"><defs><style>.cls-1{fill:#276b65;}.cls-1,.cls-2,.cls-3,.cls-4,.cls-5,.cls-6,.cls-7,.cls-8,.cls-9{stroke:#fff;}.cls-1,.cls-2,.cls-3,.cls-4,.cls-5,.cls-7,.cls-8{stroke-miterlimit:10;}.cls-2,.cls-3,.cls-4,.cls-5,.cls-6,.cls-7,.cls-8,.cls-9{fill:none;}.cls-2{stroke-width:8px;}.cls-3{stroke-width:10px;}.cls-4,.cls-6,.cls-8,.cls-9{stroke-linecap:square;}.cls-4{stroke-width:25px;}.cls-5{stroke-width:16px;}.cls-6,.cls-9{stroke-linejoin:round;}.cls-6{stroke-width:12px;}.cls-7{stroke-linecap:round;}.cls-7,.cls-8{stroke-width:4px;}.cls-9{stroke-width:14px;}.cls-10{fill:#fff;}</style></defs><g id="Layer_2" data-name="Layer 2"><g id="MONO_ADGC_LOGO" data-name="MONO ADGC LOGO"><g id="Layer_56" data-name="Layer 56"><circle class="cls-1" cx="332.32" cy="326.26" r="0.09"/><path class="cls-2" d="M407.4,436.19a99.24,99.24,0,0,0,22-21.69,80.73,80.73,0,0,0,15.81-50h-236a80.73,80.73,0,0,0,15.81,50,99.24,99.24,0,0,0,22,21.69Z"/><path class="cls-3" d="M250.26,364.12a80.74,80.74,0,0,0,15.81,50,99.39,99.39,0,0,0,22,21.68"/><path class="cls-3" d="M408.61,364.47a80.73,80.73,0,0,1-15.81,50,99.24,99.24,0,0,1-22,21.69"/><path class="cls-3" d="M289.4,360.43a80.77,80.77,0,0,0,15.81,50,99.39,99.39,0,0,0,22,21.68"/><path class="cls-3" d="M369.55,360.43a80.77,80.77,0,0,1-15.81,50,99.39,99.39,0,0,1-22,21.68"/><line class="cls-4" x1="296.19" y1="179.21" x2="361.76" y2="179.21"/><line class="cls-5" x1="328.97" y1="198.26" x2="328.97" y2="460.48"/><path class="cls-6" d="M329,194.53s-93.83,2.41-93.83,14.49"/><path class="cls-6" d="M324.49,194.4s93.83,2.41,93.83,14.49"/><line class="cls-6" x1="235.14" y1="218.59" x2="418.22" y2="218.59"/><line class="cls-6" x1="241.55" y1="207.79" x2="411.98" y2="207.79"/><line class="cls-7" x1="243.03" y1="247.12" x2="244.28" y2="269.04"/><line class="cls-7" x1="241.55" y1="238.92" x2="241.55" y2="218.62"/><line class="cls-7" x1="245.45" y1="278.74" x2="250.14" y2="301.38"/><path class="cls-7" d="M252.87,312.32s4.69,11.71,9.37,19.52"/><path class="cls-7" d="M267.32,343.94s10.54,13.27,13.66,15.62"/><line class="cls-7" x1="281.37" y1="236.58" x2="280.98" y2="220.18"/><line class="cls-7" x1="281.76" y1="269.76" x2="281.37" y2="247.12"/><line class="cls-7" x1="283.32" y1="300.21" x2="282.93" y2="279.91"/><path class="cls-7" d="M289.57,333.4s-4.3-16.79-4.3-22.65"/><line class="cls-7" x1="290.74" y1="343.94" x2="299.33" y2="360.73"/><ellipse class="cls-7" cx="242.37" cy="242.18" rx="7.64" ry="10.41" transform="translate(-20.13 21.98) rotate(-4.99)"/><ellipse class="cls-7" cx="245.18" cy="274.04" rx="7.53" ry="10.41" transform="translate(-38.05 39.54) rotate(-8.56)"/><ellipse class="cls-7" cx="251.26" cy="306.27" rx="7.16" ry="10.41" transform="matrix(0.95, -0.3, 0.3, 0.95, -81.38, 91.13)"/><ellipse class="cls-7" cx="264.65" cy="337.49" rx="7.27" ry="10.41" transform="translate(-133.29 177.54) rotate(-30)"/><ellipse class="cls-7" cx="281.93" cy="361.8" rx="7.35" ry="9.11" transform="translate(-158.48 233.67) rotate(-35.85)"/><ellipse class="cls-7" cx="281.98" cy="242.21" rx="7.64" ry="10.41" transform="translate(-12.76 15.71) rotate(-3.12)"/><ellipse class="cls-7" cx="282.66" cy="273.63" rx="7.64" ry="10.41" transform="translate(-12.64 13.69) rotate(-2.71)"/><ellipse class="cls-7" cx="285.39" cy="305.73" rx="7.64" ry="10.41" transform="translate(-39.32 42.14) rotate(-7.9)"/><ellipse class="cls-7" cx="290.81" cy="337.8" rx="7.46" ry="10.01" transform="translate(-87.72 102.43) rotate(-17.4)"/><line class="cls-7" x1="308.14" y1="383.31" x2="348.43" y2="383.65"/><line class="cls-7" x1="416.74" y1="247.65" x2="415.49" y2="269.57"/><line class="cls-7" x1="418.22" y1="239.45" x2="418.22" y2="219.15"/><line class="cls-7" x1="414.32" y1="279.27" x2="409.63" y2="301.91"/><path class="cls-7" d="M406.9,312.84s-4.68,11.72-9.37,19.52"/><path class="cls-7" d="M392.46,344.47s-10.54,13.27-13.67,15.61"/><line class="cls-8" x1="378.4" y1="237.11" x2="378.79" y2="220.71"/><line class="cls-7" x1="378.01" y1="270.29" x2="378.4" y2="247.65"/><line class="cls-7" x1="376.45" y1="300.74" x2="376.84" y2="280.44"/><path class="cls-7" d="M370.2,333.93s4.3-16.79,4.3-22.65"/><line class="cls-7" x1="369.03" y1="344.47" x2="360.44" y2="361.25"/><ellipse class="cls-7" cx="417.4" cy="242.71" rx="10.41" ry="7.64" transform="translate(139.33 637.43) rotate(-85.01)"/><ellipse class="cls-7" cx="414.6" cy="274.57" rx="10.41" ry="7.53" transform="translate(81.39 643.69) rotate(-81.44)"/><ellipse class="cls-7" cx="408.51" cy="306.8" rx="10.41" ry="7.16" transform="matrix(0.3, -0.95, 0.95, 0.3, -8.18, 602.39)"/><ellipse class="cls-7" cx="395.12" cy="338.02" rx="10.41" ry="7.27" transform="translate(-95.17 511.19) rotate(-60)"/><ellipse class="cls-7" cx="377.8" cy="242.74" rx="10.41" ry="7.64" transform="translate(114.85 606.76) rotate(-86.88)"/><ellipse class="cls-7" cx="377.11" cy="274.16" rx="10.41" ry="7.64" transform="translate(85.41 637.87) rotate(-87.29)"/><ellipse class="cls-7" cx="374.38" cy="306.25" rx="10.41" ry="7.64" transform="translate(19.57 634.98) rotate(-82.1)"/><ellipse class="cls-7" cx="368.96" cy="338.33" rx="10.01" ry="7.46" transform="matrix(0.3, -0.95, 0.95, 0.3, -64.23, 589.23)"/><line class="cls-7" x1="395.37" y1="254.39" x2="394.04" y2="277.71"/><line class="cls-7" x1="396.95" y1="245.67" x2="396.95" y2="224.07"/><line class="cls-7" x1="392.8" y1="288.03" x2="387.81" y2="312.12"/><path class="cls-7" d="M384.91,323.75s-5,12.46-10,20.76"/><line class="cls-8" x1="354.59" y1="243.18" x2="355" y2="225.73"/><line class="cls-7" x1="354.17" y1="278.48" x2="354.59" y2="254.39"/><line class="cls-7" x1="352.51" y1="310.87" x2="352.93" y2="289.28"/><path class="cls-7" d="M345.87,346.17s4.57-17.86,4.57-24.08"/><line class="cls-7" x1="344.62" y1="357.39" x2="335.48" y2="375.25"/><ellipse class="cls-7" cx="396.07" cy="249.13" rx="11.07" ry="8.13" transform="translate(113.46 622.05) rotate(-85.01)"/><ellipse class="cls-7" cx="393.09" cy="283.03" rx="11.07" ry="8.01" transform="translate(54.72 629.62) rotate(-81.44)"/><ellipse class="cls-7" cx="386.62" cy="317.32" rx="11.07" ry="7.62" transform="translate(-33.42 588.86) rotate(-72.26)"/><ellipse class="cls-7" cx="372.37" cy="350.52" rx="11.07" ry="7.74" transform="translate(-117.38 497.75) rotate(-60)"/><ellipse class="cls-7" cx="353.99" cy="376.39" rx="9.69" ry="7.82" transform="translate(-158.41 442.86) rotate(-54.15)"/><ellipse class="cls-7" cx="353.94" cy="249.17" rx="11.07" ry="8.13" transform="translate(85.88 589.03) rotate(-86.88)"/><ellipse class="cls-7" cx="353.22" cy="282.59" rx="11.07" ry="8.13" transform="translate(54.22 622.03) rotate(-87.29)"/><ellipse class="cls-7" cx="350.31" cy="316.74" rx="11.07" ry="8.13" transform="translate(-11.58 620.18) rotate(-82.1)"/><ellipse class="cls-7" cx="344.55" cy="350.86" rx="10.65" ry="7.94" transform="translate(-93.3 574.71) rotate(-72.6)"/><line class="cls-7" x1="263.87" y1="254.34" x2="265.22" y2="278.02"/><line class="cls-7" x1="262.27" y1="245.48" x2="262.27" y2="223.54"/><line class="cls-7" x1="266.49" y1="288.5" x2="271.55" y2="312.97"/><path class="cls-7" d="M274.5,324.78s5.06,12.65,10.13,21.09"/><line class="cls-7" x1="305.29" y1="242.95" x2="304.87" y2="225.23"/><line class="cls-7" x1="305.72" y1="278.8" x2="305.29" y2="254.34"/><line class="cls-7" x1="307.4" y1="311.7" x2="306.98" y2="289.77"/><path class="cls-7" d="M314.15,347.56s-4.64-18.14-4.64-24.47"/><line class="cls-7" x1="315.42" y1="358.94" x2="324.7" y2="377.08"/><ellipse class="cls-7" cx="263.16" cy="249" rx="8.26" ry="11.24" transform="translate(-20.65 23.82) rotate(-4.99)"/><ellipse class="cls-7" cx="266.19" cy="283.42" rx="8.13" ry="11.24" transform="translate(-39.21 42.77) rotate(-8.56)"/><ellipse class="cls-7" cx="272.76" cy="318.25" rx="7.73" ry="11.24" transform="translate(-84.01 98.26) rotate(-17.74)"/><ellipse class="cls-7" cx="287.23" cy="351.97" rx="7.86" ry="11.24" transform="translate(-137.51 190.77) rotate(-30)"/><ellipse class="cls-7" cx="305.9" cy="378.24" rx="7.94" ry="9.84" transform="translate(-163.57 250.83) rotate(-35.85)"/><ellipse class="cls-7" cx="305.95" cy="249.03" rx="8.26" ry="11.24" transform="translate(-13.1 17.02) rotate(-3.12)"/><ellipse class="cls-7" cx="306.69" cy="282.98" rx="8.26" ry="11.24" transform="translate(-13.05 14.84) rotate(-2.71)"/><ellipse class="cls-7" cx="309.64" cy="317.66" rx="8.26" ry="11.24" transform="matrix(0.99, -0.14, 0.14, 0.99, -40.73, 45.58)"/><ellipse class="cls-7" cx="315.49" cy="352.31" rx="8.06" ry="10.82" transform="translate(-90.93 110.48) rotate(-17.4)"/><text/><circle class="cls-1" cx="332.32" cy="326.26" r="0.09"/><path class="cls-2" d="M407.4,436.19a99.24,99.24,0,0,0,22-21.69,80.73,80.73,0,0,0,15.81-50h-236a80.73,80.73,0,0,0,15.81,50,99.24,99.24,0,0,0,22,21.69Z"/><path class="cls-3" d="M250.26,364.12a80.74,80.74,0,0,0,15.81,50,99.39,99.39,0,0,0,22,21.68"/><path class="cls-3" d="M408.61,364.47a80.73,80.73,0,0,1-15.81,50,99.24,99.24,0,0,1-22,21.69"/><path class="cls-3" d="M289.4,360.43a80.77,80.77,0,0,0,15.81,50,99.39,99.39,0,0,0,22,21.68"/><path class="cls-3" d="M369.55,360.43a80.77,80.77,0,0,1-15.81,50,99.39,99.39,0,0,1-22,21.68"/><line class="cls-4" x1="296.19" y1="179.21" x2="361.76" y2="179.21"/><line class="cls-5" x1="328.97" y1="198.26" x2="328.97" y2="460.48"/><path class="cls-6" d="M329,194.53s-93.83,2.41-93.83,14.49"/><path class="cls-6" d="M324.49,194.4s93.83,2.41,93.83,14.49"/><line class="cls-6" x1="235.14" y1="218.59" x2="418.22" y2="218.59"/><line class="cls-9" x1="241.55" y1="207.79" x2="411.98" y2="207.79"/><line class="cls-7" x1="243.03" y1="247.12" x2="244.28" y2="269.04"/><line class="cls-7" x1="241.55" y1="238.92" x2="241.55" y2="218.62"/><line class="cls-7" x1="245.45" y1="278.74" x2="250.14" y2="301.38"/><path class="cls-7" d="M252.87,312.32s4.69,11.71,9.37,19.52"/><path class="cls-7" d="M267.32,343.94s10.54,13.27,13.66,15.62"/><line class="cls-7" x1="281.37" y1="236.58" x2="280.98" y2="220.18"/><line class="cls-7" x1="281.76" y1="269.76" x2="281.37" y2="247.12"/><line class="cls-7" x1="283.32" y1="300.21" x2="282.93" y2="279.91"/><path class="cls-7" d="M289.57,333.4s-4.3-16.79-4.3-22.65"/><line class="cls-7" x1="290.74" y1="343.94" x2="299.33" y2="360.73"/><ellipse class="cls-7" cx="242.37" cy="242.18" rx="7.64" ry="10.41" transform="translate(-20.13 21.98) rotate(-4.99)"/><ellipse class="cls-7" cx="245.18" cy="274.04" rx="7.53" ry="10.41" transform="translate(-38.05 39.54) rotate(-8.56)"/><ellipse class="cls-7" cx="251.26" cy="306.27" rx="7.16" ry="10.41" transform="matrix(0.95, -0.3, 0.3, 0.95, -81.38, 91.13)"/><ellipse class="cls-7" cx="264.65" cy="337.49" rx="7.27" ry="10.41" transform="translate(-133.29 177.54) rotate(-30)"/><ellipse class="cls-7" cx="281.93" cy="361.8" rx="7.35" ry="9.11" transform="translate(-158.48 233.67) rotate(-35.85)"/><ellipse class="cls-7" cx="281.98" cy="242.21" rx="7.64" ry="10.41" transform="translate(-12.76 15.71) rotate(-3.12)"/><ellipse class="cls-7" cx="282.66" cy="273.63" rx="7.64" ry="10.41" transform="translate(-12.64 13.69) rotate(-2.71)"/><ellipse class="cls-7" cx="285.39" cy="305.73" rx="7.64" ry="10.41" transform="translate(-39.32 42.14) rotate(-7.9)"/><ellipse class="cls-7" cx="290.81" cy="337.8" rx="7.46" ry="10.01" transform="translate(-87.72 102.43) rotate(-17.4)"/><line class="cls-7" x1="308.14" y1="383.31" x2="348.43" y2="383.65"/><line class="cls-7" x1="416.74" y1="247.65" x2="415.49" y2="269.57"/><line class="cls-7" x1="418.22" y1="239.45" x2="418.22" y2="219.15"/><line class="cls-7" x1="414.32" y1="279.27" x2="409.63" y2="301.91"/><path class="cls-7" d="M406.9,312.84s-4.68,11.72-9.37,19.52"/><path class="cls-7" d="M392.46,344.47s-10.54,13.27-13.67,15.61"/><line class="cls-8" x1="378.4" y1="237.11" x2="378.79" y2="220.71"/><line class="cls-7" x1="378.01" y1="270.29" x2="378.4" y2="247.65"/><line class="cls-7" x1="376.45" y1="300.74" x2="376.84" y2="280.44"/><path class="cls-7" d="M370.2,333.93s4.3-16.79,4.3-22.65"/><line class="cls-7" x1="369.03" y1="344.47" x2="360.44" y2="361.25"/><ellipse class="cls-7" cx="417.4" cy="242.71" rx="10.41" ry="7.64" transform="translate(139.33 637.43) rotate(-85.01)"/><ellipse class="cls-7" cx="414.6" cy="274.57" rx="10.41" ry="7.53" transform="translate(81.39 643.69) rotate(-81.44)"/><ellipse class="cls-7" cx="408.51" cy="306.8" rx="10.41" ry="7.16" transform="matrix(0.3, -0.95, 0.95, 0.3, -8.18, 602.39)"/><ellipse class="cls-7" cx="395.12" cy="338.02" rx="10.41" ry="7.27" transform="translate(-95.17 511.19) rotate(-60)"/><ellipse class="cls-7" cx="377.8" cy="242.74" rx="10.41" ry="7.64" transform="translate(114.85 606.76) rotate(-86.88)"/><ellipse class="cls-7" cx="377.11" cy="274.16" rx="10.41" ry="7.64" transform="translate(85.41 637.87) rotate(-87.29)"/><ellipse class="cls-7" cx="374.38" cy="306.25" rx="10.41" ry="7.64" transform="translate(19.57 634.98) rotate(-82.1)"/><ellipse class="cls-7" cx="368.96" cy="338.33" rx="10.01" ry="7.46" transform="matrix(0.3, -0.95, 0.95, 0.3, -64.23, 589.23)"/><line class="cls-7" x1="395.37" y1="254.39" x2="394.04" y2="277.71"/><line class="cls-7" x1="396.95" y1="245.67" x2="396.95" y2="224.07"/><line class="cls-7" x1="392.8" y1="288.03" x2="387.81" y2="312.12"/><path class="cls-7" d="M384.91,323.75s-5,12.46-10,20.76"/><line class="cls-8" x1="354.59" y1="243.18" x2="355" y2="225.73"/><line class="cls-7" x1="354.17" y1="278.48" x2="354.59" y2="254.39"/><line class="cls-7" x1="352.51" y1="310.87" x2="352.93" y2="289.28"/><path class="cls-7" d="M345.87,346.17s4.57-17.86,4.57-24.08"/><line class="cls-7" x1="344.62" y1="357.39" x2="335.48" y2="375.25"/><ellipse class="cls-7" cx="396.07" cy="249.13" rx="11.07" ry="8.13" transform="translate(113.46 622.05) rotate(-85.01)"/><ellipse class="cls-7" cx="393.09" cy="283.03" rx="11.07" ry="8.01" transform="translate(54.72 629.62) rotate(-81.44)"/><ellipse class="cls-7" cx="386.62" cy="317.32" rx="11.07" ry="7.62" transform="translate(-33.42 588.86) rotate(-72.26)"/><ellipse class="cls-7" cx="372.37" cy="350.52" rx="11.07" ry="7.74" transform="translate(-117.38 497.75) rotate(-60)"/><ellipse class="cls-7" cx="353.99" cy="376.39" rx="9.69" ry="7.82" transform="translate(-158.41 442.86) rotate(-54.15)"/><ellipse class="cls-7" cx="353.94" cy="249.17" rx="11.07" ry="8.13" transform="translate(85.88 589.03) rotate(-86.88)"/><ellipse class="cls-7" cx="353.22" cy="282.59" rx="11.07" ry="8.13" transform="translate(54.22 622.03) rotate(-87.29)"/><ellipse class="cls-7" cx="350.31" cy="316.74" rx="11.07" ry="8.13" transform="translate(-11.58 620.18) rotate(-82.1)"/><ellipse class="cls-7" cx="344.55" cy="350.86" rx="10.65" ry="7.94" transform="translate(-93.3 574.71) rotate(-72.6)"/><line class="cls-7" x1="263.87" y1="254.34" x2="265.22" y2="278.02"/><line class="cls-7" x1="262.27" y1="245.48" x2="262.27" y2="223.54"/><line class="cls-7" x1="266.49" y1="288.5" x2="271.55" y2="312.97"/><path class="cls-7" d="M274.5,324.78s5.06,12.65,10.13,21.09"/><line class="cls-7" x1="305.29" y1="242.95" x2="304.87" y2="225.23"/><line class="cls-7" x1="305.72" y1="278.8" x2="305.29" y2="254.34"/><line class="cls-7" x1="307.4" y1="311.7" x2="306.98" y2="289.77"/><path class="cls-7" d="M314.15,347.56s-4.64-18.14-4.64-24.47"/><line class="cls-7" x1="315.42" y1="358.94" x2="324.7" y2="377.08"/><ellipse class="cls-7" cx="263.16" cy="249" rx="8.26" ry="11.24" transform="translate(-20.65 23.82) rotate(-4.99)"/><ellipse class="cls-7" cx="266.19" cy="283.42" rx="8.13" ry="11.24" transform="translate(-39.21 42.77) rotate(-8.56)"/><ellipse class="cls-7" cx="272.76" cy="318.25" rx="7.73" ry="11.24" transform="translate(-84.01 98.26) rotate(-17.74)"/><ellipse class="cls-7" cx="287.23" cy="351.97" rx="7.86" ry="11.24" transform="translate(-137.51 190.77) rotate(-30)"/><ellipse class="cls-7" cx="305.9" cy="378.24" rx="7.94" ry="9.84" transform="translate(-163.57 250.83) rotate(-35.85)"/><ellipse class="cls-7" cx="305.95" cy="249.03" rx="8.26" ry="11.24" transform="translate(-13.1 17.02) rotate(-3.12)"/><ellipse class="cls-7" cx="306.69" cy="282.98" rx="8.26" ry="11.24" transform="translate(-13.05 14.84) rotate(-2.71)"/><ellipse class="cls-7" cx="309.64" cy="317.66" rx="8.26" ry="11.24" transform="matrix(0.99, -0.14, 0.14, 0.99, -40.73, 45.58)"/><ellipse class="cls-7" cx="315.49" cy="352.31" rx="8.06" ry="10.82" transform="translate(-90.93 110.48) rotate(-17.4)"/></g><g id="ADGC_subtracted_Wreath" data-name="ADGC subtracted Wreath"><path class="cls-10" d="M529.52,261a.2.2,0,0,1,.17.36l-35.27,14.19c-.35.37.21,1.28.61,1.12l11.41-3.79c1.18-.36,6.81-2.49,8.31-2.87,2.31-.59,3.25.38.93,2.12-.58.43-7.8,4.39-7.8,4.39l-9.62,5.55c-.16.19.2.64.49.79.14.07.26.15.4.08l30.78-14.9c1-.37,5.74-2.61.47.76l-26.72,18.42a.74.74,0,0,0-.13,1.17c.56.52-.15-.08.43.4a1,1,0,0,0,1.16.09L522,278.16c1.75-1.28,2.6-.35.94,1.13l-15.06,12.4a.15.15,0,0,0,0,.25c.72.51,1,.69,1.78,1.14a.21.21,0,0,0,.24,0l26.57-20.82c.18-.12.39.11.21.25l-22,22.69a.3.3,0,0,0,0,.49,8.64,8.64,0,0,0,1.77.8l.85.29L529,286.64c.62-.65.87-.72,1.26-1.15l9.77-9.87a.11.11,0,0,1,.17.14l-3.85,6.69a68.71,68.71,0,0,1-8.51,10l-6,5.16a.25.25,0,0,0,.13.42,28,28,0,0,0,3.52.59,3.41,3.41,0,0,0,2.87-1.1c4-4.39,17-16.17,21-31.51a25,25,0,0,0-5.47-22.23c-10.6-11.72-27.53-16.12-33.14-18.17a2.72,2.72,0,0,0-1.76,0c-2.9.94-1.81-.1-4.43,2.48a.48.48,0,0,0,.15.78l23.41,10.06a.07.07,0,0,1,0,.13l-26.94-6.82a.71.71,0,0,0-.69.21,20,20,0,0,0-2.11,2.29.53.53,0,0,0,.32.81l28.78,8.1a.23.23,0,0,1-.09.44l-31.23-5a.51.51,0,0,0-.52.25c-.2.37,0,.18-.21.57a.55.55,0,0,0,.37.78l13.47,2.62c1.28.18,1.26,1.07,0,.94l-15.25-.57a.61.61,0,0,0-.61.37c-.23.57.07-.16-.14.42a.49.49,0,0,0,.42.65L527,249a.21.21,0,0,1,0,.42l-34.63.19a.87.87,0,0,0-.85.67c-.08.37.11-.19,0,.18a.67.67,0,0,0,.65.8l17.13.87c.91.11,1,.8,0,1.14l-18.4,2.83a.35.35,0,0,0-.3.33c0,.31.07.32.06.64a.29.29,0,0,0,.32.3l36.52-2.55a.18.18,0,0,1,.06.36L491,261.45a.33.33,0,0,0-.28.34,12.68,12.68,0,0,0,0,1.51.41.41,0,0,0,.47.39c3.08-.41,14.49-2.23,19.18-2.61,1.86-.15,2.6.82.38,1.65l-18.61,6.38a.18.18,0,0,0-.14.22c.09.46.21.77.32,1.21a.69.69,0,0,0,.58.3l6.76-1.65"/><path class="cls-10" d="M459.46,119.88c2.69-8,66.08-32.4,66.08-32.4,7.45-2.16-57.77,15.6-67.62,28.81-1.79-11.07,14.6-24.41,30.56-30.31,17.16-6.35,47.08-2.49,47.08-2.49h0s-16.28,24.74-32.31,33.56S464.9,131.13,459.46,119.88Z"/><path class="cls-10" d="M560.26,223.44c1.81,8.79,63.81,37.31,63.81,37.31,7.33,2.56-57.3-18.74-65.8-33.44-3.1,12,12,27.05,27.61,33.94,16.73,7.39,47.66,4,47.66,4h0s-13.7-27.47-29-37.53S567.11,211.3,560.26,223.44Z"/><path class="cls-10" d="M546.47,208.28c2-8.18,63-38,63-38,7.22-2.79-56.22,20.52-64.89,34.54C541.89,194,557.07,179.26,572.46,172c16.55-7.81,46.69-6.55,46.69-6.55h0s-14.09,26.06-29.29,36.22S552.86,219,546.47,208.28Z"/><path class="cls-10" d="M534.7,209.84c-7.5,3.84-69.94-22.92-69.94-22.92-6.84-3.65,52.26,29.15,68.54,26.56-6.45,9.18-22,12-37.59,5.05C479,211.1,454.8,182.79,454.8,182.79h0s28.93-6.36,46.56-1.49S538.65,198,534.7,209.84Z"/><path class="cls-10" d="M526.37,146.78a.2.2,0,0,1-.27-.29l28.72-24.89c.22-.47-.61-1.15-.94-.86l-9.55,7.3c-1,.72-5.63,4.57-6.93,5.41-2,1.31-3.19.7-1.56-1.7.4-.6,5.94-6.7,5.94-6.7l7.29-8.37c.09-.23-.4-.53-.72-.58-.15,0-.3-.06-.4,0l-24.26,24.11c-.78.66-4.58,4.34-.69-.57l19.27-26.11a.74.74,0,0,0-.26-1.15c-.69-.31.17,0-.54-.23a1,1,0,0,0-1.12.29L527.9,128.12c-1.25,1.77-2.35,1.17-1.27-.77l10.21-16.62a.16.16,0,0,0-.09-.24c-.84-.25-1.2-.31-2-.5a.21.21,0,0,0-.22.08L516.13,138.4c-.13.18-.4,0-.28-.16l13.41-28.61a.3.3,0,0,0-.21-.45,9.32,9.32,0,0,0-1.94-.19h-.89l-7.66,13.36c-.37.82-.59,1-.82,1.5l-6,12.5a.11.11,0,0,1-.2-.07l1.46-7.58a68.16,68.16,0,0,1,4.79-12.26l4-6.83a.25.25,0,0,0-.25-.36,29.33,29.33,0,0,0-3.53.59,3.42,3.42,0,0,0-2.35,2c-2.34,5.45-10.82,20.82-9.58,36.61a25.06,25.06,0,0,0,12.41,19.25c13.84,7.63,31.28,6.28,37.26,6.39a2.59,2.59,0,0,0,1.67-.54c2.44-1.83,1.74-.49,3.38-3.78a.48.48,0,0,0-.39-.69l-25.42-1.89c-.08,0-.08-.14,0-.14l27.7-2.32a.69.69,0,0,0,.58-.42,18.71,18.71,0,0,0,1.24-2.86.52.52,0,0,0-.55-.66l-29.85,1.71a.22.22,0,0,1-.06-.44l31.14-5.49a.48.48,0,0,0,.4-.4c.08-.42,0-.18,0-.61a.54.54,0,0,0-.61-.61l-13.58,1.9c-1.28.24-1.54-.6-.3-.89l14.61-4.43a.6.6,0,0,0,.45-.55c0-.62,0,.18,0-.44a.48.48,0,0,0-.6-.48l-32.81,7.28a.21.21,0,0,1-.12-.4l32.69-11.45a.86.86,0,0,0,.58-.91c0-.38,0,.22-.09-.16a.68.68,0,0,0-.88-.54l-16.48,4.75c-.89.19-1.22-.42-.37-1.07l16.47-8.67a.36.36,0,0,0,.18-.41c-.09-.3-.18-.28-.27-.58a.3.3,0,0,0-.4-.19L530.33,152a.18.18,0,0,1-.17-.31l32.54-17.88a.33.33,0,0,0,.15-.41c-.3-.8-.16-.64-.51-1.43a.42.42,0,0,0-.57-.21c-2.78,1.39-13,6.82-17.28,8.71-1.72.75-2.73.07-.9-1.44L559.11,127a.2.2,0,0,0,.06-.26c-.23-.4-.45-.65-.7-1a.66.66,0,0,0-.64-.09L552,129.32"/><path class="cls-10" d="M426.38,58a.47.47,0,0,0-.73-.25l-19.84,14.8c-.06,0-.14,0-.09-.1l18.82-19.34a.66.66,0,0,0,.16-.68,18.92,18.92,0,0,0-.9-2.89.52.52,0,0,0-.84-.13L402.18,69.66a.22.22,0,0,1-.33-.29l19.33-23.85a.48.48,0,0,0,0-.56c-.21-.35-.14-.1-.37-.45a.54.54,0,0,0-.84-.07l-8.75,10.05c-.77,1-1.51.54-.78-.47l7.89-12.55a.6.6,0,0,0,0-.69c-.37-.47.11.14-.28-.32a.47.47,0,0,0-.75,0L397.91,66.73a.2.2,0,0,1-.34-.21L414.24,37.3a.85.85,0,0,0-.16-1c-.28-.25.11.18-.17-.06a.67.67,0,0,0-1,.16l-9.05,14c-.53.71-1.17.48-1-.54L409.46,33a.33.33,0,0,0-.13-.41c-.25-.17-.3-.1-.56-.26a.29.29,0,0,0-.42.12L392.76,64.35a.18.18,0,0,1-.33-.12L404.9,30.39a.33.33,0,0,0-.16-.4c-.72-.39-.52-.36-1.28-.72a.4.4,0,0,0-.55.21c-1.15,2.79-5.17,13.27-7.12,17.4-.78,1.64-2,1.79-1.57-.49l3.67-18.74a.2.2,0,0,0-.12-.23c-.42-.14-.74-.19-1.17-.32a.65.65,0,0,0-.53.35l-1.9,6.48-7.64,29.12a.19.19,0,0,1-.38,0l5.19-36.55c-.14-.48-1.17-.45-1.24,0l-2.35,11.44c-.27,1.16-1.21,6.93-1.62,8.38-.63,2.22-1.9,2.55-2.23-.25-.09-.7.09-8.7.09-8.7V26.52c-.09-.22-.64-.14-.9,0s-.26.15-.27.3L380.41,60c-.15,1-.6,6.09-.87,0L377,28.58a.72.72,0,0,0-.92-.69c-.34.11-.32.09-.29.08l-.26.1a1,1,0,0,0-.63.93l.83,19.39c.22,2.1-1,2.36-1.41.25L371.24,30a.16.16,0,0,0-.22-.12c-.78.36-1.08.54-1.82.94a.22.22,0,0,0-.11.21l4.6,32.45c0,.21-.28.28-.31.06L365,34a.29.29,0,0,0-.44-.19,8.52,8.52,0,0,0-1.29.89c-.22.64-.44,1.28-.67,1.92l2.67,13.53c.25.84.18,1.08.36,1.62l3.55,13a.11.11,0,0,1-.2.08l-3.76-6.5a65.66,65.66,0,0,1-4.3-12l-.68-3.56c-.81,1.95-1.68,3.89-2.6,5.78,2.15,7.38,6.18,20,15.07,28.7A24.25,24.25,0,0,0,394,83.42c15-3.22,26.93-15.32,31.38-19a2.65,2.65,0,0,0,.89-1.46C426.93,60,427.27,61.44,426.38,58Z"/><path class="cls-10" d="M453.91,152l-4.37,27.81,2.47-.45,2.9-14.83c.29-2.16,1.54-2.13,1.47.09l-1,14.2c.79-.13,1.63-.25,2.51-.37L460.6,150c0-.22.34-.21.32,0L462.09,178c1.06-.12,2.15-.24,3.26-.34l.5-12.25c-.05-.91.08-1.14,0-1.71l-.43-13.88a.11.11,0,0,1,.22,0l2.2,7.4a68.22,68.22,0,0,1,1.42,13.08l-.34,7.1,1.93-.12c.5-.38.93-.73,1.27-1a3.39,3.39,0,0,0,1.18-2.84c-.44-5.92,0-23.46-8.42-36.9A25,25,0,0,0,445,125.09c-15.8-.38-30.65,8.87-36,11.53a2.71,2.71,0,0,0-1.23,1.25c-1.32,2.76-1.32,1.25-1.26,4.92a.48.48,0,0,0,.67.43l23.42-10.05a.07.07,0,1,1,.06.12l-23.49,14.84a.7.7,0,0,0-.32.65,19.1,19.1,0,0,0,.22,3.1.53.53,0,0,0,.8.34l25.68-15.31a.23.23,0,0,1,.26.37l-25.09,19.24a.49.49,0,0,0-.17.55c.13.41.12.14.26.54a.54.54,0,0,0,.82.27l11.18-8c1-.8,1.64-.18.67.66l-10.91,10.67a.6.6,0,0,0-.15.7c.25.56-.08-.17.2.39a.49.49,0,0,0,.76.14l25.74-21.61a.21.21,0,0,1,.29.3l-23.71,25.25a.86.86,0,0,0-.09,1.08c.21.32-.07-.21.16.1a.67.67,0,0,0,1,.08l12.43-11.83c.7-.58,1.27-.19.82.78l-10.61,15.3a.35.35,0,0,0,0,.44c.21.23.28.17.5.39a.29.29,0,0,0,.44,0l23.29-28.25a.18.18,0,0,1,.3.21l-20.61,30.88a.34.34,0,0,0,.06.44c.63.56.43.49,1.11,1a.42.42,0,0,0,.61-.08c1.81-2.52,8.35-12.05,11.3-15.71,1.18-1.45,2.39-1.32,1.46.86L427.77,180a.2.2,0,0,0,.06.26c.39.24.7.37,1.1.6a.67.67,0,0,0,.61-.22l3.46-6,14.65-27.31a.2.2,0,0,1,.37.13l-14,35.34c0,.52,1.07.74,1.23.33l5.1-10.88c.55-1.11,2.89-6.66,3.64-8,1.17-2.07,2.52-2.09,2.18.79-.09.72-2.18,8.69-2.18,8.69l-2.6,10.79c0,.24.6.29.91.18.14,0,.29-.08.34-.23L453,151.85C453.42,150.91,455.1,145.89,453.91,152Z"/><path class="cls-10" d="M458.32,62.94c-5.22-17.54-27.21-38.62-27.21-38.62A147,147,0,0,0,423.73,46l3.19,6.09s2.17,5.82,2.07,8c-.18,4.09-2.07,5.47-2.07,5.47l-5.24,5.49c3.1,16.73,12.06,35.71,24.23,36.24-11.46-12.4-12.34-79.77-11.2-71.15,0,0,7.63,66.08,15.38,70.37C463.38,103.5,463.54,80.49,458.32,62.94Z"/><path class="cls-10" d="M404.87,150.77s-.53-11.31-.18-12.35c1.21-3.56,2.8-4.2,2.8-4.2l5.61-2.65a52.58,52.58,0,0,0-4.16-11.77C400.22,103,383.49,86.14,371.2,93.63c-2.19,6.92,23,43.5,33.95,59C405,151.59,404.87,150.77,404.87,150.77Z"/><path class="cls-10" d="M408.64,162.39a63.14,63.14,0,0,1-3.43-8.25c-11.31-13.09-37.57-45-37.76-58-8.86,9.29-2.79,30.45,7.78,44.5,8.12,10.8,25.91,20.49,35.19,25A23,23,0,0,1,408.64,162.39Z"/><path class="cls-10" d="M329.55,114.77a.2.2,0,0,1,.39,0l2.6,37.93c.25.45,1.28.2,1.26-.24l-.08-12c0-1.23-.27-7.25-.17-8.79.16-2.37,1.37-3,2.31-.23.23.69,1.77,8.78,1.77,8.78l2.3,10.86c.13.21.67,0,.9-.22s.22-.21.21-.36l-4.67-33.87c-.05-1-.7-6.27.87-.22l9.26,31.11a.74.74,0,0,0,1.08.49c.66-.38-.12.11.51-.3a1,1,0,0,0,.44-1.07l-5-19.35c-.67-2.07.47-2.59,1.37-.55L352,144.83a.17.17,0,0,0,.25.07c.7-.53,1-.78,1.63-1.34a.22.22,0,0,0,.07-.23l-11.59-31.7c-.06-.21.22-.34.3-.13l14.79,27.93a.29.29,0,0,0,.47.1,8.21,8.21,0,0,0,1.32-1.43l.54-.72-6.06-14.15c-.44-.8-.42-1.06-.71-1.56l-6.36-12.34a.11.11,0,0,1,.18-.12l5.17,5.73a67.68,67.68,0,0,1,6.91,11.2l3.07,7.29a.25.25,0,0,0,.44,0,30.07,30.07,0,0,0,1.64-3.16,3.42,3.42,0,0,0-.16-3.08C361,122.05,353.82,106,340.46,97.52a25,25,0,0,0-22.84-1.67c-14.42,6.46-23.84,21.21-27.53,25.91a2.71,2.71,0,0,0-.57,1.66c0,3-.66,1.7,1,5a.48.48,0,0,0,.79.1l16.81-19.16a.07.07,0,0,1,.11.09L293.4,132.94a.69.69,0,0,0,0,.72,19.22,19.22,0,0,0,1.54,2.71.52.52,0,0,0,.86,0l16.6-24.87a.22.22,0,0,1,.38.22l-14.35,28.17a.47.47,0,0,0,.08.56c.29.32.16.08.47.38a.55.55,0,0,0,.86-.11l6.65-12c.57-1.16,1.41-.87.89.3l-5.25,14.34a.6.6,0,0,0,.17.69c.47.4-.14-.12.35.26a.49.49,0,0,0,.75-.19l13.92-30.59a.21.21,0,0,1,.39.15l-10.53,33a.88.88,0,0,0,.39,1c.33.19-.16-.16.18,0a.67.67,0,0,0,1-.37l6.12-16c.38-.84,1.07-.73,1.08.34l-3,18.38a.36.36,0,0,0,.22.38c.3.11.33,0,.63.14a.3.3,0,0,0,.39-.21L323,114.79a.18.18,0,0,1,.35,0l-5.3,36.75a.34.34,0,0,0,.24.37,13.4,13.4,0,0,0,1.44.45.43.43,0,0,0,.52-.33c.55-3.05,2.35-14.47,3.44-19,.44-1.83,1.59-2.23,1.69.15l.31,19.66a.2.2,0,0,0,.17.2c.46.06.79,0,1.25.07a.67.67,0,0,0,.46-.45l.52-6.95"/><path class="cls-10" d="M173.67,137.79c-6.75-5-10.39-72.86-10.39-72.86.25-7.75-3,59.76,6.51,73.22-11.08-1.72-18.7-21.43-19.39-38.44-.73-18.27,12.18-45.54,12.18-45.54h0s18.51,23.13,21.94,41.1S186.06,136.09,173.67,137.79Z"/><path class="cls-10" d="M303.32,73.92c8.92,1,55.2-49.15,55.2-49.15,4.7-6.18-35.52,48.7-52.14,52.24,10.5,6.68,29.45-3.08,40.81-15.76,12.21-13.64,18.54-44.1,18.54-44.1h0s-30.36,4.55-44.66,16S293.89,63.66,303.32,73.92Z"/><path class="cls-10" d="M284.64,82.35C277.47,77.93,268,10.66,268,10.66c-.42-7.74,2.15,59.8,12.8,72.39-11.19-.76-20.48-19.74-22.63-36.62C255.86,28.28,266.38,0,266.38,0h0s20.43,21.45,25.39,39.05S296.83,79.6,284.64,82.35Z"/><path class="cls-10" d="M282.49,94c1.33,8.31-43.41,59.43-43.41,59.43-5.59,5.38,43.87-40.7,46.44-57,6.73,9,4.57,24.65-6.81,37.31-12.23,13.6-46.64,27.86-46.64,27.86h0s2.89-29.48,13-44.74S272.43,86.61,282.49,94Z"/><path class="cls-10" d="M219.94,82.47a.2.2,0,0,1-.36.17l-14.8-35c-.38-.35-1.27.22-1.11.63l4,11.34c.38,1.17,2.61,6.76,3,8.26.63,2.29-.32,3.25-2.1,1-.44-.57-4.53-7.72-4.53-7.72l-5.71-9.52c-.2-.16-.63.21-.78.5s-.15.26-.08.4L212.9,83c.39.94,2.71,5.7-.75.48l-18.88-26.4A.74.74,0,0,0,192.1,57c-.51.57.07-.14-.4.45a1,1,0,0,0-.06,1.15l11,16.68c1.3,1.73.39,2.6-1.12,1L188.89,61.37a.16.16,0,0,0-.26,0c-.5.72-.66,1-1.11,1.79a.23.23,0,0,0,0,.24L208.8,89.62c.13.18-.09.39-.24.22l-23.07-21.6a.29.29,0,0,0-.48.06,8.52,8.52,0,0,0-.78,1.79l-.27.85L194.3,82.35c.66.6.73.86,1.17,1.24l10,9.6a.11.11,0,0,1-.13.17l-6.76-3.74a67.82,67.82,0,0,1-10.18-8.33l-5.27-5.9a.24.24,0,0,0-.41.13,27.91,27.91,0,0,0-.53,3.53,3.39,3.39,0,0,0,1.15,2.85c4.46,3.91,16.46,16.72,31.87,20.42a25,25,0,0,0,22.13-5.85C248.91,85.67,253,68.66,255,63a2.63,2.63,0,0,0,0-1.75c-1-2.89.07-1.82-2.55-4.39a.48.48,0,0,0-.78.16L242,80.62a.08.08,0,0,1-.14-.05l6.36-27a.69.69,0,0,0-.22-.68,20,20,0,0,0-2.33-2.07.53.53,0,0,0-.81.33L237.25,80a.22.22,0,0,1-.43-.08l4.4-31.31a.49.49,0,0,0-.26-.51c-.37-.2-.18,0-.57-.2a.54.54,0,0,0-.77.38L237.23,61.8c-.16,1.29-1,1.28-.94,0l.31-15.26a.62.62,0,0,0-.39-.6c-.57-.22.17.07-.42-.13a.49.49,0,0,0-.64.43l-3.21,33.45a.21.21,0,0,1-.42,0l-.79-34.63a.86.86,0,0,0-.69-.83c-.37-.08.2.1-.18,0a.68.68,0,0,0-.79.66l-.57,17.14c-.09.91-.77,1-1.13,0l-3.16-18.35a.35.35,0,0,0-.33-.29c-.31,0-.32.08-.64.07a.31.31,0,0,0-.3.33l3.19,36.47a.18.18,0,0,1-.36.06l-6.94-36.47a.33.33,0,0,0-.35-.27,12.8,12.8,0,0,0-1.51,0,.42.42,0,0,0-.38.48c.47,3.07,2.48,14.45,2.94,19.13.18,1.86-.78,2.61-1.64.4l-6.7-18.49a.2.2,0,0,0-.23-.13c-.45.09-.76.22-1.2.34a.68.68,0,0,0-.29.58l1.77,6.73"/><path class="cls-10" d="M104.59,150.13a.46.46,0,0,0-.47.61l7.95,23.44c0,.08-.09.13-.12,0L99.37,150.36a.67.67,0,0,0-.6-.36,18,18,0,0,0-3,0,.51.51,0,0,0-.38.75l12.86,26a.22.22,0,0,1-.38.22L91.13,151.22a.49.49,0,0,0-.52-.21c-.4.09-.14.1-.55.21a.54.54,0,0,0-.32.78l6.86,11.42c.7,1.05,0,1.6-.69.6l-9.5-11.38a.58.58,0,0,0-.66-.19,2.78,2.78,0,0,0-.4.16.49.49,0,0,0-.2.73l19,26.56a.21.21,0,0,1-.32.26L81.16,155.28a.84.84,0,0,0-1-.17c-.33.19.21-.05-.11.15a.66.66,0,0,0-.16,1l10.51,12.92c.51.73.09,1.26-.82.75l-14-11.44a.35.35,0,0,0-.43,0c-.24.2-.19.27-.42.46a.29.29,0,0,0,0,.43l25.58,24.71c.17.14,0,.4-.22.27L71.71,162a.33.33,0,0,0-.43,0c-.59.57-.51.39-1.08,1a.41.41,0,0,0,0,.59c2.3,2,11,9,14.34,12.15,1.32,1.25,1.1,2.41-.94,1.34l-16.69-9.28a.19.19,0,0,0-.26,0c-.27.36-.41.65-.66,1a.67.67,0,0,0,.16.62l5.58,3.8,25.33,16.27a.19.19,0,0,1-.15.35L63.78,173.71c-.5,0-.79,1-.41,1.17l10.15,5.76c1,.62,6.22,3.3,7.47,4.14,1.92,1.28,1.84,2.59-.93,2-.69-.13-8.24-2.77-8.24-2.77l-10.25-3.34c-.24,0-.33.56-.25.87,0,.14.06.28.2.34l30.75,12.53c.88.45,5.61,2.46-.24.84L61.37,188a.72.72,0,0,0-.93.67c0,.35,0,.33,0,.29s0,.11,0,.28a1,1,0,0,0,.69.89l18.71,5.2c2.06.44,1.94,1.65-.21,1.42L60.89,193.9a.16.16,0,0,0-.18.17c.1.85.18,1.2.33,2a.19.19,0,0,0,.16.17l32.28,5.66c.22.05.18.35,0,.31L62.78,201.1a.29.29,0,0,0-.32.35,8.18,8.18,0,0,0,.45,1.51l1.62,1.24,13.69,1.63c.88,0,1.09.17,1.65.16l13.47.65a.11.11,0,0,1,0,.21L86,208.42a65.88,65.88,0,0,1-12.77.37l-3.61-.46c1.61,1.37,3.19,2.8,4.7,4.27,7.69.24,20.9.29,32-5.47a24.27,24.27,0,0,0,12.5-18.39c1.57-15.27-6.25-30.35-8.42-35.73a2.57,2.57,0,0,0-1.12-1.29C106.69,150.23,108.15,150.34,104.59,150.13Z"/><path class="cls-10" d="M202.54,153l25.1,12.75c.09-.71.2-1.54.34-2.49l-13.22-7.34c-2-.93-1.55-2.12.55-1.37l13.19,5.34c.13-.79.27-1.63.43-2.5L202.68,146c-.2-.1-.1-.4.11-.31l26.93,7.52c.21-1,.44-2.11.68-3.21l-11.5-4.25c-.87-.24-1.05-.43-1.61-.56L204,141.33c-.14,0-.1-.24,0-.22l7.73.19a67.76,67.76,0,0,1,12.87,2.7l6.65,2.51c.15-.62.32-1.24.48-1.87-.2-.59-.4-1.11-.58-1.53a3.43,3.43,0,0,0-2.34-2c-5.76-1.4-22.32-7.23-37.69-3.39a25,25,0,0,0-16.94,15.41c-5.24,14.91-1,31.89-.15,37.8a2.61,2.61,0,0,0,.81,1.56c2.2,2.11.77,1.64,4.28,2.72a.48.48,0,0,0,.62-.51l-2.33-25.38a.07.07,0,0,1,.14,0l6.86,26.93a.67.67,0,0,0,.51.5,18,18,0,0,0,3,.76.52.52,0,0,0,.56-.66l-6.61-29.15a.22.22,0,0,1,.42-.13l10.56,29.8a.51.51,0,0,0,.46.34c.43,0,.17-.08.6-.09a.55.55,0,0,0,.51-.7l-4.12-13.09c-.45-1.21.34-1.61.83-.43l6.78,13.68a.62.62,0,0,0,.62.35,3.21,3.21,0,0,0,.43-.07.49.49,0,0,0,.37-.68l-12.6-31.15a.21.21,0,0,1,.38-.19l16.69,30.35a.84.84,0,0,0,1,.42c.37-.1-.22,0,.15-.11a.69.69,0,0,0,.39-1l-7.41-15.47c-.34-.85.21-1.27,1-.55l11.28,14.82a.36.36,0,0,0,.43.11c.28-.13.24-.22.53-.36a.31.31,0,0,0,.12-.43l-19.67-30.87a.18.18,0,0,1,.28-.22l23,29.14a.35.35,0,0,0,.44.08,13.35,13.35,0,0,0,1.32-.74.42.42,0,0,0,.12-.6c-1.84-2.5-8.88-11.67-11.45-15.61-1-1.56-.52-2.68,1.27-1.11l14.48,13.3a.2.2,0,0,0,.27,0c.35-.29.56-.55.9-.86a.66.66,0,0,0,0-.65l-4.68-5.15L196.1,157.5a.2.2,0,0,1,.24-.32l29.3,24.22c.49.14,1-.79.69-1.07l-8.77-8.21c-.88-.87-5.44-4.8-6.49-5.94-1.62-1.75-1.22-3,1.42-1.82.66.3,7.59,4.75,7.59,4.75l9.46,5.81c.24.05.46-.48.45-.81,0-.15,0-.3-.11-.39L202.1,153.78C201.32,153.12,197.07,150,202.54,153Z"/><path class="cls-10" d="M119.18,121.28C100.88,120.82,74,135.23,74,135.23a146.94,146.94,0,0,0,18.34,13.71l6.77-1.15s6.21-.27,8.26.51C111.25,149.74,112,152,112,152s1.66,3.07,3.6,6.68c16.88,2.22,37.69-.44,42-11.85-15.32,7.07-79.67-12.91-71.13-11.33,0,0,65.22,13.16,71.68,7.11C159.31,129,137.48,121.74,119.18,121.28Z"/><path class="cls-10" d="M186.19,199.25s-10.93-3-11.81-3.64c-3-2.26-3.12-4-3.12-4l-.79-6.16a52.89,52.89,0,0,0-12.48.32c-18.65,3.11-39.88,13.81-36.55,27.81,5.9,4.22,48.48-8.45,66.57-14.07Z"/><path class="cls-10" d="M198.41,199.26a63.52,63.52,0,0,1-8.91.71c-15.95,6.71-54.41,21.83-66.86,18,6.1,11.3,28.09,12.06,44.72,6.36,12.79-4.39,27.5-18.32,34.67-25.74A23.75,23.75,0,0,1,198.41,199.26Z"/><path class="cls-10" d="M128.67,259.76a.19.19,0,0,1,.08-.38l36.87,9.24c.5-.09.59-1.15.16-1.27l-11.45-3.63c-1.17-.4-7-2-8.42-2.57-2.2-.88-2.4-2.21.5-2.25.73,0,8.9,1,8.9,1l11,1.17c.24-.06.21-.63.06-.92s-.12-.28-.27-.31l-33.66-6c-1-.27-6.18-1.27.07-.9l32.44.81a.74.74,0,0,0,.8-.87,2.71,2.71,0,0,0-.12-.58,1,1,0,0,0-.88-.75l-20-1.23c-2.17,0-2.31-1.25-.09-1.48l19.47-1.17a.16.16,0,0,0,.14-.21c-.28-.84-.43-1.16-.76-2a.22.22,0,0,0-.2-.13l-33.73,1.22c-.22,0-.26-.31,0-.33l31.13-5.43a.3.3,0,0,0,.25-.42,9.08,9.08,0,0,0-1-1.7l-.52-.73-15.33,1.4c-.89.16-1.13.06-1.7.19l-13.71,2.23a.11.11,0,0,1,0-.21l7-3.15a68.51,68.51,0,0,1,12.78-3.11l7.89-.66a.25.25,0,0,0,.14-.41,29.39,29.39,0,0,0-2.5-2.55,3.42,3.42,0,0,0-3-.79c-5.81,1.21-23.26,3.08-35.49,13.16a24.22,24.22,0,0,0-6.89,9.55A24,24,0,0,0,107,265.26c1.68,15.72,12.8,29.23,16.13,34.19a2.74,2.74,0,0,0,1.4,1.06c2.9.95,1.41,1.15,5,.6a.48.48,0,0,0,.34-.72l-13-21.9a.07.07,0,0,1,.12-.08l17.78,21.35a.68.68,0,0,0,.68.23,18.93,18.93,0,0,0,3-.61.53.53,0,0,0,.23-.84l-18.52-23.47a.22.22,0,0,1,.32-.3l22.36,22.36a.49.49,0,0,0,.56.1c.39-.18.13-.14.51-.33a.55.55,0,0,0,.16-.85l-9.36-10c-.93-.9-.39-1.61.57-.75l12,9.42a.6.6,0,0,0,.71.06c.53-.33-.15.09.36-.26a.48.48,0,0,0,.05-.77L123.67,271a.21.21,0,0,1,.26-.33l28.13,20.21a.86.86,0,0,0,1.08,0c.29-.25-.2.09.08-.17a.68.68,0,0,0-.06-1l-13.34-10.77c-.67-.62-.36-1.24.66-.92L157,286.48a.35.35,0,0,0,.43-.09c.2-.24.14-.3.33-.55a.3.3,0,0,0-.08-.44l-31-19.4a.18.18,0,0,1,.16-.32l33.31,16.4a.34.34,0,0,0,.42-.11c.48-.7.43-.5.88-1.24a.42.42,0,0,0-.15-.59c-2.74-1.47-13-6.71-17-9.16-1.6-1-1.63-2.2.66-1.56l18.8,5.78a.19.19,0,0,0,.24-.1c.2-.42.28-.74.46-1.17a.67.67,0,0,0-.3-.58l-6.44-2.63"/><path class="cls-10" d="M102.4,415.12c-6.87,4.88-72.51-12.63-72.51-12.63-7.29-2.63,55.91,21.34,71.65,16.44-5.06,10-26.16,11.16-42.54,6.56-17.61-4.95-39.56-25.66-39.56-25.66h0s27.72-10.45,45.87-8.16S104.61,402.82,102.4,415.12Z"/><path class="cls-10" d="M81.72,272.09C85.42,263.91,52,204.4,52,204.4,47.6,198,87.37,253.23,85.6,270.13c9.6-7.92,6.17-29-2.38-43.69C74,210.62,47,195.19,47,195.19h0S42,225.46,48.42,242.6,69,277.88,81.72,272.09Z"/><path class="cls-10" d="M84,292.46c-6.43,5.45-73.33-6.33-73.33-6.33-7.49-2,57.54,16.43,72.8,10.19-4.18,10.41-25.1,13.38-41.82,10.21C23.65,303.12,0,284.38,0,284.38H0s26.71-12.8,45-12.09S85.11,280,84,292.46Z"/><path class="cls-10" d="M94.41,298.12c8.32,1.3,43.11,59.65,43.11,59.65,3.39,7-25.15-54.3-39.84-61.78,10.61-3.63,24.86,3.27,33.38,18,9.16,15.83,12.09,53,12.09,53h0S116,355.1,104.61,340.8,84.24,305.38,94.41,298.12Z"/><path class="cls-10" d="M64.08,354a.2.2,0,1,1,0,.39l-37.87,3.26c-.45.25-.18,1.28.26,1.25l12-.29c1.24,0,7.25-.39,8.79-.32,2.38.12,3,1.32.27,2.3-.68.25-8.75,1.93-8.75,1.93L28,365c-.2.14,0,.67.24.9s.21.22.36.2l33.79-5.25c1-.07,6.26-.81.23.87l-30.94,9.8a.73.73,0,0,0-.47,1.08c.38.66-.12-.12.3.51a1,1,0,0,0,1.08.41l19.27-5.32c2-.7,2.59.43.57,1.36l-18,7.45a.17.17,0,0,0-.07.25c.54.69.79.95,1.36,1.6A.24.24,0,0,0,36,379l31.49-12.13c.21-.07.34.21.14.29L39.91,382.39a.3.3,0,0,0-.1.48,9.16,9.16,0,0,0,1.46,1.29l.73.52,14-6.3c.79-.45,1.05-.44,1.55-.74l12.23-6.57a.11.11,0,0,1,.12.18l-5.64,5.27a68.15,68.15,0,0,1-11.08,7.11L46,386.81a.25.25,0,0,0,0,.44,30.3,30.3,0,0,0,3.19,1.6,3.43,3.43,0,0,0,3.07-.22c5.1-3,21-10.49,29.27-24a25,25,0,0,0,1.28-22.87C76.08,327.46,61.17,318.3,56.4,314.7a2.77,2.77,0,0,0-1.67-.55c-3,.05-1.7-.62-5,1.07a.48.48,0,0,0-.08.79l19.44,16.48c.07.05,0,.15-.08.11L45.29,318.2a.67.67,0,0,0-.72,0,18.67,18.67,0,0,0-2.69,1.57.53.53,0,0,0,.06.87L67.1,336.8a.22.22,0,0,1-.22.39L38.47,323.33a.5.5,0,0,0-.57.08c-.31.3-.07.17-.37.48a.55.55,0,0,0,.13.86l12.11,6.45c1.17.55.89,1.39-.29.89l-14.42-5a.62.62,0,0,0-.69.18c-.39.48.11-.14-.26.36a.5.5,0,0,0,.21.75l30.83,13.38a.21.21,0,0,1-.14.4L31.83,332.2a.85.85,0,0,0-1,.4c-.19.33.15-.16,0,.18a.68.68,0,0,0,.39,1l16.12,5.84c.84.37.75,1.06-.32,1.08L28.57,338a.35.35,0,0,0-.38.22c-.11.3,0,.33-.13.63a.31.31,0,0,0,.22.39L64,347.48a.18.18,0,0,1-.05.35l-36.84-4.66a.33.33,0,0,0-.36.24,13.69,13.69,0,0,0-.43,1.46.43.43,0,0,0,.34.51c3.07.5,14.51,2.1,19.1,3.11,1.83.4,2.25,1.55-.12,1.69l-19.65.65a.2.2,0,0,0-.2.18c0,.45,0,.79,0,1.24a.68.68,0,0,0,.46.46l7,.4"/><path class="cls-10" d="M125.79,392.37l19.88-19.93-2.26-1.09-11.07,10.3c-1.49,1.57-2.49.82-1.13-.94l9.15-10.9c-.71-.36-1.47-.76-2.25-1.18l-18.92,21.45c-.16.16-.41,0-.26-.2l15.47-23.29c-.92-.52-1.87-1.07-2.83-1.64L124,374.57c-.49.76-.73.87-1,1.37l-7.81,11.48a.11.11,0,0,1-.19-.11L117.5,380A67.8,67.8,0,0,1,124,368.61l4.45-5.54c-.55-.34-1.09-.68-1.64-1-.63,0-1.18.05-1.63.09a3.41,3.41,0,0,0-2.62,1.6c-3.12,5-13.78,19-14.88,34.8a25,25,0,0,0,9.42,20.87c12.56,9.59,30,10.84,35.91,11.83a2.67,2.67,0,0,0,1.73-.29c2.69-1.45,1.8-.23,3.91-3.24a.48.48,0,0,0-.29-.74l-24.86-5.63a.07.07,0,0,1,0-.14l27.73,1.8a.68.68,0,0,0,.64-.33,18.28,18.28,0,0,0,1.65-2.64.53.53,0,0,0-.45-.74l-29.77-2.72a.22.22,0,0,1,0-.44l31.6-.83a.47.47,0,0,0,.46-.33c.14-.41,0-.19.11-.6a.55.55,0,0,0-.51-.7l-13.72-.13c-1.29.06-1.43-.82-.15-.92l15.1-2.22a.62.62,0,0,0,.53-.48c.12-.6,0,.18.06-.44a.49.49,0,0,0-.53-.56l-33.52,2.36a.21.21,0,0,1-.06-.42l34-6.49a.86.86,0,0,0,.71-.82c0-.38-.07.21-.07-.17a.68.68,0,0,0-.79-.67l-17,2.27c-.91.06-1.14-.6-.21-1.11L167,397.7a.35.35,0,0,0,.23-.37c0-.31-.13-.31-.18-.62a.29.29,0,0,0-.37-.24l-35.44,9.16a.18.18,0,0,1-.12-.34l34.82-12.87a.33.33,0,0,0,.21-.39,13.32,13.32,0,0,0-.29-1.48.43.43,0,0,0-.54-.3c-2.94,1-13.84,4.84-18.38,6.06-1.8.49-2.7-.33-.67-1.55l17.13-9.66a.18.18,0,0,0,.1-.24c-.17-.43-.35-.72-.53-1.13a.67.67,0,0,0-.63-.19L156,386.39l-27.91,13.49a.19.19,0,0,1-.22-.32l32.09-20.38c.28-.43-.44-1.22-.81-1L148.61,384c-1.1.57-6.25,3.69-7.66,4.33-2.15,1-3.26.22-1.29-1.91.49-.54,6.87-5.75,6.87-5.75l8.44-7.2c.12-.22-.31-.59-.62-.69-.15,0-.29-.1-.41,0L126.39,393C125.52,393.57,121.22,396.64,125.79,392.37Z"/><path class="cls-10" d="M69.86,461.85c-6.1,17.26-.69,47.24-.69,47.24a147.81,147.81,0,0,0,18.71-13.2l1-6.8s1.67-6,3-7.7c2.55-3.21,4.89-3.22,4.89-3.22l7.46-1.35c7.33-15.37,11.24-36,1.7-43.56C108,450,69.07,505,73.21,497.4c0,0,32.68-57.95,28.92-66C89.6,426.07,76,444.59,69.86,461.85Z"/><path class="cls-10" d="M564.81,386.14C573.23,386.23,616,439,616,439c4.36,6.41-32.69-50.13-48.3-55.42,10-5.12,27.73,6.35,38.27,19.7,11.34,14.36,16.92,44,16.92,44h0s-28.56-7.84-41.9-20.36S555.79,394.79,564.81,386.14Z"/><path class="cls-10" d="M613.45,335.55a.46.46,0,0,0,0-.77l-20.2-14.29a.07.07,0,0,1,.07-.12l24.21,11.92a.66.66,0,0,0,.69-.06,18.14,18.14,0,0,0,2.47-1.75.51.51,0,0,0-.13-.83l-25.71-13.51a.21.21,0,0,1,.18-.39l28.66,11a.46.46,0,0,0,.54-.13c.27-.31,0-.17.32-.49a.54.54,0,0,0-.2-.82L612.1,320.1c-1.18-.44-1-1.27.2-.89l14.38,3.62a.59.59,0,0,0,.65-.23c.34-.5-.1.14.22-.37a.47.47,0,0,0-.27-.7l-30.95-10.35a.2.2,0,0,1,.1-.39l32.94,6.82a.85.85,0,0,0,.94-.47c.15-.34-.14.16,0-.18a.65.65,0,0,0-.46-.89l-16.09-4.29c-.84-.29-.81-1,.22-1.08l18,1a.34.34,0,0,0,.35-.25c.08-.29,0-.32.07-.61a.29.29,0,0,0-.24-.36L597,305.55a.18.18,0,0,1,0-.35l36,1.4a.35.35,0,0,0,.34-.27,13.76,13.76,0,0,0,.28-1.45.4.4,0,0,0-.37-.46c-3-.23-14.21-.81-18.74-1.4-1.8-.23-2.31-1.3,0-1.64l19-2.3a.18.18,0,0,0,.18-.18c0-.45,0-.77-.06-1.21a.63.63,0,0,0-.48-.4l-6.76.2-30,1.73a.19.19,0,0,1-.08-.38l36.36-6.35c.41-.28.07-1.26-.35-1.19l-11.6,1.3c-1.2.1-7,1-8.48,1-2.31.09-3-1-.45-2.2.64-.29,8.3-2.6,8.3-2.6l10.25-3.32c.19-.15-.06-.65-.3-.85s-.22-.19-.36-.16l-32.25,7.94c-1,.15-6,1.31-.3-.82l29.11-12.1a.72.72,0,0,0,.36-1.09l-.16-.24-.17-.22a1,1,0,0,0-1.08-.32l-18.19,6.79c-1.93.85-2.55-.2-.67-1.27l16.81-8.73a.16.16,0,0,0,0-.25c-.58-.63-.85-.86-1.46-1.44a.21.21,0,0,0-.23,0L592,287.12c-.2.08-.35-.18-.16-.27l25.48-17.12a.29.29,0,0,0,.05-.47,8.61,8.61,0,0,0-1.25-.95l-2-.05L602,275c-.72.5-1,.51-1.43.84l-11.28,7.4a.11.11,0,0,1-.13-.17l5-5.58a67.26,67.26,0,0,1,10.11-7.81l3.18-1.74c-2.1-.17-4.21-.39-6.3-.69-6.36,4.33-17.08,12-22.64,23.2a24.32,24.32,0,0,0,.7,22.23c7.7,13.27,22.9,20.88,27.82,24a2.61,2.61,0,0,0,1.66.38C611.69,336.7,610.44,337.47,613.45,335.55Z"/><path class="cls-10" d="M532.51,390.8l-27.79,4.44c.34.62.74,1.36,1.18,2.21l15-1.83c2.13-.39,2.5.8.36,1.43l-13.81,3.43c.37.72.74,1.48,1.13,2.28l27.92-6.23c.22,0,.31.26.09.31l-26.21,9.75c.44,1,.89,2,1.33,3l11.81-3.32c.84-.33,1.1-.27,1.64-.5l13.06-4.69a.11.11,0,0,1,.1.19L532,405.65a68.56,68.56,0,0,1-12,5.4l-6.86,1.86.71,1.8c.52.36,1,.66,1.37.9a3.43,3.43,0,0,0,3.07.24c5.49-2.25,22.31-7.27,32.49-19.41A25.06,25.06,0,0,0,555.39,374c-4.52-15.14-17.91-26.41-22.1-30.67a2.63,2.63,0,0,0-1.57-.79c-3-.41-1.59-.87-5.06.32a.48.48,0,0,0-.2.77l16.8,19.17a.07.07,0,0,1-.1.1l-21.38-17.76a.7.7,0,0,0-.71-.11,19.87,19.87,0,0,0-2.89,1.17.53.53,0,0,0-.07.86l22.49,19.7a.22.22,0,0,1-.26.36l-26.06-17.91a.5.5,0,0,0-.57,0c-.35.25-.1.16-.44.42a.56.56,0,0,0,0,.87l11,8.16c1.08.72.67,1.51-.42.84l-13.52-7.08a.6.6,0,0,0-.71.08c-.46.41.13-.13-.31.31a.49.49,0,0,0,.1.77l28.5,17.79a.21.21,0,0,1-.19.38L506.4,357a.87.87,0,0,0-1,.25c-.23.3.18-.13,0,.18a.67.67,0,0,0,.24,1l15.09,8.16c.77.49.58,1.15-.48,1l-17.83-5.37a.36.36,0,0,0-.41.17c-.16.27-.08.32-.22.6a.31.31,0,0,0,.15.42l34.06,13.42a.18.18,0,1,1-.1.34l-35.74-10.06a.35.35,0,0,0-.4.19c-.34.78-.33.57-.63,1.38a.41.41,0,0,0,.26.55c3,1,14,4.23,18.43,5.9,1.75.67,2,1.87-.37,1.65l-19.53-2.25a.2.2,0,0,0-.23.14c-.11.45-.14.78-.23,1.23a.69.69,0,0,0,.39.52l6.82,1.42,30.5,5.49a.2.2,0,0,1,0,.39l-37.94-2.37c-.48.18-.36,1.24.07,1.27l11.93,1.49c1.22.18,7.22.69,8.74,1,2.33.46,2.77,1.74-.08,2.31-.71.14-8.93.61-8.93.61l-11.07.86c-.23.11-.09.67.1.93s.17.25.33.25l34.19-.2C533.43,390,538.72,390,532.51,390.8Z"/><path class="cls-10" d="M618.6,367.46c15.08-10.38,28.32-37.82,28.32-37.82a148.14,148.14,0,0,0-22.89-.31l-4.81,4.91s-4.87,3.87-7,4.45c-4,1.09-5.85-.28-5.85-.28l-6.84-3.29c-15,8.13-30.24,22.51-27,34.24,8.24-14.72,72-36.38,64.2-32.63,0,0-60.49,27.68-62.17,36.37C581.6,384.81,603.52,377.85,618.6,367.46Z"/><path class="cls-10" d="M518.56,343.77s10.59-4,11.69-4c3.76.05,4.86,1.36,4.86,1.36l4.25,4.52a52.29,52.29,0,0,0,9.91-7.59c13.26-13.48,24.14-34.61,13.23-44-7.26.06-34.26,35.34-45.59,50.52Z"/><path class="cls-10" d="M508.67,351a62.62,62.62,0,0,1,6.79-5.81c8.95-14.81,31.19-49.65,43.52-53.85-11.58-5.56-29.82,6.75-39.92,21.14-7.76,11.07-11.48,31-12.92,41.2A23.1,23.1,0,0,1,508.67,351Z"/><path class="cls-10" d="M529.52,261a.2.2,0,0,1,.17.36l-35.27,14.19c-.35.37.21,1.28.61,1.12l11.41-3.79c1.18-.36,6.81-2.49,8.31-2.87,2.31-.59,3.25.38.93,2.12-.58.43-7.8,4.39-7.8,4.39l-9.62,5.55c-.16.19.2.64.49.79.14.07.26.15.4.08l30.78-14.9c1-.37,5.74-2.61.47.76l-26.72,18.42a.74.74,0,0,0-.13,1.17c.56.52-.15-.08.43.4a1,1,0,0,0,1.16.09L522,278.16c1.75-1.28,2.6-.35.94,1.13l-15.06,12.4a.15.15,0,0,0,0,.25c.72.51,1,.69,1.78,1.14a.21.21,0,0,0,.24,0l26.57-20.82c.18-.12.39.11.21.25l-22,22.69a.3.3,0,0,0,0,.49,8.64,8.64,0,0,0,1.77.8l.85.29L529,286.64c.62-.65.87-.72,1.26-1.15l9.77-9.87a.11.11,0,0,1,.17.14l-3.85,6.69a68.71,68.71,0,0,1-8.51,10l-6,5.16a.25.25,0,0,0,.13.42,28,28,0,0,0,3.52.59,3.41,3.41,0,0,0,2.87-1.1c4-4.39,17-16.17,21-31.51a25,25,0,0,0-5.47-22.23c-10.6-11.72-27.53-16.12-33.14-18.17a2.72,2.72,0,0,0-1.76,0c-2.9.94-1.81-.1-4.43,2.48a.48.48,0,0,0,.15.78l23.41,10.06a.07.07,0,0,1,0,.13l-26.94-6.82a.71.71,0,0,0-.69.21,20,20,0,0,0-2.11,2.29.53.53,0,0,0,.32.81l28.78,8.1a.23.23,0,0,1-.09.44l-31.23-5a.51.51,0,0,0-.52.25c-.2.37,0,.18-.21.57a.55.55,0,0,0,.37.78l13.47,2.62c1.28.18,1.26,1.07,0,.94l-15.25-.57a.61.61,0,0,0-.61.37c-.23.57.07-.16-.14.42a.49.49,0,0,0,.42.65L527,249a.21.21,0,0,1,0,.42l-34.63.19a.87.87,0,0,0-.85.67c-.08.37.11-.19,0,.18a.67.67,0,0,0,.65.8l17.13.87c.91.11,1,.8,0,1.14l-18.4,2.83a.35.35,0,0,0-.3.33c0,.31.07.32.06.64a.29.29,0,0,0,.32.3l36.52-2.55a.18.18,0,0,1,.06.36L491,261.45a.33.33,0,0,0-.28.34,12.68,12.68,0,0,0,0,1.51.41.41,0,0,0,.47.39c3.08-.41,14.49-2.23,19.18-2.61,1.86-.15,2.6.82.38,1.65l-18.61,6.38a.18.18,0,0,0-.14.22c.09.46.21.77.32,1.21a.69.69,0,0,0,.58.3l6.76-1.65"/><path class="cls-10" d="M459.46,119.88c2.69-8,66.08-32.4,66.08-32.4,7.45-2.16-57.77,15.6-67.62,28.81-1.79-11.07,14.6-24.41,30.56-30.31,17.16-6.35,47.08-2.49,47.08-2.49h0s-16.28,24.74-32.31,33.56S464.9,131.13,459.46,119.88Z"/><path class="cls-10" d="M560.26,223.44c1.81,8.79,63.81,37.31,63.81,37.31,7.33,2.56-57.3-18.74-65.8-33.44-3.1,12,12,27.05,27.61,33.94,16.73,7.39,47.66,4,47.66,4h0s-13.7-27.47-29-37.53S567.11,211.3,560.26,223.44Z"/><path class="cls-10" d="M546.47,208.28c2-8.18,63-38,63-38,7.22-2.79-56.22,20.52-64.89,34.54C541.89,194,557.07,179.26,572.46,172c16.55-7.81,46.69-6.55,46.69-6.55h0s-14.09,26.06-29.29,36.22S552.86,219,546.47,208.28Z"/><path class="cls-10" d="M534.7,209.84c-7.5,3.84-69.94-22.92-69.94-22.92-6.84-3.65,52.26,29.15,68.54,26.56-6.45,9.18-22,12-37.59,5.05C479,211.1,454.8,182.79,454.8,182.79h0s28.93-6.36,46.56-1.49S538.65,198,534.7,209.84Z"/><path class="cls-10" d="M526.37,146.78a.2.2,0,0,1-.27-.29l28.72-24.89c.22-.47-.61-1.15-.94-.86l-9.55,7.3c-1,.72-5.63,4.57-6.93,5.41-2,1.31-3.19.7-1.56-1.7.4-.6,5.94-6.7,5.94-6.7l7.29-8.37c.09-.23-.4-.53-.72-.58-.15,0-.3-.06-.4,0l-24.26,24.11c-.78.66-4.58,4.34-.69-.57l19.27-26.11a.74.74,0,0,0-.26-1.15c-.69-.31.17,0-.54-.23a1,1,0,0,0-1.12.29L527.9,128.12c-1.25,1.77-2.35,1.17-1.27-.77l10.21-16.62a.16.16,0,0,0-.09-.24c-.84-.25-1.2-.31-2-.5a.21.21,0,0,0-.22.08L516.13,138.4c-.13.18-.4,0-.28-.16l13.41-28.61a.3.3,0,0,0-.21-.45,9.32,9.32,0,0,0-1.94-.19h-.89l-7.66,13.36c-.37.82-.59,1-.82,1.5l-6,12.5a.11.11,0,0,1-.2-.07l1.46-7.58a68.16,68.16,0,0,1,4.79-12.26l4-6.83a.25.25,0,0,0-.25-.36,29.33,29.33,0,0,0-3.53.59,3.42,3.42,0,0,0-2.35,2c-2.34,5.45-10.82,20.82-9.58,36.61a25.06,25.06,0,0,0,12.41,19.25c13.84,7.63,31.28,6.28,37.26,6.39a2.59,2.59,0,0,0,1.67-.54c2.44-1.83,1.74-.49,3.38-3.78a.48.48,0,0,0-.39-.69l-25.42-1.89c-.08,0-.08-.14,0-.14l27.7-2.32a.69.69,0,0,0,.58-.42,18.71,18.71,0,0,0,1.24-2.86.52.52,0,0,0-.55-.66l-29.85,1.71a.22.22,0,0,1-.06-.44l31.14-5.49a.48.48,0,0,0,.4-.4c.08-.42,0-.18,0-.61a.54.54,0,0,0-.61-.61l-13.58,1.9c-1.28.24-1.54-.6-.3-.89l14.61-4.43a.6.6,0,0,0,.45-.55c0-.62,0,.18,0-.44a.48.48,0,0,0-.6-.48l-32.81,7.28a.21.21,0,0,1-.12-.4l32.69-11.45a.86.86,0,0,0,.58-.91c0-.38,0,.22-.09-.16a.68.68,0,0,0-.88-.54l-16.48,4.75c-.89.19-1.22-.42-.37-1.07l16.47-8.67a.36.36,0,0,0,.18-.41c-.09-.3-.18-.28-.27-.58a.3.3,0,0,0-.4-.19L530.33,152a.18.18,0,0,1-.17-.31l32.54-17.88a.33.33,0,0,0,.15-.41c-.3-.8-.16-.64-.51-1.43a.42.42,0,0,0-.57-.21c-2.78,1.39-13,6.82-17.28,8.71-1.72.75-2.73.07-.9-1.44L559.11,127a.2.2,0,0,0,.06-.26c-.23-.4-.45-.65-.7-1a.66.66,0,0,0-.64-.09L552,129.32"/><path class="cls-10" d="M426.38,58a.47.47,0,0,0-.73-.25l-19.84,14.8c-.06,0-.14,0-.09-.1l18.82-19.34a.66.66,0,0,0,.16-.68,18.92,18.92,0,0,0-.9-2.89.52.52,0,0,0-.84-.13L402.18,69.66a.22.22,0,0,1-.33-.29l19.33-23.85a.48.48,0,0,0,0-.56c-.21-.35-.14-.1-.37-.45a.54.54,0,0,0-.84-.07l-8.75,10.05c-.77,1-1.51.54-.78-.47l7.89-12.55a.6.6,0,0,0,0-.69c-.37-.47.11.14-.28-.32a.47.47,0,0,0-.75,0L397.91,66.73a.2.2,0,0,1-.34-.21L414.24,37.3a.85.85,0,0,0-.16-1c-.28-.25.11.18-.17-.06a.67.67,0,0,0-1,.16l-9.05,14c-.53.71-1.17.48-1-.54L409.46,33a.33.33,0,0,0-.13-.41c-.25-.17-.3-.1-.56-.26a.29.29,0,0,0-.42.12L392.76,64.35a.18.18,0,0,1-.33-.12L404.9,30.39a.33.33,0,0,0-.16-.4c-.72-.39-.52-.36-1.28-.72a.4.4,0,0,0-.55.21c-1.15,2.79-5.17,13.27-7.12,17.4-.78,1.64-2,1.79-1.57-.49l3.67-18.74a.2.2,0,0,0-.12-.23c-.42-.14-.74-.19-1.17-.32a.65.65,0,0,0-.53.35l-1.9,6.48-7.64,29.12a.19.19,0,0,1-.38,0l5.19-36.55c-.14-.48-1.17-.45-1.24,0l-2.35,11.44c-.27,1.16-1.21,6.93-1.62,8.38-.63,2.22-1.9,2.55-2.23-.25-.09-.7.09-8.7.09-8.7V26.52c-.09-.22-.64-.14-.9,0s-.26.15-.27.3L380.41,60c-.15,1-.6,6.09-.87,0L377,28.58a.72.72,0,0,0-.92-.69c-.34.11-.32.09-.29.08l-.26.1a1,1,0,0,0-.63.93l.83,19.39c.22,2.1-1,2.36-1.41.25L371.24,30a.16.16,0,0,0-.22-.12c-.78.36-1.08.54-1.82.94a.22.22,0,0,0-.11.21l4.6,32.45c0,.21-.28.28-.31.06L365,34a.29.29,0,0,0-.44-.19,8.52,8.52,0,0,0-1.29.89c-.22.64-.44,1.28-.67,1.92l2.67,13.53c.25.84.18,1.08.36,1.62l3.55,13a.11.11,0,0,1-.2.08l-3.76-6.5a65.66,65.66,0,0,1-4.3-12l-.68-3.56c-.81,1.95-1.68,3.89-2.6,5.78,2.15,7.38,6.18,20,15.07,28.7A24.25,24.25,0,0,0,394,83.42c15-3.22,26.93-15.32,31.38-19a2.65,2.65,0,0,0,.89-1.46C426.93,60,427.27,61.44,426.38,58Z"/><path class="cls-10" d="M453.91,152l-4.37,27.81,2.47-.45,2.9-14.83c.29-2.16,1.54-2.13,1.47.09l-1,14.2c.79-.13,1.63-.25,2.51-.37L460.6,150c0-.22.34-.21.32,0L462.09,178c1.06-.12,2.15-.24,3.26-.34l.5-12.25c-.05-.91.08-1.14,0-1.71l-.43-13.88a.11.11,0,0,1,.22,0l2.2,7.4a68.22,68.22,0,0,1,1.42,13.08l-.34,7.1,1.93-.12c.5-.38.93-.73,1.27-1a3.39,3.39,0,0,0,1.18-2.84c-.44-5.92,0-23.46-8.42-36.9A25,25,0,0,0,445,125.09c-15.8-.38-30.65,8.87-36,11.53a2.71,2.71,0,0,0-1.23,1.25c-1.32,2.76-1.32,1.25-1.26,4.92a.48.48,0,0,0,.67.43l23.42-10.05a.07.07,0,1,1,.06.12l-23.49,14.84a.7.7,0,0,0-.32.65,19.1,19.1,0,0,0,.22,3.1.53.53,0,0,0,.8.34l25.68-15.31a.23.23,0,0,1,.26.37l-25.09,19.24a.49.49,0,0,0-.17.55c.13.41.12.14.26.54a.54.54,0,0,0,.82.27l11.18-8c1-.8,1.64-.18.67.66l-10.91,10.67a.6.6,0,0,0-.15.7c.25.56-.08-.17.2.39a.49.49,0,0,0,.76.14l25.74-21.61a.21.21,0,0,1,.29.3l-23.71,25.25a.86.86,0,0,0-.09,1.08c.21.32-.07-.21.16.1a.67.67,0,0,0,1,.08l12.43-11.83c.7-.58,1.27-.19.82.78l-10.61,15.3a.35.35,0,0,0,0,.44c.21.23.28.17.5.39a.29.29,0,0,0,.44,0l23.29-28.25a.18.18,0,0,1,.3.21l-20.61,30.88a.34.34,0,0,0,.06.44c.63.56.43.49,1.11,1a.42.42,0,0,0,.61-.08c1.81-2.52,8.35-12.05,11.3-15.71,1.18-1.45,2.39-1.32,1.46.86L427.77,180a.2.2,0,0,0,.06.26c.39.24.7.37,1.1.6a.67.67,0,0,0,.61-.22l3.46-6,14.65-27.31a.2.2,0,0,1,.37.13l-14,35.34c0,.52,1.07.74,1.23.33l5.1-10.88c.55-1.11,2.89-6.66,3.64-8,1.17-2.07,2.52-2.09,2.18.79-.09.72-2.18,8.69-2.18,8.69l-2.6,10.79c0,.24.6.29.91.18.14,0,.29-.08.34-.23L453,151.85C453.42,150.91,455.1,145.89,453.91,152Z"/><path class="cls-10" d="M458.32,62.94c-5.22-17.54-27.21-38.62-27.21-38.62A147,147,0,0,0,423.73,46l3.19,6.09s2.17,5.82,2.07,8c-.18,4.09-2.07,5.47-2.07,5.47l-5.24,5.49c3.1,16.73,12.06,35.71,24.23,36.24-11.46-12.4-12.34-79.77-11.2-71.15,0,0,7.63,66.08,15.38,70.37C463.38,103.5,463.54,80.49,458.32,62.94Z"/><path class="cls-10" d="M404.87,150.77s-.53-11.31-.18-12.35c1.21-3.56,2.8-4.2,2.8-4.2l5.61-2.65a52.58,52.58,0,0,0-4.16-11.77C400.22,103,383.49,86.14,371.2,93.63c-2.19,6.92,23,43.5,33.95,59C405,151.59,404.87,150.77,404.87,150.77Z"/><path class="cls-10" d="M408.64,162.39a63.14,63.14,0,0,1-3.43-8.25c-11.31-13.09-37.57-45-37.76-58-8.86,9.29-2.79,30.45,7.78,44.5,8.12,10.8,25.91,20.49,35.19,25A23,23,0,0,1,408.64,162.39Z"/><path class="cls-10" d="M329.55,114.77a.2.2,0,0,1,.39,0l2.6,37.93c.25.45,1.28.2,1.26-.24l-.08-12c0-1.23-.27-7.25-.17-8.79.16-2.37,1.37-3,2.31-.23.23.69,1.77,8.78,1.77,8.78l2.3,10.86c.13.21.67,0,.9-.22s.22-.21.21-.36l-4.67-33.87c-.05-1-.7-6.27.87-.22l9.26,31.11a.74.74,0,0,0,1.08.49c.66-.38-.12.11.51-.3a1,1,0,0,0,.44-1.07l-5-19.35c-.67-2.07.47-2.59,1.37-.55L352,144.83a.17.17,0,0,0,.25.07c.7-.53,1-.78,1.63-1.34a.22.22,0,0,0,.07-.23l-11.59-31.7c-.06-.21.22-.34.3-.13l14.79,27.93a.29.29,0,0,0,.47.1,8.21,8.21,0,0,0,1.32-1.43l.54-.72-6.06-14.15c-.44-.8-.42-1.06-.71-1.56l-6.36-12.34a.11.11,0,0,1,.18-.12l5.17,5.73a67.68,67.68,0,0,1,6.91,11.2l3.07,7.29a.25.25,0,0,0,.44,0,30.07,30.07,0,0,0,1.64-3.16,3.42,3.42,0,0,0-.16-3.08C361,122.05,353.82,106,340.46,97.52a25,25,0,0,0-22.84-1.67c-14.42,6.46-23.84,21.21-27.53,25.91a2.71,2.71,0,0,0-.57,1.66c0,3-.66,1.7,1,5a.48.48,0,0,0,.79.1l16.81-19.16a.07.07,0,0,1,.11.09L293.4,132.94a.69.69,0,0,0,0,.72,19.22,19.22,0,0,0,1.54,2.71.52.52,0,0,0,.86,0l16.6-24.87a.22.22,0,0,1,.38.22l-14.35,28.17a.47.47,0,0,0,.08.56c.29.32.16.08.47.38a.55.55,0,0,0,.86-.11l6.65-12c.57-1.16,1.41-.87.89.3l-5.25,14.34a.6.6,0,0,0,.17.69c.47.4-.14-.12.35.26a.49.49,0,0,0,.75-.19l13.92-30.59a.21.21,0,0,1,.39.15l-10.53,33a.88.88,0,0,0,.39,1c.33.19-.16-.16.18,0a.67.67,0,0,0,1-.37l6.12-16c.38-.84,1.07-.73,1.08.34l-3,18.38a.36.36,0,0,0,.22.38c.3.11.33,0,.63.14a.3.3,0,0,0,.39-.21L323,114.79a.18.18,0,0,1,.35,0l-5.3,36.75a.34.34,0,0,0,.24.37,13.4,13.4,0,0,0,1.44.45.43.43,0,0,0,.52-.33c.55-3.05,2.35-14.47,3.44-19,.44-1.83,1.59-2.23,1.69.15l.31,19.66a.2.2,0,0,0,.17.2c.46.06.79,0,1.25.07a.67.67,0,0,0,.46-.45l.52-6.95"/><path class="cls-10" d="M173.67,137.79c-6.75-5-10.39-72.86-10.39-72.86.25-7.75-3,59.76,6.51,73.22-11.08-1.72-18.7-21.43-19.39-38.44-.73-18.27,12.18-45.54,12.18-45.54h0s18.51,23.13,21.94,41.1S186.06,136.09,173.67,137.79Z"/><path class="cls-10" d="M303.32,73.92c8.92,1,55.2-49.15,55.2-49.15,4.7-6.18-35.52,48.7-52.14,52.24,10.5,6.68,29.45-3.08,40.81-15.76,12.21-13.64,18.54-44.1,18.54-44.1h0s-30.36,4.55-44.66,16S293.89,63.66,303.32,73.92Z"/><path class="cls-10" d="M284.64,82.35C277.47,77.93,268,10.66,268,10.66c-.42-7.74,2.15,59.8,12.8,72.39-11.19-.76-20.48-19.74-22.63-36.62C255.86,28.28,266.38,0,266.38,0h0s20.43,21.45,25.39,39.05S296.83,79.6,284.64,82.35Z"/><path class="cls-10" d="M282.49,94c1.33,8.31-43.41,59.43-43.41,59.43-5.59,5.38,43.87-40.7,46.44-57,6.73,9,4.57,24.65-6.81,37.31-12.23,13.6-46.64,27.86-46.64,27.86h0s2.89-29.48,13-44.74S272.43,86.61,282.49,94Z"/><path class="cls-10" d="M219.94,82.47a.2.2,0,0,1-.36.17l-14.8-35c-.38-.35-1.27.22-1.11.63l4,11.34c.38,1.17,2.61,6.76,3,8.26.63,2.29-.32,3.25-2.1,1-.44-.57-4.53-7.72-4.53-7.72l-5.71-9.52c-.2-.16-.63.21-.78.5s-.15.26-.08.4L212.9,83c.39.94,2.71,5.7-.75.48l-18.88-26.4A.74.74,0,0,0,192.1,57c-.51.57.07-.14-.4.45a1,1,0,0,0-.06,1.15l11,16.68c1.3,1.73.39,2.6-1.12,1L188.89,61.37a.16.16,0,0,0-.26,0c-.5.72-.66,1-1.11,1.79a.23.23,0,0,0,0,.24L208.8,89.62c.13.18-.09.39-.24.22l-23.07-21.6a.29.29,0,0,0-.48.06,8.52,8.52,0,0,0-.78,1.79l-.27.85L194.3,82.35c.66.6.73.86,1.17,1.24l10,9.6a.11.11,0,0,1-.13.17l-6.76-3.74a67.82,67.82,0,0,1-10.18-8.33l-5.27-5.9a.24.24,0,0,0-.41.13,27.91,27.91,0,0,0-.53,3.53,3.39,3.39,0,0,0,1.15,2.85c4.46,3.91,16.46,16.72,31.87,20.42a25,25,0,0,0,22.13-5.85C248.91,85.67,253,68.66,255,63a2.63,2.63,0,0,0,0-1.75c-1-2.89.07-1.82-2.55-4.39a.48.48,0,0,0-.78.16L242,80.62a.08.08,0,0,1-.14-.05l6.36-27a.69.69,0,0,0-.22-.68,20,20,0,0,0-2.33-2.07.53.53,0,0,0-.81.33L237.25,80a.22.22,0,0,1-.43-.08l4.4-31.31a.49.49,0,0,0-.26-.51c-.37-.2-.18,0-.57-.2a.54.54,0,0,0-.77.38L237.23,61.8c-.16,1.29-1,1.28-.94,0l.31-15.26a.62.62,0,0,0-.39-.6c-.57-.22.17.07-.42-.13a.49.49,0,0,0-.64.43l-3.21,33.45a.21.21,0,0,1-.42,0l-.79-34.63a.86.86,0,0,0-.69-.83c-.37-.08.2.1-.18,0a.68.68,0,0,0-.79.66l-.57,17.14c-.09.91-.77,1-1.13,0l-3.16-18.35a.35.35,0,0,0-.33-.29c-.31,0-.32.08-.64.07a.31.31,0,0,0-.3.33l3.19,36.47a.18.18,0,0,1-.36.06l-6.94-36.47a.33.33,0,0,0-.35-.27,12.8,12.8,0,0,0-1.51,0,.42.42,0,0,0-.38.48c.47,3.07,2.48,14.45,2.94,19.13.18,1.86-.78,2.61-1.64.4l-6.7-18.49a.2.2,0,0,0-.23-.13c-.45.09-.76.22-1.2.34a.68.68,0,0,0-.29.58l1.77,6.73"/><path class="cls-10" d="M104.59,150.13a.46.46,0,0,0-.47.61l7.95,23.44c0,.08-.09.13-.12,0L99.37,150.36a.67.67,0,0,0-.6-.36,18,18,0,0,0-3,0,.51.51,0,0,0-.38.75l12.86,26a.22.22,0,0,1-.38.22L91.13,151.22a.49.49,0,0,0-.52-.21c-.4.09-.14.1-.55.21a.54.54,0,0,0-.32.78l6.86,11.42c.7,1.05,0,1.6-.69.6l-9.5-11.38a.58.58,0,0,0-.66-.19,2.78,2.78,0,0,0-.4.16.49.49,0,0,0-.2.73l19,26.56a.21.21,0,0,1-.32.26L81.16,155.28a.84.84,0,0,0-1-.17c-.33.19.21-.05-.11.15a.66.66,0,0,0-.16,1l10.51,12.92c.51.73.09,1.26-.82.75l-14-11.44a.35.35,0,0,0-.43,0c-.24.2-.19.27-.42.46a.29.29,0,0,0,0,.43l25.58,24.71c.17.14,0,.4-.22.27L71.71,162a.33.33,0,0,0-.43,0c-.59.57-.51.39-1.08,1a.41.41,0,0,0,0,.59c2.3,2,11,9,14.34,12.15,1.32,1.25,1.1,2.41-.94,1.34l-16.69-9.28a.19.19,0,0,0-.26,0c-.27.36-.41.65-.66,1a.67.67,0,0,0,.16.62l5.58,3.8,25.33,16.27a.19.19,0,0,1-.15.35L63.78,173.71c-.5,0-.79,1-.41,1.17l10.15,5.76c1,.62,6.22,3.3,7.47,4.14,1.92,1.28,1.84,2.59-.93,2-.69-.13-8.24-2.77-8.24-2.77l-10.25-3.34c-.24,0-.33.56-.25.87,0,.14.06.28.2.34l30.75,12.53c.88.45,5.61,2.46-.24.84L61.37,188a.72.72,0,0,0-.93.67c0,.35,0,.33,0,.29s0,.11,0,.28a1,1,0,0,0,.69.89l18.71,5.2c2.06.44,1.94,1.65-.21,1.42L60.89,193.9a.16.16,0,0,0-.18.17c.1.85.18,1.2.33,2a.19.19,0,0,0,.16.17l32.28,5.66c.22.05.18.35,0,.31L62.78,201.1a.29.29,0,0,0-.32.35,8.18,8.18,0,0,0,.45,1.51l1.62,1.24,13.69,1.63c.88,0,1.09.17,1.65.16l13.47.65a.11.11,0,0,1,0,.21L86,208.42a65.88,65.88,0,0,1-12.77.37l-3.61-.46c1.61,1.37,3.19,2.8,4.7,4.27,7.69.24,20.9.29,32-5.47a24.27,24.27,0,0,0,12.5-18.39c1.57-15.27-6.25-30.35-8.42-35.73a2.57,2.57,0,0,0-1.12-1.29C106.69,150.23,108.15,150.34,104.59,150.13Z"/><path class="cls-10" d="M202.54,153l25.1,12.75c.09-.71.2-1.54.34-2.49l-13.22-7.34c-2-.93-1.55-2.12.55-1.37l13.19,5.34c.13-.79.27-1.63.43-2.5L202.68,146c-.2-.1-.1-.4.11-.31l26.93,7.52c.21-1,.44-2.11.68-3.21l-11.5-4.25c-.87-.24-1.05-.43-1.61-.56L204,141.33c-.14,0-.1-.24,0-.22l7.73.19a67.76,67.76,0,0,1,12.87,2.7l6.65,2.51c.15-.62.32-1.24.48-1.87-.2-.59-.4-1.11-.58-1.53a3.43,3.43,0,0,0-2.34-2c-5.76-1.4-22.32-7.23-37.69-3.39a25,25,0,0,0-16.94,15.41c-5.24,14.91-1,31.89-.15,37.8a2.61,2.61,0,0,0,.81,1.56c2.2,2.11.77,1.64,4.28,2.72a.48.48,0,0,0,.62-.51l-2.33-25.38a.07.07,0,0,1,.14,0l6.86,26.93a.67.67,0,0,0,.51.5,18,18,0,0,0,3,.76.52.52,0,0,0,.56-.66l-6.61-29.15a.22.22,0,0,1,.42-.13l10.56,29.8a.51.51,0,0,0,.46.34c.43,0,.17-.08.6-.09a.55.55,0,0,0,.51-.7l-4.12-13.09c-.45-1.21.34-1.61.83-.43l6.78,13.68a.62.62,0,0,0,.62.35,3.21,3.21,0,0,0,.43-.07.49.49,0,0,0,.37-.68l-12.6-31.15a.21.21,0,0,1,.38-.19l16.69,30.35a.84.84,0,0,0,1,.42c.37-.1-.22,0,.15-.11a.69.69,0,0,0,.39-1l-7.41-15.47c-.34-.85.21-1.27,1-.55l11.28,14.82a.36.36,0,0,0,.43.11c.28-.13.24-.22.53-.36a.31.31,0,0,0,.12-.43l-19.67-30.87a.18.18,0,0,1,.28-.22l23,29.14a.35.35,0,0,0,.44.08,13.35,13.35,0,0,0,1.32-.74.42.42,0,0,0,.12-.6c-1.84-2.5-8.88-11.67-11.45-15.61-1-1.56-.52-2.68,1.27-1.11l14.48,13.3a.2.2,0,0,0,.27,0c.35-.29.56-.55.9-.86a.66.66,0,0,0,0-.65l-4.68-5.15L196.1,157.5a.2.2,0,0,1,.24-.32l29.3,24.22c.49.14,1-.79.69-1.07l-8.77-8.21c-.88-.87-5.44-4.8-6.49-5.94-1.62-1.75-1.22-3,1.42-1.82.66.3,7.59,4.75,7.59,4.75l9.46,5.81c.24.05.46-.48.45-.81,0-.15,0-.3-.11-.39L202.1,153.78C201.32,153.12,197.07,150,202.54,153Z"/><path class="cls-10" d="M119.18,121.28C100.88,120.82,74,135.23,74,135.23a146.94,146.94,0,0,0,18.34,13.71l6.77-1.15s6.21-.27,8.26.51C111.25,149.74,112,152,112,152s1.66,3.07,3.6,6.68c16.88,2.22,37.69-.44,42-11.85-15.32,7.07-79.67-12.91-71.13-11.33,0,0,65.22,13.16,71.68,7.11C159.31,129,137.48,121.74,119.18,121.28Z"/><path class="cls-10" d="M186.19,199.25s-10.93-3-11.81-3.64c-3-2.26-3.12-4-3.12-4l-.79-6.16a52.89,52.89,0,0,0-12.48.32c-18.65,3.11-39.88,13.81-36.55,27.81,5.9,4.22,48.48-8.45,66.57-14.07Z"/><path class="cls-10" d="M198.41,199.26a63.52,63.52,0,0,1-8.91.71c-15.95,6.71-54.41,21.83-66.86,18,6.1,11.3,28.09,12.06,44.72,6.36,12.79-4.39,27.5-18.32,34.67-25.74A23.75,23.75,0,0,1,198.41,199.26Z"/><path class="cls-10" d="M128.67,259.76a.19.19,0,0,1,.08-.38l36.87,9.24c.5-.09.59-1.15.16-1.27l-11.45-3.63c-1.17-.4-7-2-8.42-2.57-2.2-.88-2.4-2.21.5-2.25.73,0,8.9,1,8.9,1l11,1.17c.24-.06.21-.63.06-.92s-.12-.28-.27-.31l-33.66-6c-1-.27-6.18-1.27.07-.9l32.44.81a.74.74,0,0,0,.8-.87,2.71,2.71,0,0,0-.12-.58,1,1,0,0,0-.88-.75l-20-1.23c-2.17,0-2.31-1.25-.09-1.48l19.47-1.17a.16.16,0,0,0,.14-.21c-.28-.84-.43-1.16-.76-2a.22.22,0,0,0-.2-.13l-33.73,1.22c-.22,0-.26-.31,0-.33l31.13-5.43a.3.3,0,0,0,.25-.42,9.08,9.08,0,0,0-1-1.7l-.52-.73-15.33,1.4c-.89.16-1.13.06-1.7.19l-13.71,2.23a.11.11,0,0,1,0-.21l7-3.15a68.51,68.51,0,0,1,12.78-3.11l7.89-.66a.25.25,0,0,0,.14-.41,29.39,29.39,0,0,0-2.5-2.55,3.42,3.42,0,0,0-3-.79c-5.81,1.21-23.26,3.08-35.49,13.16a24.22,24.22,0,0,0-6.89,9.55A24,24,0,0,0,107,265.26c1.68,15.72,12.8,29.23,16.13,34.19a2.74,2.74,0,0,0,1.4,1.06c2.9.95,1.41,1.15,5,.6a.48.48,0,0,0,.34-.72l-13-21.9a.07.07,0,0,1,.12-.08l17.78,21.35a.68.68,0,0,0,.68.23,18.93,18.93,0,0,0,3-.61.53.53,0,0,0,.23-.84l-18.52-23.47a.22.22,0,0,1,.32-.3l22.36,22.36a.49.49,0,0,0,.56.1c.39-.18.13-.14.51-.33a.55.55,0,0,0,.16-.85l-9.36-10c-.93-.9-.39-1.61.57-.75l12,9.42a.6.6,0,0,0,.71.06c.53-.33-.15.09.36-.26a.48.48,0,0,0,.05-.77L123.67,271a.21.21,0,0,1,.26-.33l28.13,20.21a.86.86,0,0,0,1.08,0c.29-.25-.2.09.08-.17a.68.68,0,0,0-.06-1l-13.34-10.77c-.67-.62-.36-1.24.66-.92L157,286.48a.35.35,0,0,0,.43-.09c.2-.24.14-.3.33-.55a.3.3,0,0,0-.08-.44l-31-19.4a.18.18,0,0,1,.16-.32l33.31,16.4a.34.34,0,0,0,.42-.11c.48-.7.43-.5.88-1.24a.42.42,0,0,0-.15-.59c-2.74-1.47-13-6.71-17-9.16-1.6-1-1.63-2.2.66-1.56l18.8,5.78a.19.19,0,0,0,.24-.1c.2-.42.28-.74.46-1.17a.67.67,0,0,0-.3-.58l-6.44-2.63"/><path class="cls-10" d="M102.4,415.12c-6.87,4.88-72.51-12.63-72.51-12.63-7.29-2.63,55.91,21.34,71.65,16.44-5.06,10-26.16,11.16-42.54,6.56-17.61-4.95-39.56-25.66-39.56-25.66h0s27.72-10.45,45.87-8.16S104.61,402.82,102.4,415.12Z"/><path class="cls-10" d="M81.72,272.09C85.42,263.91,52,204.4,52,204.4,47.6,198,87.37,253.23,85.6,270.13c9.6-7.92,6.17-29-2.38-43.69C74,210.62,47,195.19,47,195.19h0S42,225.46,48.42,242.6,69,277.88,81.72,272.09Z"/><path class="cls-10" d="M84,292.46c-6.43,5.45-73.33-6.33-73.33-6.33-7.49-2,57.54,16.43,72.8,10.19-4.18,10.41-25.1,13.38-41.82,10.21C23.65,303.12,0,284.38,0,284.38H0s26.71-12.8,45-12.09S85.11,280,84,292.46Z"/><path class="cls-10" d="M94.41,298.12c8.32,1.3,43.11,59.65,43.11,59.65,3.39,7-25.15-54.3-39.84-61.78,10.61-3.63,24.86,3.27,33.38,18,9.16,15.83,12.09,53,12.09,53h0S116,355.1,104.61,340.8,84.24,305.38,94.41,298.12Z"/><path class="cls-10" d="M64.08,354a.2.2,0,1,1,0,.39l-37.87,3.26c-.45.25-.18,1.28.26,1.25l12-.29c1.24,0,7.25-.39,8.79-.32,2.38.12,3,1.32.27,2.3-.68.25-8.75,1.93-8.75,1.93L28,365c-.2.14,0,.67.24.9s.21.22.36.2l33.79-5.25c1-.07,6.26-.81.23.87l-30.94,9.8a.73.73,0,0,0-.47,1.08c.38.66-.12-.12.3.51a1,1,0,0,0,1.08.41l19.27-5.32c2-.7,2.59.43.57,1.36l-18,7.45a.17.17,0,0,0-.07.25c.54.69.79.95,1.36,1.6A.24.24,0,0,0,36,379l31.49-12.13c.21-.07.34.21.14.29L39.91,382.39a.3.3,0,0,0-.1.48,9.16,9.16,0,0,0,1.46,1.29l.73.52,14-6.3c.79-.45,1.05-.44,1.55-.74l12.23-6.57a.11.11,0,0,1,.12.18l-5.64,5.27a68.15,68.15,0,0,1-11.08,7.11L46,386.81a.25.25,0,0,0,0,.44,30.3,30.3,0,0,0,3.19,1.6,3.43,3.43,0,0,0,3.07-.22c5.1-3,21-10.49,29.27-24a25,25,0,0,0,1.28-22.87C76.08,327.46,61.17,318.3,56.4,314.7a2.77,2.77,0,0,0-1.67-.55c-3,.05-1.7-.62-5,1.07a.48.48,0,0,0-.08.79l19.44,16.48c.07.05,0,.15-.08.11L45.29,318.2a.67.67,0,0,0-.72,0,18.67,18.67,0,0,0-2.69,1.57.53.53,0,0,0,.06.87L67.1,336.8a.22.22,0,0,1-.22.39L38.47,323.33a.5.5,0,0,0-.57.08c-.31.3-.07.17-.37.48a.55.55,0,0,0,.13.86l12.11,6.45c1.17.55.89,1.39-.29.89l-14.42-5a.62.62,0,0,0-.69.18c-.39.48.11-.14-.26.36a.5.5,0,0,0,.21.75l30.83,13.38a.21.21,0,0,1-.14.4L31.83,332.2a.85.85,0,0,0-1,.4c-.19.33.15-.16,0,.18a.68.68,0,0,0,.39,1l16.12,5.84c.84.37.75,1.06-.32,1.08L28.57,338a.35.35,0,0,0-.38.22c-.11.3,0,.33-.13.63a.31.31,0,0,0,.22.39L64,347.48a.18.18,0,0,1-.05.35l-36.84-4.66a.33.33,0,0,0-.36.24,13.69,13.69,0,0,0-.43,1.46.43.43,0,0,0,.34.51c3.07.5,14.51,2.1,19.1,3.11,1.83.4,2.25,1.55-.12,1.69l-19.65.65a.2.2,0,0,0-.2.18c0,.45,0,.79,0,1.24a.68.68,0,0,0,.46.46l7,.4"/><path class="cls-10" d="M125.79,392.37l19.88-19.93-2.26-1.09-11.07,10.3c-1.49,1.57-2.49.82-1.13-.94l9.15-10.9c-.71-.36-1.47-.76-2.25-1.18l-18.92,21.45c-.16.16-.41,0-.26-.2l15.47-23.29c-.92-.52-1.87-1.07-2.83-1.64L124,374.57c-.49.76-.73.87-1,1.37l-7.81,11.48a.11.11,0,0,1-.19-.11L117.5,380A67.8,67.8,0,0,1,124,368.61l4.45-5.54c-.55-.34-1.09-.68-1.64-1-.63,0-1.18.05-1.63.09a3.41,3.41,0,0,0-2.62,1.6c-3.12,5-13.78,19-14.88,34.8a25,25,0,0,0,9.42,20.87c12.56,9.59,30,10.84,35.91,11.83a2.67,2.67,0,0,0,1.73-.29c2.69-1.45,1.8-.23,3.91-3.24a.48.48,0,0,0-.29-.74l-24.86-5.63a.07.07,0,0,1,0-.14l27.73,1.8a.68.68,0,0,0,.64-.33,18.28,18.28,0,0,0,1.65-2.64.53.53,0,0,0-.45-.74l-29.77-2.72a.22.22,0,0,1,0-.44l31.6-.83a.47.47,0,0,0,.46-.33c.14-.41,0-.19.11-.6a.55.55,0,0,0-.51-.7l-13.72-.13c-1.29.06-1.43-.82-.15-.92l15.1-2.22a.62.62,0,0,0,.53-.48c.12-.6,0,.18.06-.44a.49.49,0,0,0-.53-.56l-33.52,2.36a.21.21,0,0,1-.06-.42l34-6.49a.86.86,0,0,0,.71-.82c0-.38-.07.21-.07-.17a.68.68,0,0,0-.79-.67l-17,2.27c-.91.06-1.14-.6-.21-1.11L167,397.7a.35.35,0,0,0,.23-.37c0-.31-.13-.31-.18-.62a.29.29,0,0,0-.37-.24l-35.44,9.16a.18.18,0,0,1-.12-.34l34.82-12.87a.33.33,0,0,0,.21-.39,13.32,13.32,0,0,0-.29-1.48.43.43,0,0,0-.54-.3c-2.94,1-13.84,4.84-18.38,6.06-1.8.49-2.7-.33-.67-1.55l17.13-9.66a.18.18,0,0,0,.1-.24c-.17-.43-.35-.72-.53-1.13a.67.67,0,0,0-.63-.19L156,386.39l-27.91,13.49a.19.19,0,0,1-.22-.32l32.09-20.38c.28-.43-.44-1.22-.81-1L148.61,384c-1.1.57-6.25,3.69-7.66,4.33-2.15,1-3.26.22-1.29-1.91.49-.54,6.87-5.75,6.87-5.75l8.44-7.2c.12-.22-.31-.59-.62-.69-.15,0-.29-.1-.41,0L126.39,393C125.52,393.57,121.22,396.64,125.79,392.37Z"/><path class="cls-10" d="M69.86,461.85c-6.1,17.26-.69,47.24-.69,47.24a147.81,147.81,0,0,0,18.71-13.2l1-6.8s1.67-6,3-7.7c2.55-3.21,4.89-3.22,4.89-3.22l7.46-1.35c7.33-15.37,11.24-36,1.7-43.56C108,450,69.07,505,73.21,497.4c0,0,32.68-57.95,28.92-66C89.6,426.07,76,444.59,69.86,461.85Z"/><path class="cls-10" d="M564.81,386.14C573.23,386.23,616,439,616,439c4.36,6.41-32.69-50.13-48.3-55.42,10-5.12,27.73,6.35,38.27,19.7,11.34,14.36,16.92,44,16.92,44h0s-28.56-7.84-41.9-20.36S555.79,394.79,564.81,386.14Z"/><path class="cls-10" d="M613.45,335.55a.46.46,0,0,0,0-.77l-20.2-14.29a.07.07,0,0,1,.07-.12l24.21,11.92a.66.66,0,0,0,.69-.06,18.14,18.14,0,0,0,2.47-1.75.51.51,0,0,0-.13-.83l-25.71-13.51a.21.21,0,0,1,.18-.39l28.66,11a.46.46,0,0,0,.54-.13c.27-.31,0-.17.32-.49a.54.54,0,0,0-.2-.82L612.1,320.1c-1.18-.44-1-1.27.2-.89l14.38,3.62a.59.59,0,0,0,.65-.23c.34-.5-.1.14.22-.37a.47.47,0,0,0-.27-.7l-30.95-10.35a.2.2,0,0,1,.1-.39l32.94,6.82a.85.85,0,0,0,.94-.47c.15-.34-.14.16,0-.18a.65.65,0,0,0-.46-.89l-16.09-4.29c-.84-.29-.81-1,.22-1.08l18,1a.34.34,0,0,0,.35-.25c.08-.29,0-.32.07-.61a.29.29,0,0,0-.24-.36L597,305.55a.18.18,0,0,1,0-.35l36,1.4a.35.35,0,0,0,.34-.27,13.76,13.76,0,0,0,.28-1.45.4.4,0,0,0-.37-.46c-3-.23-14.21-.81-18.74-1.4-1.8-.23-2.31-1.3,0-1.64l19-2.3a.18.18,0,0,0,.18-.18c0-.45,0-.77-.06-1.21a.63.63,0,0,0-.48-.4l-6.76.2-30,1.73a.19.19,0,0,1-.08-.38l36.36-6.35c.41-.28.07-1.26-.35-1.19l-11.6,1.3c-1.2.1-7,1-8.48,1-2.31.09-3-1-.45-2.2.64-.29,8.3-2.6,8.3-2.6l10.25-3.32c.19-.15-.06-.65-.3-.85s-.22-.19-.36-.16l-32.25,7.94c-1,.15-6,1.31-.3-.82l29.11-12.1a.72.72,0,0,0,.36-1.09l-.16-.24-.17-.22a1,1,0,0,0-1.08-.32l-18.19,6.79c-1.93.85-2.55-.2-.67-1.27l16.81-8.73a.16.16,0,0,0,0-.25c-.58-.63-.85-.86-1.46-1.44a.21.21,0,0,0-.23,0L592,287.12c-.2.08-.35-.18-.16-.27l25.48-17.12a.29.29,0,0,0,.05-.47,8.61,8.61,0,0,0-1.25-.95l-2-.05L602,275c-.72.5-1,.51-1.43.84l-11.28,7.4a.11.11,0,0,1-.13-.17l5-5.58a67.26,67.26,0,0,1,10.11-7.81l3.18-1.74c-2.1-.17-4.21-.39-6.3-.69-6.36,4.33-17.08,12-22.64,23.2a24.32,24.32,0,0,0,.7,22.23c7.7,13.27,22.9,20.88,27.82,24a2.61,2.61,0,0,0,1.66.38C611.69,336.7,610.44,337.47,613.45,335.55Z"/><path class="cls-10" d="M532.51,390.8l-27.79,4.44c.34.62.74,1.36,1.18,2.21l15-1.83c2.13-.39,2.5.8.36,1.43l-13.81,3.43c.37.72.74,1.48,1.13,2.28l27.92-6.23c.22,0,.31.26.09.31l-26.21,9.75c.44,1,.89,2,1.33,3l11.81-3.32c.84-.33,1.1-.27,1.64-.5l13.06-4.69a.11.11,0,0,1,.1.19L532,405.65a68.56,68.56,0,0,1-12,5.4l-6.86,1.86.71,1.8c.52.36,1,.66,1.37.9a3.43,3.43,0,0,0,3.07.24c5.49-2.25,22.31-7.27,32.49-19.41A25.06,25.06,0,0,0,555.39,374c-4.52-15.14-17.91-26.41-22.1-30.67a2.63,2.63,0,0,0-1.57-.79c-3-.41-1.59-.87-5.06.32a.48.48,0,0,0-.2.77l16.8,19.17a.07.07,0,0,1-.1.1l-21.38-17.76a.7.7,0,0,0-.71-.11,19.87,19.87,0,0,0-2.89,1.17.53.53,0,0,0-.07.86l22.49,19.7a.22.22,0,0,1-.26.36l-26.06-17.91a.5.5,0,0,0-.57,0c-.35.25-.1.16-.44.42a.56.56,0,0,0,0,.87l11,8.16c1.08.72.67,1.51-.42.84l-13.52-7.08a.6.6,0,0,0-.71.08c-.46.41.13-.13-.31.31a.49.49,0,0,0,.1.77l28.5,17.79a.21.21,0,0,1-.19.38L506.4,357a.87.87,0,0,0-1,.25c-.23.3.18-.13,0,.18a.67.67,0,0,0,.24,1l15.09,8.16c.77.49.58,1.15-.48,1l-17.83-5.37a.36.36,0,0,0-.41.17c-.16.27-.08.32-.22.6a.31.31,0,0,0,.15.42l34.06,13.42a.18.18,0,1,1-.1.34l-35.74-10.06a.35.35,0,0,0-.4.19c-.34.78-.33.57-.63,1.38a.41.41,0,0,0,.26.55c3,1,14,4.23,18.43,5.9,1.75.67,2,1.87-.37,1.65l-19.53-2.25a.2.2,0,0,0-.23.14c-.11.45-.14.78-.23,1.23a.69.69,0,0,0,.39.52l6.82,1.42,30.5,5.49a.2.2,0,0,1,0,.39l-37.94-2.37c-.48.18-.36,1.24.07,1.27l11.93,1.49c1.22.18,7.22.69,8.74,1,2.33.46,2.77,1.74-.08,2.31-.71.14-8.93.61-8.93.61l-11.07.86c-.23.11-.09.67.1.93s.17.25.33.25l34.19-.2C533.43,390,538.72,390,532.51,390.8Z"/><path class="cls-10" d="M618.6,367.46c15.08-10.38,28.32-37.82,28.32-37.82a148.14,148.14,0,0,0-22.89-.31l-4.81,4.91s-4.87,3.87-7,4.45c-4,1.09-5.85-.28-5.85-.28l-6.84-3.29c-15,8.13-30.24,22.51-27,34.24,8.24-14.72,72-36.38,64.2-32.63,0,0-60.49,27.68-62.17,36.37C581.6,384.81,603.52,377.85,618.6,367.46Z"/><path class="cls-10" d="M518.56,343.77s10.59-4,11.69-4c3.76.05,4.86,1.36,4.86,1.36l4.25,4.52a52.29,52.29,0,0,0,9.91-7.59c13.26-13.48,24.14-34.61,13.23-44-7.26.06-34.26,35.34-45.59,50.52Z"/><path class="cls-10" d="M508.67,351a62.62,62.62,0,0,1,6.79-5.81c8.95-14.81,31.19-49.65,43.52-53.85-11.58-5.56-29.82,6.75-39.92,21.14-7.76,11.07-11.48,31-12.92,41.2A23.1,23.1,0,0,1,508.67,351Z"/><path class="cls-10" d="M503.54,401.15s-15,24.49-19.94,42.77a81.59,81.59,0,0,1,14.4-.8c2.14-18.7,5.4-35.25,4.68-31.23,0,0-1.35,14.92-2.18,31.35a78.52,78.52,0,0,1,18.9,3.52l-.06-1.79C518.52,426.7,503.54,401.15,503.54,401.15Z"/><path class="cls-10" d="M410.3,604.33s-5.18-3.44-6.39-5.27c-2.26-3.42-1.54-5.65-1.54-5.65s.05-.35.13-.95a78.86,78.86,0,0,1-11.42,1.5c13.86,15.14,25.73,31.46,22.28,27.83,0,0-13.41-14.59-27-27.67-.75,0-1.5,0-2.25,0a73.32,73.32,0,0,1-25.24-3.22c3.68,8.2,11.49,16.86,19.67,23.12,14.53,11.13,44.72,15.25,44.72,15.25a147.39,147.39,0,0,0-6.78-21.87Z"/><g id="arc"><path class="cls-10" d="M581.86,322.17c-1.53-1.93-3-3.82-3.94-5.36-3.43-5.36-5.48-10.73-5.88-13.83a25.15,25.15,0,0,1,1.68-11.65c.68-1.9,2.67-4.62,4.79-7.18a249.55,249.55,0,0,0-6.44-28.52c-1.78-1.42-3.52-2.87-5-4.17-5.17-4.54-8.52-10.41-10.59-14.68s-1.59-8.24.21-12.24a10.35,10.35,0,0,1,2.46-3.81q-.87-1.92-1.77-3.84a11.66,11.66,0,0,1-3.58-.43,23.75,23.75,0,0,1-8-4.64c-2.93-2.75-3.4-4.8-4.37-7.79s1.06-7.24,1.95-9.61a8.27,8.27,0,0,1,.86-1.6c-.74-1.2-1.48-2.41-2.24-3.6q-4.39-6.87-9.16-13.34c-5.32-1.42-11-3.25-13.39-5.07-4.82-3.68-12.84-8.19-15-15.49-.91-3-1.05-8.08-.91-12.91q-8.83-8.44-18.35-15.92c-2.33.62-4.86,1.18-7.51,1.62-8.47,1.4-13.22-.46-15.42-1.79-4-2.46-5.33-6.61-6.07-9.5-1-4,.48-6.57,1.52-9.12l-2.55-1.49-.64.44c-3.29,2.1-8.12,2.49-8.12,2.49a20.87,20.87,0,0,1-6.41-1.4c-3.08-1.28-6.22-3.4-10.27-9.15A46.44,46.44,0,0,1,426,91.86q-10.92-4.53-22.19-8c-2.29.86-4.52,1.62-6.28,2.08-6.15,1.61-11.89,1.89-15,1.32A25.13,25.13,0,0,1,372,82c-1.59-1.23-3.54-3.92-5.31-6.71a254.71,254.71,0,0,0-29.21-2.72C335.57,73.85,333.68,75,332,76c-5.91,3.51-12.52,4.88-17.22,5.53s-8.33-1-11.59-4A10.25,10.25,0,0,1,300.32,74c-1.39.16-2.79.33-4.18.51a11.67,11.67,0,0,1-1.52,3.29A23.71,23.71,0,0,1,287.73,84c-3.51,1.94-5.61,1.76-8.76,1.75s-6.55-3.25-8.53-4.82a9.37,9.37,0,0,1-1.31-1.38q-9.83,2.39-19.53,5.58c-3,4.65-6.52,9.54-9,11.26-5,3.45-11.76,9.68-19.38,9.51-3.17-.06-8-1.48-12.51-3.1q-8.2,4.42-16.19,9.52c-1.57,1-3.12,2-4.67,3.07-.13,2.39-.38,4.94-.78,7.57-1.29,8.48-4.52,12.43-6.47,14.11-3.59,3.09-7.93,3-10.9,2.84-4.13-.27-6.1-2.48-8.21-4.25-.74.65-1.46,1.32-2.2,2q.12.35.21.72a20.76,20.76,0,0,1-.14,8.49,20.78,20.78,0,0,1-3.3,5.66c-2.18,2.54-5.17,4.87-11.88,6.94a47.06,47.06,0,0,1-7.62,1.47q-7.68,9-14.42,18.53c.1,2.47.14,4.87,0,6.7-.37,6.36-1.87,11.91-3.37,14.64a25,25,0,0,1-8.2,8.44c-1.67,1.14-4.85,2.17-8.06,3A252.66,252.66,0,0,0,91,239.17c.6,2.17,1.14,4.33,1.57,6.23,1.51,6.71.77,13.42-.07,18.09s-3.55,7.61-7.36,9.78a10.26,10.26,0,0,1-4.2,1.63c-.29,1.39-.56,2.78-.82,4.18a11.47,11.47,0,0,1,2.61,2.43A23.68,23.68,0,0,1,86.42,290c.76,3.94-.06,5.88-1,8.87s-5.12,5.23-7.23,6.63a8.78,8.78,0,0,1-1.65.8q-.8,10.14-.75,20.36c3.48,4.28,7,9.11,7.88,12,1.74,5.8,5.58,14.17,3.07,21.37-1,3-3.9,7.16-6.86,11q2.16,11.89,5.5,23.66c2.25.87,4.62,1.9,7,3.11,7.66,3.84,10.42,8.14,11.41,10.51,1.83,4.37.43,8.48-.67,11.24-1.52,3.84-4.23,5-6.57,6.49.4.9.79,1.81,1.19,2.71l.76,0c3.89.24,8,2.76,8,2.76a20.94,20.94,0,0,1,4.36,4.89c1.74,2.85,3,6.42,2.93,13.44a46.21,46.21,0,0,1-.93,7.61l.43.71,3.25-9.61h15.71A232.57,232.57,0,0,1,118.7,423.6c-.88-.73-1.68-1.42-2.37-2.06a39.59,39.59,0,0,1-5.75-6.61c-2.88-4-5.92-9.32-5.29-15a45,45,0,0,1,1.47-7.55,231.11,231.11,0,0,1-9.59-55.86c-4-5.65-6.42-10.32-8.39-19-1.16-5.15-2.57-8.43-.35-17,1.1-4.22,4.44-6.8,8-8a25.89,25.89,0,0,1,3-.83q1.69-11.46,4.53-22.7c-.23-1.86-.37-3.45-.5-4.59a20.47,20.47,0,0,1,2.19-11.64,26.14,26.14,0,0,1,6.21-9.07,231.77,231.77,0,0,1,9.8-22.35,11.56,11.56,0,0,1-2.64-6s-.83-5.72.2-9.13,5.8-11.15,10.51-14a93,93,0,0,1,13.61-5.94A230.62,230.62,0,0,1,170.62,156c.42-1,.83-2,1.22-2.85a37.65,37.65,0,0,1,5.8-9.08c2.82-3.51,6.55-7.05,11.37-8.05a46,46,0,0,1,7.62-.93c2.39-1.66,4.82-3.3,7.29-4.88a232.88,232.88,0,0,1,42.83-21.55c4.12-5.6,7.83-9.29,15.51-13.86,4.54-2.7,7.23-5.06,16.06-5.58,4.36-.27,7.84,2.12,10.12,5.16a26.14,26.14,0,0,1,1.68,2.51A231.32,231.32,0,0,1,315.46,94l1.75-.78A20.5,20.5,0,0,1,329,91.72a27,27,0,0,1,8.48,2.09,231.59,231.59,0,0,1,26.46,2.53A11.58,11.58,0,0,1,368.81,92s5.18-2.56,8.74-2.63S390,91.39,394.06,95A92.59,92.59,0,0,1,404,106.18a231.82,231.82,0,0,1,37.24,16.5c1.11.07,2.15.16,3.07.27a36.83,36.83,0,0,1,10.89,2.92c4.09,1.59,8.4,4,10.76,8.17a45.57,45.57,0,0,1,3.2,6.86,230.53,230.53,0,0,1,40.55,39.53c6.63,2.2,11.3,4.58,18,10.49,4,3.47,7,5.31,10.27,13.54,1.6,4.07.41,8.12-1.78,11.23a29.07,29.07,0,0,1-1.91,2.42,231.62,231.62,0,0,1,9.75,21.1c1.24,1.33,2.26,2.51,3,3.34a20.49,20.49,0,0,1,5.08,10.7,26.2,26.2,0,0,1,.32,10.88,230.2,230.2,0,0,1,5.22,24,11.57,11.57,0,0,1,5.63,3.29s4,4.14,5.2,7.5,1.86,12.43-.3,17.46a92.2,92.2,0,0,1-7.56,12.87,232,232,0,0,1-4.21,40.43c.28,1.12.53,2.17.7,3.1a37.6,37.6,0,0,1,.71,10c-.12,4.72-1,10.22-4.5,14.11a44.33,44.33,0,0,1-5.72,5.31,232.51,232.51,0,0,1-22.47,46.77,64.11,64.11,0,0,1,11.07,5.92c1.67-5.28,3.85-11.48,8.72-14.86,2.61-1.81,7.34-3.5,12-4.85q5.27-11,9.45-22.43c-1.29-2-2.59-4.23-3.82-6.6-3.94-7.61-3.65-12.71-3.06-15.21,1.09-4.61,4.64-7.12,7.16-8.7,3.47-2.2,6.36-1.59,9.09-1.39.22-1,.42-1.95.63-2.92-.19-.14-.38-.28-.56-.43-3-2.48-4.88-7-4.88-7a21,21,0,0,1-.66-6.52c.27-3.33,1.32-7,5.54-12.59a45.61,45.61,0,0,1,5.24-5.63Q582,334,581.86,322.17Z"/><path class="cls-10" d="M324,562a52.63,52.63,0,0,1-14,15.89c3.1.24,6.21.43,9.31.55,1.52-1.86,3.22-3.78,5.1-5.68a34.41,34.41,0,0,1,4.08-3.57A60.66,60.66,0,0,1,324,562Z"/></g><path class="cls-10" d="M578.46,452.33l19,4.58a.17.17,0,0,0,.2-.16c0-.88-.08-1.24-.16-2.11a.19.19,0,0,0-.15-.18l-32.61-8.7c-.21-.07-.15-.38.07-.32l31.36,3.91a.3.3,0,0,0,.36-.33,8.84,8.84,0,0,0-.43-1.9c-.09-.3-.19-.57-.28-.85l-15.07-3.16c-.89-.1-1.1-.26-1.68-.31l-13.76-1.87a.11.11,0,0,1,0-.22l7.67-.95a69.24,69.24,0,0,1,13.13.76l7.73,1.68a.25.25,0,0,0,.26-.35,27.35,27.35,0,0,0-1.65-3.17,3.39,3.39,0,0,0-2.61-1.63c-5.9-.54-23.14-3.85-37.78,2.21a24,24,0,0,0-9.38,7.12,24.41,24.41,0,0,0-4.83,9.52c11.15,8,19.11,19.75,21,35l3.79,7.13a.5.5,0,0,0,.51.26c.43-.06.16-.09.58-.17a.55.55,0,0,0,.4-.77l-6-12.33c-.62-1.13.1-1.65.76-.55l8.73,12.52a.6.6,0,0,0,.66.26c.6-.16-.17.05.42-.14a.49.49,0,0,0,.27-.72l-17.07-28.95a.21.21,0,0,1,.35-.24l21,27.55a.86.86,0,0,0,1.05.27c.34-.16-.22,0,.12-.14a.68.68,0,0,0,.25-1L565,479.63c-.46-.79,0-1.29.9-.69l13.34,13a.36.36,0,0,0,.44,0c.26-.17.22-.25.47-.43a.3.3,0,0,0,.06-.44l-24-27.64a.18.18,0,0,1,.25-.25l27.06,25.42a.35.35,0,0,0,.44,0,14.85,14.85,0,0,0,1.2-.93.42.42,0,0,0,0-.61c-2.19-2.21-10.51-10.23-13.63-13.75-1.24-1.4-.91-2.57,1.09-1.29l16.29,11a.18.18,0,0,0,.26,0c.31-.34.48-.63.77-1a.65.65,0,0,0-.11-.64L584.42,477l-24.52-19a.2.2,0,0,1,.19-.35l32.55,19.62c.51.06.9-.93.53-1.16l-9.9-6.83c-1-.72-6.08-3.94-7.29-4.91-1.85-1.49-1.65-2.82,1.14-2,.69.2,8.2,3.58,8.2,3.58l10.22,4.35c.25,0,.39-.55.33-.87,0-.15,0-.3-.17-.37l-30.42-15.62c-.87-.53-5.54-3,.32-.83L596.39,463a.75.75,0,0,0,1-.6c0-.26,0-.34,0-.3s0-.12,0-.29a1,1,0,0,0-.62-1l-18.72-7C576,453.13,576.27,451.9,578.46,452.33Z"/><path class="cls-10" d="M182.73,448.52v-.66c-.22-13.52-8.92-31.81-13.76-40.92a22.47,22.47,0,0,1-.47,3.65,62.94,62.94,0,0,1-2.08,8.7c.59,7,1.36,18,1.55,29.23Z"/><path class="cls-10" d="M478.65,592.6c1,2.52,1.69,4,1.69,4s1.19-1.16,3.06-3.16C481.81,593.22,480.22,592.93,478.65,592.6Z"/><path class="cls-10" d="M419.86,586.33l-1.05,19.94a.48.48,0,0,0,.29.47c.38.16.18,0,.57.15a.54.54,0,0,0,.72-.44l1.16-13.27c.05-1.26.91-1.33.91-.08l1,14.79a.59.59,0,0,0,.42.54c.58.17-.17,0,.42.1a.48.48,0,0,0,.59-.47l.21-24.87A56.27,56.27,0,0,1,419.86,586.33Z"/><path class="cls-10" d="M413.5,589.23l-1.86,12.89a.64.64,0,0,0,.27.64,17.36,17.36,0,0,0,2.43,1.8.51.51,0,0,0,.75-.38l2.9-16.9Q415.8,588.33,413.5,589.23Z"/><path class="cls-10" d="M404.65,592c-.13.57-.25,1.09-.36,1.53a2.62,2.62,0,0,0,.15,1.7c1.2,2.71.08,1.76,2.84,4A.46.46,0,0,0,408,599l2.73-8.78C408.76,590.9,406.72,591.48,404.65,592Z"/><path class="cls-10" d="M461.23,586.53l-1.86-1c-1.61-.88-3.11-1.84-4.57-2.83l9.68,11.3a.71.71,0,0,0,1.15,0c.21-.28.21-.26.19-.23l.15-.23a1,1,0,0,0,0-1.12Z"/><path class="cls-10" d="M426.33,582.32l2.93,26.52a.83.83,0,0,0,.74.74c.37,0-.2-.08.17-.05a.67.67,0,0,0,.71-.71l-.9-16.63c0-.89.66-1.07,1.09-.13l4.61,17.49a.33.33,0,0,0,.34.25c.31,0,.31-.1.61-.12a.29.29,0,0,0,.27-.34l-5.49-31.16A50.41,50.41,0,0,1,426.33,582.32Z"/><path class="cls-10" d="M446.28,575.42a54,54,0,0,1-6.18-8,50.36,50.36,0,0,1-3,4.49l17.08,32.25c.39.3,1.21-.33,1-.71l-4.82-10.63c-.47-1.1-3.1-6.33-3.62-7.74-.79-2.16,0-3.18,2-1.11.48.52,5,7.09,5,7.09l6.33,8.73c.2.13.59-.26.71-.55s.12-.27,0-.4Z"/><path class="cls-10" d="M436.76,572.31a49.67,49.67,0,0,1-4.75,5.28l8.86,31.34a.34.34,0,0,0,.36.24,14.51,14.51,0,0,0,1.46-.17.41.41,0,0,0,.33-.5c-.72-2.93-3.63-13.77-4.47-18.26-.33-1.78.53-2.59,1.56-.53l8,17.32a.2.2,0,0,0,.23.12c.43-.14.72-.29,1.14-.43a.69.69,0,0,0,.23-.59l-2.28-6.37Z"/><path class="cls-10" d="M164.76,448.52c.51-10.59.72-21,.81-27.95-.46.91-.85,1.65-.85,1.65s-6.22,9.46-7.11,10.09c-3.08,2.17-4.74,1.76-4.74,1.76l-6.09-1.15a51.74,51.74,0,0,0-3.55,12c-.18,1.2-.34,2.41-.46,3.64Z"/><path class="cls-10" d="M93.23,485.27l11-.14,2-5.86c-3.82.24-6.94.63-8.86.76a2.61,2.61,0,0,0-1.57.66c-2.21,2-1.65.63-3,3.95A.47.47,0,0,0,93.23,485.27Z"/><path class="cls-10" d="M91.75,514.84a.35.35,0,0,0-.13.41c.1.28.19.25.3.54a.29.29,0,0,0,.41.14l1.78-.94.72-2.13Z"/><path class="cls-10" d="M89.21,503.7a.46.46,0,0,0,.62.41l8.9-2.8.89-2.64-10.06,4a.6.6,0,0,0-.39.58C89.19,503.87,89.16,503.1,89.21,503.7Z"/><path class="cls-10" d="M90,509.44c.07.37,0-.21.1.15A.65.65,0,0,0,91,510l5.54-2.13.85-2.51-6.9,3.11A.83.83,0,0,0,90,509.44Z"/><path class="cls-10" d="M90.49,493.6l11.4-1.66,1.46-4.33-12,2.07a.66.66,0,0,0-.53.45,19,19,0,0,0-1,2.87A.51.51,0,0,0,90.49,493.6Z"/><path class="cls-10" d="M89.33,498.79a.54.54,0,0,0,.64.55L100.19,497l.75-2.22-11.28,3a.48.48,0,0,0-.36.43C89.27,498.62,89.36,498.38,89.33,498.79Z"/><polygon class="cls-10" points="206.72 492.83 207.25 494.43 207.25 492.18 206.72 492.83"/><polygon class="cls-10" points="206.4 491.84 207.25 490.48 207.25 476.67 203.63 483.42 206.4 491.84"/><polygon class="cls-10" points="202.58 480.21 207.25 466.99 207.25 460.23 201.12 475.75 202.58 480.21"/><path class="cls-10" d="M200.15,472.79,204,458.08a.17.17,0,0,0-.16-.21c-.88,0-1.24.06-2.11.12a.24.24,0,0,0-.19.15l-2.87,10.07Z"/><path class="cls-10" d="M196.18,460.7l.21-1.46a.29.29,0,0,0-.33-.36l-.46.05Z"/><path class="cls-10" d="M343.34,583.44c-10.58,21.72-37.47,55.17-33.63,50.23,0,0,21.46-33.12,30.55-52.44A58.72,58.72,0,0,1,329.93,571c-7.5,5.28-14.85,15.6-19.56,25.62-7.79,16.55-6.42,46.14-6.42,46.14s26.48-14.47,36.63-29.69c5.08-7.62,9-17.05,10.28-25.37A60.15,60.15,0,0,1,343.34,583.44Z"/><path class="cls-10" d="M450.14,458.38l1.36-1.15a.86.86,0,0,0-.79-.38c-.38,0,.22,0-.16.09a.68.68,0,0,0-.56.87Z"/><path class="cls-10" d="M445.55,462.87q.58-.66,1.2-1.29L445,458.1a.34.34,0,0,0-.4-.18c-.3.08-.28.17-.59.25a.3.3,0,0,0-.19.4Z"/><path class="cls-10" d="M441.42,468c.52-.74,1.06-1.46,1.63-2.17l-3.15-6a.37.37,0,0,0-.42-.16c-.79.29-.64.15-1.43.49a.42.42,0,0,0-.22.57C438.44,462,439.87,464.85,441.42,468Z"/><path class="cls-10" d="M570.8,552.1s-4.48-16-11.93-29.75v10.8a62.33,62.33,0,0,1,.34,6.32c3.52,4.24,5.24,6.47,4,5,0,0-1.5-1.55-4-4.1a55.75,55.75,0,0,1-.79,8.83C565.55,551.14,570.8,552.1,570.8,552.1Z"/><path class="cls-10" d="M209.17,589.65c-9.11,16.15-18.26,29.76-16.07,26.37,0,0,6.75-12.72,13.73-27.2h-18.7c-2.66,16.66,0,36.77,0,36.77s25.13-16.7,33.93-32.73c.57-1,1.12-2.12,1.64-3.21Z"/><path class="cls-10" d="M257.62,589.65,243.46,610.1a.87.87,0,0,0,.07,1.08c.26.28-.1-.2.17.07a.68.68,0,0,0,1-.07l10.54-13.53c.61-.68,1.23-.38.93.64L248,615a.34.34,0,0,0,.09.43c.25.2.31.13.56.32a.31.31,0,0,0,.44-.09l15.62-26Z"/><path class="cls-10" d="M238.16,589.65,234.3,593a.69.69,0,0,0-.22.68,19.24,19.24,0,0,0,.67,3,.53.53,0,0,0,.84.21l8.88-7.26Z"/><path class="cls-10" d="M268.92,589.65h-3.14L252.42,618a.35.35,0,0,0,.12.43c.71.46.5.42,1.25.85a.43.43,0,0,0,.59-.16c1.42-2.76,6.49-13.16,8.86-17.21.95-1.62,2.17-1.66,1.57.64l-5.45,18.89a.2.2,0,0,0,.11.25c.42.18.74.26,1.17.43a.68.68,0,0,0,.57-.3l2.53-6.49L273,589.57C271.64,589.62,270.3,589.65,268.92,589.65Z"/><path class="cls-10" d="M248.08,589.65l-11,11.4a.49.49,0,0,0-.1.56c.19.38.14.12.34.5a.55.55,0,0,0,.86.14l9.87-9.52c.89-1,1.6-.42.76.55l-9.21,12.17a.6.6,0,0,0,0,.71c.34.52-.1-.15.26.35a.49.49,0,0,0,.78,0l14.93-16.89Z"/><path class="cls-10" d="M282,623.11Z"/><path class="cls-10" d="M294.64,599.65l-2.35-13c-1.43.42-2.9.79-4.4,1.11l5.8,30.16a.3.3,0,0,0,.43.24,8.76,8.76,0,0,0,1.68-1l.72-.53-1.66-15.31C294.68,600.46,294.77,600.21,294.64,599.65Z"/><path class="cls-10" d="M297.08,585.06c-1.43.54-2.9,1-4.41,1.49l3,6.37A68.49,68.49,0,0,1,299,605.65l.79,7.87a.26.26,0,0,0,.42.14,28.34,28.34,0,0,0,2.5-2.55,3.4,3.4,0,0,0,.75-3C302.53,604.12,301.21,594.56,297.08,585.06Z"/><path class="cls-10" d="M273.81,589.54,266,623.27c.1.5,1.16.57,1.27.14l3.44-11.52c.38-1.17,1.87-7,2.42-8.45.84-2.22,2.17-2.45,2.26.46,0,.72-.87,8.91-.87,8.91l-1,11.06c.07.24.64.2.93,0,.13-.07.27-.13.3-.28l5.45-33.76.19-.87C278.26,589.26,276.07,589.43,273.81,589.54Z"/><path class="cls-10" d="M281.12,588.92c0,.3,0,.63,0,1l-.25,32.45a.75.75,0,0,0,.89.79l.3-.06.27-.07a1,1,0,0,0,.73-.9l.89-20c0-2.17,1.21-2.33,1.47-.12l1.52,19.45a.16.16,0,0,0,.21.14c.83-.3,1.15-.46,1.95-.8a.23.23,0,0,0,.13-.21l-1.75-32.76Q284.39,588.51,281.12,588.92Z"/><path class="cls-10" d="M95.1,577.65l35.78-118h46l35.43,118H173.57l-5.09-22.29H136.24L131,577.65Zm56.61-88-9.51,40.19h20.48l-9.16-40.19Z"/><path class="cls-10" d="M269.22,459.68q19.18,0,31.11,7.26a42.9,42.9,0,0,1,17.51,20.35q5.57,13.09,5.57,30.64,0,17.8-5.7,31.29a44.54,44.54,0,0,1-17.68,21q-12,7.47-30.81,7.47H218v-118Zm-15,90.06h8.3a28.67,28.67,0,0,0,11-1.9,16.89,16.89,0,0,0,7.3-5.75,26.08,26.08,0,0,0,4.06-9.64,61.8,61.8,0,0,0,1.3-13.48,55,55,0,0,0-2.34-17.28,19.83,19.83,0,0,0-7.52-10.55q-5.17-3.54-13.82-3.54h-8.3Z"/><path class="cls-10" d="M400.48,500.39a15,15,0,0,0-1.43-5,14.66,14.66,0,0,0-8.34-7.44,19.76,19.76,0,0,0-6.91-1.12q-9.07,0-13.7,6.52t-4.63,18.8v12.45A50.72,50.72,0,0,0,367,537.12a19,19,0,0,0,5.66,9.72q4.14,3.76,12.1,3.76a18.55,18.55,0,0,0,9.42-2.16A14.39,14.39,0,0,0,399.7,543a13.63,13.63,0,0,0,1.81-6.66V535H386.82v-24h48.66v22.13a52.94,52.94,0,0,1-2.81,17,41.32,41.32,0,0,1-8.94,15,43.44,43.44,0,0,1-16,10.64q-9.9,4-24,4-14.86,0-25.37-4.45a44.76,44.76,0,0,1-17-12.14,48.94,48.94,0,0,1-9.55-17.59,70.33,70.33,0,0,1-3-20.7V511.71A59.62,59.62,0,0,1,335,484.05a46.17,46.17,0,0,1,18.58-19.23q12.32-7,30.46-7,13.23,0,22.95,3.67a45.52,45.52,0,0,1,16,9.86,40.47,40.47,0,0,1,12.45,29.08Z"/><path class="cls-10" d="M478.66,524.24a43.25,43.25,0,0,0,2,14.26,18.41,18.41,0,0,0,5.87,8.77,14.71,14.71,0,0,0,9.29,3,14.86,14.86,0,0,0,9-2.64,16,16,0,0,0,5.45-7.13,26.82,26.82,0,0,0,1.81-10.11h34.31v5.27q0,13.3-6.52,23.21a43.24,43.24,0,0,1-18,15.34q-11.5,5.44-26.36,5.44-17.46,0-29.52-6.91a45.1,45.1,0,0,1-18.28-19.41q-6.21-12.48-6.22-29.34V513.35q0-16.94,6.22-29.38A44.88,44.88,0,0,1,466,464.65q12.06-6.87,29.52-6.87A65.13,65.13,0,0,1,516,460.85a47.15,47.15,0,0,1,16.12,8.86,40.35,40.35,0,0,1,10.54,13.91,42.9,42.9,0,0,1,3.76,18.24V507H512.11a26.75,26.75,0,0,0-1.81-10.11,15.7,15.7,0,0,0-5.45-7.09,15,15,0,0,0-9-2.59,14.7,14.7,0,0,0-9.29,3,18.41,18.41,0,0,0-5.87,8.77,43.57,43.57,0,0,0-2,14.35Z"/></g></g></g></svg>