<svg xmlns="http://www.w3.org/2000/svg" viewBox="0 0 609.83 587.79"><defs><style>.cls-1,.cls-3,.cls-4,.cls-8,.cls-9{fill:none;}.cls-1{stroke:#b01b2b;stroke-width:2.2px;}.cls-1,.cls-8{stroke-linecap:round;}.cls-1,.cls-10,.cls-3,.cls-4,.cls-5,.cls-6,.cls-8,.cls-9{stroke-miterlimit:10;}.cls-2{fill:#276b65;}.cls-3,.cls-4,.cls-5,.cls-6,.cls-7,.cls-8,.cls-9{stroke:#0077b2;}.cls-3{stroke-width:8px;}.cls-4{stroke-width:10px;}.cls-5,.cls-6,.cls-7{fill:#050202;}.cls-5,.cls-7,.cls-9{stroke-linecap:square;}.cls-5{stroke-width:25px;}.cls-6{stroke-width:16px;}.cls-7{stroke-linejoin:round;stroke-width:12px;}.cls-8,.cls-9{stroke-width:4px;}.cls-10{stroke:#fff;stroke-width:13px;}.cls-11{fill:#0077b2;}</style></defs><g id="Layer_2" data-name="Layer 2"><g id="DenseClearRemovalWreath"><path class="cls-1" d="M493.52,358.23s26.54-10.33,31-18.3-18.7-29-18.7-29"/><path class="cls-1" d="M491.67,355.36S520.2,344.79,523.24,339s-12.85-29.88-12.85-29.88"/><path class="cls-1" d="M515.3,305.93s13.18,23.26,9.84,31.57S488,347.77,488,347.77"/><path class="cls-1" d="M501.15,360.64s24.72-15.2,23.41-20.71S499.67,316,499.67,316"/><path class="cls-1" d="M495.64,318.62S523.4,333.86,523,337.11s-36.19,6.78-36.19,6.78"/><path class="cls-1" d="M493.15,321.13s31,10.33,31.06,15.48-37.27.64-37.27.64"/><line class="cls-1" x1="490.28" y1="323.88" x2="522.96" y2="337.11"/><path class="cls-1" d="M502.71,313s20.61,16.18,20.57,21.09-32.46,18.05-32.46,18.05"/><path class="cls-1" d="M512.79,306.46s13.77,21.61,12.6,25.88-38.79,1.88-38.79,1.88"/><path class="cls-1" d="M497.29,360.2s24.56-18.7,23.82-23.13l-32.82-9.91"/><path class="cls-1" d="M508.56,310.28S524.82,330,522.08,336"/><path class="cls-1" d="M500.93,314.11s25.18,17.28,22.31,24.87L486,330.59"/><path class="cls-1" d="M491.69,353.46s24.56-7.3,28.07-13.35-27.51-3.23-27.51-3.23"/><path class="cls-1" d="M487.32,341.22s30.77,3.11,32.35.68-21.28-24.16-21.28-24.16"/><path class="cls-2" d="M541.71,317.54c-1.86,7.29,34.46,51.55,34.46,51.55,4.59,4.62-36.36-35.15-37.38-49.37-6.76,7.95-.85,24.83,8.38,35.74,9.91,11.72,34.49,20.5,34.49,20.5h0s-.26-25.75-8.11-38.95S551.33,310.89,541.71,317.54Z"/><path class="cls-2" d="M539.29,304.61c4.5-5.44,61.5-5.53,61.5-5.53,6.48.55-49.94-5.13-61.63,2.26,1.93-9.21,18.77-14.73,33.05-14.56C587.55,287,609.83,299,609.83,299h0s-20.18,14.49-35.39,16.58S540.17,315.06,539.29,304.61Z"/><path class="cls-1" d="M565.37,233.35s-23.46,14-26.46,22.19S561.16,280,561.16,280"/><path class="cls-1" d="M567.57,235.76s-25.3,14.49-27.25,20.47,16.85,26.21,16.85,26.21"/><path class="cls-1" d="M553,286.21s-16.12-19.9-14.27-28.29,33.46-15.55,33.46-15.55"/><path class="cls-1" d="M557.78,232.27s-21,18.26-18.87,23.27,27.3,18.67,27.3,18.67"/><path class="cls-1" d="M569.61,271.12s-28.64-10-28.74-13.18S574,245.83,574,245.83"/><path class="cls-1" d="M571.57,268.35s-30.94-4.87-31.8-9.74,35.12-6.47,35.12-6.47"/><line class="cls-1" x1="573.84" y1="265.3" x2="540.87" y2="257.94"/><path class="cls-1" d="M563.82,277.57s-22-12-22.77-16.69,27.83-22.18,27.83-22.18"/><path class="cls-1" d="M555.32,285.31s-16.42-18.25-16-22.47S575.7,255,575.7,255"/><path class="cls-1" d="M561.49,232.08s-20.26,21.54-18.86,25.61l32.58,4.2"/><path class="cls-1" d="M558.71,281s-18.47-16.11-16.84-22.21"/><path class="cls-1" d="M565.32,276.21s-26.52-12.36-25-20l36.47,2.06"/><path class="cls-1" d="M567.85,237.57s-22.06,10.77-24.43,17,26.52-1.29,26.52-1.29"/><path class="cls-1" d="M573.9,248.45s-29.56,1.9-30.67,4.46,23.92,19.47,23.92,19.47"/><path class="cls-2" d="M529.29,298.59c-7.06.15-44.36-42.95-44.36-42.95-3.82-5.26,28.74,41.17,42,45.19-8.24,4.56-21,.94-30.22-10-9.89-11.74-17.76-42-17.76-42h0s24.17,5.82,35.68,16S536.63,291.1,529.29,298.59Z"/><path class="cls-2" d="M522.89,212.11c5.54-4.38,61.3,7.42,61.3,7.42,6.23,1.88-47.77-15.44-60.75-10.64,3.81-8.61,21.43-10.5,35.36-7.36,15,3.38,34.26,19.77,34.26,19.77h0s-22.76,10-38.07,8.84S521.58,222.51,522.89,212.11Z"/><path class="cls-1" d="M497.54,251.55s17.54-20.92,17.65-29.68-29.08-15.73-29.08-15.73"/><path class="cls-1" d="M494.67,250s19.09-22,19-28.32-24.57-19.17-24.57-19.17"/><path class="cls-1" d="M491.73,197.58s21.79,13.46,22.82,22-26.44,25.74-26.44,25.74"/><path class="cls-1" d="M505.07,250.06s13.76-24.16,10.12-28.19-31.94-8.61-31.94-8.61"/><path class="cls-1" d="M481.06,217.3s30.35,0,31.48,2.94-27.28,22.38-27.28,22.38"/><path class="cls-1" d="M480.13,220.56s30.81-5.63,33.23-1.32-31,17.72-31,17.72"/><line class="cls-1" x1="478.99" y1="224.19" x2="512.54" y2="220.24"/><path class="cls-1" d="M484.4,209.3s24.78,4.09,27,8.23-18.94,30.13-18.94,30.13"/><path class="cls-1" d="M489.87,199.18S511.4,211,512.38,215.12s-31.72,19.45-31.72,19.45"/><path class="cls-1" d="M501.63,251.47s12-27,9.34-30.41l-32.14,6.8"/><path class="cls-1" d="M488.07,204.34s22.76,9.09,23.24,15.4"/><path class="cls-1" d="M483.44,211.08s29.1,2.9,30.19,10.6l-35.1,10.1"/><path class="cls-1" d="M493.81,248.39s17.26-17.46,17.43-24.16-24.6,10-24.6,10"/><path class="cls-1" d="M484.5,240.12s27.28-11.57,27.48-14.34-29-10.48-29-10.48"/><path class="cls-2" d="M477.58,151.53c-6.4,4.4-8.31,63.48-8.31,63.48.42,6.71-4.32-52,4.55-63.77-10.65,1.57-17.54,18.71-17.8,33.45-.27,15.85,12.84,39.4,12.84,39.4h0s17.32-20.18,20.2-35.78S489.58,152.91,477.58,151.53Z"/><path class="cls-1" d="M495.76,112.32s-9.27,25.67-6.36,33.94S522.12,151,522.12,151"/><path class="cls-1" d="M499,112.79S488.64,140,490.93,145.9s29.66,9.55,29.66,9.55"/><path class="cls-1" d="M519.78,161s-25.09-5.14-29-12.79,16-33.27,16-33.27"/><path class="cls-1" d="M489.2,116.31s-4.6,27.42.2,29.95,33-2.9,33-2.9"/><path class="cls-1" d="M523,138.8s-28.49,10.44-30.56,8.08,17.91-30.4,17.91-30.4"/><path class="cls-1" d="M522.77,135.43s-27,15.88-30.75,12.66,23-27.3,23-27.3"/><line class="cls-1" x1="522.59" y1="131.62" x2="492.45" y2="146.88"/><path class="cls-1" d="M522.64,147.47S498,152.16,494.45,149s7.42-34.8,7.42-34.8"/><path class="cls-1" d="M521,158.85s-24.28-3.68-26.62-7.22,23.09-29.18,23.09-29.18"/><path class="cls-1" d="M492,113.8s-2,29.51,1.69,31.77l27.84-17.45"/><path class="cls-1" d="M520.89,153.39s-24.5-.71-27.11-6.46"/><path class="cls-1" d="M522.93,145.46s-28.33,7.29-32,.44l29.48-21.57"/><path class="cls-1" d="M500.35,114s-10.2,22.32-8.05,28.67S512,124.85,512,124.85"/><path class="cls-1" d="M511.93,118.57s-21.63,20.24-20.86,22.92,30.84-.14,30.84-.14"/><path class="cls-2" d="M523.2,200c-2.92-6.83,26.12-54.5,26.12-54.5,3.68-6.29-30.48,38.75-29.29,52.86-7.78-6.62-3.92-23.8,2.66-36.48,7.13-13.74,30.34-26.07,30.34-26.07h0s3.69,25.29-1.91,39.59S533.56,204.89,523.2,200Z"/><path class="cls-1" d="M454.93,162.73s4.33-28.16-.32-36-34.47,1.71-34.47,1.71"/><path class="cls-1" d="M451.53,162.9s5.11-30,1.59-35.53-32.3-3.81-32.3-3.81"/><path class="cls-1" d="M420.53,117.71s26.73.22,32.26,7.27-9.67,37.28-9.67,37.28"/><path class="cls-1" d="M460.84,157.33s-.81-29-6.23-30.64-33.16,9.6-33.16,9.6"/><path class="cls-1" d="M421.68,141.09s27.09-16.42,29.69-14.42-12.23,34.74-12.23,34.74"/><path class="cls-1" d="M422.61,144.5s24.46-21.7,28.95-19.16-18.09,32.59-18.09,32.59"/><line class="cls-1" x1="423.57" y1="148.36" x2="451.37" y2="126.67"/><path class="cls-1" d="M420.33,132.14s24.32-9.76,28.55-7.27-.59,37.14-.59,37.14"/><path class="cls-1" d="M419.74,120.15s25.6-1.12,28.71,2-17.78,34.53-17.78,34.53"/><path class="cls-1" d="M458.53,160.45s-3.92-30.62-8.12-32.2l-25,23.47"/><path class="cls-1" d="M420.92,125.73s25.24-4.21,29.07,1.16"/><path class="cls-1" d="M420.43,134.25s27.55-13.16,32.69-6.88l-25.86,28"/><path class="cls-1" d="M449.89,161.93s5.95-24.92,2.47-31-16.55,22.22-16.55,22.22"/><path class="cls-1" d="M437.1,159.59s18.08-25.09,16.76-27.67-31.55,6.34-31.55,6.34"/><path class="cls-2" d="M443.79,100.65c5.38,5.25,61.87-4.07,61.87-4.07,6.3-1.66-48.62,13.91-61.44,7.69,3.5,9.83,21.08,13.15,35.14,10.61,15.1-2.72,35-19.62,35-19.62h0s-22.43-12.65-37.79-12.45S442.84,89,443.79,100.65Z"/><path class="cls-2" d="M431.38,96.28c-2.46-6.62,26-56,26-56,3.72-5.34-29.41,40.68-28.85,54.5-7-6.27-3.38-23.62,3.91-35.9,7.83-13.2,29.37-26.49,29.37-26.49h0s2.45,24.73-3.34,38.94S440.87,100.74,431.38,96.28Z"/><path class="cls-1" d="M382.71,38.06s.35,27.29,6,34S421,65,421,65"/><path class="cls-1" d="M385.9,37.37s-.1,29.15,4.1,33.83,31.12-1.49,31.12-1.49"/><path class="cls-1" d="M422.32,75.18s-25.3,4-31.64-1.78,3.26-36.76,3.26-36.76"/><path class="cls-1" d="M378,44.1s5.33,27.29,10.72,28,29.82-14.3,29.82-14.3"/><path class="cls-1" d="M417.54,53.27s-23,19.79-25.78,18.31,6.08-34.76,6.08-34.76"/><path class="cls-1" d="M416.12,50.2s-19.69,24.36-24.33,22.66,11.95-33.65,11.95-33.65"/><line class="cls-1" x1="414.62" y1="46.7" x2="391.76" y2="71.58"/><path class="cls-1" d="M420.23,61.51s-21.45,13.07-25.84,11.38S389.1,37.7,389.1,37.7"/><path class="cls-1" d="M422.68,72.75s-24,5.1-27.45,2.61,11.35-35.44,11.35-35.44"/><path class="cls-1" d="M379.67,40.79s8.53,28.32,12.75,29.14l19.93-26.12"/><path class="cls-1" d="M420.68,67.67s-23.19,8-27.66,3.48"/><path class="cls-1" d="M419.8,59.54s-24,16.78-29.8,11.66l20-30.56"/><path class="cls-1" d="M387.6,38s-1.7,24.48,2.54,29.67,12.15-23.61,12.15-23.61"/><path class="cls-1" d="M400.05,38.22S386.92,64.78,388.57,67,417.4,56,417.4,56"/><path class="cls-2" d="M421.17,101.93c-3.4,6.19-59.37,16.94-59.37,16.94-6.47.68,50-4.3,60.12-13.75-.17,9.4-9.7,18.67-23.75,21.17-15.11,2.7-45.24-5.61-45.24-5.61h0s17.12-18,31.66-22.92S418.35,91.83,421.17,101.93Z"/><path class="cls-2" d="M343.08,64.23c-1-7,37.07-49.38,37.07-49.38,4.74-4.45-37.25,33.66-39.59,47.29-5.55-7.6,1.63-23.81,11.31-34.3,10.41-11.27,34.25-19.78,34.25-19.78h0s-2.75,24.7-11.38,37.39S351.43,70.57,343.08,64.23Z"/><path class="cls-1" d="M364.56,105.9s-9.35-25.64-16.89-30.12S319.51,93.1,319.51,93.1"/><path class="cls-1" d="M361.78,107.61s-9.54-27.55-15-30.57-28.88,11.68-28.88,11.68"/><path class="cls-1" d="M314.91,84s22.55-12.14,30.45-8.77S354.43,111,354.43,111"/><path class="cls-1" d="M367,98.64s-14-24-19.36-22.86-23.42,23.35-23.42,23.35"/><path class="cls-1" d="M326.66,103.05s15.18-26.28,18.28-25.79,5.74,34.81,5.74,34.81"/><path class="cls-1" d="M329,105.49S339.55,76,344.49,76.05s-.17,35.71-.17,35.71"/><line class="cls-1" x1="331.59" y1="108.29" x2="344.94" y2="77.26"/><path class="cls-1" d="M321.39,96.16S337.32,76.75,342,76.89s16.61,31.47,16.61,31.47"/><path class="cls-1" d="M315.37,86.37s21-12.75,25.05-11.53,1,37.19,1,37.19"/><path class="cls-1" d="M366.53,102.33S349.12,78.41,344.86,79l-10.18,31.24"/><path class="cls-1" d="M318.94,90.5s19.25-15.16,24.95-12.42"/><path class="cls-1" d="M322.45,97.89S339.52,74.13,346.73,77l-8.8,35.45"/><path class="cls-1" d="M360,107.55s-6.48-23.67-12.2-27.17-3.67,26.3-3.67,26.3"/><path class="cls-1" d="M348.14,111.48s3.62-29.4,1.32-31-23.58,19.88-23.58,19.88"/><path class="cls-2" d="M268,73.18c.61,7.75,50.83,38.94,50.83,38.94,6,3-47.23-22.28-52.95-35.83-4,10,7.42,24.55,20.07,32.14,13.58,8.16,40.53,8.58,40.53,8.58h0s-8.82-25.08-20.88-35.38S275.15,63.48,268,73.18Z"/><path class="cls-1" d="M243.09,37.84S260.68,58.7,269.3,60.31s20.49-25.95,20.49-25.95"/><path class="cls-1" d="M245.11,35.28s18.43,22.58,24.65,23.53,23.09-20.92,23.09-20.92"/><path class="cls-1" d="M297.26,41.37s-17,19.16-25.57,18.7-20.83-30.46-20.83-30.46"/><path class="cls-1" d="M243.26,45.51s21.45,17.69,26,14.8,14-30,14-30"/><path class="cls-1" d="M279.65,27.47s-5.21,29.9-8.29,30.51S254,27.27,254,27.27"/><path class="cls-1" d="M276.61,26s.25,31.32-4.41,33-12.13-33.59-12.13-33.59"/><line class="cls-1" x1="273.22" y1="24.25" x2="271.36" y2="57.98"/><path class="cls-1" d="M287,32.13s-8.27,23.71-12.74,25.19S247.79,33.5,247.79,33.5"/><path class="cls-1" d="M296,39.25S280.67,58.44,276.44,58.7s-13.73-34.58-13.73-34.58"/><path class="cls-1" d="M242.47,41.87S267,58.34,270.82,56.29l-1.19-32.83"/><path class="cls-1" d="M291.22,36.6s-12.86,20.87-19.15,20.25"/><path class="cls-1" d="M285.38,30.88s-7.86,28.18-15.62,27.93l-3.94-36.32"/><path class="cls-1" d="M246.84,34.7s14.24,20,20.81,21.31S262,30.07,262,30.07"/><path class="cls-1" d="M256.58,27S263.3,55.8,266,56.48,281.3,29.7,281.3,29.7"/><path class="cls-2" d="M332.78,57.93C325.4,57,298.64,8.06,298.64,8.06,295,1.72,317,53.83,329.77,59.85c-9.62,3.43-22.57-8.5-30.26-20.54C291.17,26.26,292.1,0,292.1,0h0s23.75,9.45,33.34,21.45S342.16,51.38,332.78,57.93Z"/><path class="cls-1" d="M266.33,98.4S244.11,80.57,235,80.66s-15.76,30.7-15.76,30.7"/><path class="cls-1" d="M264.77,101.43S241.35,82,234.8,82.29s-19.45,26.06-19.45,26.06"/><path class="cls-1" d="M210.14,105.68s13.56-23,22.43-24.3,27.45,27,27.45,27"/><path class="cls-1" d="M264.61,90.58S239.08,76.77,235,80.66s-8.27,33.52-8.27,33.52"/><path class="cls-1" d="M231,116.37s-.68-31.67,2.35-32.91,24,28,24,28"/><path class="cls-1" d="M234.38,117.27s-6.56-32-2.12-34.65,19.19,32,19.19,32"/><line class="cls-1" x1="238.2" y1="118.37" x2="233.32" y2="83.46"/><path class="cls-1" d="M222.54,113.07s3.7-25.95,8-28.37,31.86,19.09,31.86,19.09"/><path class="cls-1" d="M211.86,107.59S223.69,84.86,228,83.74s21,32.66,21,32.66"/><path class="cls-1" d="M266.15,94.14s-28.47-11.92-31.94-9.06L242,118.46"/><path class="cls-1" d="M217.28,109.35s9-24,15.54-24.6"/><path class="cls-1" d="M224.42,114s2.37-30.44,10.38-31.74l11.33,36.4"/><path class="cls-1" d="M263.11,102.36s-18.6-17.61-25.59-17.63,11,25.44,11,25.44"/><path class="cls-1" d="M254.7,112.26S242,84.06,239.11,83.91s-10.28,30.51-10.28,30.51"/><path class="cls-2" d="M207,77c7.25-2,27.42-55.62,27.42-55.62,1.71-6.29-12.26,49.06-24.06,57.05,10.26,1.88,21.92-11.68,26.75-25.12,5.2-14.45.51-40.13.51-40.13h0S215.45,26.3,207.94,39.7,196.42,72,207,77Z"/><path class="cls-2" d="M197,85.57c-7-1.18-35.54-50.5-35.54-50.5C158.7,29.19,182,80.89,194.25,87.31c-8.94,2.94-22.15-8.88-29.14-21.33-7.52-13.38-8.26-38.69-8.26-38.69h0s22.65,10.24,32.06,22.36S205.62,79.58,197,85.57Z"/><path class="cls-1" d="M122.25,98.61S146.06,112,154.7,110.43s10.05-31.5,10.05-31.5"/><path class="cls-1" d="M123.25,95.5s25.19,14.66,31.34,13.36,14.27-27.7,14.27-27.7"/><path class="cls-1" d="M174.21,82.87s-9.18,23.91-17.37,26.5-30.2-21.2-30.2-21.2"/><path class="cls-1" d="M125.11,105.73s26.3,9,29.59,4.7,2.52-33,2.52-33"/><path class="cls-1" d="M152.84,76.05s5.63,29.82,3,31.48-27.05-22.65-27.05-22.65"/><path class="cls-1" d="M149.47,75.74s11.25,29.23,7.46,32.41S133.77,81,133.77,81"/><line class="cls-1" x1="145.69" y1="75.3" x2="155.8" y2="107.53"/><path class="cls-1" d="M161.32,77.84s.59,25.11-3.07,28.07-33.12-13-33.12-13"/><path class="cls-1" d="M172.28,81.34s-7.6,23.34-11.47,25.08-25-27.55-25-27.55"/><path class="cls-1" d="M123.09,102.61s28.79,6.77,31.62,3.53L142.05,75.82"/><path class="cls-1" d="M166.88,80.53s-4.71,24-10.81,25.69"/><path class="cls-1" d="M159.4,77.23s2.55,29.14-4.81,31.63L138.14,76.25"/><path class="cls-1" d="M124.67,94.35s20.35,13.72,27,12.64-14.37-22.32-14.37-22.32"/><path class="cls-1" d="M131.06,83.67s16.44,24.65,19.2,24.34,4.91-30.45,4.91-30.45"/><path class="cls-2" d="M196.8,97.23c3.65,6-15,59.89-15,59.89-2.64,5.94,21.28-45.47,18.15-58.94,8.06,4.85,11.32,17.73,6.46,31.16-5.22,14.43-27.47,36.36-27.47,36.36h0s-7-23.83-4-38.87S186.64,94.63,196.8,97.23Z"/><path class="cls-2" d="M125.1,146c-6.57-2.6-24.22-56.79-24.22-56.79-1.49-6.33,10.51,49.09,21.15,57.93-9.35,1-19.8-13.31-24-26.94-4.56-14.66,0-39.56,0-39.56h0s20,14.74,26.69,28.55S134.77,142,125.1,146Z"/><path class="cls-1" d="M171.93,148.25s-26.88-4.73-34.53-.44.92,33.05.92,33.05"/><path class="cls-1" d="M172,151.51s-28.62-5.51-34-2.26-4.32,30.86-4.32,30.86"/><path class="cls-1" d="M128.09,180.27s.76-25.6,7.63-30.75,35.52,10,35.52,10"/><path class="cls-1" d="M166.88,142.48s-27.81.17-29.48,5.33,8.51,32,8.51,32"/><path class="cls-1" d="M150.51,179.65s-15.17-26.29-13.19-28.73,33,12.43,33,12.43"/><path class="cls-1" d="M153.8,178.83S133.52,155,136,150.7s30.85,18,30.85,18"/><line class="cls-1" x1="157.51" y1="177.99" x2="137.32" y2="150.92"/><path class="cls-1" d="M141.91,180.76s-8.85-23.5-6.37-27.51,35.56,1.35,35.56,1.35"/><path class="cls-1" d="M130.42,181.08s-.55-24.55,2.54-27.46,32.71,17.74,32.71,17.74"/><path class="cls-1" d="M169.82,144.75s-29.42,3.12-31,7.12l22,24.43"/><path class="cls-1" d="M135.78,180.06s-3.5-24.26,1.72-27.82"/><path class="cls-1" d="M143.94,180.7S131.9,154,138,149.25l26.3,25.35"/><path class="cls-1" d="M171.06,153.06s-23.75-6.22-29.63-3,20.93,16.32,20.93,16.32"/><path class="cls-1" d="M168.55,165.26s-23.65-17.84-26.16-16.63S147.82,179,147.82,179"/><path class="cls-2" d="M95.29,215.55c7,3.34,59.13-24.55,59.13-24.55,5.61-3.72-42.9,29.77-57.5,27.94,6.69,8.45,25,5.85,37.87-1.3,13.86-7.69,27.7-30.82,27.7-30.82h0s-26.14-4.9-41.09.4S90.49,204.47,95.29,215.55Z"/><path class="cls-1" d="M52.25,219.41s26.86-4.81,32.57-11.47-12.24-30.71-12.24-30.71"/><path class="cls-1" d="M51,216.38s28.77-4.67,32.7-9.58-6.56-30.46-6.56-30.46"/><path class="cls-1" d="M82.39,174.27s8.09,24.3,3.41,31.49S49,208.57,49,208.57"/><path class="cls-1" d="M59,223.1S85,213.37,84.82,207.94s-19-27.08-19-27.08"/><path class="cls-1" d="M61.55,182.56S84.84,202,83.83,205s-35.28-.31-35.28-.31"/><path class="cls-1" d="M58.75,184.46S86,199.9,85.1,204.76s-35.16-6.28-35.16-6.28"/><line class="cls-1" x1="55.55" y1="186.52" x2="83.83" y2="205"/><path class="cls-1" d="M69.24,178.56s16.4,19,15.45,23.63-33.85,11-33.85,11"/><path class="cls-1" d="M79.93,174.3s9,22.86,7.06,26.66-36.81-5.4-36.81-5.4"/><path class="cls-1" d="M55.43,222S82,208.92,82.1,204.62l-29-15.38"/><path class="cls-1" d="M75.25,177.11s11.63,21.57,8,26.71"/><path class="cls-1" d="M67.36,179.31S87.84,200.2,83.74,206.8L50.33,192.05"/><path class="cls-1" d="M51.41,214.59s24.44-2.32,28.86-7.36S55,199.11,55,199.11"/><path class="cls-1" d="M49.57,202.28s28.35,8.61,30.28,6.61-15.54-26.64-15.54-26.64"/><path class="cls-2" d="M114.49,151.78c-4.45,5.95-60.25,4.64-60.25,4.64-7.29,0,48.79,7,60.41-1.07C112.81,165.4,96,170.64,81.74,171.29,66.27,172,44,158,44,158h0S64,142.2,79.23,139.9,113.51,140.39,114.49,151.78Z"/><path class="cls-1" d="M116.32,229.57s-26.55,10.32-31,18.29,18.71,29,18.71,29"/><path class="cls-1" d="M118.16,232.43S89.63,243,86.6,248.82s12.85,29.87,12.85,29.87"/><path class="cls-1" d="M94.53,281.87s-13.18-23.26-9.83-31.58S121.81,240,121.81,240"/><path class="cls-1" d="M108.69,227.15S84,242.35,85.27,247.86s24.89,23.92,24.89,23.92"/><path class="cls-1" d="M114.2,269.18s-27.76-15.25-27.33-18.5,36.2-6.78,36.2-6.78"/><path class="cls-1" d="M116.69,266.67s-31-10.33-31.07-15.49,37.27-.64,37.27-.64"/><line class="cls-1" x1="119.55" y1="263.91" x2="86.87" y2="250.68"/><path class="cls-1" d="M107.13,274.82s-20.62-16.18-20.58-21.09,32.46-18,32.46-18"/><path class="cls-1" d="M97,281.33s-13.77-21.61-12.59-25.88,38.79-1.87,38.79-1.87"/><path class="cls-1" d="M112.54,227.59S88,246.29,88.72,250.72l32.82,9.92"/><path class="cls-1" d="M101.27,277.52S85,257.77,87.75,251.76"/><path class="cls-1" d="M108.9,273.68S83.73,256.4,86.6,248.82l37.19,8.38"/><path class="cls-1" d="M118.14,234.33s-24.55,7.3-28.07,13.35,27.52,3.23,27.52,3.23"/><path class="cls-1" d="M122.51,246.57s-30.77-3.11-32.35-.67,21.28,24.15,21.28,24.15"/><path class="cls-2" d="M68.12,270.26C70,263,33.66,218.7,33.66,218.7,29.07,214.08,70,253.86,71,268.07c6.76-7.95.85-24.83-8.37-35.73-9.92-11.73-34.5-20.51-34.5-20.51h0s.26,25.75,8.12,39S58.5,276.9,68.12,270.26Z"/><path class="cls-2" d="M70.54,283.18c-4.5,5.44-61.49,5.53-61.49,5.53-6.48-.54,49.94,5.13,61.63-2.26-1.93,9.21-18.77,14.73-33.05,14.56C22.28,300.83,0,288.82,0,288.82H0s20.19-14.49,35.39-16.58S69.66,272.73,70.54,283.18Z"/><path class="cls-1" d="M44.46,354.44s23.46-13.94,26.46-22.18S48.67,307.8,48.67,307.8"/><path class="cls-1" d="M42.26,352s25.3-14.49,27.25-20.47-16.85-26.21-16.85-26.21"/><path class="cls-1" d="M56.81,301.58s16.12,19.9,14.27,28.29-33.46,15.56-33.46,15.56"/><path class="cls-1" d="M52.05,355.52s21-18.26,18.87-23.26-27.3-18.68-27.3-18.68"/><path class="cls-1" d="M40.22,316.67s28.64,10,28.74,13.18S35.82,342,35.82,342"/><path class="cls-1" d="M38.26,319.44s30.94,4.87,31.8,9.74-35.12,6.47-35.12,6.47"/><line class="cls-1" x1="35.99" y1="322.49" x2="68.96" y2="329.85"/><path class="cls-1" d="M46,310.22s22,12,22.77,16.7S41,349.09,41,349.09"/><path class="cls-1" d="M54.52,302.48s16.42,18.25,16,22.48-36.36,7.88-36.36,7.88"/><path class="cls-1" d="M48.34,355.72S68.6,334.17,67.21,330.1l-32.59-4.2"/><path class="cls-1" d="M51.12,306.76S69.6,322.86,68,329"/><path class="cls-1" d="M44.51,311.58s26.52,12.36,25,20L33,329.51"/><path class="cls-1" d="M42,350.22s22.06-10.76,24.43-17-26.51,1.28-26.51,1.28"/><path class="cls-1" d="M35.93,339.35s29.56-1.91,30.67-4.46-23.91-19.48-23.91-19.48"/><path class="cls-2" d="M80.54,289.2c7.06-.15,44.36,42.95,44.36,42.95,3.82,5.26-28.74-41.17-42-45.19,8.23-4.55,21-.94,30.21,10,9.89,11.74,17.76,42,17.76,42h0s-24.16-5.82-35.68-16S73.21,296.69,80.54,289.2Z"/><path class="cls-2" d="M86.94,375.68c-5.54,4.38-61.3-7.42-61.3-7.42-6.22-1.88,47.77,15.44,60.75,10.64C82.58,387.51,65,389.4,51,386.26c-15-3.38-34.26-19.77-34.26-19.77h0s22.77-10,38.07-8.84S88.26,365.28,86.94,375.68Z"/><path class="cls-1" d="M112.29,336.24s-17.54,20.92-17.64,29.69,29.08,15.72,29.08,15.72"/><path class="cls-1" d="M115.16,337.8s-19.09,22-19,28.31,24.57,19.17,24.57,19.17"/><path class="cls-1" d="M118.1,390.22s-21.79-13.46-22.81-22,26.44-25.74,26.44-25.74"/><path class="cls-1" d="M104.77,337.73S91,361.9,94.65,365.93s31.93,8.61,31.93,8.61"/><path class="cls-1" d="M128.77,370.49s-30.35,0-31.48-2.94,27.28-22.38,27.28-22.38"/><path class="cls-1" d="M129.7,367.24s-30.81,5.62-33.23,1.31,31-17.72,31-17.72"/><line class="cls-1" x1="130.84" y1="363.6" x2="97.29" y2="367.55"/><path class="cls-1" d="M125.44,378.49s-24.78-4.08-27-8.23,18.94-30.12,18.94-30.12"/><path class="cls-1" d="M120,388.61s-21.53-11.8-22.51-15.93,31.72-19.46,31.72-19.46"/><path class="cls-1" d="M108.21,336.32s-12,27-9.35,30.41l32.14-6.8"/><path class="cls-1" d="M121.76,383.45S99,374.36,98.53,368.05"/><path class="cls-1" d="M126.4,376.71s-29.11-2.9-30.2-10.6L131.3,356"/><path class="cls-1" d="M116,339.41s-17.26,17.45-17.43,24.15,24.61-10,24.61-10"/><path class="cls-1" d="M125.33,347.67S98.06,359.24,97.85,362s29,10.48,29,10.48"/><path class="cls-2" d="M132.25,436.26c6.41-4.4,8.31-63.48,8.31-63.48-.42-6.71,4.33,52-4.55,63.77,10.66-1.57,17.55-18.7,17.8-33.45.27-15.85-12.84-39.39-12.84-39.39h0s-17.31,20.18-20.2,35.77S120.26,434.88,132.25,436.26Z"/><path class="cls-1" d="M114.08,475.47s9.27-25.67,6.35-33.94-32.72-4.76-32.72-4.76"/><path class="cls-1" d="M110.85,475s10.34-27.25,8.05-33.11-29.66-9.55-29.66-9.55"/><path class="cls-1" d="M90.05,426.8s25.09,5.14,29,12.79-16,33.26-16,33.26"/><path class="cls-1" d="M120.63,471.49s4.6-27.43-.2-30-32.95,2.91-32.95,2.91"/><path class="cls-1" d="M86.82,449s28.49-10.44,30.57-8.07-17.91,30.39-17.91,30.39"/><path class="cls-1" d="M87.06,452.36s27-15.88,30.75-12.66-23,27.3-23,27.3"/><line class="cls-1" x1="87.25" y1="456.17" x2="117.39" y2="440.92"/><path class="cls-1" d="M87.2,440.33s24.67-4.69,28.19-1.57-7.42,34.8-7.42,34.8"/><path class="cls-1" d="M88.85,429s24.28,3.67,26.62,7.21-23.08,29.18-23.08,29.18"/><path class="cls-1" d="M117.88,474s2-29.51-1.69-31.77L88.35,459.67"/><path class="cls-1" d="M88.94,434.4s24.5.71,27.12,6.47"/><path class="cls-1" d="M86.91,442.33s28.32-7.29,32-.44L89.42,463.46"/><path class="cls-1" d="M109.49,473.79s10.2-22.33,8.05-28.68-19.67,17.83-19.67,17.83"/><path class="cls-1" d="M97.9,469.23S119.53,449,118.77,446.3s-30.85.15-30.85.15"/><path class="cls-2" d="M86.63,387.75c2.92,6.83-26.11,54.5-26.11,54.5C56.83,448.54,91,403.5,89.8,389.39c7.78,6.62,3.92,23.8-2.66,36.48C80,439.62,56.8,451.94,56.8,451.94h0s-3.69-25.29,1.91-39.59S76.27,382.9,86.63,387.75Z"/><path class="cls-1" d="M154.91,425.06s-4.33,28.16.32,36,34.46-1.7,34.46-1.7"/><path class="cls-1" d="M158.31,424.89s-5.11,30-1.59,35.54,32.3,3.81,32.3,3.81"/><path class="cls-1" d="M189.31,470.08s-26.74-.22-32.26-7.27,9.66-37.28,9.66-37.28"/><path class="cls-1" d="M149,430.46s.8,29,6.23,30.64,33.16-9.6,33.16-9.6"/><path class="cls-1" d="M188.15,446.7s-27.09,16.42-29.68,14.42,12.23-34.73,12.23-34.73"/><path class="cls-1" d="M187.22,443.29s-24.45,21.7-28.94,19.16,18.08-32.59,18.08-32.59"/><line class="cls-1" x1="186.27" y1="439.44" x2="158.47" y2="461.12"/><path class="cls-1" d="M189.5,455.65s-24.32,9.76-28.55,7.27.6-37.13.6-37.13"/><path class="cls-1" d="M190.1,467.64s-25.6,1.12-28.71-2,17.77-34.54,17.77-34.54"/><path class="cls-1" d="M151.3,427.34s3.92,30.63,8.13,32.2l25-23.47"/><path class="cls-1" d="M188.91,462.07s-25.23,4.2-29.07-1.17"/><path class="cls-1" d="M189.4,453.54s-27.55,13.16-32.68,6.89l25.85-28"/><path class="cls-1" d="M160,425.86s-6,24.92-2.48,31S174,434.64,174,434.64"/><path class="cls-1" d="M172.73,428.2S154.65,453.29,156,455.88s31.56-6.35,31.56-6.35"/><path class="cls-2" d="M166.05,487.15c-5.39-5.26-61.88,4.06-61.88,4.06-6.3,1.66,48.62-13.91,61.44-7.69-3.5-9.83-21.08-13.14-35.13-10.61-15.11,2.73-35,19.62-35,19.62h0s22.44,12.65,37.8,12.45S167,498.8,166.05,487.15Z"/><path class="cls-2" d="M178.45,491.51c2.46,6.62-26,56-26,56-3.71,5.34,29.42-40.68,28.86-54.5,7,6.28,3.37,23.62-3.91,35.9-7.83,13.2-29.37,26.5-29.37,26.5h0s-2.46-24.73,3.33-38.94S169,487.05,178.45,491.51Z"/><path class="cls-1" d="M227.12,549.73s-.34-27.29-6-34-32.3,7-32.3,7"/><path class="cls-1" d="M223.93,550.43s.11-29.15-4.09-33.83-31.13,1.49-31.13,1.49"/><path class="cls-1" d="M187.52,512.61s25.29-4,31.63,1.78-3.26,36.76-3.26,36.76"/><path class="cls-1" d="M231.86,543.7s-5.34-27.3-10.72-28S191.31,530,191.31,530"/><path class="cls-1" d="M192.29,534.52s23-19.79,25.78-18.3S212,551,212,551"/><path class="cls-1" d="M193.71,537.6S213.4,513.24,218,514.93s-11.95,33.65-11.95,33.65"/><line class="cls-1" x1="195.22" y1="541.09" x2="218.07" y2="516.22"/><path class="cls-1" d="M189.6,526.28s21.45-13.06,25.84-11.37,5.29,35.18,5.29,35.18"/><path class="cls-1" d="M187.15,515s24-5.09,27.46-2.6-11.35,35.43-11.35,35.43"/><path class="cls-1" d="M230.17,547s-8.53-28.33-12.75-29.15L197.49,544"/><path class="cls-1" d="M189.15,520.12s23.19-8,27.66-3.48"/><path class="cls-1" d="M190,528.26s24-16.79,29.81-11.66l-20,30.55"/><path class="cls-1" d="M222.23,549.77s1.7-24.49-2.54-29.68-12.15,23.61-12.15,23.61"/><path class="cls-1" d="M209.78,549.57s13.13-26.56,11.48-28.79-28.82,11-28.82,11"/><path class="cls-2" d="M188.66,485.86c3.41-6.19,59.38-16.94,59.38-16.94,6.46-.68-50,4.3-60.12,13.76.17-9.41,9.69-18.67,23.75-21.18,15.1-2.69,45.23,5.61,45.23,5.61h0s-17.12,18-31.66,22.92S191.48,496,188.66,485.86Z"/><path class="cls-2" d="M266.76,523.56c1,7-37.08,49.38-37.08,49.38-4.74,4.45,37.26-33.66,39.59-47.29,5.55,7.6-1.62,23.81-11.31,34.3-10.41,11.27-34.25,19.78-34.25,19.78h0s2.76-24.69,11.38-37.39S258.41,517.22,266.76,523.56Z"/><path class="cls-1" d="M245.28,481.89s9.34,25.64,16.88,30.12,28.16-17.32,28.16-17.32"/><path class="cls-1" d="M248.06,480.18s9.53,27.55,15,30.58S292,499.07,292,499.07"/><path class="cls-1" d="M294.92,503.84s-22.55,12.14-30.44,8.77-9.07-35.77-9.07-35.77"/><path class="cls-1" d="M242.8,489.15s14.05,24,19.36,22.86,23.43-23.35,23.43-23.35"/><path class="cls-1" d="M283.18,484.74S268,511,264.89,510.53s-5.74-34.81-5.74-34.81"/><path class="cls-1" d="M280.82,482.31s-10.53,29.49-15.48,29.43.17-35.71.17-35.71"/><line class="cls-1" x1="278.25" y1="479.5" x2="264.89" y2="510.53"/><path class="cls-1" d="M288.44,491.63s-15.93,19.42-20.63,19.27-16.62-31.46-16.62-31.46"/><path class="cls-1" d="M294.46,501.43s-21,12.74-25,11.52-1-37.19-1-37.19"/><path class="cls-1" d="M243.31,485.47s17.4,23.91,21.66,23.29l10.18-31.23"/><path class="cls-1" d="M290.9,497.29s-19.26,15.17-25,12.43"/><path class="cls-1" d="M287.38,489.91s-17.07,23.75-24.28,20.85l8.8-35.46"/><path class="cls-1" d="M249.88,480.24s6.48,23.67,12.21,27.17,3.66-26.29,3.66-26.29"/><path class="cls-1" d="M261.7,476.31s-3.62,29.41-1.32,31S284,487.4,284,487.4"/><path class="cls-2" d="M341.88,514.61c-.61-7.75-50.82-38.94-50.82-38.94-6-3,47.23,22.28,52.94,35.83,4-10-7.42-24.55-20.06-32.14-13.59-8.16-40.54-8.58-40.54-8.58h0s8.82,25.09,20.89,35.38S334.68,524.31,341.88,514.61Z"/><path class="cls-1" d="M366.75,550s-17.6-20.87-26.22-22.47-20.48,26-20.48,26"/><path class="cls-1" d="M364.72,552.52S346.29,529.93,340.08,529,317,549.9,317,549.9"/><path class="cls-1" d="M312.58,546.43s17-19.16,25.57-18.71S359,558.18,359,558.18"/><path class="cls-1" d="M366.57,542.29s-21.45-17.7-26-14.8-14,30-14,30"/><path class="cls-1" d="M330.18,560.32s5.21-29.9,8.29-30.51,17.37,30.71,17.37,30.71"/><path class="cls-1" d="M333.23,561.8s-.26-31.32,4.4-33,12.14,33.59,12.14,33.59"/><line class="cls-1" x1="336.61" y1="563.54" x2="338.47" y2="529.81"/><path class="cls-1" d="M322.87,555.66s8.27-23.71,12.74-25.19S362,554.29,362,554.29"/><path class="cls-1" d="M313.84,548.54s15.32-19.19,19.56-19.45,13.73,34.59,13.73,34.59"/><path class="cls-1" d="M367.37,545.92S342.8,529.45,339,531.5l1.19,32.83"/><path class="cls-1" d="M318.61,551.19s12.86-20.86,19.16-20.25"/><path class="cls-1" d="M324.46,556.92s7.85-28.18,15.62-27.94L344,565.3"/><path class="cls-1" d="M363,553.09s-14.23-20-20.81-21.31,5.61,26,5.61,26"/><path class="cls-1" d="M353.25,560.84s-6.72-28.85-9.42-29.53-15.3,26.78-15.3,26.78"/><path class="cls-2" d="M277.06,529.87c7.37.88,34.14,49.86,34.14,49.86,3.6,6.34-18.33-45.76-31.14-51.79,9.63-3.43,22.57,8.5,30.26,20.54,8.34,13,7.41,39.31,7.41,39.31h0S294,578.34,284.4,566.34,267.67,536.41,277.06,529.87Z"/><path class="cls-1" d="M343.5,489.39s22.22,17.83,31.38,17.74,15.75-30.69,15.75-30.69"/><path class="cls-1" d="M345.06,486.36s23.42,19.43,30,19.15,19.45-26.07,19.45-26.07"/><path class="cls-1" d="M399.69,482.11s-13.55,23-22.42,24.3-27.46-27-27.46-27"/><path class="cls-1" d="M345.23,497.21s25.52,13.81,29.65,9.92,8.26-33.51,8.26-33.51"/><path class="cls-1" d="M378.87,471.42s.67,31.67-2.36,32.92-24-28-24-28"/><path class="cls-1" d="M375.45,470.52s6.56,32,2.12,34.65-19.18-32-19.18-32"/><line class="cls-1" x1="371.63" y1="469.42" x2="376.51" y2="504.34"/><path class="cls-1" d="M387.29,474.72s-3.7,25.95-8,28.37S347.45,484,347.45,484"/><path class="cls-1" d="M398,480.2s-11.83,22.74-16.11,23.85-21-32.66-21-32.66"/><path class="cls-1" d="M343.68,493.65s28.48,11.92,31.94,9.07l-7.82-33.39"/><path class="cls-1" d="M392.55,478.45S383.58,502.4,377,503"/><path class="cls-1" d="M385.41,473.76S383,504.2,375,505.51l-11.34-36.4"/><path class="cls-1" d="M346.72,485.43s18.6,17.62,25.6,17.64-11-25.45-11-25.45"/><path class="cls-1" d="M355.14,475.53s12.68,28.2,15.58,28.35S381,473.37,381,473.37"/><path class="cls-2" d="M402.84,510.78c-7.25,2-27.42,55.63-27.42,55.63-1.71,6.28,12.27-49.07,24.07-57.06-10.27-1.88-21.93,11.68-26.76,25.12-5.19,14.45-.51,40.13-.51,40.13h0s22.17-13.11,29.68-26.51S413.41,515.79,402.84,510.78Z"/><path class="cls-2" d="M412.82,502.23c7,1.18,35.54,50.49,35.54,50.49,2.77,5.89-20.52-45.82-32.77-52.24,8.94-2.94,22.14,8.89,29.14,21.34C452.24,535.2,453,560.5,453,560.5h0s-22.64-10.24-32.05-22.36S404.22,508.21,412.82,502.23Z"/><path class="cls-1" d="M487.58,489.18s-23.81-13.34-32.44-11.81-10.05,31.49-10.05,31.49"/><path class="cls-1" d="M486.59,492.29s-25.2-14.66-31.35-13.36S441,506.63,441,506.63"/><path class="cls-1" d="M435.63,504.92S444.8,481,453,478.42s30.2,21.2,30.2,21.2"/><path class="cls-1" d="M484.72,482.07s-26.3-9-29.58-4.7-2.53,33-2.53,33"/><path class="cls-1" d="M457,511.74s-5.63-29.82-3-31.47,27.06,22.64,27.06,22.64"/><path class="cls-1" d="M460.36,512.05s-11.25-29.23-7.46-32.4,23.17,27.17,23.17,27.17"/><line class="cls-1" x1="464.15" y1="512.5" x2="454.03" y2="480.27"/><path class="cls-1" d="M448.51,510s-.59-25.1,3.07-28.06,33.12,13,33.12,13"/><path class="cls-1" d="M437.55,506.46s7.6-23.35,11.47-25.08,25,27.55,25,27.55"/><path class="cls-1" d="M486.74,485.19s-28.79-6.78-31.62-3.53L467.78,512"/><path class="cls-1" d="M443,507.26s4.71-24.05,10.81-25.69"/><path class="cls-1" d="M450.44,510.57s-2.56-29.14,4.8-31.64l16.45,32.61"/><path class="cls-1" d="M485.17,493.44s-20.36-13.72-27-12.64,14.37,22.32,14.37,22.32"/><path class="cls-1" d="M478.77,504.12s-16.43-24.65-19.2-24.33-4.9,30.45-4.9,30.45"/><path class="cls-2" d="M413,490.56c-3.66-6,15-59.89,15-59.89,2.65-5.94-21.28,45.47-18.14,58.94-8.07-4.85-11.33-17.73-6.47-31.15,5.22-14.44,27.48-36.37,27.48-36.37h0s7,23.83,4,38.87S423.19,493.17,413,490.56Z"/><path class="cls-2" d="M484.28,440.78l3.16-1.17a7.33,7.33,0,0,1,3.2-.08c1-1.3,2-2.61,3-3.92a8.32,8.32,0,0,1-.18-1.52l.1-2.89c.81-4.12,4.88-7.79,10.48-10.56A232.61,232.61,0,0,0,520,391.38a48.56,48.56,0,0,1,2-11,18.8,18.8,0,0,1,5.4-7.41,234,234,0,0,0,9.12-33.45c-2.81-8-3.12-15.78.93-20.54l2.32-1.74c.22-2.27.4-4.54.56-6.82a9.13,9.13,0,0,1-2.4-5.4l-.14-3.52a11.53,11.53,0,0,1,3.09-5.52c0-.68,0-1.36,0-2a241.07,241.07,0,0,0-1.23-24.27,33.53,33.53,0,0,1-1.74-3.66,29.1,29.1,0,0,1-1.6-10.09,18.61,18.61,0,0,1,.81-4.23,233.28,233.28,0,0,0-6.67-27.52c-5.66-3.08-9.3-7.17-8.67-12.12l.57-3.33A7.32,7.32,0,0,1,524,205.8c-.6-1.5-1.21-3-1.85-4.47a8.4,8.4,0,0,1-1.5-.63l-2.45-1.54c-3.18-2.77-4.31-8.15-3.9-14.41a234.34,234.34,0,0,0-17.58-28.46,47.46,47.46,0,0,1-8.36-7.18,18.59,18.59,0,0,1-3.67-8.14q-6.12-7.18-12.86-13.94-5.7-5.7-11.71-10.94c-8.25-1.55-15.12-5.19-17.21-11l-.35-2.9c-1.83-1.33-3.68-2.62-5.55-3.89a9.12,9.12,0,0,1-6-.61L427.9,96a11.57,11.57,0,0,1-3.27-5.57,234,234,0,0,0-23.11-12,33.64,33.64,0,0,1-4.28-.32,29.14,29.14,0,0,1-9.54-3.66,18,18,0,0,1-3.36-2.93,233.32,233.32,0,0,0-27.09-7.85c-5.49,3.34-10.85,4.44-14.81,1.43L339.84,63a7.29,7.29,0,0,1-1.66-2.74c-1.64-.22-3.27-.44-4.91-.64a8.07,8.07,0,0,1-1.22.91l-2.56,1.36c-3.93,1.35-9.1-.31-14.25-3.72-3.43-.14-6.87-.23-10.32-.23q-11.78,0-23.33,1.13a47.27,47.27,0,0,1-10.35,3.63,18.69,18.69,0,0,1-9-.92,234.22,234.22,0,0,0-33.61,8.71c-5.5,6.45-12.14,10.66-18.31,9.53l-2.78-1.19c-2,.92-4,1.87-6,2.85A9.14,9.14,0,0,1,198,86.56l-3,1.88a11.53,11.53,0,0,1-6.49,0,234,234,0,0,0-22,14.21,34.6,34.6,0,0,1-2.32,3.37,29.39,29.39,0,0,1-7.94,6.44,18.87,18.87,0,0,1-4,1.39Q145,120.13,138.05,127q-3.24,3.24-6.32,6.59c.12,6.35-1.61,11.48-6.17,13.4l-3.17,1.17a7.44,7.44,0,0,1-3.19.07c-1,1.3-2,2.61-3,3.93a8.1,8.1,0,0,1,.18,1.51l-.11,2.89c-.8,4.12-4.88,7.79-10.48,10.56a233.9,233.9,0,0,0-15.89,29.26,47.48,47.48,0,0,1-2,11,18.71,18.71,0,0,1-5.4,7.41,234.37,234.37,0,0,0-9.12,33.45c2.81,8,3.12,15.78-.92,20.54l-2.33,1.74c-.22,2.27-.4,4.54-.56,6.82a9.13,9.13,0,0,1,2.4,5.41l.14,3.51A11.45,11.45,0,0,1,69,291.85c0,.68,0,1.36,0,2a241.22,241.22,0,0,0,1.23,24.27,31.48,31.48,0,0,1,1.74,3.65,29.44,29.44,0,0,1,1.61,10.1,18.42,18.42,0,0,1-.82,4.22,234.82,234.82,0,0,0,6.68,27.52c5.65,3.09,9.29,7.18,8.67,12.13l-.57,3.32a7.47,7.47,0,0,1-1.6,2.88q.9,2.25,1.85,4.47a8.1,8.1,0,0,1,1.5.63l2.46,1.54c3.17,2.77,4.31,8.15,3.89,14.41a235.68,235.68,0,0,0,17.59,28.46,47.5,47.5,0,0,1,8.35,7.18,18.64,18.64,0,0,1,3.67,8.14q6.12,7.19,12.87,13.94,5.69,5.7,11.71,10.94c8.24,1.56,15.11,5.19,17.2,11.05l.35,2.91c1.83,1.32,3.68,2.62,5.55,3.88a9.12,9.12,0,0,1,5.95.61l3.12,1.64a11.54,11.54,0,0,1,3.27,5.57,231.86,231.86,0,0,0,23.11,12,33.51,33.51,0,0,1,4.28.32,29.53,29.53,0,0,1,9.55,3.66,18.61,18.61,0,0,1,3.35,2.93,231,231,0,0,0,27.1,7.85c5.49-3.34,10.84-4.44,14.8-1.43l2.6,2.16a7.44,7.44,0,0,1,1.67,2.74c1.63.23,3.27.44,4.91.64a8,8,0,0,1,1.21-.91l2.56-1.35c3.94-1.35,9.1.3,14.25,3.71q5.15.23,10.33.23,11.76,0,23.33-1.13a47.8,47.8,0,0,1,10.35-3.63,18.53,18.53,0,0,1,9,.93,234.38,234.38,0,0,0,33.62-8.72c5.49-6.45,12.14-10.66,18.3-9.53l2.78,1.19q3-1.38,6-2.84a9.09,9.09,0,0,1,3.52-4.92l3-1.88a11.58,11.58,0,0,1,6.48,0,234.11,234.11,0,0,0,22-14.21,32.89,32.89,0,0,1,2.32-3.37,29.44,29.44,0,0,1,7.94-6.44,18.82,18.82,0,0,1,4-1.38q7.35-6.26,14.27-13.15c2.15-2.15,4.25-4.36,6.31-6.58C478,447.82,479.72,442.69,484.28,440.78Zm-14.94,3.74c-2.2,2.39-4.44,4.74-6.75,7.05a225.44,225.44,0,0,1-32,26.61c-4.39,9-10.49,15.48-17.19,13.76l-3.28-1a2.2,2.2,0,0,1-.25-.17,220.64,220.64,0,0,1-21,9.84c-3.28,3.4-7.94,7.77-11.12,8.72-3.38,1-8.8.1-12.34-.7q-10.32,2.88-20.93,4.77l0,.08L343,515.91c-5,6.75-15.14,5.4-25.09.59-4.32.24-8.66.38-13,.38a226.53,226.53,0,0,1-32.23-2.3,27,27,0,0,1-8.66.14,20.43,20.43,0,0,1-7.18-3A220.38,220.38,0,0,1,208,494.85c-9.93.67-18.55-1.38-20.41-8l-.77-3.34c0-.11,0-.22,0-.33A222.56,222.56,0,0,1,168,470c-4.61-1.13-10.84-3-13.28-5.31-2.62-2.48-4.57-7.79-5.64-11.26-.61-.6-1.24-1.2-1.85-1.81q-6.63-6.63-12.61-13.71l-.15,0-2.78,0c-8.31-1-12.22-10.34-13-21.31a220.25,220.25,0,0,1-21.11-40.46,26.55,26.55,0,0,1-4.31-7.24,20.38,20.38,0,0,1-1-7.64,222.37,222.37,0,0,1-9.71-50.65c-5.61-8.31-8.21-16.87-3.36-21.83l2.51-2.34.38-.19A227.75,227.75,0,0,1,84,263.39c-1.32-4.56-2.82-10.92-2-14.19.82-3.44,4.32-7.68,6.79-10.35Q91.38,228.41,95,218.3h0l-1.42-2.4c-3.31-7.65,2.81-15.7,11.85-21.9a222.31,222.31,0,0,1,24.45-38.29,27.09,27.09,0,0,1,4.23-7.62,20.59,20.59,0,0,1,6.38-4.81c2.19-2.38,4.43-4.74,6.74-7.05a225.44,225.44,0,0,1,32-26.61c4.39-9,10.49-15.48,17.2-13.76l3.28,1L200,97a220.4,220.4,0,0,1,21-9.83c3.28-3.41,7.95-7.78,11.12-8.72,3.39-1,8.8-.11,12.35.7q10.31-2.89,20.92-4.77l0-.09,1.37-2.42c5-6.74,15.14-5.4,25.1-.59,4.31-.24,8.65-.38,13-.38a226.74,226.74,0,0,1,32.23,2.3,27.26,27.26,0,0,1,8.65-.14,20.43,20.43,0,0,1,7.18,3A220.38,220.38,0,0,1,401.8,92.94c9.93-.66,18.55,1.38,20.41,8l.78,3.34c0,.11,0,.22,0,.34a220,220,0,0,1,18.85,13.2c4.61,1.13,10.85,3,13.29,5.31,2.61,2.48,4.57,7.79,5.63,11.26.62.6,1.24,1.2,1.85,1.81q6.63,6.63,12.62,13.71l.14,0,2.78,0c8.31,1,12.22,10.33,13.05,21.3a220.91,220.91,0,0,1,21.12,40.46,26.84,26.84,0,0,1,4.3,7.24,20.38,20.38,0,0,1,1,7.64,222.37,222.37,0,0,1,9.71,50.65c5.61,8.31,8.21,16.87,3.36,21.83l-2.5,2.34-.39.19a225,225,0,0,1-1.93,22.87c1.33,4.56,2.83,10.91,2,14.18-.82,3.44-4.32,7.69-6.79,10.35q-2.64,10.46-6.27,20.56h0l1.41,2.39c3.32,7.65-2.8,15.7-11.84,21.9a222,222,0,0,1-24.46,38.29,27.23,27.23,0,0,1-4.22,7.63A20.76,20.76,0,0,1,469.34,444.52Z"/><path class="cls-2" d="M484.73,441.78c6.57,2.6,24.23,56.79,24.23,56.79,1.48,6.33-10.52-49.09-21.16-57.93,9.35-1,19.81,13.31,24.05,26.95,4.56,14.65,0,39.55,0,39.55h0s-20-14.73-26.69-28.55S475.06,445.84,484.73,441.78Z"/><path class="cls-1" d="M437.9,439.54s26.88,4.73,34.53.44-.92-33.05-.92-33.05"/><path class="cls-1" d="M437.81,436.28s28.63,5.52,34,2.26,4.32-30.86,4.32-30.86"/><path class="cls-1" d="M481.74,407.52s-.76,25.61-7.63,30.75-35.51-10-35.51-10"/><path class="cls-1" d="M443,445.31s27.81-.16,29.48-5.33-8.51-32-8.51-32"/><path class="cls-1" d="M459.32,408.15s15.17,26.28,13.2,28.73-33-12.44-33-12.44"/><path class="cls-1" d="M456,409s20.27,23.87,17.75,28.12-30.85-18-30.85-18"/><line class="cls-1" x1="452.32" y1="409.8" x2="472.52" y2="436.88"/><path class="cls-1" d="M467.92,407s8.85,23.5,6.37,27.51-35.56-1.35-35.56-1.35"/><path class="cls-1" d="M479.42,406.71s.54,24.55-2.55,27.46-32.7-17.74-32.7-17.74"/><path class="cls-1" d="M440,443s29.42-3.12,31-7.11l-22-24.44"/><path class="cls-1" d="M474.05,407.74s3.51,24.25-1.71,27.82"/><path class="cls-1" d="M465.9,407.09s12,26.66,5.92,31.45l-26.31-25.35"/><path class="cls-1" d="M438.78,434.73s23.74,6.22,29.63,3-20.94-16.32-20.94-16.32"/><path class="cls-1" d="M441.28,422.53s23.66,17.84,26.16,16.63S462,408.8,462,408.8"/><path class="cls-2" d="M514.54,372.24c-7-3.34-59.13,24.55-59.13,24.55-5.6,3.72,42.91-29.77,57.5-27.94-6.69-8.45-25-5.85-37.87,1.31C461.18,377.84,447.35,401,447.35,401h0s26.13,4.91,41.08-.39S519.34,383.32,514.54,372.24Z"/><path class="cls-1" d="M557.58,368.38s-26.86,4.81-32.56,11.47,12.23,30.71,12.23,30.71"/><path class="cls-1" d="M558.79,371.41S530,376.08,526.09,381s6.56,30.46,6.56,30.46"/><path class="cls-1" d="M527.44,413.53s-8.09-24.3-3.41-31.5,36.79-2.8,36.79-2.8"/><path class="cls-1" d="M550.86,364.7s-26.05,9.72-25.84,15.15,19,27.08,19,27.08"/><path class="cls-1" d="M548.28,405.23S525,385.77,526,382.79s35.28.31,35.28.31"/><path class="cls-1" d="M551.08,403.33s-27.25-15.44-26.34-20.3,35.15,6.29,35.15,6.29"/><line class="cls-1" x1="554.28" y1="401.27" x2="526" y2="382.79"/><path class="cls-1" d="M540.59,409.23s-16.4-19-15.45-23.63,33.85-11,33.85-11"/><path class="cls-1" d="M529.9,413.49s-8.95-22.86-7.06-26.66,36.82,5.4,36.82,5.4"/><path class="cls-1" d="M554.4,365.82s-26.54,13.05-26.67,17.35l29,15.39"/><path class="cls-1" d="M534.59,410.68s-11.64-21.57-8-26.71"/><path class="cls-1" d="M542.47,408.48S522,387.59,526.09,381l33.42,14.75"/><path class="cls-1" d="M558.42,373.2s-24.43,2.33-28.86,7.36,25.28,8.12,25.28,8.12"/><path class="cls-1" d="M560.27,385.51S531.92,376.9,530,378.9s15.55,26.64,15.55,26.64"/><path class="cls-2" d="M495.34,436c4.46-5.94,60.26-4.63,60.26-4.63,7.29,0-48.8-7-60.42,1.06,1.84-10.05,18.65-15.29,32.92-15.93,15.47-.7,37.74,13.24,37.74,13.24h0s-20.05,15.84-35.24,18.14S496.32,447.41,495.34,436Z"/></g><g id="BeegBasket"><path class="cls-3" d="M375.93,386.82a90.22,90.22,0,0,0,19.92-19.64,73.21,73.21,0,0,0,14.33-45.33H196.35a73.12,73.12,0,0,0,14.32,45.33,90,90,0,0,0,19.93,19.64Z"/><path class="cls-4" d="M233.55,321.53a73.28,73.28,0,0,0,14.32,45.34,90.24,90.24,0,0,0,19.93,19.64"/><path class="cls-4" d="M377,321.85a73.12,73.12,0,0,1-14.32,45.33,90,90,0,0,1-19.93,19.64"/><path class="cls-4" d="M269,318.19a73.1,73.1,0,0,0,14.32,45.33,90.07,90.07,0,0,0,19.92,19.65"/><path class="cls-4" d="M341.63,318.19a73.1,73.1,0,0,1-14.32,45.33,90.07,90.07,0,0,1-19.92,19.65"/><line class="cls-5" x1="275.17" y1="153.99" x2="334.57" y2="153.99"/><line class="cls-6" x1="304.87" y1="185.49" x2="304.87" y2="408.83"/><path class="cls-7" d="M304.87,167.87s-85,2.19-85,13.13"/><path class="cls-7" d="M300.81,166.76s85,2.19,85,13.13"/><line class="cls-7" x1="219.86" y1="189.68" x2="385.73" y2="189.68"/><line class="cls-7" x1="225.66" y1="179.89" x2="380.08" y2="179.89"/><line class="cls-8" x1="227.01" y1="215.52" x2="228.14" y2="235.39"/><line class="cls-8" x1="225.66" y1="208.09" x2="225.66" y2="189.7"/><line class="cls-8" x1="229.2" y1="244.17" x2="233.44" y2="264.69"/><path class="cls-8" d="M235.92,274.59a149.94,149.94,0,0,0,8.49,17.69"/><path class="cls-8" d="M249,303.25s9.55,12,12.38,14.14"/><line class="cls-8" x1="261.74" y1="205.97" x2="261.39" y2="191.12"/><line class="cls-8" x1="262.09" y1="236.04" x2="261.74" y2="215.52"/><line class="cls-8" x1="263.51" y1="263.63" x2="263.16" y2="245.24"/><path class="cls-8" d="M269.17,293.69s-3.89-15.21-3.89-20.51"/><line class="cls-8" x1="270.23" y1="303.25" x2="278.01" y2="318.46"/><ellipse class="cls-8" cx="226.41" cy="211.05" rx="6.93" ry="9.43" transform="translate(-17.49 20.48) rotate(-4.99)"/><ellipse class="cls-8" cx="228.95" cy="239.91" rx="6.82" ry="9.43" transform="translate(-33.15 36.74) rotate(-8.56)"/><ellipse class="cls-8" cx="234.46" cy="269.12" rx="6.49" ry="9.43" transform="translate(-70.86 84.25) rotate(-17.74)"/><ellipse class="cls-8" cx="246.59" cy="297.4" rx="6.59" ry="9.43" transform="translate(-115.66 163.14) rotate(-30)"/><ellipse class="cls-8" cx="262.25" cy="319.43" rx="6.66" ry="8.25" transform="translate(-137.4 214.12) rotate(-35.85)"/><ellipse class="cls-8" cx="262.29" cy="211.08" rx="6.93" ry="9.43" transform="translate(-11.1 14.59) rotate(-3.12)"/><ellipse class="cls-8" cx="262.91" cy="239.54" rx="6.93" ry="9.43" transform="translate(-11.05 12.71) rotate(-2.71)"/><ellipse class="cls-8" cx="265.39" cy="268.62" rx="6.93" ry="9.43" transform="translate(-34.41 39.03) rotate(-7.9)"/><ellipse class="cls-8" cx="270.29" cy="297.69" rx="6.76" ry="9.07" transform="translate(-76.66 94.46) rotate(-17.4)"/><line class="cls-8" x1="285.99" y1="338.91" x2="322.5" y2="339.22"/><line class="cls-8" x1="384.39" y1="216" x2="383.26" y2="235.86"/><line class="cls-8" x1="385.73" y1="208.57" x2="385.73" y2="190.18"/><line class="cls-8" x1="382.2" y1="244.65" x2="377.95" y2="265.17"/><path class="cls-8" d="M375.48,275.07A152.55,152.55,0,0,1,367,292.76"/><path class="cls-8" d="M362.39,303.72s-9.55,12-12.38,14.15"/><line class="cls-9" x1="349.66" y1="206.45" x2="350.01" y2="191.59"/><line class="cls-8" x1="349.3" y1="236.52" x2="349.66" y2="216"/><line class="cls-8" x1="347.89" y1="264.11" x2="348.24" y2="245.71"/><path class="cls-8" d="M342.23,294.17s3.89-15.21,3.89-20.51"/><line class="cls-8" x1="341.17" y1="303.72" x2="333.38" y2="318.93"/><ellipse class="cls-8" cx="384.99" cy="211.52" rx="9.43" ry="6.93" transform="translate(140.8 576.67) rotate(-85.01)"/><ellipse class="cls-8" cx="382.45" cy="240.39" rx="9.43" ry="6.82" transform="translate(87.82 582.81) rotate(-81.44)"/><ellipse class="cls-8" cx="376.94" cy="269.6" rx="9.43" ry="6.49" transform="translate(5.3 546.45) rotate(-72.26)"/><ellipse class="cls-8" cx="364.8" cy="297.88" rx="9.43" ry="6.59" transform="translate(-75.57 464.87) rotate(-60)"/><ellipse class="cls-8" cx="349.11" cy="211.56" rx="9.43" ry="6.93" transform="translate(118.86 548.63) rotate(-86.88)"/><ellipse class="cls-8" cx="348.49" cy="240.02" rx="9.43" ry="6.93" transform="translate(92.24 576.75) rotate(-87.29)"/><ellipse class="cls-8" cx="346.01" cy="269.1" rx="9.43" ry="6.93" transform="translate(31.9 574.84) rotate(-82.1)"/><ellipse class="cls-8" cx="341.1" cy="298.16" rx="9.07" ry="6.76" transform="translate(-45.43 534.49) rotate(-72.6)"/><line class="cls-8" x1="365.03" y1="222.11" x2="363.83" y2="243.24"/><line class="cls-8" x1="366.46" y1="214.21" x2="366.46" y2="194.64"/><line class="cls-8" x1="362.7" y1="252.59" x2="358.18" y2="274.41"/><path class="cls-8" d="M355.55,285a161.44,161.44,0,0,1-9,18.81"/><line class="cls-9" x1="328.08" y1="211.95" x2="328.46" y2="196.15"/><line class="cls-8" x1="327.7" y1="243.93" x2="328.08" y2="222.11"/><line class="cls-8" x1="326.2" y1="273.29" x2="326.57" y2="253.72"/><path class="cls-8" d="M320.18,305.27s4.14-16.18,4.14-21.83"/><line class="cls-8" x1="319.05" y1="315.43" x2="310.77" y2="331.61"/><ellipse class="cls-8" cx="365.67" cy="217.35" rx="10.03" ry="7.37" transform="translate(117.36 562.74) rotate(-85.01)"/><ellipse class="cls-8" cx="362.96" cy="248.06" rx="10.03" ry="7.26" transform="matrix(0.15, -0.99, 0.99, 0.15, 63.66, 570.07)"/><ellipse class="cls-8" cx="357.1" cy="279.13" rx="10.03" ry="6.9" transform="translate(-17.57 534.19) rotate(-72.26)"/><ellipse class="cls-8" cx="344.19" cy="309.21" rx="10.03" ry="7.01" transform="translate(-95.69 452.69) rotate(-60)"/><ellipse class="cls-8" cx="327.54" cy="332.64" rx="8.78" ry="7.09" transform="translate(-133.92 403.3) rotate(-54.15)"/><ellipse class="cls-8" cx="327.49" cy="217.38" rx="10.03" ry="7.37" transform="translate(92.61 532.56) rotate(-86.88)"/><ellipse class="cls-8" cx="326.84" cy="247.66" rx="10.03" ry="7.37" transform="translate(63.98 562.41) rotate(-87.29)"/><ellipse class="cls-8" cx="324.2" cy="278.6" rx="10.03" ry="7.37" transform="translate(3.68 561.43) rotate(-82.1)"/><ellipse class="cls-8" cx="318.98" cy="309.52" rx="9.65" ry="7.19" transform="translate(-71.76 521.33) rotate(-72.6)"/><line class="cls-8" x1="245.89" y1="222.06" x2="247.11" y2="243.52"/><line class="cls-8" x1="244.44" y1="214.04" x2="244.44" y2="194.16"/><line class="cls-8" x1="248.26" y1="253.02" x2="252.84" y2="275.18"/><path class="cls-8" d="M255.52,285.88A164,164,0,0,0,264.69,305"/><line class="cls-8" x1="283.42" y1="211.74" x2="283.04" y2="195.69"/><line class="cls-8" x1="283.8" y1="244.23" x2="283.42" y2="222.06"/><line class="cls-8" x1="285.33" y1="274.04" x2="284.95" y2="254.16"/><path class="cls-8" d="M291.44,306.52s-4.2-16.43-4.2-22.16"/><line class="cls-8" x1="292.59" y1="316.84" x2="301" y2="333.27"/><ellipse class="cls-8" cx="245.24" cy="217.22" rx="7.48" ry="10.19" transform="translate(-17.95 22.14) rotate(-4.99)"/><ellipse class="cls-8" cx="247.99" cy="248.41" rx="7.37" ry="10.19" transform="translate(-34.21 39.67) rotate(-8.56)"/><ellipse class="cls-8" cx="253.94" cy="279.97" rx="7.01" ry="10.19" transform="translate(-73.24 90.7) rotate(-17.74)"/><ellipse class="cls-8" cx="267.05" cy="310.53" rx="7.12" ry="10.19" transform="translate(-119.48 175.13) rotate(-30)"/><ellipse class="cls-8" cx="283.97" cy="334.32" rx="7.2" ry="8.92" transform="translate(-142.01 229.66) rotate(-35.85)"/><ellipse class="cls-8" cx="284.01" cy="217.26" rx="7.48" ry="10.19" transform="translate(-11.4 15.78) rotate(-3.12)"/><ellipse class="cls-8" cx="284.68" cy="248.01" rx="7.48" ry="10.19" transform="translate(-11.42 13.75) rotate(-2.71)"/><ellipse class="cls-8" cx="287.35" cy="279.43" rx="7.48" ry="10.19" transform="translate(-35.69 42.16) rotate(-7.9)"/><ellipse class="cls-8" cx="292.66" cy="310.83" rx="7.3" ry="9.8" transform="translate(-79.57 101.75) rotate(-17.4)"/><text/></g><g id="TextLayer"><g id="Bottom_Text" data-name="Bottom Text"><path class="cls-10" d="M142.69,462.61H123.4l-3.1,9H105.91l19.76-51.94h14.74l19.77,51.94H145.79Zm-3.58-10.26L133,435.06,127,452.35Z"/><path class="cls-10" d="M177.33,419.7v28.24c0,1.52.06,3.07.17,4.65a12.75,12.75,0,0,0,1,4.31,7.14,7.14,0,0,0,2.72,3.13,9.61,9.61,0,0,0,5.23,1.21,9.43,9.43,0,0,0,5.2-1.21,7.4,7.4,0,0,0,2.72-3.13,12.09,12.09,0,0,0,1.07-4.31c.12-1.58.17-3.13.17-4.65V419.7h13.43v30.1q0,12.12-5.54,17.7t-17,5.58q-11.51,0-17.08-5.58t-5.58-17.7V419.7Z"/><path class="cls-10" d="M256.54,437.06A14.41,14.41,0,0,0,245,431.34a14.21,14.21,0,0,0-5.61,1.1A13.41,13.41,0,0,0,232,440a14.69,14.69,0,0,0-1.07,5.65,14.86,14.86,0,0,0,1.07,5.72A13.78,13.78,0,0,0,244.9,460q6.48,0,11.64-5.5v16l-1.38.49a41,41,0,0,1-5.78,1.62,28.41,28.41,0,0,1-5.31.51,27.09,27.09,0,0,1-19-7.75,28.35,28.35,0,0,1-6-8.74,26.78,26.78,0,0,1-2.27-11.06,26.47,26.47,0,0,1,2.24-11,27.13,27.13,0,0,1,14.7-14.25,27.07,27.07,0,0,1,10.4-2,28.28,28.28,0,0,1,6.1.65,36.94,36.94,0,0,1,6.3,2Z"/><path class="cls-10" d="M280,441.12l16.46-21.42h16.67l-20.6,24.59L315,471.64h-17.5L280,449.11v22.53h-13.5V419.7H280Z"/><path class="cls-10" d="M333.68,419.7v40.5h16.19v11.44H320.18V419.7Z"/><path class="cls-10" d="M390,462.61H370.67l-3.1,9h-14.4l19.77-51.94h14.74l19.77,51.94h-14.4Zm-3.58-10.26-6.06-17.29-6.06,17.29Z"/><path class="cls-10" d="M412.54,471.64V419.7H426L451,451.45V419.7h13.43v51.94H451L426,439.88v31.76Z"/><path class="cls-10" d="M474.46,419.7h20a23.47,23.47,0,0,1,9.95,2.14,27,27,0,0,1,8.13,5.68,26.39,26.39,0,0,1,5.47,8.26,25,25,0,0,1,2,9.89,25.23,25.23,0,0,1-2,9.81,26.15,26.15,0,0,1-5.44,8.3,26.75,26.75,0,0,1-8.13,5.72,23.78,23.78,0,0,1-10,2.14h-20ZM488,460.2h3.1a16.85,16.85,0,0,0,6.27-1.1,13.21,13.21,0,0,0,4.65-3,12.94,12.94,0,0,0,2.89-4.58,16.31,16.31,0,0,0,1-5.82,16,16,0,0,0-1-5.79,13,13,0,0,0-7.58-7.64,16.47,16.47,0,0,0-6.2-1.1H488Z"/><path class="cls-10" d="M160.27,505.29a10.06,10.06,0,0,0-8.1-4,9.93,9.93,0,0,0-3.92.77,9.28,9.28,0,0,0-3.11,2.1,9.44,9.44,0,0,0-2,3.15,10.94,10.94,0,0,0,0,8,9.64,9.64,0,0,0,9,6.07,10.92,10.92,0,0,0,8.14-3.85v11.18l-1,.34a28.54,28.54,0,0,1-4.05,1.13,19.69,19.69,0,0,1-3.71.37,19.06,19.06,0,0,1-13.29-5.43,19.92,19.92,0,0,1-4.21-6.12,19.57,19.57,0,0,1,0-15.43,19,19,0,0,1,10.3-10,19,19,0,0,1,7.28-1.42,20.27,20.27,0,0,1,4.26.45,25.58,25.58,0,0,1,4.41,1.43Z"/><path class="cls-10" d="M176.67,507.17h13.64v-14h9.45v36.35h-9.45v-15H176.67v15h-9.45V493.14h9.45Z"/><path class="cls-10" d="M229.08,523.18h-13.5l-2.17,6.31H203.33l13.84-36.35h10.31l13.84,36.35H231.24ZM226.57,516l-4.24-12.1L218.08,516Z"/><path class="cls-10" d="M243.25,529.49l6.17-36.35h9.35l7.28,19.38,7.24-19.38h9.35l6.17,36.35h-9.4l-3.13-20.92-8.59,20.92h-3.76l-8.14-20.92-3.14,20.92Z"/><path class="cls-10" d="M303.66,529.49h-9.45V493.14h15q6.13,0,9.38,3.18t3.25,9q0,5.79-3.25,9t-9.38,3.18h-5.59Zm0-19.67h3.14q5.2,0,5.2-4.53t-5.2-4.53h-3.14Z"/><path class="cls-10" d="M346.28,502.45a11.66,11.66,0,0,0-3.08-1.86,8.25,8.25,0,0,0-3-.6,4.91,4.91,0,0,0-3,.86,2.72,2.72,0,0,0-1.16,2.27,2.24,2.24,0,0,0,.58,1.59,5.12,5.12,0,0,0,1.52,1.09,13,13,0,0,0,2.12.79q1.19.35,2.34.72a14.61,14.61,0,0,1,6.77,4.13,10.17,10.17,0,0,1,2.15,6.72,13.27,13.27,0,0,1-.94,5.07,10.7,10.7,0,0,1-2.75,3.88,12.69,12.69,0,0,1-4.44,2.5,18.28,18.28,0,0,1-6,.9,21.91,21.91,0,0,1-12.78-4.1l4.05-7.62a16.51,16.51,0,0,0,4.2,2.8,10,10,0,0,0,4.1.91,4.85,4.85,0,0,0,3.44-1.06,3.22,3.22,0,0,0,1.14-2.41,3.27,3.27,0,0,0-.29-1.42,3.21,3.21,0,0,0-1-1.11,7.52,7.52,0,0,0-1.76-.94c-.72-.29-1.6-.61-2.63-1-1.22-.38-2.41-.81-3.59-1.27a11.38,11.38,0,0,1-3.13-1.86,8.48,8.48,0,0,1-2.22-2.92,10.35,10.35,0,0,1-.84-4.46,12.75,12.75,0,0,1,.89-4.89,10.75,10.75,0,0,1,2.51-3.76,11.19,11.19,0,0,1,3.95-2.44,15.14,15.14,0,0,1,5.23-.86,23.26,23.26,0,0,1,5.64.74,24.72,24.72,0,0,1,5.64,2.2Z"/><path class="cls-10" d="M399.51,529.49H370.24l9-9.35c2.38-2.48,4.24-4.57,5.59-6.29a34.89,34.89,0,0,0,3-4.37,12,12,0,0,0,1.23-2.89,9.09,9.09,0,0,0,.24-1.88,4.74,4.74,0,0,0-.27-1.59,4.16,4.16,0,0,0-.79-1.37,4,4,0,0,0-1.28-1,4,4,0,0,0-1.76-.36,3.81,3.81,0,0,0-3,1.25,4.64,4.64,0,0,0-1.08,3.14,12.82,12.82,0,0,0,.14,1.54H371a15.58,15.58,0,0,1,1-5.79,13.17,13.17,0,0,1,2.92-4.48,12.82,12.82,0,0,1,4.46-2.89,15.27,15.27,0,0,1,5.66-1,16,16,0,0,1,5.62,1,13.29,13.29,0,0,1,4.46,2.7,12.23,12.23,0,0,1,2.94,4.12,12.57,12.57,0,0,1,1.06,5.18,12,12,0,0,1-1.27,5.52,19.53,19.53,0,0,1-4.08,5.19l-6,5.64h11.76Z"/><path class="cls-10" d="M402.06,511.27a25.7,25.7,0,0,1,1.14-7.89,18.14,18.14,0,0,1,3.18-6.05,14.46,14.46,0,0,1,4.87-3.88,14.25,14.25,0,0,1,17.33,3.88,18.48,18.48,0,0,1,3.16,6.05,28.08,28.08,0,0,1,0,15.77,18.74,18.74,0,0,1-3.16,6.08,14.45,14.45,0,0,1-17.33,3.9,14.28,14.28,0,0,1-4.87-3.9,18.39,18.39,0,0,1-3.18-6.08A25.64,25.64,0,0,1,402.06,511.27Zm9.36,0a20.32,20.32,0,0,0,.43,4.38,12.9,12.9,0,0,0,1.23,3.43,6.65,6.65,0,0,0,1.91,2.24,4.19,4.19,0,0,0,2.5.8,4.27,4.27,0,0,0,2.49-.8,6.31,6.31,0,0,0,1.9-2.24,13.64,13.64,0,0,0,1.21-3.43,20.32,20.32,0,0,0,.43-4.38,20.63,20.63,0,0,0-.43-4.37,13.15,13.15,0,0,0-1.21-3.42,6.32,6.32,0,0,0-1.9-2.22,4.26,4.26,0,0,0-2.49-.79,4.18,4.18,0,0,0-2.5.79,6.67,6.67,0,0,0-1.91,2.22,12.45,12.45,0,0,0-1.23,3.42A20.63,20.63,0,0,0,411.42,511.27Z"/><path class="cls-10" d="M463.92,529.49H434.66l9-9.35c2.38-2.48,4.25-4.57,5.6-6.29a34.64,34.64,0,0,0,3-4.37,11.25,11.25,0,0,0,1.23-2.89,9.09,9.09,0,0,0,.24-1.88,5,5,0,0,0-.26-1.59,4.19,4.19,0,0,0-.8-1.37,3.84,3.84,0,0,0-1.28-1,4,4,0,0,0-1.76-.36,3.79,3.79,0,0,0-3,1.25,4.65,4.65,0,0,0-1.09,3.14,11.37,11.37,0,0,0,.15,1.54H435.38a15.58,15.58,0,0,1,1-5.79,13.15,13.15,0,0,1,2.91-4.48,12.91,12.91,0,0,1,4.46-2.89,15.29,15.29,0,0,1,5.67-1,16,16,0,0,1,5.62,1,13.39,13.39,0,0,1,4.46,2.7,12.52,12.52,0,0,1,2.94,4.12,12.73,12.73,0,0,1,1.06,5.18,12.05,12.05,0,0,1-1.28,5.52,19.48,19.48,0,0,1-4.07,5.19l-6,5.64h11.76Z"/><path class="cls-10" d="M496.13,529.49H466.86l9-9.35c2.38-2.48,4.24-4.57,5.59-6.29a34.89,34.89,0,0,0,3-4.37,12,12,0,0,0,1.23-2.89,9.09,9.09,0,0,0,.24-1.88,4.74,4.74,0,0,0-.27-1.59,4.16,4.16,0,0,0-.79-1.37,4,4,0,0,0-1.28-1,4,4,0,0,0-1.76-.36,3.81,3.81,0,0,0-3,1.25,4.64,4.64,0,0,0-1.08,3.14,12.82,12.82,0,0,0,.14,1.54H467.59a15.58,15.58,0,0,1,1-5.79,13.17,13.17,0,0,1,2.92-4.48,12.82,12.82,0,0,1,4.46-2.89,15.29,15.29,0,0,1,5.67-1,16,16,0,0,1,5.61,1,13.29,13.29,0,0,1,4.46,2.7,12.23,12.23,0,0,1,2.94,4.12,12.57,12.57,0,0,1,1.06,5.18,12,12,0,0,1-1.27,5.52,19.53,19.53,0,0,1-4.08,5.19l-6,5.64h11.76Z"/><path class="cls-11" d="M142.69,462.61H123.4l-3.1,9H105.91l19.76-51.94h14.74l19.77,51.94H145.79Zm-3.58-10.26L133,435.06,127,452.35Z"/><path class="cls-11" d="M177.33,419.7v28.24c0,1.52.06,3.07.17,4.65a12.75,12.75,0,0,0,1,4.31,7.14,7.14,0,0,0,2.72,3.13,9.61,9.61,0,0,0,5.23,1.21,9.43,9.43,0,0,0,5.2-1.21,7.4,7.4,0,0,0,2.72-3.13,12.09,12.09,0,0,0,1.07-4.31c.12-1.58.17-3.13.17-4.65V419.7h13.43v30.1q0,12.12-5.54,17.7t-17,5.58q-11.51,0-17.08-5.58t-5.58-17.7V419.7Z"/><path class="cls-11" d="M256.54,437.06A14.41,14.41,0,0,0,245,431.34a14.21,14.21,0,0,0-5.61,1.1A13.41,13.41,0,0,0,232,440a14.69,14.69,0,0,0-1.07,5.65,14.86,14.86,0,0,0,1.07,5.72A13.78,13.78,0,0,0,244.9,460q6.48,0,11.64-5.5v16l-1.38.49a41,41,0,0,1-5.78,1.62,28.41,28.41,0,0,1-5.31.51,27.09,27.09,0,0,1-19-7.75,28.35,28.35,0,0,1-6-8.74,26.78,26.78,0,0,1-2.27-11.06,26.47,26.47,0,0,1,2.24-11,27.13,27.13,0,0,1,14.7-14.25,27.07,27.07,0,0,1,10.4-2,28.28,28.28,0,0,1,6.1.65,36.94,36.94,0,0,1,6.3,2Z"/><path class="cls-11" d="M280,441.12l16.46-21.42h16.67l-20.6,24.59L315,471.64h-17.5L280,449.11v22.53h-13.5V419.7H280Z"/><path class="cls-11" d="M333.68,419.7v40.5h16.19v11.44H320.18V419.7Z"/><path class="cls-11" d="M390,462.61H370.67l-3.1,9h-14.4l19.77-51.94h14.74l19.77,51.94h-14.4Zm-3.58-10.26-6.06-17.29-6.06,17.29Z"/><path class="cls-11" d="M412.54,471.64V419.7H426L451,451.45V419.7h13.43v51.94H451L426,439.88v31.76Z"/><path class="cls-11" d="M474.46,419.7h20a23.47,23.47,0,0,1,9.95,2.14,27,27,0,0,1,8.13,5.68,26.39,26.39,0,0,1,5.47,8.26,25,25,0,0,1,2,9.89,25.23,25.23,0,0,1-2,9.81,26.15,26.15,0,0,1-5.44,8.3,26.75,26.75,0,0,1-8.13,5.72,23.78,23.78,0,0,1-10,2.14h-20ZM488,460.2h3.1a16.85,16.85,0,0,0,6.27-1.1,13.21,13.21,0,0,0,4.65-3,12.94,12.94,0,0,0,2.89-4.58,16.31,16.31,0,0,0,1-5.82,16,16,0,0,0-1-5.79,13,13,0,0,0-7.58-7.64,16.47,16.47,0,0,0-6.2-1.1H488Z"/><path class="cls-11" d="M160.27,505.29a10.06,10.06,0,0,0-8.1-4,9.93,9.93,0,0,0-3.92.77,9.28,9.28,0,0,0-3.11,2.1,9.44,9.44,0,0,0-2,3.15,10.94,10.94,0,0,0,0,8,9.64,9.64,0,0,0,9,6.07,10.92,10.92,0,0,0,8.14-3.85v11.18l-1,.34a28.54,28.54,0,0,1-4.05,1.13,19.69,19.69,0,0,1-3.71.37,19.06,19.06,0,0,1-13.29-5.43,19.92,19.92,0,0,1-4.21-6.12,19.57,19.57,0,0,1,0-15.43,19,19,0,0,1,10.3-10,19,19,0,0,1,7.28-1.42,20.27,20.27,0,0,1,4.26.45,25.58,25.58,0,0,1,4.41,1.43Z"/><path class="cls-11" d="M176.67,507.17h13.64v-14h9.45v36.35h-9.45v-15H176.67v15h-9.45V493.14h9.45Z"/><path class="cls-11" d="M229.08,523.18h-13.5l-2.17,6.31H203.33l13.84-36.35h10.31l13.84,36.35H231.24ZM226.57,516l-4.24-12.1L218.08,516Z"/><path class="cls-11" d="M243.25,529.49l6.17-36.35h9.35l7.28,19.38,7.24-19.38h9.35l6.17,36.35h-9.4l-3.13-20.92-8.59,20.92h-3.76l-8.14-20.92-3.14,20.92Z"/><path class="cls-11" d="M303.66,529.49h-9.45V493.14h15q6.13,0,9.38,3.18t3.25,9q0,5.79-3.25,9t-9.38,3.18h-5.59Zm0-19.67h3.14q5.2,0,5.2-4.53t-5.2-4.53h-3.14Z"/><path class="cls-11" d="M346.28,502.45a11.66,11.66,0,0,0-3.08-1.86,8.25,8.25,0,0,0-3-.6,4.91,4.91,0,0,0-3,.86,2.72,2.72,0,0,0-1.16,2.27,2.24,2.24,0,0,0,.58,1.59,5.12,5.12,0,0,0,1.52,1.09,13,13,0,0,0,2.12.79q1.19.35,2.34.72a14.61,14.61,0,0,1,6.77,4.13,10.17,10.17,0,0,1,2.15,6.72,13.27,13.27,0,0,1-.94,5.07,10.7,10.7,0,0,1-2.75,3.88,12.69,12.69,0,0,1-4.44,2.5,18.28,18.28,0,0,1-6,.9,21.91,21.91,0,0,1-12.78-4.1l4.05-7.62a16.51,16.51,0,0,0,4.2,2.8,10,10,0,0,0,4.1.91,4.85,4.85,0,0,0,3.44-1.06,3.22,3.22,0,0,0,1.14-2.41,3.27,3.27,0,0,0-.29-1.42,3.21,3.21,0,0,0-1-1.11,7.52,7.52,0,0,0-1.76-.94c-.72-.29-1.6-.61-2.63-1-1.22-.38-2.41-.81-3.59-1.27a11.38,11.38,0,0,1-3.13-1.86,8.48,8.48,0,0,1-2.22-2.92,10.35,10.35,0,0,1-.84-4.46,12.75,12.75,0,0,1,.89-4.89,10.75,10.75,0,0,1,2.51-3.76,11.19,11.19,0,0,1,3.95-2.44,15.14,15.14,0,0,1,5.23-.86,23.26,23.26,0,0,1,5.64.74,24.72,24.72,0,0,1,5.64,2.2Z"/><path class="cls-11" d="M399.51,529.49H370.24l9-9.35c2.38-2.48,4.24-4.57,5.59-6.29a34.89,34.89,0,0,0,3-4.37,12,12,0,0,0,1.23-2.89,9.09,9.09,0,0,0,.24-1.88,4.74,4.74,0,0,0-.27-1.59,4.16,4.16,0,0,0-.79-1.37,4,4,0,0,0-1.28-1,4,4,0,0,0-1.76-.36,3.81,3.81,0,0,0-3,1.25,4.64,4.64,0,0,0-1.08,3.14,12.82,12.82,0,0,0,.14,1.54H371a15.58,15.58,0,0,1,1-5.79,13.17,13.17,0,0,1,2.92-4.48,12.82,12.82,0,0,1,4.46-2.89,15.27,15.27,0,0,1,5.66-1,16,16,0,0,1,5.62,1,13.29,13.29,0,0,1,4.46,2.7,12.23,12.23,0,0,1,2.94,4.12,12.57,12.57,0,0,1,1.06,5.18,12,12,0,0,1-1.27,5.52,19.53,19.53,0,0,1-4.08,5.19l-6,5.64h11.76Z"/><path class="cls-11" d="M402.06,511.27a25.7,25.7,0,0,1,1.14-7.89,18.14,18.14,0,0,1,3.18-6.05,14.46,14.46,0,0,1,4.87-3.88,14.25,14.25,0,0,1,17.33,3.88,18.48,18.48,0,0,1,3.16,6.05,28.08,28.08,0,0,1,0,15.77,18.74,18.74,0,0,1-3.16,6.08,14.45,14.45,0,0,1-17.33,3.9,14.28,14.28,0,0,1-4.87-3.9,18.39,18.39,0,0,1-3.18-6.08A25.64,25.64,0,0,1,402.06,511.27Zm9.36,0a20.32,20.32,0,0,0,.43,4.38,12.9,12.9,0,0,0,1.23,3.43,6.65,6.65,0,0,0,1.91,2.24,4.19,4.19,0,0,0,2.5.8,4.27,4.27,0,0,0,2.49-.8,6.31,6.31,0,0,0,1.9-2.24,13.64,13.64,0,0,0,1.21-3.43,20.32,20.32,0,0,0,.43-4.38,20.63,20.63,0,0,0-.43-4.37,13.15,13.15,0,0,0-1.21-3.42,6.32,6.32,0,0,0-1.9-2.22,4.26,4.26,0,0,0-2.49-.79,4.18,4.18,0,0,0-2.5.79,6.67,6.67,0,0,0-1.91,2.22,12.45,12.45,0,0,0-1.23,3.42A20.63,20.63,0,0,0,411.42,511.27Z"/><path class="cls-11" d="M463.92,529.49H434.66l9-9.35c2.38-2.48,4.25-4.57,5.6-6.29a34.64,34.64,0,0,0,3-4.37,11.25,11.25,0,0,0,1.23-2.89,9.09,9.09,0,0,0,.24-1.88,5,5,0,0,0-.26-1.59,4.19,4.19,0,0,0-.8-1.37,3.84,3.84,0,0,0-1.28-1,4,4,0,0,0-1.76-.36,3.79,3.79,0,0,0-3,1.25,4.65,4.65,0,0,0-1.09,3.14,11.37,11.37,0,0,0,.15,1.54H435.38a15.58,15.58,0,0,1,1-5.79,13.15,13.15,0,0,1,2.91-4.48,12.91,12.91,0,0,1,4.46-2.89,15.29,15.29,0,0,1,5.67-1,16,16,0,0,1,5.62,1,13.39,13.39,0,0,1,4.46,2.7,12.52,12.52,0,0,1,2.94,4.12,12.73,12.73,0,0,1,1.06,5.18,12.05,12.05,0,0,1-1.28,5.52,19.48,19.48,0,0,1-4.07,5.19l-6,5.64h11.76Z"/><path class="cls-11" d="M496.13,529.49H466.86l9-9.35c2.38-2.48,4.24-4.57,5.59-6.29a34.89,34.89,0,0,0,3-4.37,12,12,0,0,0,1.23-2.89,9.09,9.09,0,0,0,.24-1.88,4.74,4.74,0,0,0-.27-1.59,4.16,4.16,0,0,0-.79-1.37,4,4,0,0,0-1.28-1,4,4,0,0,0-1.76-.36,3.81,3.81,0,0,0-3,1.25,4.64,4.64,0,0,0-1.08,3.14,12.82,12.82,0,0,0,.14,1.54H467.59a15.58,15.58,0,0,1,1-5.79,13.17,13.17,0,0,1,2.92-4.48,12.82,12.82,0,0,1,4.46-2.89,15.29,15.29,0,0,1,5.67-1,16,16,0,0,1,5.61,1,13.29,13.29,0,0,1,4.46,2.7,12.23,12.23,0,0,1,2.94,4.12,12.57,12.57,0,0,1,1.06,5.18,12,12,0,0,1-1.27,5.52,19.53,19.53,0,0,1-4.08,5.19l-6,5.64h11.76Z"/></g></g></g></svg>