<svg xmlns="http://www.w3.org/2000/svg" viewBox="0 0 632.67 577.95"><defs><style>.cls-1{fill:#fff;}.cls-2,.cls-3,.cls-7,.cls-8{fill:none;}.cls-2,.cls-3,.cls-4,.cls-5,.cls-6,.cls-7,.cls-8{stroke:#fff;}.cls-2,.cls-3,.cls-4,.cls-5,.cls-7,.cls-8{stroke-miterlimit:10;}.cls-2{stroke-width:8px;}.cls-3{stroke-width:10px;}.cls-4,.cls-5,.cls-6{fill:#fafdfd;}.cls-4,.cls-6,.cls-8{stroke-linecap:square;}.cls-4{stroke-width:25px;}.cls-5{stroke-width:16px;}.cls-6{stroke-linejoin:round;stroke-width:12px;}.cls-7{stroke-linecap:round;}.cls-7,.cls-8{stroke-width:4px;}</style></defs><g id="Layer_2" data-name="Layer 2"><g id="Layer_37" data-name="Layer 37"><path class="cls-1" d="M450.6,120.07c2.71-7.78,65-31.08,65-31.08,7.3-2-56.68,14.72-66.44,27.56-1.65-10.85,14.51-23.74,30.19-29.37,16.84-6.05,46.09-2,46.09-2h0s-16.17,24.06-31.93,32.54S455.82,131.13,450.6,120.07Z"/><path class="cls-1" d="M365.14,92.66c-2.82,8.61,37.24,64.72,37.24,64.72,5.15,5.92-40.85-45.17-40.93-62.33-8.76,9-3,29.76,7.19,43.61,11,14.88,39.79,27.42,39.79,27.42h0s1.76-31-6.61-47.46S377.23,85.45,365.14,92.66Z"/><path class="cls-1" d="M442.21,106c-7.54-4.26-14.39-69-14.39-69-1-8.44-.8,57.49,10.29,69.72-11.9-.62-20.49-19.28-23.37-35.69-3.12-17.79,9.67-45.64,9.67-45.64h0s21.32,20.82,26.26,38S455.25,103.18,442.21,106Z"/><path class="cls-1" d="M298.84,72.68c8.72,1,54.47-47.58,54.47-47.58,4.66-6-35.21,47.32-51.5,50.63C312,82.36,330.65,73,341.89,60.68c12.07-13.22,18.55-43,18.55-43h0s-29.75,4.17-43.85,15.23S289.71,62.54,298.84,72.68Z"/><path class="cls-1" d="M280.48,80.75c-7-4.39-15.6-70.3-15.6-70.3-.35-7.58,1.54,58.53,11.84,70.94-10.94-.85-19.85-19.5-21.8-36C252.84,27.57,263.39,0,263.39,0h0s19.78,21.18,24.48,38.45S292.44,78.17,280.48,80.75Z"/><path class="cls-1" d="M278.27,92.16c1.22,8.15-43,57.75-43,57.75-5.51,5.21,43.31-39.41,46-55.32,6.5,8.84,4.24,24.16-7,36.44-12.09,13.19-45.89,26.83-45.89,26.83h0s3.11-28.82,13.11-43.66S268.5,84.8,278.27,92.16Z"/><path class="cls-1" d="M172.05,134.85c-6.57-5-9.49-71.39-9.49-71.39.32-7.58-3.51,58.45,5.69,71.7-10.83-1.79-18.1-21.14-18.61-37.79C149.09,79.48,162,52.92,162,52.92h0s17.89,22.81,21.08,40.42S184.18,133.3,172.05,134.85Z"/><path class="cls-1" d="M119.57,207.66c7.32,5.34,73.06-15.42,73.06-15.42,7.22-3.07-55.58,24.89-71.93,19.66,5.86,11.12,27.38,12.07,43.7,6.65,17.54-5.84,38.37-29.38,38.37-29.38h0s-28.9-11.24-47.18-8.38S116.45,193.93,119.57,207.66Z"/><path class="cls-1" d="M156.09,138.49C149.7,144.35,86,130.85,86,130.85c-8.35-1.62,54.43,18.53,69.49,11.76-4.27,11.12-24.67,13.53-41.16,11.2-17.89-2.53-40.43-23.3-40.43-23.3h0s26.4-13.85,44.3-13.22S157.42,125.21,156.09,138.49Z"/><path class="cls-1" d="M80.08,264.54c3.69-8-28.42-66.51-28.42-66.51-4.27-6.29,34.12,48.11,32.23,64.62C93.35,255,90.2,234.38,82,219.89,73.13,204.32,46.83,189,46.83,189h0s-5.23,29.58.94,46.4S67.62,270.09,80.08,264.54Z"/><path class="cls-1" d="M0,275.8s26.26-12.28,44.14-11.41,39.18,7.94,37.94,20.1c-6.33,5.27-71.69-6.88-71.69-6.88-7.31-2,56.15,16.62,71.14,10.66-4.19,10.14-24.68,12.85-41,9.59C23,294.35,0,275.8,0,275.8"/><path class="cls-1" d="M92.25,290.13c8.13,1.35,41.62,58.77,41.62,58.77,3.25,6.85-24.1-53.37-38.4-60.83,10.41-3.45,24.29,3.44,32.49,17.94,8.81,15.58,11.33,51.94,11.33,51.94h0s-26.45-11.86-37.47-26S82.23,297.14,92.25,290.13Z"/><path class="cls-1" d="M100,404.34c-6.76,4.7-70.82-13-70.82-13-7.11-2.64,54.5,21.4,70,16.75-5.05,9.74-25.7,10.68-41.69,6C40.27,409.06,19,388.59,19,388.59h0s27.22-10,45-7.55S102.3,392.32,100,404.34Z"/><path class="cls-1" d="M550.73,380.43c8.24.17,49.64,52.18,49.64,52.18,4.2,6.31-31.51-49.35-46.75-54.67,9.82-4.92,27.07,6.46,37.27,19.63,11,14.15,16.14,43.22,16.14,43.22h0s-27.87-7.94-40.81-20.31S541.83,388.81,550.73,380.43Z"/><path class="cls-1" d="M550.4,290.67c-9.07,0-50,55.43-50,55.43-4,6.72,30.33-52.82,46.63-58.19-11.27-5.55-29.24,6.32-39.25,20.31C497,323.25,494,354.54,494,354.54h0s30-7.9,43.09-21S561,300,550.4,290.67Z"/><path class="cls-1" d="M561.51,368.1c1.72-8.49,61.17-35,61.17-35,7.71-3.6-54.92,17-63.13,31.33-3.08-11.52,12-25.45,26.72-33.26,16-8.47,46.4-4.91,46.4-4.91h0S619.45,353,604.6,363,568.24,379.62,561.51,368.1Z"/><path class="cls-1" d="M548.91,221.45c1.69,8.61,62.09,37.1,62.09,37.1,7.15,2.58-55.89-18.87-64.07-33.34-3.15,11.76,11.52,26.59,26.69,33.47,16.31,7.39,46.6,4.36,46.6,4.36h0s-13.15-27-28-37S555.73,209.63,548.91,221.45Z"/><path class="cls-1" d="M535.56,206.48c2-8,62-36.57,62-36.57,7.1-2.66-55.19,19.56-63.81,33.19-2.58-10.66,12.41-24.91,27.54-31.87,16.26-7.47,45.75-6,45.75-6h0s-14,25.36-29,35.17S541.71,217.05,535.56,206.48Z"/><path class="cls-1" d="M524,207.9c-7.37,3.68-68.21-23.08-68.21-23.08-6.66-3.63,50.86,29,66.82,26.63C516.23,220.37,501,223,485.8,216c-16.29-7.43-39.7-35.36-39.7-35.36h0s28.37-6,45.57-1S528,196.34,524,207.9Z"/><path class="cls-1" d="M547.69,171.83a32.78,32.78,0,0,0,3.35-5.36.47.47,0,0,0-.38-.68l-13.2-.85,14.33-.94a.67.67,0,0,0,.58-.4,39.41,39.41,0,0,0,1.45-4.08.52.52,0,0,0-.54-.65l-30,2.45a.22.22,0,0,1,0-.43L554.31,156a.48.48,0,0,0,.41-.39c.07-.41.14-.82.2-1.24a.54.54,0,0,0-.58-.61l-11,1.16a.14.14,0,0,1,0-.28l11.5-3a.61.61,0,0,0,.45-.54c0-.6.06-1.21.08-1.81a.49.49,0,0,0-.59-.48L522,156.73a.21.21,0,0,1-.12-.4l32.72-11.12a.85.85,0,0,0,.58-.89c0-.37-.09-.75-.14-1.12a.67.67,0,0,0-.85-.54l-16.89,5.2a.22.22,0,0,1-.17-.4l16.78-8.73a.33.33,0,0,0,.17-.39c-.1-.4-.22-.8-.34-1.2l-30.62,15.1a.18.18,0,0,1-.17-.31l29.85-16.74a.33.33,0,0,0,.16-.4c-.29-.78-.59-1.55-.92-2.32a.43.43,0,0,0-.59-.22L528,143.76c-.09.05-.16-.09-.08-.15L550,128.85a.2.2,0,0,0,.06-.26c-.29-.51-.58-1-.91-1.52h0L544,129.9a.32.32,0,0,1-.37-.52l4.18-3.81a.24.24,0,0,0,0-.33l-.72-.94a.26.26,0,0,0-.36,0l-22.17,16.92a.08.08,0,0,1-.1-.12l20.29-18.71a.5.5,0,0,0,0-.7q-.8-.84-1.62-1.62a.52.52,0,0,0-.69,0L517.8,141.87a.19.19,0,0,1-.27-.28l23.72-23.31-.63-.73L525.45,129a.22.22,0,0,1-.29-.32l12.16-13.23c-.29-.18-.57-.38-.87-.56a.32.32,0,0,0-.39,0l-22.57,21.51a.18.18,0,0,1-.26-.25l19.42-22.32a.72.72,0,0,0-.24-1.13c-.68-.3-1.37-.59-2.06-.85a1,1,0,0,0-1.09.28l-8.42,9.8a.09.09,0,0,1-.16-.1l6.86-10.77a.17.17,0,0,0-.09-.24c-.82-.25-1.65-.47-2.47-.66a.22.22,0,0,0-.23.08l-15,20.18c-.14.17-.4,0-.28-.16l13-20.2a.29.29,0,0,0-.19-.44,38.57,38.57,0,0,0-5.42-.49H516L508.64,122a15.56,15.56,0,0,0-.76,1.53l-7,16.37a.11.11,0,0,1-.2-.08l5.44-17.45a13.13,13.13,0,0,1,.8-2l5.42-10.68a.25.25,0,0,0-.25-.35,29.19,29.19,0,0,0-3.45.54,3.37,3.37,0,0,0-2.33,1.92c-2.34,5.31-10.78,20.27-9.71,35.74a24.5,24.5,0,0,0,12,18.94c13.5,7.62,30.64,6.44,36.44,6.61A3.36,3.36,0,0,0,547.69,171.83Z"/><path class="cls-1" d="M284.79,122.69a32.88,32.88,0,0,0,2.32,5.89.47.47,0,0,0,.77.09l8.53-10.11-7.77,12.09a.68.68,0,0,0,0,.7,38.93,38.93,0,0,0,2.42,3.59.51.51,0,0,0,.84-.05l15.87-25.61a.22.22,0,0,1,.38.22l-14.59,27.9a.48.48,0,0,0,.07.56l.87.9a.55.55,0,0,0,.85-.11l5.58-9.5a.14.14,0,0,1,.25.12l-4.46,11a.6.6,0,0,0,.17.68q.69.58,1.41,1.14A.47.47,0,0,0,299,142l13.2-31a.21.21,0,0,1,.39.14l-10.5,32.93a.85.85,0,0,0,.37,1l1,.55a.67.67,0,0,0,1-.36l5.84-16.67a.22.22,0,0,1,.43.1l-2.95,18.68a.34.34,0,0,0,.21.38l1.17.43,6.05-33.6a.18.18,0,0,1,.35,0l-4.28,34a.34.34,0,0,0,.24.36c.79.23,1.59.45,2.4.64a.44.44,0,0,0,.53-.35c.56-3,3.77-20.78,4.66-25.68a.09.09,0,0,1,.17,0L318,150.09a.18.18,0,0,0,.16.2c.59.07,1.18.15,1.76.18l0,0,.74-5.78a.32.32,0,0,1,.64,0l.58,5.63a.25.25,0,0,0,.24.22c.4,0,.8,0,1.19,0a.26.26,0,0,0,.25-.26l-.43-27.89a.07.07,0,1,1,.14,0l3,27.43a.5.5,0,0,0,.55.44c.76-.09,1.51-.2,2.26-.34a.51.51,0,0,0,.42-.55l-2.89-32.87a.2.2,0,0,1,.39,0l4.65,32.92,1-.07-.2-19a.22.22,0,0,1,.44,0l3.41,17.64,1-.36a.33.33,0,0,0,.2-.35l-3.89-30.93a.18.18,0,0,1,.36-.06L340.35,145a.72.72,0,0,0,1,.48c.65-.36,1.28-.75,1.91-1.14a1,1,0,0,0,.42-1l-2.89-12.6a.1.1,0,0,1,.19-.06l4.58,11.91a.16.16,0,0,0,.24.07c.7-.51,1.36-1.05,2-1.6a.21.21,0,0,0,.07-.22l-7.31-24.06c-.07-.21.21-.34.29-.13l8.52,22.46a.28.28,0,0,0,.46.1,38.25,38.25,0,0,0,3.62-4.06l.52-.71-6-13.53a14.52,14.52,0,0,0-.78-1.52l-9-15.39a.11.11,0,0,1,.18-.12l10.8,14.75a11.7,11.7,0,0,1,1.12,1.82l5.38,10.7a.24.24,0,0,0,.43,0,29,29,0,0,0,1.61-3.09,3.36,3.36,0,0,0-.16-3c-2.88-5-9.9-20.72-23-29a24.54,24.54,0,0,0-22.35-1.64c-14.15,6.34-23.38,20.82-27,25.38A3.34,3.34,0,0,0,284.79,122.69Z"/><path class="cls-1" d="M413,54l-6.86,7.18,7.34-9.89c.21-1,.45-2,.74-3-.41-1-.85-1.92-1.35-2.86a.45.45,0,0,0-.77,0l-17.24,24c-.16.23-.45,0-.31-.25l16.36-26.35a.52.52,0,0,0,0-.56c-.22-.33-.44-.66-.68-1a.45.45,0,0,0-.76,0l-6.13,8.92c-.09.14-.28,0-.21-.15l5.29-10.51a.64.64,0,0,0-.07-.69c-.36-.43-.74-.85-1.13-1.27a.42.42,0,0,0-.68.13L391,67.21c-.12.24-.43.07-.33-.17L404,35.32a.89.89,0,0,0-.22-1l-.81-.64a.59.59,0,0,0-.89.28l-7.2,16a.2.2,0,0,1-.37-.15l4.84-18.26a.36.36,0,0,0-.15-.4l-1-.53L388.81,63.4a.16.16,0,1,1-.3-.08L396.32,30a.32.32,0,0,0-.17-.38c-.68-.31-1.37-.6-2.08-.86a.4.4,0,0,0-.52.29c-.85,3-5.82,20.28-7.19,25.07a.07.07,0,1,1-.14,0l4.22-26.23a.18.18,0,0,0-.13-.21c-.51-.13-1-.26-1.55-.34l0,0L387.38,33a.29.29,0,0,1-.57-.07l.14-5.64a.23.23,0,0,0-.19-.24L385.69,27a.26.26,0,0,0-.26.24l-2.88,27.72a.07.07,0,1,1-.13,0L383,27.41a.47.47,0,0,0-.45-.49c-.69,0-1.38.07-2.06.13a.52.52,0,0,0-.44.51l-1.27,32.89a.18.18,0,1,1-.35,0l-.31-33.11h-.88l-2.05,18.87a.2.2,0,1,1-.4,0l-1-17.82c-.3.09-.61.17-.91.27a.34.34,0,0,0-.22.32L372.48,60a.17.17,0,1,1-.33,0l-2.36-29.26a.64.64,0,0,0-.89-.57c-.63.3-1.24.62-1.85,1a1,1,0,0,0-.5,1L367.66,45a.09.09,0,0,1-.17.05l-2.72-12.25a.13.13,0,0,0-.2-.09c-.68.44-1.35.91-2,1.4a.23.23,0,0,0-.09.22l3.74,24.55c0,.22-.23.31-.27.1l-5-23.07a.24.24,0,0,0-.4-.15,37.14,37.14,0,0,0-3.72,3.7c-.2.22-.37.43-.55.65l3.76,14c.15.53.32,1.06.52,1.57l6.26,16.11c0,.12-.12.22-.18.1l-8-15.63a14.07,14.07,0,0,1-.79-1.92l-3.56-11.12a.22.22,0,0,0-.39,0,29.69,29.69,0,0,0-1.81,2.92,3.71,3.71,0,0,0-.21,3c2,5.27,6.45,21.47,17.21,31A20.15,20.15,0,0,0,389,83.7c10.34-3.84,18-12.28,23-18.09C411.73,62.67,412.33,58.31,413,54Z"/><path class="cls-1" d="M446.94,170.07l-.7,7.92c.68-.13,1.81-.34,3.27-.59l3.27-20.22c0-.22.34-.21.32,0l-1.85,19.91c1.72-.27,3.75-.56,6-.84l.48-12a16.6,16.6,0,0,0,0-1.73l-1.32-18.09a.11.11,0,0,1,.21,0l3.28,18.3a13.29,13.29,0,0,1,.21,2.17l.11,11,2.67-.26.59-.47a3.42,3.42,0,0,0,1.2-2.82c-.38-5.89.22-23.36-8-36.82A24.9,24.9,0,0,0,437,124.07c-10.63-.37-20.85,3.65-28,7.09.58,2,1.4,5,2.07,8.14l.57-.25-.55.33c.36,1.73.67,3.5.88,5.18l14.19-8.92a.22.22,0,0,1,.25.37L412.1,146.49c.13,2,.18,4.67.17,7.55l17.15-14.85a.21.21,0,0,1,.29.31l-17.47,18.24c0,1.41-.05,2.8-.08,4.13l7.61-7.5a.22.22,0,0,1,.33.29L412,166.15c0,1.15-.07,2.14-.1,2.91l18.57-25.29a.18.18,0,0,1,.3.2l-19.1,29.12a.33.33,0,0,0,.06.43c.61.57,1.25,1.12,1.91,1.66a.44.44,0,0,0,.64-.08l15.74-21.38c.06-.09.19,0,.14.1l-13,23.69a.19.19,0,0,0,.06.25c.5.33,1,.67,1.53,1h0l3.27-4.94a.32.32,0,0,1,.57.29l-2,5.4a.24.24,0,0,0,.12.31l1.1.51a.26.26,0,0,0,.34-.13l12.08-25.67a.07.07,0,0,1,.14.05l-9.54,26.41a.51.51,0,0,0,.31.65c.74.26,1.48.49,2.21.7a.51.51,0,0,0,.63-.31l12.07-31.33a.2.2,0,0,1,.37.14l-10.47,32.16.91.36,8.32-17.44a.22.22,0,0,1,.42.15l-4.78,17.65,1.05.1a.34.34,0,0,0,.34-.22l10.29-30a.18.18,0,0,1,.35.1l-7.06,29.26a.72.72,0,0,0,.74.9c.76,0,1.51-.11,2.26-.19a1,1,0,0,0,.86-.77l3-12.79A.1.1,0,0,1,446.94,170.07Z"/><path class="cls-1" d="M251.21,58.55a32.67,32.67,0,0,0-4.06-4.85.47.47,0,0,0-.76.16l-4.9,12.29L245,52.23a.63.63,0,0,0-.21-.67,38.82,38.82,0,0,0-3.42-2.64.52.52,0,0,0-.79.31l-6.94,29.32a.22.22,0,0,1-.43-.09l5-31.09a.48.48,0,0,0-.24-.51c-.37-.19-.74-.39-1.12-.57a.53.53,0,0,0-.76.37l-2.29,10.78a.14.14,0,0,1-.27,0l.74-11.85a.63.63,0,0,0-.37-.6q-.84-.33-1.71-.63a.48.48,0,0,0-.63.41L228.9,78.34a.21.21,0,0,1-.41,0L228,43.77a.86.86,0,0,0-.67-.82l-1.11-.21a.66.66,0,0,0-.77.64l-.27,17.67a.22.22,0,0,1-.44,0l-3.11-18.65a.35.35,0,0,0-.32-.29l-1.25,0L225,75.89a.18.18,0,0,1-.35.06l-6.7-33.56a.32.32,0,0,0-.33-.27c-.82,0-1.65.08-2.49.16a.42.42,0,0,0-.39.49c.44,3.06,3,20.91,3.71,25.84a.08.08,0,0,1-.16,0l-7.22-25.57a.2.2,0,0,0-.23-.13,16.49,16.49,0,0,0-1.72.39l0,0,1.13,5.71a.32.32,0,0,1-.61.19l-2.33-5.16A.23.23,0,0,0,207,44c-.38.12-.75.26-1.12.4a.24.24,0,0,0-.15.32L214.92,71a.07.07,0,1,1-.13,0L203.26,46a.51.51,0,0,0-.66-.24c-.69.33-1.37.68-2,1a.52.52,0,0,0-.22.65l13.14,30.27a.19.19,0,0,1-.35.16L198.29,48.13l-.89.37,6.2,18a.22.22,0,0,1-.4.18L194.38,51c-.27.22-.54.43-.8.66a.32.32,0,0,0-.09.39L207,80.14a.18.18,0,0,1-.32.17L191.43,54.94a.72.72,0,0,0-1.15-.12c-.5.55-1,1.12-1.44,1.69a1,1,0,0,0-.08,1.13l6.73,11a.1.1,0,0,1-.15.12l-8.13-9.85a.15.15,0,0,0-.24,0c-.5.71-1,1.43-1.4,2.15a.21.21,0,0,0,0,.24l14.55,20.51c.12.18-.1.38-.24.21L184.7,63.45a.29.29,0,0,0-.47,0,36.92,36.92,0,0,0-2.15,5c-.1.29-.18.56-.27.83l9.94,11A15.21,15.21,0,0,0,193,81.48l13.39,11.76c.11.09,0,.24-.13.17L191.31,82.84a13.46,13.46,0,0,1-1.64-1.38L181.19,73a.25.25,0,0,0-.41.13,27.19,27.19,0,0,0-.55,3.45,3.33,3.33,0,0,0,1.1,2.8c4.33,3.87,15.95,16.51,31,20.28A24.48,24.48,0,0,0,234,94.15C245.45,83.66,249.62,67,251.58,61.54A3.37,3.37,0,0,0,251.21,58.55Z"/><path class="cls-1" d="M123.24,293.4a33.34,33.34,0,0,0,6.31-.39.47.47,0,0,0,.33-.7l-7-11.24L132,292.19a.7.7,0,0,0,.67.23,39,39,0,0,0,4.15-1.19.52.52,0,0,0,.23-.82l-19.46-23a.22.22,0,0,1,.32-.3l22,22.5a.49.49,0,0,0,.55.11l1.12-.56a.53.53,0,0,0,.16-.83l-7.31-8.25a.14.14,0,0,1,.19-.2l9.1,7.64a.59.59,0,0,0,.69.06c.52-.32,1-.65,1.53-1a.49.49,0,0,0,0-.76l-25.44-22.14a.21.21,0,0,1,.26-.32l28.07,20.15a.84.84,0,0,0,1.06,0c.28-.24.56-.5.83-.76a.65.65,0,0,0-.06-1l-14-10.72a.22.22,0,0,1,.24-.37l16.85,8.58a.34.34,0,0,0,.42-.09c.26-.32.52-.65.77-1L124.88,262a.17.17,0,0,1,.16-.31l31,14.56a.33.33,0,0,0,.41-.11c.47-.68.92-1.37,1.36-2.09a.43.43,0,0,0-.17-.61l-23-12.37a.08.08,0,0,1,.07-.15l24.85,9.38a.18.18,0,0,0,.24-.1c.26-.53.51-1.07.72-1.62l0,0L155.23,266a.32.32,0,0,1,.2-.6l5.53,1.19a.26.26,0,0,0,.29-.17c.12-.38.23-.76.34-1.14a.25.25,0,0,0-.17-.31l-26.66-8.21a.07.07,0,0,1,0-.14l27,5.63a.51.51,0,0,0,.59-.39c.15-.75.27-1.51.37-2.25a.51.51,0,0,0-.39-.57l-32.15-7.42a.19.19,0,0,1,.07-.38L163.06,257l.23-.94-18.12-5.69a.22.22,0,0,1,.09-.42l17.83,2.21c0-.35,0-.69,0-1a.33.33,0,0,0-.27-.3L132.16,245a.18.18,0,0,1,.05-.36l29.45,2.83a.72.72,0,0,0,.78-.85c-.14-.73-.31-1.45-.5-2.17a1,1,0,0,0-.86-.73l-12.87-1.14a.1.1,0,0,1,0-.2l12.75-.68a.16.16,0,0,0,.14-.2q-.42-1.23-.9-2.4A.21.21,0,0,0,160,239l-25.14-.48c-.23,0-.26-.31,0-.32l24-1.16a.29.29,0,0,0,.24-.41,38.69,38.69,0,0,0-2.75-4.69l-.51-.72-14.71,1.49a16.06,16.06,0,0,0-1.69.27L122,236.72a.11.11,0,0,1-.06-.21l17.36-5.72a12.47,12.47,0,0,1,2.09-.5l11.83-1.8a.25.25,0,0,0,.15-.41,29.32,29.32,0,0,0-2.45-2.49,3.33,3.33,0,0,0-2.91-.78c-5.68,1.18-22.76,3-34.72,12.87a24.48,24.48,0,0,0-8.47,20.75c1.65,15.41,12.57,28.67,15.81,33.49A3.37,3.37,0,0,0,123.24,293.4Z"/><path class="cls-1" d="M97.48,150.25l4.71,8.75-7.13-10c-.88-.51-1.76-1.05-2.63-1.64-1.05.1-2.1.22-3.15.41a.44.44,0,0,0-.26.71l17.46,23.8c.16.22-.16.43-.34.22l-20-23.7a.5.5,0,0,0-.53-.17c-.38.1-.76.22-1.14.34a.46.46,0,0,0-.2.74l6.58,8.58c.11.13-.08.27-.2.15l-8.37-8.28a.62.62,0,0,0-.67-.14c-.53.21-1,.44-1.56.68a.43.43,0,0,0-.09.69l23.36,23.86c.18.18-.08.43-.28.26L77,153a.86.86,0,0,0-1-.1c-.29.18-.58.37-.86.57a.59.59,0,0,0,0,.93l13,11.8a.2.2,0,1,1-.25.3L71.94,156.3a.34.34,0,0,0-.42,0c-.28.25-.55.52-.82.78l28.29,19a.16.16,0,1,1-.17.27L69.55,158.68a.34.34,0,0,0-.41,0c-.5.56-1,1.13-1.46,1.72a.4.4,0,0,0,.12.58l21.61,14.59c.09,0,0,.17-.08.12L65.7,163.61a.19.19,0,0,0-.25.06c-.28.45-.56.9-.8,1.37l0,0,5,3a.29.29,0,0,1-.24.52l-5.32-1.87a.22.22,0,0,0-.29.11c-.14.33-.28.66-.41,1a.25.25,0,0,0,.15.31L89,179.48a.07.07,0,1,1,0,.12l-26-9a.45.45,0,0,0-.6.27c-.19.67-.36,1.34-.51,2a.51.51,0,0,0,.34.58l30.89,11.37c.24.09.14.41-.1.33l-31.58-9.93-.29.83,17.32,7.79a.19.19,0,1,1-.12.37L61,179.65c0,.31,0,.63,0,.95a.32.32,0,0,0,.24.31l29.49,9.73a.16.16,0,1,1-.07.32l-28.56-6.79a.63.63,0,0,0-.82.66c.1.69.21,1.38.34,2a1,1,0,0,0,.8.79l12.49,2.89a.09.09,0,1,1,0,.18l-12.49-1.2a.14.14,0,0,0-.15.17c.22.78.46,1.56.72,2.32a.22.22,0,0,0,.18.15l24.51,4c.21,0,.22.32,0,.3l-23.5-2.37a.24.24,0,0,0-.26.34,37.3,37.3,0,0,0,2.37,4.68c.15.26.3.49.45.73l14.46.74a13.12,13.12,0,0,0,1.66,0l17.25-1c.14,0,.17.18.05.2L82.85,202.6a14.32,14.32,0,0,1-2.07.16l-11.68,0a.21.21,0,0,0-.16.35,28.92,28.92,0,0,0,2.22,2.63A3.7,3.7,0,0,0,74,206.82c5.62-.27,22.42.49,34.75-6.81a20.09,20.09,0,0,0,9.64-17.74c-.45-11-6.12-20.9-10.1-27.44C105.38,154.12,101.42,152.2,97.48,150.25Z"/><path class="cls-1" d="M218.4,153.82l7.32,3.11c.08-.68.23-1.82.45-3.29L208,144.29c-.2-.11-.09-.4.11-.31l18.38,7.92c.27-1.72.62-3.74,1.05-6l-11.25-4.16a15.2,15.2,0,0,0-1.66-.51L197,136.93a.11.11,0,0,1,0-.21l18.42,2.53a12.65,12.65,0,0,1,2.13.48l10.51,3.3c.18-.86.37-1.74.58-2.63-.1-.25-.19-.49-.28-.7a3.38,3.38,0,0,0-2.31-2c-5.72-1.46-22.14-7.43-37.48-3.77a24.9,24.9,0,0,0-17,15.16c-3.63,10-3,21-1.92,28.85,2.07.06,5.17.2,8.38.55l-.07-.62.15.63c1.76.19,3.54.43,5.2.76L179.23,163a.22.22,0,0,1,.42-.13l5.56,16.8c1.92.48,4.49,1.27,7.23,2.17l-8.82-20.9a.21.21,0,0,1,.38-.18L196,183l3.91,1.35-4.78-9.55a.22.22,0,0,1,.37-.24l8.44,11.23c1.08.38,2,.72,2.74,1l-18.32-25.48a.18.18,0,0,1,.29-.22l21.79,27.16a.34.34,0,0,0,.43.08c.72-.41,1.45-.84,2.16-1.3a.45.45,0,0,0,.13-.64l-15.47-21.58a.08.08,0,0,1,.13-.1l18.51,19.69a.21.21,0,0,0,.27,0c.47-.38.94-.75,1.37-1.17v0l-3.7-4.63a.33.33,0,0,1,.46-.46l4.52,3.56a.25.25,0,0,0,.33,0c.28-.3.56-.59.83-.89a.26.26,0,0,0,0-.36L199.67,161c-.07-.06,0-.17.1-.11l22.17,17.23a.51.51,0,0,0,.71-.09q.71-.95,1.35-1.89a.53.53,0,0,0-.11-.7l-26.06-21.16a.2.2,0,0,1,.24-.31l27.35,19.9.63-.75L212,159.8a.23.23,0,0,1,.28-.35l15.31,10c.13-.32.28-.64.42-1a.34.34,0,0,0-.11-.39L202.58,149a.18.18,0,0,1,.2-.3l25.64,15.76a.74.74,0,0,0,1.1-.43c.19-.74.36-1.47.51-2.21a1,1,0,0,0-.46-1.05L218.32,154A.1.1,0,0,1,218.4,153.82Z"/><path class="cls-1" d="M51.86,305.51A32.87,32.87,0,0,0,46,307.88a.46.46,0,0,0-.08.77l10.17,8.45-12.14-7.67a.7.7,0,0,0-.71,0,36.33,36.33,0,0,0-3.56,2.45.51.51,0,0,0,0,.84l25.73,15.67a.22.22,0,0,1-.21.38l-28-14.37a.47.47,0,0,0-.56.08c-.3.28-.6.58-.89.88a.54.54,0,0,0,.11.84l9.55,5.5a.14.14,0,0,1-.12.26l-11.05-4.37a.57.57,0,0,0-.67.17c-.39.46-.77.93-1.13,1.42a.48.48,0,0,0,.19.73l31.14,13a.21.21,0,0,1-.14.39L30.64,323a.86.86,0,0,0-1,.39c-.18.32-.37.65-.54,1a.66.66,0,0,0,.37.94L46.2,331a.22.22,0,0,1-.11.43l-18.69-2.8a.34.34,0,0,0-.38.21c-.15.39-.28.78-.42,1.18l33.64,5.78a.18.18,0,0,1-.05.35l-34-4a.32.32,0,0,0-.36.24c-.23.79-.44,1.59-.62,2.41a.43.43,0,0,0,.34.53l25.72,4.45a.09.09,0,0,1,0,.17l-26.54-1a.19.19,0,0,0-.2.17,17.17,17.17,0,0,0-.16,1.76l0,0,5.77.7a.32.32,0,0,1,0,.64l-5.62.62a.24.24,0,0,0-.22.25c0,.39,0,.79,0,1.18a.26.26,0,0,0,.26.25l27.88-.65a.07.07,0,1,1,0,.14l-27.41,3.22a.49.49,0,0,0-.43.55c.09.76.21,1.51.35,2.26a.51.51,0,0,0,.56.41l32.84-3.14a.19.19,0,0,1,0,.38l-32.89,4.92.08,1,19-.34a.22.22,0,0,1,0,.43L27.1,357.22c.13.32.24.65.37,1a.34.34,0,0,0,.35.2l30.9-4.14a.18.18,0,0,1,.06.36L30,361.25a.72.72,0,0,0-.47,1.05c.37.65.76,1.28,1.16,1.9a1,1,0,0,0,1.05.42l12.57-3a.1.1,0,0,1,.07.18L32.46,366.5a.15.15,0,0,0-.07.24c.52.68,1,1.35,1.61,2a.2.2,0,0,0,.23.06l24-7.5c.21-.06.33.21.13.29L36,370.28a.29.29,0,0,0-.1.47A38.12,38.12,0,0,0,40,374.33l.71.52,13.49-6.08a14.37,14.37,0,0,0,1.51-.78L71,358.88a.11.11,0,0,1,.12.18L56.45,370a12.63,12.63,0,0,1-1.82,1.14L44,376.57a.25.25,0,0,0,0,.44,27.78,27.78,0,0,0,3.11,1.58,3.31,3.31,0,0,0,3-.18c5-2.92,20.64-10.06,28.86-23.2a24.51,24.51,0,0,0,1.47-22.36c-6.45-14.1-21-23.21-25.6-26.76A3.36,3.36,0,0,0,51.86,305.51Z"/><path class="cls-1" d="M497.06,223.59a32.19,32.19,0,0,0-4.88,4,.46.46,0,0,0,.15.76l12.25,5-13.89-3.65a.69.69,0,0,0-.68.2,40.87,40.87,0,0,0-2.66,3.41.52.52,0,0,0,.3.79l29.27,7.18a.21.21,0,0,1-.09.42l-31.05-5.25a.49.49,0,0,0-.51.24c-.2.37-.4.74-.59,1.11a.55.55,0,0,0,.37.77L495.81,241a.14.14,0,0,1,0,.28l-11.85-.84a.6.6,0,0,0-.59.37c-.23.56-.45,1.12-.65,1.7a.47.47,0,0,0,.41.63l33.59,3a.21.21,0,0,1,0,.42l-34.56.19a.86.86,0,0,0-.83.66c-.08.37-.15.73-.22,1.1a.67.67,0,0,0,.64.79l17.66.41a.22.22,0,0,1,0,.43l-18.67,3a.34.34,0,0,0-.29.32c0,.41,0,.83-.05,1.24L514.19,250a.17.17,0,0,1,.06.34l-33.62,6.43a.34.34,0,0,0-.27.34c0,.82.07,1.64.14,2.48a.44.44,0,0,0,.49.4l25.86-3.51a.09.09,0,0,1,0,.17l-25.62,7a.19.19,0,0,0-.14.22c.12.58.22,1.16.38,1.72l0,0,5.72-1.08a.32.32,0,0,1,.19.61l-5.18,2.29a.25.25,0,0,0-.13.3l.39,1.12a.26.26,0,0,0,.33.15l26.39-9a.07.07,0,0,1,.05.14l-25.17,11.32a.5.5,0,0,0-.24.66c.32.7.66,1.38,1,2.05a.52.52,0,0,0,.66.22l30.37-12.89a.19.19,0,0,1,.16.35l-29.87,14.6.36.89,18-6.05a.22.22,0,0,1,.18.4L489,280.35c.22.27.43.55.65.81a.32.32,0,0,0,.39.09L518.29,268a.18.18,0,0,1,.17.32l-25.49,15a.73.73,0,0,0-.13,1.15c.55.51,1.11,1,1.68,1.46a1,1,0,0,0,1.13.08l11.08-6.64a.1.1,0,0,1,.12.16l-9.91,8a.16.16,0,0,0,0,.25c.7.5,1.41,1,2.14,1.42a.21.21,0,0,0,.23,0L520,274.85c.18-.12.38.1.21.24l-18.73,15a.29.29,0,0,0,.05.48,37.61,37.61,0,0,0,5,2.18l.83.28,11-9.86a15.1,15.1,0,0,0,1.2-1.2l11.87-13.3c.09-.11.24,0,.17.13l-10.69,14.84a12.64,12.64,0,0,1-1.39,1.62L511,293.72a.25.25,0,0,0,.12.41,28.56,28.56,0,0,0,3.45.58,3.34,3.34,0,0,0,2.81-1.08c3.9-4.3,16.64-15.81,20.53-30.82a24.48,24.48,0,0,0-5.35-21.76c-10.39-11.5-27-15.81-32.47-17.81A3.37,3.37,0,0,0,497.06,223.59Z"/><path class="cls-1" d="M602,324.26,593.08,320l11.68,3.93c1-.11,2-.19,3.08-.23.8-.69,1.57-1.41,2.31-2.17a.44.44,0,0,0-.2-.74l-28.12-9c-.26-.08-.12-.44.14-.37l30.13,7.41a.53.53,0,0,0,.53-.17l.72-.95a.46.46,0,0,0-.27-.72l-10.37-3.07c-.17,0-.1-.27.07-.24l11.64,1.78a.64.64,0,0,0,.63-.28c.3-.48.58-1,.85-1.47a.42.42,0,0,0-.32-.61l-32.92-5.57a.19.19,0,1,1,.06-.37L617,309.94a.87.87,0,0,0,.9-.52l.36-1a.59.59,0,0,0-.54-.76l-17.45-1.9a.2.2,0,1,1,0-.4l18.87-1a.36.36,0,0,0,.33-.26c.07-.37.13-.75.2-1.12l-34.08,1.22a.16.16,0,1,1,0-.31l34.1-2.86a.34.34,0,0,0,.31-.28c.08-.74.14-1.49.17-2.25a.41.41,0,0,0-.44-.4l-26.06.91c-.11,0-.11-.13,0-.15l26.25-4.09a.17.17,0,0,0,.16-.18c0-.53-.07-1.07-.16-1.59l0,0-5.8.47a.29.29,0,0,1-.12-.56l5.41-1.61a.24.24,0,0,0,.17-.26c-.08-.35-.16-.7-.25-1a.25.25,0,0,0-.31-.17l-27.25,5.82a.06.06,0,1,1,0-.12l26.33-8a.47.47,0,0,0,.33-.58c-.24-.65-.49-1.29-.76-1.92a.52.52,0,0,0-.62-.26l-31.68,9a.17.17,0,1,1-.11-.33l31.39-10.53-.26-.84-18.58,3.88a.2.2,0,0,1-.13-.38l16.65-6.45c-.18-.26-.35-.52-.54-.78a.33.33,0,0,0-.38-.11l-29.58,9.46a.16.16,0,1,1-.12-.3L610.71,276a.63.63,0,0,0,.27-1c-.48-.5-1-1-1.48-1.46a1.06,1.06,0,0,0-1.11-.17l-11.8,5c-.11.05-.2-.09-.1-.15l10.81-6.37a.14.14,0,0,0,0-.23c-.63-.51-1.28-1-1.94-1.45a.23.23,0,0,0-.24,0l-22.2,11.14c-.19.1-.36-.12-.18-.23l20.4-11.89a.25.25,0,0,0,0-.44,38,38,0,0,0-4.66-2.39c-.27-.12-.53-.22-.79-.32l-12.14,7.9a14.37,14.37,0,0,0-1.34,1l-13.39,10.93c-.1.08-.24-.05-.15-.14l12.41-12.41a12.84,12.84,0,0,1,1.58-1.34l9.47-6.83a.21.21,0,0,0-.07-.38,31.44,31.44,0,0,0-3.35-.82,3.65,3.65,0,0,0-2.91.73c-4.4,3.53-18.43,12.77-24.12,25.93a20.11,20.11,0,0,0,2.63,20c6.84,8.65,17.24,13.31,24.3,16.26C593.37,325.77,597.71,325,602,324.26Z"/><circle class="cls-1" cx="321.49" cy="319.14" r="0.08"/><path class="cls-1" d="M569.12,318.25c-1.48-1.9-2.85-3.77-3.81-5.28-3.31-5.28-5.26-10.55-5.62-13.58A24.61,24.61,0,0,1,561.44,288c.69-1.86,2.66-4.5,4.76-7a247.52,247.52,0,0,0-6-28c-1.73-1.41-3.42-2.85-4.85-4.13-5-4.5-8.23-10.27-10.22-14.46s-1.49-8.08.32-12a10.13,10.13,0,0,1,2.44-3.71c-.56-1.25-1.12-2.51-1.7-3.77a11.45,11.45,0,0,1-3.5-.45,23.4,23.4,0,0,1-7.77-4.62c-2.84-2.71-3.28-4.73-4.2-7.67s1.1-7.07,2-9.38a9,9,0,0,1,.86-1.56c-.71-1.18-1.42-2.36-2.16-3.54-2.82-4.51-5.78-8.88-8.83-13.14-5.19-1.44-10.73-3.28-13.06-5.09-4.68-3.64-12.48-8.13-14.56-15.29-.88-3-1-7.92-.77-12.64q-8.57-8.35-17.81-15.75c-2.29.59-4.77,1.11-7.37,1.52-8.29,1.28-12.93-.58-15.07-1.9-3.93-2.45-5.15-6.52-5.84-9.35-1-3.93.53-6.42,1.56-8.92l-2.48-1.47-.63.42a14.52,14.52,0,0,1-14.22.93c-3-1.28-6.06-3.39-10-9a44.47,44.47,0,0,1-3.59-6.62q-10.65-4.53-21.64-8c-2.25.81-4.44,1.53-6.16,2-6,1.52-11.66,1.74-14.65,1.15A24.66,24.66,0,0,1,366,81.33c-1.54-1.22-3.42-3.87-5.13-6.62a250.3,250.3,0,0,0-28.56-2.93c-1.85,1.19-3.72,2.34-5.37,3.3-5.82,3.38-12.3,4.65-16.91,5.25s-8.14-1.09-11.29-4A10,10,0,0,1,296,72.83c-1.36.14-2.73.29-4.09.45a11.53,11.53,0,0,1-1.52,3.21,23.33,23.33,0,0,1-6.8,6c-3.45,1.86-5.51,1.66-8.59,1.62s-6.38-3.23-8.3-4.79a9.08,9.08,0,0,1-1.27-1.36q-9.63,2.23-19.16,5.27c-3,4.52-6.47,9.27-8.92,10.93-4.91,3.33-11.6,9.36-19,9.13-3.11-.09-7.8-1.52-12.22-3.16q-8.06,4.26-15.92,9.17-2.32,1.45-4.6,3c-.16,2.33-.42,4.83-.84,7.4-1.34,8.29-4.54,12.12-6.46,13.74-3.54,3-7.79,2.9-10.69,2.68-4-.3-5.95-2.48-8-4.24-.73.63-1.44,1.28-2.17,1.92.08.23.14.47.2.71a20.28,20.28,0,0,1-.21,8.31,20.32,20.32,0,0,1-3.29,5.5c-2.15,2.46-5.1,4.72-11.69,6.68a45.67,45.67,0,0,1-7.47,1.37q-7.59,8.7-14.28,18c.08,2.42.09,4.77,0,6.56-.42,6.22-1.94,11.63-3.43,14.3a24.69,24.69,0,0,1-8.11,8.18c-1.64,1.09-4.77,2.07-7.92,2.84a247.22,247.22,0,0,0-11.57,26.27c.56,2.12,1.08,4.24,1.48,6.1,1.41,6.59.62,13.14-.23,17.71s-3.55,7.4-7.31,9.5a10,10,0,0,1-4.12,1.55q-.44,2-.84,4.08a11.18,11.18,0,0,1,2.53,2.4,23.4,23.4,0,0,1,3.58,8.31c.7,3.86-.13,5.75-1.11,8.67s-5,5.07-7.13,6.42a8.37,8.37,0,0,1-1.63.76q-.86,9.93-.92,19.91c3.36,4.23,6.78,9,7.6,11.83,1.65,5.7,5.32,13.92,2.79,20.94-1.05,2.93-3.88,7-6.81,10.69q2,11.65,5.16,23.19c2.19.87,4.51,1.9,6.85,3.11,7.47,3.83,10.12,8.06,11.07,10.39,1.75,4.29.34,8.3-.76,11-1.53,3.74-4.19,4.88-6.49,6.28.38.89.75,1.78,1.14,2.66l.74,0c.29,0,.59.06.89.11l21.63.77c-1.26-2.51-1.54-3.16-2.7-5.7-.85-.72-1.63-1.41-2.29-2a38.31,38.31,0,0,1-5.57-6.52c-2.78-3.95-5.7-9.17-5-14.7a44.1,44.1,0,0,1,1.52-7.38,225.35,225.35,0,0,1-8.86-54.74c-3.91-5.57-6.19-10.16-8-18.71-1.09-5-2.44-8.27-.18-16.63,1.12-4.12,4.41-6.61,7.94-7.78a27,27,0,0,1,2.92-.79q1.75-11.19,4.64-22.17c-.2-1.81-.33-3.37-.44-4.49a20.08,20.08,0,0,1,2.24-11.37A25.53,25.53,0,0,1,110,237a225.81,225.81,0,0,1,9.8-21.78,11.38,11.38,0,0,1-2.53-5.89s-.75-5.6.29-8.93,5.78-10.86,10.4-13.55a90.69,90.69,0,0,1,13.38-5.69,225.12,225.12,0,0,1,27-29.42c.41-1,.82-2,1.22-2.77a36.42,36.42,0,0,1,5.76-8.83c2.78-3.41,6.47-6.84,11.2-7.77a44.21,44.21,0,0,1,7.46-.84c2.36-1.6,4.75-3.18,7.19-4.71a227.4,227.4,0,0,1,42.1-20.68c4.09-5.44,7.75-9,15.31-13.42,4.46-2.6,7.12-4.88,15.76-5.31,4.27-.22,7.66,2.15,9.86,5.15a24.92,24.92,0,0,1,1.62,2.47,226.13,226.13,0,0,1,24.82-2.54l1.72-.74a20,20,0,0,1,11.51-1.38,26.51,26.51,0,0,1,8.28,2.13A226.39,226.39,0,0,1,358,95.24,11.3,11.3,0,0,1,362.82,91s5.09-2.45,8.58-2.49,12.11,2.14,16.1,5.71a90.27,90.27,0,0,1,9.6,11,226.31,226.31,0,0,1,36.28,16.49c1.09.08,2.1.17,3,.3A36.2,36.2,0,0,1,447,125c4,1.6,8.19,4,10.46,8.1a44.26,44.26,0,0,1,3.07,6.74,225.48,225.48,0,0,1,39.3,39.06c6.46,2.21,11,4.59,17.55,10.43,3.84,3.44,6.83,5.26,9.92,13.35,1.52,4,.32,7.94-1.85,11a27.89,27.89,0,0,1-1.89,2.36q5.22,10.22,9.34,20.73c1.2,1.32,2.19,2.48,2.93,3.3a20,20,0,0,1,4.87,10.52,25.67,25.67,0,0,1,.21,10.65,228.36,228.36,0,0,1,4.88,23.49,11.28,11.28,0,0,1,5.47,3.27s3.91,4.09,5,7.39,1.71,12.18-.45,17.08a90.71,90.71,0,0,1-7.52,12.52,227.62,227.62,0,0,1-4.51,39.52c.27,1.1.5,2.13.67,3a37.13,37.13,0,0,1,.6,9.76c-.17,4.61-1,10-4.54,13.76a44.51,44.51,0,0,1-5.64,5.14,229.11,229.11,0,0,1-11.82,27.12l22.69.81c2.94-6.18,5-11,7.37-17.44-1.25-2-2.51-4.15-3.68-6.48-3.79-7.49-3.45-12.48-2.85-14.92,1.11-4.5,4.6-6.92,7.08-8.45,3.42-2.11,6.24-1.49,8.91-1.27.22-.95.43-1.9.64-2.85-.18-.14-.37-.28-.54-.43A20.21,20.21,0,0,1,558,365.4a20.43,20.43,0,0,1-.58-6.39c.29-3.25,1.35-6.8,5.53-12.27a45.58,45.58,0,0,1,5.18-5.45Q569.15,329.81,569.12,318.25Z"/><path class="cls-1" d="M162.87,391.65,145,394.81a.22.22,0,0,1-.11-.43l18.23-6.68a.34.34,0,0,0,.23-.38q-.07-.61-.18-1.23l-33.15,11.37a.18.18,0,1,1-.12-.33L162.54,384a.34.34,0,0,0,.21-.38c-.18-.81-.37-1.62-.6-2.43a.44.44,0,0,0-.57-.29l-25.36,8.67c-.1,0-.16-.11-.06-.16l24.46-12.08a.2.2,0,0,0,.1-.25c-.22-.55-.44-1.1-.7-1.62l-.05,0-5.55,2.21a.32.32,0,0,1-.3-.56l4.78-3.3a.24.24,0,0,0,.07-.32c-.19-.35-.39-.69-.6-1a.26.26,0,0,0-.35-.08l-24.86,14.21a.07.07,0,1,1-.08-.12l23.2-16.24a.5.5,0,0,0,.13-.7c-.46-.62-.93-1.23-1.41-1.81a.52.52,0,0,0-.7-.09l-28.14,18.83a.19.19,0,1,1-.22-.31l27.32-20.42-.54-.81-17,9.6a.22.22,0,0,1-.25-.35l14.2-11.75-.8-.67a.35.35,0,0,0-.41,0L122.57,380.5a.18.18,0,0,1-.23-.28l18.1-15.81c-.27-.15-1.08-.65-3.22-2l-5.14,4.56a.1.1,0,0,1-.15-.13l4.32-5.06c-.77-.49-1.72-1.08-2.78-1.73l-13.84,14.05c-.16.16-.4,0-.26-.19l12.68-14.71c-1.59-1-3.35-2-5.09-3l-7.25,9.35a17.22,17.22,0,0,0-1,1.43l-9.46,15.51a.11.11,0,0,1-.19-.1l8-16.78a12.75,12.75,0,0,1,1.1-1.89l6.28-9-2.34-1.35-.71.06a3.5,3.5,0,0,0-2.63,1.63c-3.12,5-13.79,19-14.91,34.53a24,24,0,0,0,9.42,20.38c12.6,9.25,30.12,10.14,36,11a3.49,3.49,0,0,0,2.94-.95,33.66,33.66,0,0,0,4.16-4.94.47.47,0,0,0-.29-.73l-13.25-2.45,14.65.8a.68.68,0,0,0,.64-.33,42.39,42.39,0,0,0,2-3.9.51.51,0,0,0-.46-.72l-30.76-1.18a.22.22,0,0,1,0-.44l32.2-1.07a.52.52,0,0,0,.47-.35c.13-.4.26-.8.38-1.21a.53.53,0,0,0-.51-.68l-11.26-.17a.14.14,0,0,1,0-.28l12.07-1.57a.62.62,0,0,0,.53-.48c.12-.59.24-1.19.34-1.8a.47.47,0,0,0-.53-.54l-34.33,3.84a.21.21,0,0,1-.06-.41l34.71-7.15a.87.87,0,0,0,.71-.82c0-.38,0-.75,0-1.13A.67.67,0,0,0,162.87,391.65Z"/><path class="cls-1" d="M542.61,370.82c-2.76-11.1-10.36-20.33-15.71-26.15-2,1.21-4.37,2.68-7,4.22l1.65,2-2-1.81c-1.43.85-3.19,1.56-4.66,2.4l13.76,12.22a.22.22,0,0,1-.28.33l-15.33-11.7s-4.57,1.62-6.41,2.54l19.56,12.92a.2.2,0,0,1-.21.35L504.18,355.9c-1,.33-3.08,1-4,1.28l9.17,5.57a.22.22,0,0,1-.18.4L491.27,357a.35.35,0,0,0-.4.14c-.22.36-.43.72-.64,1.08l32,11.86a.18.18,0,0,1-.12.33L489.46,360.2a.33.33,0,0,0-.4.17q-.56,1.1-1.05,2.25a.43.43,0,0,0,.25.58l24.46,9.1a.08.08,0,0,1-.05.16l-25.91-5.88a.18.18,0,0,0-.22.13,17.21,17.21,0,0,0-.48,1.7l0,0,5.55,1.74a.32.32,0,0,1-.12.63l-5.64-.42a.24.24,0,0,0-.26.2c-.07.39-.13.78-.18,1.18a.25.25,0,0,0,.21.28l27.53,4.48a.08.08,0,0,1,0,.15l-27.54-1.88a.5.5,0,0,0-.52.47c0,.77-.07,1.53-.07,2.28a.51.51,0,0,0,.47.51L518.36,381a.19.19,0,0,1,0,.38l-33.23-1.2c-.06.6,0,.36-.09,1l18.73,3.15a.22.22,0,0,1,0,.44l-18,.25c.06.34.12.68.19,1a.32.32,0,0,0,.3.26l31.13,1.61a.18.18,0,0,1,0,.36l-29.56,1.24a.72.72,0,0,0-.65.95c.24.7.51,1.39.79,2.08a1,1,0,0,0,1,.6l12.9-.63a.1.1,0,0,1,0,.19l-12.54,2.42a.17.17,0,0,0-.11.23c.39.77.79,1.52,1.22,2.25a.21.21,0,0,0,.21.11l25-3c.22,0,.29.27.08.31l-23.61,4.44a.28.28,0,0,0-.18.44,37.4,37.4,0,0,0,3.36,4.27l.6.64,14.38-3.49a16.08,16.08,0,0,0,1.63-.5l16.73-6.14a.11.11,0,0,1,.08.2l-16.41,8.05a13.82,13.82,0,0,1-2,.78l-11.48,3.41a.24.24,0,0,0-.08.42,28.06,28.06,0,0,0,2.77,2.13,3.32,3.32,0,0,0,3,.37c5.47-2,22.13-6.1,32.63-17.51a24.47,24.47,0,0,0,5.54-21.71Z"/></g><g id="blackBEEG"><path class="cls-2" d="M389.85,418.7a89.87,89.87,0,0,0,19.93-19.65,73.1,73.1,0,0,0,14.32-45.33H210.27a73.2,73.2,0,0,0,14.33,45.33,90.07,90.07,0,0,0,19.92,19.65Z"/><path class="cls-3" d="M247.48,353.41a73.1,73.1,0,0,0,14.32,45.33,90.07,90.07,0,0,0,19.92,19.65"/><path class="cls-3" d="M390.94,353.72a73.1,73.1,0,0,1-14.32,45.33A90.07,90.07,0,0,1,356.7,418.7"/><path class="cls-3" d="M282.94,350.06a73.14,73.14,0,0,0,14.32,45.34A90,90,0,0,0,317.19,415"/><path class="cls-3" d="M355.56,350.06a73.21,73.21,0,0,1-14.32,45.34A90,90,0,0,1,321.31,415"/><line class="cls-4" x1="289.09" y1="185.87" x2="348.5" y2="185.87"/><line class="cls-5" x1="318.79" y1="217.37" x2="318.79" y2="440.71"/><path class="cls-6" d="M318.79,199.75s-85,2.19-85,13.13"/><path class="cls-6" d="M314.73,198.63s85,2.19,85,13.13"/><line class="cls-6" x1="233.78" y1="221.55" x2="399.66" y2="221.55"/><line class="cls-6" x1="239.58" y1="211.76" x2="394" y2="211.76"/><line class="cls-7" x1="240.93" y1="247.4" x2="242.06" y2="267.26"/><line class="cls-7" x1="239.58" y1="239.97" x2="239.58" y2="221.58"/><line class="cls-7" x1="243.12" y1="276.05" x2="247.37" y2="296.56"/><path class="cls-7" d="M249.84,306.47a151.92,151.92,0,0,0,8.49,17.68"/><path class="cls-7" d="M262.93,335.12s9.55,12,12.38,14.15"/><line class="cls-7" x1="275.66" y1="237.85" x2="275.31" y2="222.99"/><line class="cls-7" x1="276.02" y1="267.91" x2="275.66" y2="247.4"/><line class="cls-7" x1="277.43" y1="295.5" x2="277.08" y2="277.11"/><path class="cls-7" d="M283.09,325.57s-3.89-15.21-3.89-20.52"/><line class="cls-7" x1="284.15" y1="335.12" x2="291.94" y2="350.33"/><ellipse class="cls-7" cx="240.33" cy="242.92" rx="6.93" ry="9.43" transform="translate(-20.21 21.81) rotate(-4.99)"/><ellipse class="cls-7" cx="242.87" cy="271.79" rx="6.82" ry="9.43" transform="translate(-37.74 39.17) rotate(-8.56)"/><ellipse class="cls-7" cx="248.38" cy="301" rx="6.49" ry="9.43" transform="translate(-79.91 90.01) rotate(-17.74)"/><ellipse class="cls-7" cx="260.52" cy="329.28" rx="6.59" ry="9.43" transform="translate(-129.74 174.37) rotate(-30)"/><ellipse class="cls-7" cx="276.17" cy="351.3" rx="6.66" ry="8.25" transform="translate(-153.43 228.31) rotate(-35.85)"/><ellipse class="cls-7" cx="276.21" cy="242.95" rx="6.93" ry="9.43" transform="translate(-12.81 15.39) rotate(-3.12)"/><ellipse class="cls-7" cx="276.83" cy="271.42" rx="6.93" ry="9.43" transform="translate(-12.54 13.41) rotate(-2.71)"/><ellipse class="cls-7" cx="279.31" cy="300.5" rx="6.93" ry="9.43" transform="translate(-38.66 41.25) rotate(-7.9)"/><ellipse class="cls-7" cx="284.22" cy="329.56" rx="6.76" ry="9.07" transform="translate(-85.55 100.08) rotate(-17.4)"/><line class="cls-7" x1="299.92" y1="370.79" x2="336.42" y2="371.1"/><line class="cls-7" x1="398.31" y1="247.88" x2="397.18" y2="267.74"/><line class="cls-7" x1="399.66" y1="240.45" x2="399.66" y2="222.05"/><line class="cls-7" x1="396.12" y1="276.53" x2="391.88" y2="297.04"/><path class="cls-7" d="M389.4,307a150.13,150.13,0,0,1-8.49,17.68"/><path class="cls-7" d="M376.31,335.6s-9.55,12-12.38,14.15"/><line class="cls-8" x1="363.58" y1="238.33" x2="363.93" y2="223.47"/><line class="cls-7" x1="363.22" y1="268.39" x2="363.58" y2="247.88"/><line class="cls-7" x1="361.81" y1="295.98" x2="362.16" y2="277.59"/><path class="cls-7" d="M356.15,326.05S360,310.84,360,305.53"/><line class="cls-7" x1="355.09" y1="335.6" x2="347.31" y2="350.81"/><ellipse class="cls-7" cx="398.91" cy="243.4" rx="9.43" ry="6.93" transform="translate(121.76 619.64) rotate(-85.01)"/><ellipse class="cls-7" cx="396.37" cy="272.27" rx="9.43" ry="6.82" transform="translate(68.15 623.71) rotate(-81.44)"/><ellipse class="cls-7" cx="390.86" cy="301.47" rx="9.43" ry="6.49" transform="translate(-15.38 581.88) rotate(-72.26)"/><ellipse class="cls-7" cx="378.73" cy="329.75" rx="9.43" ry="6.59" transform="translate(-96.21 492.86) rotate(-60)"/><ellipse class="cls-7" cx="363.03" cy="243.43" rx="9.43" ry="6.93" transform="translate(100.2 592.67) rotate(-86.88)"/><ellipse class="cls-7" cx="362.41" cy="271.89" rx="9.43" ry="6.93" transform="translate(73.66 621.03) rotate(-87.29)"/><ellipse class="cls-7" cx="359.93" cy="300.98" rx="9.43" ry="6.93" transform="translate(12.34 616.12) rotate(-82.1)"/><ellipse class="cls-7" cx="355.03" cy="330.04" rx="9.07" ry="6.76" transform="translate(-66.08 570.12) rotate(-72.6)"/><line class="cls-7" x1="378.95" y1="253.98" x2="377.75" y2="275.11"/><line class="cls-7" x1="380.38" y1="246.08" x2="380.38" y2="226.52"/><line class="cls-7" x1="376.62" y1="284.46" x2="372.11" y2="306.29"/><path class="cls-7" d="M369.47,316.83a160.46,160.46,0,0,1-9,18.81"/><line class="cls-8" x1="342" y1="243.83" x2="342.38" y2="228.02"/><line class="cls-7" x1="341.63" y1="275.81" x2="342" y2="253.98"/><line class="cls-7" x1="340.12" y1="305.16" x2="340.5" y2="285.59"/><path class="cls-7" d="M334.1,337.14s4.14-16.18,4.14-21.82"/><line class="cls-7" x1="332.97" y1="347.3" x2="324.69" y2="363.48"/><ellipse class="cls-7" cx="379.59" cy="249.22" rx="10.03" ry="7.37" transform="translate(98.31 605.71) rotate(-85.01)"/><ellipse class="cls-7" cx="376.89" cy="279.93" rx="10.03" ry="7.26" transform="matrix(0.15, -0.99, 0.99, 0.15, 43.99, 610.97)"/><ellipse class="cls-7" cx="371.03" cy="311" rx="10.03" ry="6.9" transform="translate(-38.25 569.61) rotate(-72.26)"/><ellipse class="cls-7" cx="358.12" cy="341.09" rx="10.03" ry="7.01" transform="translate(-116.33 480.68) rotate(-60)"/><ellipse class="cls-7" cx="341.46" cy="364.52" rx="8.78" ry="7.09" transform="translate(-153.98 427.79) rotate(-54.15)"/><ellipse class="cls-7" cx="341.42" cy="249.26" rx="10.03" ry="7.37" transform="translate(73.95 576.6) rotate(-86.88)"/><ellipse class="cls-7" cx="340.76" cy="279.54" rx="10.03" ry="7.37" transform="translate(45.41 606.68) rotate(-87.29)"/><ellipse class="cls-7" cx="338.13" cy="310.47" rx="10.03" ry="7.37" transform="translate(-15.88 602.71) rotate(-82.1)"/><ellipse class="cls-7" cx="332.91" cy="341.39" rx="9.65" ry="7.19" transform="translate(-92.42 556.96) rotate(-72.6)"/><line class="cls-7" x1="259.81" y1="253.94" x2="261.03" y2="275.4"/><line class="cls-7" x1="258.36" y1="245.91" x2="258.36" y2="226.04"/><line class="cls-7" x1="262.18" y1="284.89" x2="266.77" y2="307.06"/><path class="cls-7" d="M269.44,317.76a164.87,164.87,0,0,0,9.17,19.11"/><line class="cls-7" x1="297.34" y1="243.62" x2="296.96" y2="227.57"/><line class="cls-7" x1="297.72" y1="276.1" x2="297.34" y2="253.94"/><line class="cls-7" x1="299.25" y1="305.91" x2="298.87" y2="286.04"/><path class="cls-7" d="M305.37,338.4s-4.21-16.44-4.21-22.17"/><line class="cls-7" x1="306.51" y1="348.72" x2="314.92" y2="365.15"/><ellipse class="cls-7" cx="259.17" cy="249.1" rx="7.48" ry="10.19" transform="translate(-20.67 23.47) rotate(-4.99)"/><ellipse class="cls-7" cx="261.91" cy="280.29" rx="7.37" ry="10.19" transform="translate(-38.79 42.1) rotate(-8.56)"/><ellipse class="cls-7" cx="267.86" cy="311.85" rx="7.01" ry="10.19" transform="translate(-82.29 96.46) rotate(-17.74)"/><ellipse class="cls-7" cx="280.97" cy="342.4" rx="7.12" ry="10.19" transform="translate(-133.56 186.36) rotate(-30)"/><ellipse class="cls-7" cx="297.89" cy="366.2" rx="7.2" ry="8.92" transform="translate(-158.04 243.85) rotate(-35.85)"/><ellipse class="cls-7" cx="297.93" cy="249.13" rx="7.48" ry="10.19" transform="translate(-13.12 16.58) rotate(-3.12)"/><ellipse class="cls-7" cx="298.6" cy="279.89" rx="7.48" ry="10.19" transform="translate(-12.91 14.45) rotate(-2.71)"/><ellipse class="cls-7" cx="301.28" cy="311.31" rx="7.48" ry="10.19" transform="translate(-39.93 44.37) rotate(-7.9)"/><ellipse class="cls-7" cx="306.58" cy="342.71" rx="7.3" ry="9.8" transform="translate(-88.46 107.37) rotate(-17.4)"/><line class="cls-4" x1="340.5" y1="205.2" x2="318.17" y2="206.01"/></g><g id="TextLayer"><g id="Bottom_Text" data-name="Bottom Text"><path class="cls-1" d="M144.7,494.49H125.41l-3.1,9h-14.4l19.77-51.93h14.74l19.77,51.93h-14.4Zm-3.59-10.27-6.06-17.28L129,484.22Z"/><path class="cls-1" d="M180.17,451.58v28.24c0,1.51.05,3.06.17,4.65a12.68,12.68,0,0,0,1,4.3,7.15,7.15,0,0,0,2.72,3.13,9.56,9.56,0,0,0,5.24,1.21,9.37,9.37,0,0,0,5.2-1.21,7.48,7.48,0,0,0,2.72-3.13,12.47,12.47,0,0,0,1.07-4.3c.11-1.59.17-3.14.17-4.65V451.58h13.43v30.1q0,12.12-5.55,17.7t-17,5.58q-11.51,0-17.08-5.58t-5.58-17.7v-30.1Z"/><path class="cls-1" d="M260.2,468.93a14.4,14.4,0,0,0-11.57-5.71,14.21,14.21,0,0,0-5.61,1.1,13.44,13.44,0,0,0-4.45,3,13.66,13.66,0,0,0-2.92,4.51,14.6,14.6,0,0,0-1.07,5.64,14.83,14.83,0,0,0,1.07,5.72,13.77,13.77,0,0,0,3,4.55,14,14,0,0,0,4.44,3,13.83,13.83,0,0,0,5.51,1.1q6.48,0,11.64-5.51v16l-1.38.48a38.44,38.44,0,0,1-5.78,1.62,28.43,28.43,0,0,1-5.31.52,27.2,27.2,0,0,1-19-7.75,28.57,28.57,0,0,1-6-8.75,26.74,26.74,0,0,1-2.27-11,26.44,26.44,0,0,1,2.24-11,27.41,27.41,0,0,1,25.1-16.29,28.92,28.92,0,0,1,6.1.65,37,37,0,0,1,6.3,2Z"/><path class="cls-1" d="M284.45,473l16.46-21.42h16.67L297,476.17l22.52,27.34H302L284.45,481v22.52H271V451.58h13.5Z"/><path class="cls-1" d="M339,451.58v40.5h16.18v11.43H325.5V451.58Z"/><path class="cls-1" d="M396.09,494.49H376.81l-3.1,9h-14.4l19.77-51.93h14.74l19.77,51.93h-14.4Zm-3.58-10.27-6.06-17.28-6.06,17.28Z"/><path class="cls-1" d="M419.51,503.51V451.58H433l24.93,31.75V451.58h13.44v51.93H457.94L433,471.76v31.75Z"/><path class="cls-1" d="M482.26,451.58h20a23.55,23.55,0,0,1,9.95,2.13,27.34,27.34,0,0,1,8.13,5.68,26.47,26.47,0,0,1,5.48,8.27,25.43,25.43,0,0,1,0,19.7,26.37,26.37,0,0,1-5.44,8.3,26.92,26.92,0,0,1-8.13,5.72,23.77,23.77,0,0,1-10,2.13h-20Zm13.5,40.5h3.1a16.69,16.69,0,0,0,6.27-1.11,13.25,13.25,0,0,0,4.64-3,12.88,12.88,0,0,0,2.9-4.58,16.46,16.46,0,0,0,1-5.82,16,16,0,0,0-1-5.78,13.43,13.43,0,0,0-2.92-4.62,13.68,13.68,0,0,0-4.65-3,16.7,16.7,0,0,0-6.2-1.1h-3.1Z"/><path class="cls-1" d="M113,525h14a16.47,16.47,0,0,1,7,1.5,19.06,19.06,0,0,1,5.69,4,18.4,18.4,0,0,1,3.83,5.78,17.8,17.8,0,0,1,0,13.79,18.19,18.19,0,0,1-3.81,5.81,18.6,18.6,0,0,1-5.68,4,16.57,16.57,0,0,1-7,1.5H113Zm9.45,28.35h2.17a11.56,11.56,0,0,0,4.38-.77,9.25,9.25,0,0,0,3.26-2.12,9.08,9.08,0,0,0,2-3.2,11.42,11.42,0,0,0,.7-4.08,11.2,11.2,0,0,0-.72-4.05,9.09,9.09,0,0,0-5.3-5.35,11.73,11.73,0,0,0-4.34-.77h-2.17Z"/><path class="cls-1" d="M160.35,525v36.36H150.9V525Z"/><path class="cls-1" d="M187.93,534.32a11.93,11.93,0,0,0-3.08-1.86,8.25,8.25,0,0,0-3-.6,4.84,4.84,0,0,0-3,.87,2.7,2.7,0,0,0-1.16,2.26,2.25,2.25,0,0,0,.58,1.6,5.1,5.1,0,0,0,1.52,1.08,12.69,12.69,0,0,0,2.12.8q1.19.33,2.34.72a14.6,14.6,0,0,1,6.77,4.12,10.18,10.18,0,0,1,2.15,6.73,13.22,13.22,0,0,1-.94,5.06A10.7,10.7,0,0,1,189.5,559a12.8,12.8,0,0,1-4.44,2.51,18.56,18.56,0,0,1-5.95.89,21.91,21.91,0,0,1-12.78-4.1l4-7.62a16.25,16.25,0,0,0,4.2,2.8,10.1,10.1,0,0,0,4.1.92,4.9,4.9,0,0,0,3.44-1.06,3.23,3.23,0,0,0,1.14-2.42,3.33,3.33,0,0,0-.29-1.42,3.21,3.21,0,0,0-1-1.11,7.91,7.91,0,0,0-1.76-.94c-.72-.29-1.6-.61-2.63-1-1.22-.39-2.41-.81-3.59-1.28a11.11,11.11,0,0,1-3.13-1.85,8.68,8.68,0,0,1-2.22-2.92,10.35,10.35,0,0,1-.84-4.46,12.75,12.75,0,0,1,.89-4.89,10.79,10.79,0,0,1,2.51-3.77,11.17,11.17,0,0,1,4-2.43,14.9,14.9,0,0,1,5.23-.87,22.81,22.81,0,0,1,5.64.75,25.16,25.16,0,0,1,5.64,2.19Z"/><path class="cls-1" d="M225.3,537.16a10.12,10.12,0,0,0-8.1-4,10,10,0,0,0-3.93.77,9.43,9.43,0,0,0-5.16,5.26,10.33,10.33,0,0,0-.75,3.95,10.44,10.44,0,0,0,.75,4,9.76,9.76,0,0,0,2.07,3.19,9.87,9.87,0,0,0,3.11,2.12,9.71,9.71,0,0,0,3.86.77,11,11,0,0,0,8.15-3.86v11.19l-1,.34a27.82,27.82,0,0,1-4.05,1.13,19.67,19.67,0,0,1-3.71.36A18.95,18.95,0,0,1,203.29,557a19.88,19.88,0,0,1-4.22-6.13,19.63,19.63,0,0,1,0-15.43A19.18,19.18,0,0,1,216.62,524a19.67,19.67,0,0,1,4.27.46,27,27,0,0,1,4.41,1.42Z"/><path class="cls-1" d="M265.36,541h18.76a52.48,52.48,0,0,1-.24,5.26,18.2,18.2,0,0,1-1,4.38,17.26,17.26,0,0,1-2.75,5,15.8,15.8,0,0,1-4.07,3.67,19.06,19.06,0,0,1-5.13,2.24,22.27,22.27,0,0,1-5.89.77,20.65,20.65,0,0,1-7.73-1.4,17.33,17.33,0,0,1-6-3.93,17.8,17.8,0,0,1-3.9-6.07,21.07,21.07,0,0,1-1.4-7.84,21.48,21.48,0,0,1,1.37-7.78,17,17,0,0,1,3.91-6.05,17.62,17.62,0,0,1,6.1-3.91,21.68,21.68,0,0,1,7.95-1.4,19.69,19.69,0,0,1,10,2.46,17,17,0,0,1,6.8,7.62l-9,3.71a9.13,9.13,0,0,0-3.25-4.29,8.14,8.14,0,0,0-4.56-1.3,9.11,9.11,0,0,0-3.85.79,8.36,8.36,0,0,0-3,2.27,11,11,0,0,0-1.93,3.54,14.66,14.66,0,0,0-.7,4.63,14.3,14.3,0,0,0,.61,4.29,9.77,9.77,0,0,0,1.8,3.43,8.24,8.24,0,0,0,3,2.24,10.11,10.11,0,0,0,4.15.79,11.47,11.47,0,0,0,2.7-.31,7.25,7.25,0,0,0,2.34-1,5.81,5.81,0,0,0,1.71-1.81,7.41,7.41,0,0,0,.92-2.7h-7.77Z"/><path class="cls-1" d="M288.46,543.19a19.07,19.07,0,0,1,1.49-7.54,18.7,18.7,0,0,1,10.49-10.18,23.11,23.11,0,0,1,16.22,0,19,19,0,0,1,6.39,4.08,18.4,18.4,0,0,1,4.17,6.1,19.73,19.73,0,0,1,0,15.09,18.51,18.51,0,0,1-4.17,6.1,19.15,19.15,0,0,1-6.39,4.07,23.11,23.11,0,0,1-16.22,0,18.78,18.78,0,0,1-12-17.72Zm9.88,0a9.61,9.61,0,0,0,.82,4,10.11,10.11,0,0,0,2.22,3.18,9.94,9.94,0,0,0,3.25,2.1,10.67,10.67,0,0,0,7.86,0,10.17,10.17,0,0,0,3.28-2.1A10,10,0,0,0,318,539.19a9.81,9.81,0,0,0-2.24-3.18,10.59,10.59,0,0,0-11.14-2.1,10.1,10.1,0,0,0-3.25,2.1,10.23,10.23,0,0,0-2.22,3.18A9.61,9.61,0,0,0,298.34,543.19Z"/><path class="cls-1" d="M344.14,525v28.35h11.33v8H334.69V525Z"/><path class="cls-1" d="M381.17,533H369.79v6.07h10.37v8H369.79v14.27h-9.45V525h20.83Z"/><path class="cls-1" d="M429.39,537.16a10.12,10.12,0,0,0-8.1-4,10,10,0,0,0-3.93.77,9.59,9.59,0,0,0-3.11,2.1,9.74,9.74,0,0,0-2.05,3.16,10.33,10.33,0,0,0-.75,3.95,10.44,10.44,0,0,0,.75,4,9.63,9.63,0,0,0,9,6.08,11,11,0,0,0,8.15-3.86v11.19l-1,.34a28.18,28.18,0,0,1-4.05,1.13,19.67,19.67,0,0,1-3.71.36A18.95,18.95,0,0,1,407.38,557a19.71,19.71,0,0,1-4.22-6.13,19.68,19.68,0,0,1,0-15.43A19.21,19.21,0,0,1,420.71,524a19.57,19.57,0,0,1,4.26.46,26.79,26.79,0,0,1,4.42,1.42Z"/><path class="cls-1" d="M444.81,525v28.35h11.33v8H435.36V525Z"/><path class="cls-1" d="M469.79,525v19.77c0,1.06,0,2.15.12,3.26a8.93,8.93,0,0,0,.72,3,5,5,0,0,0,1.91,2.19,6.65,6.65,0,0,0,3.66.85,6.51,6.51,0,0,0,3.64-.85,5.24,5.24,0,0,0,1.91-2.19,8.7,8.7,0,0,0,.74-3c.08-1.11.12-2.2.12-3.26V525H492v21.07q0,8.49-3.88,12.4t-11.94,3.9q-8.06,0-12-3.9t-3.9-12.4V525Z"/><path class="cls-1" d="M499.63,525h14.08q5,0,7.62,2.42c1.74,1.6,2.6,3.92,2.6,6.94a9.37,9.37,0,0,1-1,4.55,8.25,8.25,0,0,1-3,3.07,11.27,11.27,0,0,1,3.45,1.18,7.4,7.4,0,0,1,2.31,2,7.27,7.27,0,0,1,1.28,2.6,11.89,11.89,0,0,1,.39,3.09,10.84,10.84,0,0,1-.9,4.53,9.21,9.21,0,0,1-2.5,3.33,10.76,10.76,0,0,1-3.93,2,18.58,18.58,0,0,1-5.21.68H499.63Zm9.45,14.28h1.74c3,0,4.44-1.18,4.44-3.52s-1.48-3.52-4.44-3.52h-1.74Zm0,14.75h2.08a10.56,10.56,0,0,0,5.11-.92,3.58,3.58,0,0,0,0-5.88,10.56,10.56,0,0,0-5.11-.92h-2.08Z"/></g></g></g></svg>