<svg xmlns="http://www.w3.org/2000/svg" viewBox="0 0 637.83 587.91"><defs><style>.cls-1{fill:#fff;}.cls-2,.cls-3,.cls-7,.cls-8{fill:none;}.cls-2,.cls-3,.cls-4,.cls-5,.cls-6,.cls-7,.cls-8{stroke:#fff;}.cls-2,.cls-3,.cls-4,.cls-5,.cls-7,.cls-8{stroke-miterlimit:10;}.cls-2{stroke-width:8px;}.cls-3{stroke-width:10px;}.cls-4,.cls-5,.cls-6{fill:#fafdfd;}.cls-4,.cls-6,.cls-8{stroke-linecap:square;}.cls-4{stroke-width:25px;}.cls-5{stroke-width:16px;}.cls-6{stroke-linejoin:round;stroke-width:12px;}.cls-7{stroke-linecap:round;}.cls-7,.cls-8{stroke-width:4px;}</style></defs><g id="Layer_2" data-name="Layer 2"><g id="Layer_39" data-name="Layer 39"><path class="cls-1" d="M528.82,288.74a.2.2,0,0,1,.13.37l-36.63,10.18c-.39.32.06,1.29.48,1.18l11.76-2.5c1.21-.23,7.05-1.71,8.58-1.93,2.36-.32,3.19.74.69,2.21-.63.37-8.25,3.5-8.25,3.5l-10.17,4.44c-.18.17.13.66.4.84s.24.18.38.13l32.25-11.38c1-.26,6-1.95.39.81l-28.61,15.33a.74.74,0,0,0-.27,1.15c.5.57-.13-.1.39.44a1,1,0,0,0,1.14.21l18-8.78c1.89-1.07,2.63-.05.81,1.24L503.9,316.82a.15.15,0,0,0,0,.25c.65.59.95.79,1.63,1.33a.25.25,0,0,0,.25,0l28.72-17.72c.2-.11.38.15.19.27l-24.39,20.09a.3.3,0,0,0,0,.49,8.63,8.63,0,0,0,1.68,1l.81.38,12.64-8.78c.69-.58,1-.62,1.38-1l10.81-8.71a.11.11,0,0,1,.16.16l-4.58,6.22a68.43,68.43,0,0,1-9.57,9l-6.54,4.46a.26.26,0,0,0,.08.44,28.62,28.62,0,0,0,3.44,1,3.38,3.38,0,0,0,3-.77c4.46-3.92,18.7-14.17,24.36-29a25,25,0,0,0-3-22.71c-9.22-12.83-25.56-19.09-30.91-21.75a2.69,2.69,0,0,0-1.74-.23c-3,.6-1.79-.31-4.68,2a.48.48,0,0,0,.06.79l22.15,12.62a.07.07,0,0,1-.06.12l-26-9.78a.71.71,0,0,0-.71.13,18.88,18.88,0,0,0-2.35,2,.53.53,0,0,0,.22.84l27.7,11.26a.22.22,0,0,1-.14.42L498,263.28a.49.49,0,0,0-.54.18c-.25.35,0,.18-.28.54a.55.55,0,0,0,.29.82l13.09,4.11c1.25.33,1.13,1.2-.12.93l-15.1-2.27a.62.62,0,0,0-.64.31c-.3.54.08-.16-.19.4a.49.49,0,0,0,.34.69l32.76,7.49a.21.21,0,0,1-.06.42l-34.44-3.68a.86.86,0,0,0-.92.57c-.12.36.13-.18,0,.19a.67.67,0,0,0,.56.87l16.92,2.77c.89.21.93.9-.12,1.13l-18.6.76a.34.34,0,0,0-.33.3c-.06.3,0,.32,0,.64a.29.29,0,0,0,.28.34l36.58,1.53a.18.18,0,0,1,0,.36l-37.07,2.19a.34.34,0,0,0-.31.31,12.66,12.66,0,0,0-.15,1.51.42.42,0,0,0,.42.44c3.11-.07,14.65-.6,19.35-.46,1.87.06,2.5,1.11.19,1.68l-19.2,4.26a.2.2,0,0,0-.16.21c0,.46.12.78.18,1.24a.7.7,0,0,0,.54.36l6.91-.89"/><path class="cls-1" d="M474.94,140.67c3.57-7.63,69.29-24.82,69.29-24.82,7.64-1.32-59.15,9.05-70.42,21.09-.54-11.2,17.23-22.63,33.76-26.72,17.75-4.39,47.06,2.78,47.06,2.78h0s-18.94,22.78-35.85,29.75S479.09,152.46,474.94,140.67Z"/><path class="cls-1" d="M563.56,254.84c.82,8.93,59.25,44.19,59.25,44.19,7,3.37-54.85-25-61.66-40.57-4.43,11.62,8.94,28.23,23.65,36.81,15.81,9.21,46.92,9.29,46.92,9.29h0S621.17,275.74,607.09,264,571.72,243.54,563.56,254.84Z"/><path class="cls-1" d="M551.55,238.23c2.89-7.91,66.89-30.71,66.89-30.71,7.49-2-58.15,14.13-68.34,27.09-1.5-11.11,15.22-24,31.32-29.53,17.32-5.9,47.13-1.29,47.13-1.29h0s-16.9,24.32-33.15,32.73S556.7,249.62,551.55,238.23Z"/><path class="cls-1" d="M539.67,238.47c-7.87,3-66.94-30.58-66.94-30.58-6.39-4.39,48.68,34.8,65.15,34-7.43,8.4-23.23,9.43-37.92.83-15.78-9.25-36.67-40.09-36.67-40.09h0s29.46-3.09,46.44,3.72S544.93,227.13,539.67,238.47Z"/><path class="cls-1" d="M538.43,174.87a.19.19,0,0,1-.23-.31L569.52,153c.27-.44-.48-1.2-.84-1l-10.31,6.19c-1.07.61-6.1,3.91-7.48,4.61-2.13,1.07-3.26.34-1.37-1.86.47-.56,6.66-6,6.66-6l8.17-7.5c.12-.23-.33-.58-.65-.67-.14,0-.28-.09-.4,0l-26.8,21.25c-.84.56-5,3.79-.62-.64l22.06-23.8a.74.74,0,0,0-.12-1.18c-.66-.38.16.05-.52-.29a1,1,0,0,0-1.14.17L542,156.5c-1.43,1.62-2.46.91-1.16-.9l12-15.39a.16.16,0,0,0-.07-.24c-.81-.34-1.16-.44-2-.73a.22.22,0,0,0-.23.06L529.2,165.4c-.16.17-.41,0-.27-.19l16.52-26.94a.29.29,0,0,0-.15-.46,8.48,8.48,0,0,0-1.91-.4l-.89-.1-9.1,12.42c-.46.78-.69.89-1,1.4L525,162.89a.11.11,0,0,1-.19-.1l2.3-7.37a69,69,0,0,1,6.12-11.65l4.72-6.34a.25.25,0,0,0-.21-.39,28.9,28.9,0,0,0-3.57.2,3.41,3.41,0,0,0-2.56,1.7c-2.93,5.16-13.07,19.48-13.6,35.32a25.08,25.08,0,0,0,10.18,20.51c12.9,9.13,30.39,9.73,36.31,10.51a2.7,2.7,0,0,0,1.72-.35c2.64-1.55,1.8-.3,3.79-3.38a.48.48,0,0,0-.32-.73l-25-4.72a.07.07,0,0,1,0-.14l27.77.79a.68.68,0,0,0,.63-.36,18.8,18.8,0,0,0,1.55-2.69.53.53,0,0,0-.47-.73l-29.86-1.63a.22.22,0,0,1,0-.44l31.55-2a.49.49,0,0,0,.45-.36c.12-.4,0-.18.08-.59a.55.55,0,0,0-.53-.69l-13.72.38c-1.29.1-1.46-.77-.19-.92L577,184a.63.63,0,0,0,.52-.5c.1-.6,0,.18,0-.43a.49.49,0,0,0-.55-.55l-33.41,3.58a.21.21,0,0,1-.07-.41l33.76-7.73a.87.87,0,0,0,.68-.84c0-.39-.07.21-.08-.18a.67.67,0,0,0-.81-.63l-16.91,2.88c-.91.09-1.16-.55-.25-1.1l17.34-6.78a.36.36,0,0,0,.22-.39c-.05-.31-.14-.29-.2-.61a.3.3,0,0,0-.38-.23L541.79,180.5a.18.18,0,0,1-.14-.33L576,166a.35.35,0,0,0,.19-.4,11.19,11.19,0,0,0-.35-1.47.42.42,0,0,0-.54-.28c-2.91,1.08-13.66,5.34-18.15,6.73-1.79.55-2.72-.23-.73-1.53l16.77-10.27a.2.2,0,0,0,.09-.25c-.18-.43-.37-.7-.57-1.11a.69.69,0,0,0-.63-.17l-6.24,3.09"/><path class="cls-1" d="M449,75.48a.47.47,0,0,0-.7-.34l-21.36,12.5c-.08,0-.15-.06-.08-.11L447.7,70.41a.67.67,0,0,0,.23-.66,18.12,18.12,0,0,0-.58-3,.51.51,0,0,0-.81-.23L423.62,84.38a.22.22,0,0,1-.29-.32L445.2,62.51a.48.48,0,0,0,.1-.55c-.17-.38-.13-.12-.31-.49a.54.54,0,0,0-.83-.16l-9.81,9c-.89.9-1.56.37-.73-.55l9.24-11.6a.6.6,0,0,0,.06-.69c-.31-.51.09.15-.25-.35a.48.48,0,0,0-.75-.05L419.71,81a.2.2,0,0,1-.32-.25l19.83-27.18a.86.86,0,0,0,0-1.05c-.25-.28.09.2-.17-.07a.66.66,0,0,0-1,0L427.46,65.37c-.61.65-1.21.34-.89-.65l8.39-16a.36.36,0,0,0-.08-.43c-.24-.19-.3-.12-.54-.31a.28.28,0,0,0-.42.07l-19.06,30a.17.17,0,0,1-.31-.16l16.16-32.23a.34.34,0,0,0-.11-.42,12.79,12.79,0,0,0-1.19-.85.4.4,0,0,0-.58.14c-1.45,2.65-6.61,12.61-9,16.49-1,1.55-2.15,1.56-1.51-.65l5.74-18.22a.19.19,0,0,0-.09-.24c-.41-.19-.72-.27-1.13-.44a.64.64,0,0,0-.57.28L419.66,48,408.81,76.06a.19.19,0,0,1-.37-.08l9.24-35.74c-.09-.49-1.12-.58-1.23-.17l-3.61,11.1c-.4,1.13-2,6.76-2.55,8.15-.87,2.14-2.17,2.32-2.19-.5,0-.7,1.06-8.63,1.06-8.63l1.21-10.71c-.06-.23-.61-.21-.9-.07-.13.06-.27.12-.3.26l-6.09,32.65c-.26,1-1.28,6-.87-.07l1-31.51a.72.72,0,0,0-.84-.78l-.29,0-.28.07a1,1,0,0,0-.72.85L399.74,60.3c0,2.11-1.22,2.23-1.43.08l-1-18.92a.16.16,0,0,0-.2-.14c-.82.27-1.13.42-1.92.73a.21.21,0,0,0-.13.19L396,75c0,.22-.31.25-.32,0l-5.05-30.27a.29.29,0,0,0-.41-.24,8.61,8.61,0,0,0-1.39.74c-.28.61-.58,1.22-.88,1.84l1.15,13.74c.15.86.06,1.1.17,1.65l2.08,13.32a.11.11,0,0,1-.21.06l-3-6.87a66,66,0,0,1-2.93-12.44l-.28-3.62c-1,1.85-2.1,3.68-3.23,5.45C383,66,385.62,78.93,393.47,88.6A24.31,24.31,0,0,0,414,97.15c15.28-1.53,28.48-12.23,33.32-15.43a2.64,2.64,0,0,0,1-1.36C449.3,77.55,449.48,79,449,75.48Z"/><path class="cls-1" d="M465.84,172l-7.44,27.14c.71-.05,1.55-.11,2.51-.16l4.53-14.42c.52-2.11,1.76-1.95,1.45.25l-2.58,14,2.54-.09,5.87-28c0-.22.36-.18.32,0l-2,27.9c1.06,0,2.16,0,3.28,0l1.86-12.12c0-.9.21-1.11.22-1.7l1.13-13.83a.11.11,0,0,1,.22,0l1.36,7.6a68,68,0,0,1,0,13.16l-1.13,7,1.93.09c.54-.32,1-.62,1.38-.88a3.39,3.39,0,0,0,1.49-2.69c.22-5.93,2.59-23.32-4.25-37.61A25.07,25.07,0,0,0,460,144.24c-15.66-2.14-31.45,5.4-37.06,7.45a2.66,2.66,0,0,0-1.37,1.1c-1.62,2.59-1.45,1.09-1.8,4.75a.48.48,0,0,0,.62.5l24.39-7.38a.07.07,0,0,1,.05.13l-25,12.13a.7.7,0,0,0-.39.6,19,19,0,0,0-.13,3.12.52.52,0,0,0,.76.41l27.23-12.33a.22.22,0,0,1,.21.39l-27.07,16.32a.5.5,0,0,0-.24.53c.08.41.1.15.2.56a.55.55,0,0,0,.79.36l12-6.66c1.1-.69,1.65,0,.6.72l-12,9.39a.62.62,0,0,0-.22.68c.18.59-.06-.17.16.41a.48.48,0,0,0,.73.23l28-18.61a.21.21,0,0,1,.26.34L424.3,181.82a.86.86,0,0,0-.21,1.06c.18.34,0-.21.14.12a.69.69,0,0,0,1,.19l13.66-10.36c.76-.51,1.29-.05.74.86l-12.26,14a.36.36,0,0,0,0,.44c.19.25.26.2.46.45a.3.3,0,0,0,.44,0l26.29-25.47a.18.18,0,1,1,.27.23l-23.92,28.39a.33.33,0,0,0,0,.44,13.37,13.37,0,0,0,1,1.15.42.42,0,0,0,.61,0c2.08-2.3,9.65-11,13-14.34,1.33-1.32,2.52-1.05,1.35,1l-10.13,16.86a.19.19,0,0,0,0,.26c.36.29.65.45,1,.72a.63.63,0,0,0,.63-.14l4.11-5.62,17.61-25.51a.19.19,0,0,1,.35.17l-17.84,33.57c0,.51,1,.85,1.19.46l6.29-10.24c.67-1,3.61-6.3,4.51-7.55,1.39-1.93,2.73-1.81,2.07,1-.16.71-3.13,8.39-3.13,8.39l-3.79,10.44c0,.24.56.35.88.28.15,0,.3,0,.36-.19L465,171.73C465.48,170.84,467.71,166,465.84,172Z"/><path class="cls-1" d="M480.17,84c-3.23-18-22.74-41.42-22.74-41.42a147.55,147.55,0,0,0-9.74,20.72l2.48,6.41s1.51,6,1.17,8.2c-.64,4.05-2.67,5.2-2.67,5.2L442.85,88c1.21,17,8,36.84,20,38.72-10-13.6-3.36-80.65-3.19-72,0,0,.21,66.53,7.43,71.65C480.67,124.83,483.39,102,480.17,84Z"/><path class="cls-1" d="M417.25,165.28S418,154,418.45,153c1.6-3.41,3.25-3.86,3.25-3.86l5.87-2A52.09,52.09,0,0,0,424.75,135c-6.79-17.65-21.54-36.29-34.59-30.22-3,6.63,18,45.8,27.17,62.39C417.28,166.11,417.25,165.28,417.25,165.28Z"/><path class="cls-1" d="M419.7,177.25a63,63,0,0,1-2.48-8.58c-9.79-14.28-32.32-48.91-31.05-61.88-9.85,8.24-6.18,29.94,2.75,45.08,6.87,11.65,23.47,23.26,32.18,28.79A22.47,22.47,0,0,1,419.7,177.25Z"/><path class="cls-1" d="M346.42,121.1a.2.2,0,1,1,.39,0l-1.64,38c.19.47,1.24.34,1.27-.1L347.7,147c.16-1.23.55-7.24.82-8.76.42-2.34,1.69-2.8,2.31,0,.16.71.78,8.93.78,8.93l1.08,11c.11.23.66.08.92-.12s.24-.17.24-.33L353,123.64c.06-1,0-6.31.89-.12l5.73,32a.73.73,0,0,0,1,.6c.7-.29-.13.1.55-.23a1,1,0,0,0,.55-1L358.93,135c-.44-2.13.76-2.51,1.42-.39l5.07,18.84a.16.16,0,0,0,.23.1c.76-.44,1.05-.66,1.77-1.15a.23.23,0,0,0,.1-.22l-8-32.79c0-.22.26-.32.31-.1l11.58,29.4a.29.29,0,0,0,.46.16,9.13,9.13,0,0,0,1.47-1.28l.61-.66-4.44-14.73c-.34-.84-.3-1.1-.53-1.63l-4.95-13a.11.11,0,0,1,.2-.1l4.5,6.27a68.3,68.3,0,0,1,5.62,11.9l2.23,7.59a.25.25,0,0,0,.43.06,27.28,27.28,0,0,0,2-3,3.4,3.4,0,0,0,.19-3.07c-2.36-5.45-7.7-22.17-20-32.12A25,25,0,0,0,336.67,101c-15.05,4.81-26.06,18.42-30.24,22.68a2.67,2.67,0,0,0-.76,1.59c-.35,3-.84,1.6.42,5a.49.49,0,0,0,.78.19l18.84-17.16a.07.07,0,0,1,.1.09l-17.35,21.72a.68.68,0,0,0-.09.71,18.76,18.76,0,0,0,1.22,2.86.52.52,0,0,0,.86.05l19.27-22.86a.22.22,0,0,1,.36.26l-17.41,26.4a.5.5,0,0,0,0,.57c.25.34.16.09.42.43a.55.55,0,0,0,.87,0l7.95-11.18c.7-1.09,1.49-.7.85.4L316,146.41a.61.61,0,0,0,.09.7c.42.45-.13-.12.32.31a.5.5,0,0,0,.77-.11l17.24-28.85a.21.21,0,0,1,.38.19l-14.15,31.62a.88.88,0,0,0,.27,1c.31.23-.13-.18.18,0a.68.68,0,0,0,1-.26l7.87-15.24c.47-.78,1.14-.6,1,.46l-5,17.93a.35.35,0,0,0,.17.41c.28.14.32.06.61.2a.29.29,0,0,0,.41-.16l12.76-34.31a.18.18,0,0,1,.35.09l-9.37,35.93a.33.33,0,0,0,.2.39,13.13,13.13,0,0,0,1.38.61.42.42,0,0,0,.55-.27c.89-3,4-14.12,5.55-18.54.63-1.76,1.82-2,1.65.34l-1.88,19.57a.2.2,0,0,0,.15.22c.45.11.78.13,1.23.21a.67.67,0,0,0,.51-.4l1.29-6.84"/><path class="cls-1" d="M189,126.59c-6.16-5.75-2.2-73.57-2.2-73.57,1.11-7.67-9.67,59.06-1.7,73.49-10.82-3-16.2-23.38-15-40.36,1.31-18.24,17.19-43.9,17.19-43.9h0s15.8,25,17.21,43.29S201.44,126.28,189,126.59Z"/><path class="cls-1" d="M324.91,77.58c8.75,2,60.34-42.69,60.34-42.69,5.36-5.61-40.74,44.44-57.64,46.1,9.68,7.81,29.61.23,42.31-11.11,13.65-12.18,23.34-41.75,23.34-41.75h0S362.59,29.26,347.1,39,316.68,66.33,324.91,77.58Z"/><path class="cls-1" d="M305.4,83.88c-6.63-5.2-8.53-73.11-8.53-73.11.44-7.73-4.54,59.67,4.64,73.37-11-2-18.15-21.9-18.4-38.92C282.84,26.93,296.44,0,296.44,0h0s17.91,23.6,20.88,41.64S317.82,82.5,305.4,83.88Z"/><path class="cls-1" d="M302,95.25c.4,8.41-49.77,54.22-49.77,54.22C246,154.19,300.33,113.92,304.7,98c5.69,9.66,1.79,25-10.93,36.32-13.67,12.15-49.46,22.48-49.46,22.48h0s6.16-29,17.89-43S292.8,86.74,302,95.25Z"/><path class="cls-1" d="M241.09,76.77a.2.2,0,0,1-.37.13l-10.8-36.44c-.34-.39-1.29.08-1.18.5l2.7,11.71c.25,1.21,1.84,7,2.08,8.55.36,2.35-.69,3.2-2.2.72-.38-.62-3.64-8.18-3.64-8.18l-4.61-10.1c-.18-.17-.66.14-.83.41s-.18.25-.13.39L234,76.51c.28,1,2.06,6-.8.4L217.43,48.57a.74.74,0,0,0-1.16-.24c-.57.51.1-.14-.44.39a1,1,0,0,0-.19,1.15l9.09,17.8c1.1,1.87.1,2.62-1.22.83L212.59,52.34a.16.16,0,0,0-.25,0c-.58.67-.78,1-1.31,1.66a.23.23,0,0,0,0,.24l18.21,28.41c.11.2-.14.38-.26.2l-20.52-24a.3.3,0,0,0-.49,0,9.16,9.16,0,0,0-1,1.69c-.13.28-.24.55-.36.82l9,12.49c.59.68.63.94,1,1.36l8.89,10.66a.11.11,0,0,1-.15.16l-6.3-4.47a67.62,67.62,0,0,1-9.18-9.42l-4.58-6.45a.25.25,0,0,0-.43.09,28.66,28.66,0,0,0-.92,3.44,3.42,3.42,0,0,0,.83,3c4,4.38,14.49,18.45,29.39,23.85a25,25,0,0,0,22.65-3.35c12.67-9.45,18.65-25.89,21.22-31.28a2.71,2.71,0,0,0,.2-1.75c-.66-3,.27-1.79-2-4.64a.47.47,0,0,0-.79.07L263.21,77.39c0,.08-.16,0-.13-.06l9.34-26.17a.71.71,0,0,0-.15-.71,19.64,19.64,0,0,0-2.08-2.31.53.53,0,0,0-.84.23L258.58,76.26a.22.22,0,0,1-.43-.13L266,45.51a.5.5,0,0,0-.2-.54c-.35-.24-.18,0-.54-.26a.56.56,0,0,0-.82.3l-3.88,13.16c-.3,1.25-1.18,1.15-.93-.11l2-15.13a.62.62,0,0,0-.32-.64c-.54-.29.16.08-.4-.18a.49.49,0,0,0-.69.35l-6.92,32.89a.21.21,0,0,1-.42-.06L256,40.79a.87.87,0,0,0-.6-.9c-.36-.12.19.12-.18,0a.68.68,0,0,0-.86.57l-2.48,17c-.19.89-.89.94-1.13-.1l-1.09-18.59a.34.34,0,0,0-.29-.32c-.31,0-.33,0-.65,0a.29.29,0,0,0-.33.29l-.91,36.59a.18.18,0,1,1-.35,0l-2.83-37A.34.34,0,0,0,244,38a15.12,15.12,0,0,0-1.51-.13.43.43,0,0,0-.43.44c.12,3.1.85,14.64.79,19.34,0,1.87-1.06,2.51-1.68.22l-4.59-19.12a.2.2,0,0,0-.21-.17c-.46,0-.78.14-1.23.21a.64.64,0,0,0-.35.54l1,6.89"/><path class="cls-1" d="M118.92,131.14a.46.46,0,0,0-.53.56l5.28,24.18a.07.07,0,0,1-.13,0l-9.84-25.13a.65.65,0,0,0-.55-.42,18.76,18.76,0,0,0-3-.37.51.51,0,0,0-.46.7L119.55,158a.22.22,0,0,1-.4.18l-13.74-27.46a.49.49,0,0,0-.48-.27c-.42.05-.16.09-.57.15a.54.54,0,0,0-.41.74l5.54,12.12c.58,1.11-.13,1.59-.75.52l-8.17-12.37a.59.59,0,0,0-.64-.27,3.17,3.17,0,0,0-.41.12.48.48,0,0,0-.28.7l15.88,28.51a.21.21,0,0,1-.34.23L95.06,133.65a.85.85,0,0,0-1-.29c-.34.15.21,0-.12.13a.67.67,0,0,0-.27,1l9,14c.42.78,0,1.25-.89.64L89.13,136.2a.35.35,0,0,0-.43-.06c-.26.17-.21.24-.47.41a.3.3,0,0,0-.06.43l22.65,27.4a.17.17,0,0,1-.24.25L84.91,139.29a.32.32,0,0,0-.42,0c-.66.5-.55.33-1.19.87a.41.41,0,0,0,0,.59c2.07,2.2,9.95,10.19,12.9,13.67,1.17,1.39.82,2.52-1.09,1.23L79.52,144.54a.19.19,0,0,0-.25,0c-.31.33-.49.6-.78.93a.68.68,0,0,0,.09.63l5.13,4.41,23.35,19a.2.2,0,0,1-.19.34L75.73,150c-.49-.08-.89.88-.54,1.11L84.63,158c1,.73,5.82,4,7,4.94,1.76,1.49,1.54,2.78-1.15,1.93-.67-.21-7.88-3.68-7.88-3.68l-9.82-4.46c-.24,0-.39.52-.34.83,0,.15,0,.3.15.37l29.17,15.88c.83.55,5.3,3.07-.34.81l-29.64-10.7a.73.73,0,0,0-1,.56c0,.35,0,.33,0,.29s0,.11,0,.28a1,1,0,0,0,.58,1l18,7.26c2,.67,1.74,1.86-.36,1.38L70.6,169.76a.16.16,0,0,0-.2.15c0,.86,0,1.21.11,2.05a.21.21,0,0,0,.14.19l31.45,9.22a.16.16,0,1,1-.07.31l-30.35-4.55a.29.29,0,0,0-.36.31A8.74,8.74,0,0,0,71.6,179q.74.69,1.47,1.41l13.42,3.15c.87.12,1.07.29,1.63.35L101.43,186a.11.11,0,0,1,0,.21L94,187a66.09,66.09,0,0,1-12.74-1.05l-3.53-.86c1.45,1.54,2.85,3.14,4.19,4.76,7.62,1.1,20.75,2.62,32.37-1.86a24.29,24.29,0,0,0,14.47-16.89c3.27-15-2.83-30.85-4.38-36.45a2.65,2.65,0,0,0-1-1.4C121,131.47,122.43,131.75,118.92,131.14Z"/><path class="cls-1" d="M215.94,144.92l23.51,15.47c.17-.69.38-1.5.62-2.43l-12.32-8.77c-1.84-1.15-1.3-2.28.7-1.3L241,154.67c.22-.78.45-1.59.71-2.44L216.85,138c-.19-.13,0-.4.14-.3l25.93,10.48c.32-1,.67-2.05,1-3.11l-11-5.51c-.84-.33-1-.54-1.54-.74l-12.82-5.34a.11.11,0,0,1,.07-.21l7.65,1a67.74,67.74,0,0,1,12.49,4.12l6.33,3.24c.22-.6.45-1.2.69-1.81-.14-.61-.28-1.14-.41-1.58a3.4,3.4,0,0,0-2.1-2.25c-5.57-2-21.38-9.68-37.08-7.58a25,25,0,0,0-18.55,13.43c-6.88,14.23-4.58,31.57-4.37,37.54a2.65,2.65,0,0,0,.63,1.64c2,2.34.58,1.72,3.95,3.18a.47.47,0,0,0,.67-.43l.52-25.48a.07.07,0,0,1,.14,0l3.81,27.53a.72.72,0,0,0,.45.56,19.62,19.62,0,0,0,2.92,1.08.53.53,0,0,0,.64-.59l-3.32-29.71a.22.22,0,0,1,.43-.08l7.16,30.79a.51.51,0,0,0,.43.39c.42,0,.17-.05.6,0a.55.55,0,0,0,.59-.64l-2.64-13.46c-.31-1.26.52-1.57.88-.34l5.21,14.35a.6.6,0,0,0,.57.42c.62,0-.18,0,.44,0a.49.49,0,0,0,.45-.63l-9-32.36a.21.21,0,0,1,.4-.14l13.19,32a.88.88,0,0,0,.95.53c.37-.07-.22,0,.15-.1a.68.68,0,0,0,.5-.91l-5.64-16.2c-.24-.88.35-1.24,1.05-.43l9.55,16a.34.34,0,0,0,.41.16c.3-.1.27-.19.57-.3a.3.3,0,0,0,.17-.41L204,152.91a.18.18,0,0,1,.3-.19L224,184.25a.34.34,0,0,0,.42.13,13,13,0,0,0,1.4-.59.42.42,0,0,0,.18-.58c-1.54-2.69-7.52-12.59-9.63-16.79-.84-1.67-.22-2.72,1.38-1l12.91,14.84a.2.2,0,0,0,.26.05c.39-.25.63-.48,1-.75a.68.68,0,0,0,.06-.65l-4.07-5.64L209,148.67c-.19-.18.08-.45.27-.28l26.41,27.33c.48.19,1.11-.66.81-1l-7.81-9.15c-.77-1-4.87-5.37-5.78-6.62-1.41-1.91-.87-3.15,1.61-1.65.63.37,7,5.57,7,5.57l8.76,6.83c.23.07.51-.43.54-.75a.45.45,0,0,0-.07-.41l-25.38-22.91C214.71,144.91,210.83,141.31,215.94,144.92Z"/><path class="cls-1" d="M136.63,104.1c-18.13-2.5-46.41,8.82-46.41,8.82a147.78,147.78,0,0,0,16.69,15.67l6.86-.38s6.2.43,8.16,1.42c3.65,1.86,4.13,4.15,4.13,4.15s1.31,3.24,2.83,7c16.52,4.09,37.51,3.78,43-7.09-16,5.31-77.74-21.72-69.42-19.2,0,0,63.34,20.36,70.44,15.07C175.65,116.24,154.77,106.6,136.63,104.1Z"/><path class="cls-1" d="M194.52,189.06s-10.52-4.19-11.32-4.94c-2.74-2.57-2.67-4.28-2.67-4.28l-.1-6.21A52.19,52.19,0,0,0,168,172.56c-18.88,1-41.17,9.27-39.43,23.56,5.4,4.85,49.13-3,67.73-6.56Z"/><path class="cls-1" d="M206.67,190.43a63.72,63.72,0,0,1-8.94-.29c-16.6,4.9-56.5,15.62-68.44,10.41,4.79,11.91,26.57,15.12,43.73,11.31,13.2-2.94,29.37-15.13,37.32-21.71A23.21,23.21,0,0,1,206.67,190.43Z"/><path class="cls-1" d="M130.61,242.78a.2.2,0,0,1,.13-.38l35.61,13.3c.51,0,.71-1.08.3-1.24l-11-4.89c-1.12-.53-6.71-2.76-8.08-3.49-2.09-1.12-2.14-2.47.75-2.19.72.07,8.73,2,8.73,2l10.84,2.39c.24,0,.28-.61.17-.91-.06-.15-.09-.29-.24-.34l-32.78-9.75c-.95-.37-6-2,.17-.88l32.15,4.42a.74.74,0,0,0,.89-.78,2.88,2.88,0,0,0-.05-.59,1,1,0,0,0-.8-.84l-19.69-3.45c-2.16-.24-2.16-1.5.07-1.47l19.48,1a.16.16,0,0,0,.17-.19c-.19-.86-.31-1.2-.54-2a.24.24,0,0,0-.19-.16l-33.65-2.55c-.22,0-.22-.34,0-.32l31.55-1.93a.3.3,0,0,0,.29-.39,8.6,8.6,0,0,0-.77-1.79c-.14-.27-.29-.53-.43-.78l-15.39-.33c-.9.07-1.13-.06-1.71,0l-13.87.69a.11.11,0,0,1,0-.21l7.36-2.35a67.13,67.13,0,0,1,13.05-1.66l7.91.22a.25.25,0,0,0,.19-.39,28.65,28.65,0,0,0-2.21-2.81,3.37,3.37,0,0,0-2.86-1.12c-5.91.55-23.46.47-36.73,9.12a25,25,0,0,0-11,20.1c-.08,15.81,9.46,30.48,12.22,35.78a2.71,2.71,0,0,0,1.28,1.2c2.77,1.27,1.27,1.3,4.94,1.17a.48.48,0,0,0,.41-.68l-10.5-23.22c0-.08.08-.14.12-.07l15.3,23.2a.67.67,0,0,0,.64.31,19.31,19.31,0,0,0,3.11-.27.53.53,0,0,0,.31-.81L120.5,257.05a.23.23,0,0,1,.36-.27l19.72,24.71a.49.49,0,0,0,.55.17c.41-.14.14-.12.54-.27a.54.54,0,0,0,.25-.83l-8.17-11c-.82-1-.21-1.64.64-.69l10.88,10.71a.6.6,0,0,0,.7.13c.56-.26-.16.08.39-.21a.49.49,0,0,0,.13-.76l-22.1-25.31a.21.21,0,0,1,.3-.3l25.7,23.22a.86.86,0,0,0,1.07.07c.32-.22-.21.07.1-.16a.68.68,0,0,0,.06-1L139.56,263c-.6-.7-.22-1.28.76-.85l15.5,10.32a.36.36,0,0,0,.44,0c.22-.22.16-.29.38-.51a.31.31,0,0,0,0-.45l-28.69-22.74a.18.18,0,0,1,.2-.3l31.28,20a.34.34,0,0,0,.43-.06c.56-.64.48-.45,1-1.13a.42.42,0,0,0-.09-.61c-2.55-1.76-12.2-8.12-15.92-11-1.48-1.15-1.37-2.36.83-1.47l18,7.83A.2.2,0,0,0,164,262c.24-.39.35-.7.57-1.11a.68.68,0,0,0-.22-.61l-6.11-3.34"/><path class="cls-1" d="M87.17,394.23c-7.37,4.08-70.64-20.64-70.64-20.64-7-3.42,53.17,27.44,69.37,24.33-6.15,9.38-27.25,8.18-43,1.77-16.94-6.88-36.44-29.91-36.44-29.91h0s28.71-7.29,46.49-3S90.74,382.26,87.17,394.23Z"/><path class="cls-1" d="M82.58,249.78c4.59-7.71-21.95-70.58-21.95-70.58-3.69-6.83,29.67,52.48,26,69.07,10.42-6.8,9.36-28.09,2.51-43.68-7.37-16.75-32.5-35.1-32.5-35.1h0s-8.4,29.53-3.89,47.27S69.34,254.13,82.58,249.78Z"/><path class="cls-1" d="M82.54,270.28c-7,4.7-72.16-14.47-72.16-14.47C3.15,253,65.72,278.56,81.59,274.06c-5.32,9.87-26.44,10.5-42.7,5.48C21.41,274.14,0,252.88,0,252.88H0s28-9.74,46.06-7S85.07,258,82.54,270.28Z"/><path class="cls-1" d="M92.29,277.07c8.12,2.22,36.18,64.09,36.18,64.09,2.59,7.3-18.93-56.77-32.7-65.84,11-2.43,24.34,6,31.17,21.62,7.33,16.76,6.1,54,6.1,54h0s-25.65-14.81-35.38-30.3S81.37,283.15,92.29,277.07Z"/><path class="cls-1" d="M55.91,329.25a.2.2,0,0,1,0,.39l-38-1c-.47.2-.32,1.26.11,1.27L30,331c1.22.13,7.24.42,8.77.66,2.34.38,2.83,1.64,0,2.32-.7.17-8.9.93-8.9.93l-11,1.27c-.22.11-.07.66.14.92s.18.24.33.23l34.16-1.44c1,0,6.31-.11.13.89L21.77,343a.74.74,0,0,0-.58,1c.3.7-.1-.13.24.54a1,1,0,0,0,1,.54L42.2,342c2.12-.47,2.52.71.41,1.41L23.86,348.8a.16.16,0,0,0-.09.24c.45.75.68,1,1.17,1.75a.23.23,0,0,0,.23.09l32.65-8.54a.16.16,0,1,1,.1.31l-29.2,12.08a.3.3,0,0,0-.15.47,8.35,8.35,0,0,0,1.31,1.44c.23.21.44.41.67.6l14.65-4.69c.83-.36,1.09-.32,1.62-.56l12.89-5.17a.11.11,0,0,1,.1.19l-6.2,4.61a68.58,68.58,0,0,1-11.79,5.83l-7.56,2.36a.25.25,0,0,0,0,.43,28.42,28.42,0,0,0,3,1.94,3.39,3.39,0,0,0,3.07.13c5.41-2.45,22-8.08,31.77-20.58a25,25,0,0,0,3.81-22.58c-5.06-15-18.86-25.73-23.19-29.84a2.69,2.69,0,0,0-1.6-.73c-3-.3-1.62-.82-5,.51a.47.47,0,0,0-.17.77L63.33,308.4a.07.07,0,0,1-.09.11l-22-17a.68.68,0,0,0-.71-.08,18.51,18.51,0,0,0-2.85,1.27.52.52,0,0,0,0,.86l23.2,18.87a.23.23,0,0,1-.26.37L33.88,295.88a.48.48,0,0,0-.57,0c-.34.26-.09.16-.42.44a.54.54,0,0,0,0,.86L44.24,305c1.1.68.73,1.48-.39.86l-13.77-6.59a.62.62,0,0,0-.71.1c-.44.43.13-.12-.29.33a.48.48,0,0,0,.12.76l29.14,16.75a.21.21,0,0,1-.19.38L26.29,304a.86.86,0,0,0-1,.29c-.22.31.18-.14,0,.18a.68.68,0,0,0,.28,1L40.87,313c.79.46.62,1.13-.45,1l-18-4.71a.34.34,0,0,0-.4.18c-.14.28-.07.33-.2.61a.29.29,0,0,0,.17.41l34.53,12.17a.18.18,0,0,1-.09.35l-36.08-8.75a.33.33,0,0,0-.39.2,13.34,13.34,0,0,0-.59,1.4.43.43,0,0,0,.28.55c3,.84,14.18,3.71,18.63,5.22,1.78.6,2.07,1.79-.3,1.66l-19.61-1.54a.21.21,0,0,0-.22.15c-.1.45-.11.79-.19,1.24a.68.68,0,0,0,.42.5l6.86,1.17"/><path class="cls-1" d="M113,374.23l22-17.59c-.61-.37-1.32-.82-2.12-1.33l-12.15,9c-1.66,1.4-2.57.53-1-1.06L130,353.44c-.67-.44-1.37-.92-2.1-1.42l-21.2,19.2c-.18.14-.4-.07-.24-.23l18-21.41-2.64-1.95-8.63,8.71c-.57.7-.82.78-1.17,1.24l-9,10.54c-.08.11-.25,0-.18-.13l3.37-6.95a69.17,69.17,0,0,1,7.77-10.61l5-5c-.5-.4-1-.8-1.5-1.22-.63-.05-1.18-.08-1.64-.1a3.4,3.4,0,0,0-2.78,1.31c-3.67,4.67-15.81,17.34-18.67,32.92a25,25,0,0,0,7,21.79c11.41,10.93,28.61,14.12,34.36,15.76a2.69,2.69,0,0,0,1.75-.09c2.83-1.14,1.82,0,4.24-2.78a.48.48,0,0,0-.2-.77l-24.07-8.37a.07.07,0,0,1,0-.14l27.36,4.89a.71.71,0,0,0,.67-.26,19.24,19.24,0,0,0,1.94-2.44.54.54,0,0,0-.37-.79l-29.28-6a.22.22,0,0,1,.06-.44l31.49,2.71a.51.51,0,0,0,.5-.29c.18-.39,0-.18.17-.58a.54.54,0,0,0-.42-.75L136,398.1c-1.3-.09-1.33-1-.06-.93l15.26-.53a.6.6,0,0,0,.58-.41c.19-.59-.06.17.11-.43a.49.49,0,0,0-.46-.62l-33.58-1.39a.22.22,0,0,1,0-.43l34.53-2.65a.86.86,0,0,0,.8-.73c.05-.38-.09.2,0-.18a.67.67,0,0,0-.71-.75l-17.15.35c-.91,0-1.07-.72-.08-1.13l18.15-4.14a.35.35,0,0,0,.27-.35c0-.31-.09-.32-.1-.63a.29.29,0,0,0-.34-.28L116.87,388a.18.18,0,0,1-.08-.35l36-8.91a.33.33,0,0,0,.25-.36c-.08-.84,0-.66-.12-1.51a.42.42,0,0,0-.5-.35c-3,.63-14.3,3.26-18.94,4-1.85.28-2.66-.63-.5-1.62l18.1-7.68a.21.21,0,0,0,.13-.24c-.12-.44-.27-.74-.41-1.18a.66.66,0,0,0-.59-.26l-6.63,2.13L114.39,382a.19.19,0,0,1-.19-.34l34.16-16.68c.33-.39-.3-1.26-.69-1.07l-11.11,4.6c-1.15.44-6.62,3-8.09,3.45-2.25.75-3.26-.14-1.07-2,.55-.48,7.47-4.95,7.47-4.95l9.19-6.21c.15-.21-.24-.62-.54-.75-.14-.07-.27-.14-.4-.06L113.48,375C112.56,375.39,107.93,378,113,374.23Z"/><path class="cls-1" d="M49.62,437c-8,16.47-5.95,46.87-5.95,46.87a147.08,147.08,0,0,0,20.06-11l1.75-6.64s2.33-5.76,3.88-7.32c2.9-2.9,5.22-2.64,5.22-2.64l7.57-.52c9-14.45,15.18-34.5,6.55-43.1C88.8,429.53,44,479.87,49,472.74c0,0,38.94-53.94,36.11-62.33C73.23,403.68,57.6,420.56,49.62,437Z"/><path class="cls-1" d="M549.93,417c8.36,1,45,58.23,45,58.23,3.61,6.86-26.89-53.46-41.83-60.46,10.49-4,26.85,9.4,35.84,23.85,9.67,15.53,11.91,45.62,11.91,45.62h0s-27.52-11-39.37-24.91S540,424.61,549.93,417Z"/><path class="cls-1" d="M603.91,372.18a.47.47,0,0,0,.1-.77L585.52,355a.07.07,0,0,1,.08-.11l22.73,14.55a.66.66,0,0,0,.7,0,19.13,19.13,0,0,0,2.65-1.47.52.52,0,0,0,0-.84l-24-16.29a.22.22,0,0,1,.22-.37l27.26,14.13a.47.47,0,0,0,.55-.07c.3-.28.07-.16.37-.45a.54.54,0,0,0-.11-.84l-11.6-6.55c-1.12-.56-.83-1.37.3-.86L618.47,361a.62.62,0,0,0,.68-.16c.39-.46-.12.13.26-.34a.48.48,0,0,0-.19-.73l-29.6-13.73a.21.21,0,0,1,.14-.39l32,10.46a.85.85,0,0,0,1-.36c.19-.32-.16.14,0-.18a.66.66,0,0,0-.36-.94l-15.51-6.06c-.81-.37-.7-1,.34-1l17.82,3a.36.36,0,0,0,.38-.21c.11-.28,0-.32.14-.61a.29.29,0,0,0-.2-.38l-34.44-8.85a.17.17,0,0,1,.06-.34l35.65,5.4a.32.32,0,0,0,.36-.23,14.33,14.33,0,0,0,.45-1.4.41.41,0,0,0-.32-.5c-3-.56-14-2.39-18.47-3.48-1.76-.43-2.15-1.55.16-1.63l19.1-.17a.19.19,0,0,0,.2-.17c0-.44,0-.76.07-1.21a.64.64,0,0,0-.44-.45L621,335.8l-30-1.63a.2.2,0,0,1,0-.39l36.85-2.26c.44-.23.2-1.24-.22-1.22H615.85c-1.2,0-7,.2-8.54.09-2.3-.16-2.87-1.34-.2-2.23.67-.22,8.54-1.66,8.54-1.66l10.56-2.16c.21-.13,0-.65-.21-.88s-.19-.22-.34-.2l-32.93,4.29c-1,.05-6.1.64-.2-.85l30.27-8.77a.72.72,0,0,0,.48-1c-.17-.31-.15-.29-.13-.26l-.15-.24a1,1,0,0,0-1-.43l-18.83,4.71c-2,.63-2.51-.48-.52-1.34l17.68-6.8a.15.15,0,0,0,.07-.23c-.5-.69-.74-.95-1.28-1.6a.25.25,0,0,0-.23-.07l-30.86,11c-.21.06-.33-.21-.13-.29l27.23-14.16a.29.29,0,0,0,.1-.47,9.19,9.19,0,0,0-1.13-1.09l-2-.27-12.71,5.34c-.77.41-1,.39-1.52.68l-12,6.09a.11.11,0,0,1-.11-.18l5.6-5a66,66,0,0,1,10.92-6.63l3.36-1.38c-2.07-.4-4.15-.86-6.19-1.39-6.8,3.59-18.32,10.07-25.09,20.53a24.34,24.34,0,0,0-1.78,22.17c6.17,14.05,20.42,23.3,25,26.91a2.67,2.67,0,0,0,1.61.57C602,373.13,600.7,373.75,603.91,372.18Z"/><path class="cls-1" d="M517.31,418.05l-28.12,1.31c.28.66.59,1.44.94,2.33l15.11-.14c2.17-.15,2.4,1.08.21,1.46l-14.11,1.87c.28.75.57,1.55.86,2.39l28.44-3.07a.16.16,0,1,1,.06.32l-27.13,6.75c.33,1,.66,2.06,1,3.13l12.11-2c.87-.23,1.12-.15,1.68-.32l13.51-3.2a.11.11,0,0,1,.07.2l-6.81,3.65a67.71,67.71,0,0,1-12.53,4l-7,1.1c.17.61.34,1.24.51,1.86.47.42.9.77,1.26,1a3.44,3.44,0,0,0,3,.58c5.71-1.62,23-4.74,34.46-15.66a25,25,0,0,0,7.11-21.77c-2.81-15.55-14.85-28.24-18.54-32.95a2.65,2.65,0,0,0-1.47-1c-3-.74-1.48-1-5.07-.25a.48.48,0,0,0-.28.75l14.55,20.92a.07.07,0,0,1-.11.08l-19.26-20a.69.69,0,0,0-.69-.18,18.83,18.83,0,0,0-3,.83.53.53,0,0,0-.17.85L528,395.09a.22.22,0,0,1-.3.32l-23.9-20.7a.48.48,0,0,0-.57-.06c-.37.2-.11.14-.48.36a.56.56,0,0,0-.09.87l10,9.34c1,.83.51,1.57-.51.79l-12.64-8.55a.63.63,0,0,0-.72,0c-.5.36.15-.11-.34.28a.49.49,0,0,0,0,.77l26.35,20.87a.21.21,0,0,1-.24.35l-29.5-18.16a.88.88,0,0,0-1.08.13c-.26.28.2-.11-.06.17a.68.68,0,0,0,.13,1l14.08,9.79c.71.57.45,1.21-.59,1l-17.12-7.32a.35.35,0,0,0-.43.12c-.18.25-.11.31-.28.57a.3.3,0,0,0,.1.43l32.36,17.14a.18.18,0,0,1-.14.33l-34.4-14a.34.34,0,0,0-.41.14,14,14,0,0,0-.79,1.3.42.42,0,0,0,.2.58c2.83,1.27,13.48,5.76,17.65,7.92,1.67.86,1.78,2.07-.54,1.6l-19.17-4.43a.21.21,0,0,0-.24.12c-.16.43-.22.76-.36,1.2a.66.66,0,0,0,.33.55l6.61,2.18,29.7,8.85a.2.2,0,0,1-.05.4l-37.44-6.6c-.49.13-.5,1.2-.07,1.28l11.69,2.81c1.19.32,7.1,1.49,8.57,2,2.27.72,2.56,2-.33,2.28-.73.07-8.95-.39-8.95-.39L483,412.33c-.24.08-.17.64,0,.92s.15.27.3.29l34,3.62C518.31,417.35,523.57,418,517.31,418.05Z"/><path class="cls-1" d="M605.47,404.47c16.14-8.64,32.36-34.42,32.36-34.42a147.53,147.53,0,0,0-22.72-2.87l-5.32,4.35s-5.27,3.29-7.44,3.64c-4.05.64-5.77-.93-5.77-.93s-3-1.85-6.43-4c-15.77,6.4-32.57,19-30.63,31,9.83-13.71,75.66-28.11,67.45-25.26,0,0-63.21,20.75-65.85,29.2C566.76,417.58,589.33,413.1,605.47,404.47Z"/><path class="cls-1" d="M508.7,369.76s11-2.8,12.06-2.66c3.73.47,4.67,1.9,4.67,1.9l3.73,5a52.36,52.36,0,0,0,10.69-6.44c14.68-11.91,27.85-31.7,18-42.23-7.22-.76-38,31.29-50.94,45.11Z"/><path class="cls-1" d="M498.06,375.79a64.88,64.88,0,0,1,7.4-5C516,357.06,542,324.92,554.71,322.12c-10.87-6.82-30.38,3.38-42,16.56-9,10.13-14.87,29.5-17.44,39.5A23,23,0,0,1,498.06,375.79Z"/><circle class="cls-1" cx="315.53" cy="330.61" r="0.08"/><path class="cls-1" d="M520.71,410.85a.2.2,0,0,1-.05.39l-37.51-6.19c-.49.14-.49,1.2-.06,1.28L494.81,409c1.2.31,7.12,1.41,8.6,1.87,2.27.69,2.58,2-.31,2.29-.73.07-9-.3-9-.3l-11.09-.25c-.24.08-.16.65,0,.93.08.13.14.26.29.28l34,3.24c1,.19,6.26.76,0,.9L485,419.84a.73.73,0,0,0-.72.93,2.87,2.87,0,0,0,.17.57,1,1,0,0,0,.94.67l20-.41c2.16-.18,2.4,1,.21,1.46l-19.31,2.77a.16.16,0,0,0-.12.22c.35.81.53,1.12.92,1.9a.24.24,0,0,0,.21.12l33.51-4a.16.16,0,1,1,.06.32l-30.58,8a.3.3,0,0,0-.21.44,8.71,8.71,0,0,0,1.1,1.61l.58.69,15.16-2.65c.87-.24,1.12-.16,1.68-.33l13.47-3.36a.11.11,0,0,1,.07.21l-6.76,3.72a68.06,68.06,0,0,1-12.49,4.15l-7.8,1.3a.26.26,0,0,0-.11.43,30.26,30.26,0,0,0,2.7,2.33,3.43,3.43,0,0,0,3,.55c5.69-1.69,22.93-5,34.28-16a25,25,0,0,0,6.87-21.84c-3-15.52-15.15-28.07-18.89-32.74a2.66,2.66,0,0,0-1.48-.94c-3-.71-1.49-1-5.07-.19a.48.48,0,0,0-.28.75l14.78,20.76a.06.06,0,1,1-.1.08l-19.48-19.81a.68.68,0,0,0-.7-.18,19.94,19.94,0,0,0-3,.86.54.54,0,0,0-.15.86l20.39,21.86a.23.23,0,0,1-.31.33l-24.11-20.44a.51.51,0,0,0-.58-.06c-.37.21-.11.15-.47.37a.56.56,0,0,0-.09.87l10.15,9.23c1,.82.52,1.57-.5.79l-12.74-8.4a.62.62,0,0,0-.71,0c-.5.37.14-.11-.34.28a.49.49,0,0,0,0,.78l26.56,20.57a.21.21,0,0,1-.23.36l-29.7-17.83a.86.86,0,0,0-1.07.13c-.26.28.2-.11-.06.18a.67.67,0,0,0,.14,1L508,392.71c.72.56.46,1.21-.58,1l-17.2-7.13a.37.37,0,0,0-.43.12c-.18.26-.1.32-.28.58a.3.3,0,0,0,.12.43l32.53,16.78a.18.18,0,0,1-.13.34l-34.55-13.61a.33.33,0,0,0-.41.15,13.9,13.9,0,0,0-.77,1.3.42.42,0,0,0,.2.58c2.84,1.24,13.54,5.62,17.74,7.73,1.68.84,1.8,2.05-.53,1.6l-19.21-4.21a.19.19,0,0,0-.24.12c-.16.43-.21.76-.35,1.2a.65.65,0,0,0,.34.55l6.63,2.1"/><path class="cls-1" d="M571.71,288.14c-1.61-1.61-3.18-3.24-4.5-4.7-4.63-5.09-7.3-11.29-8.88-15.76s-.67-8.37,1.57-12.15a10.27,10.27,0,0,1,2.87-3.51c-.44-1.34-.87-2.68-1.34-4a11.53,11.53,0,0,1-3.5-.83,23.58,23.58,0,0,1-7.42-5.51c-2.6-3-2.85-5.14-3.47-8.23s1.86-7.07,3-9.33a9.64,9.64,0,0,1,1-1.49c-.6-1.28-1.19-2.55-1.82-3.82-2.39-4.88-5-9.64-7.61-14.29-5.13-2-10.56-4.45-12.74-6.53-4.38-4.19-11.84-9.57-13.22-17.07-.57-3.13-.14-8.15.54-12.93q-7.83-9.37-16.46-17.86c-2.38.35-5,.63-7.65.77-8.57.44-13.08-1.94-15.12-3.51-3.74-2.89-4.56-7.16-5-10.11-.57-4.1,1.21-6.47,2.52-8.9-.78-.59-1.57-1.18-2.37-1.76-.22.13-.45.25-.68.36-3.5,1.72-8.35,1.57-8.35,1.57a20.92,20.92,0,0,1-6.21-2.1c-2.92-1.62-5.8-4.08-9.18-10.24a46.53,46.53,0,0,1-3-7.1q-10.34-5.73-21.16-10.45c-2.37.59-4.67,1.1-6.46,1.36-6.3.92-12,.56-15-.36a25.16,25.16,0,0,1-9.92-6.34c-1.44-1.4-3.08-4.29-4.52-7.26a256.89,256.89,0,0,0-28.73-6c-2,1-4,2-5.8,2.8-6.28,2.82-13,3.45-17.74,3.57s-8.16-1.95-11.06-5.25a10.19,10.19,0,0,1-2.46-3.84c-1.41,0-2.81,0-4.21,0a11.94,11.94,0,0,1-1.88,3.11,23.7,23.7,0,0,1-7.54,5.35c-3.7,1.53-5.77,1.12-8.89.76s-6.16-4-7.95-5.74a9.19,9.19,0,0,1-1.15-1.52q-10,1.27-20,3.37c-3.51,4.28-7.55,8.74-10.22,10.18-5.34,2.87-12.76,8.31-20.32,7.29-3.14-.42-7.76-2.36-12.09-4.48q-8.64,3.48-17.14,7.66c-1.68.82-3.33,1.67-5,2.53a76.08,76.08,0,0,1-1.62,7.44c-2.22,8.28-5.88,11.84-8,13.29-3.91,2.67-8.22,2.13-11.15,1.61-4.07-.73-5.78-3.15-7.68-5.15-.81.57-1.61,1.15-2.41,1.73.05.24.09.49.13.74.55,3.86-1.09,8.42-1.09,8.42a20.81,20.81,0,0,1-3.91,5.26c-2.45,2.27-5.68,4.26-12.58,5.57a47.38,47.38,0,0,1-7.74.61q-8.62,8.06-16.4,16.8c-.17,2.47-.4,4.86-.71,6.67-1.08,6.27-3.19,11.62-5,14.17a24.94,24.94,0,0,1-9.1,7.47c-1.78,1-5.06,1.61-8.34,2.07a251.83,251.83,0,0,0-14.5,25.5c.35,2.21.65,4.43.86,6.36.75,6.84-.73,13.42-2.08,18s-4.38,7.16-8.42,8.9a10.2,10.2,0,0,1-4.35,1.15c-.44,1.35-.86,2.7-1.28,4.06a11.39,11.39,0,0,1,2.32,2.7,23.79,23.79,0,0,1,2.77,8.82c.31,4-.72,5.84-2,8.7s-5.66,4.63-7.92,5.78a9,9,0,0,1-1.73.61q-1.92,10-3,20.15c3,4.64,6,9.84,6.5,12.81,1.08,6,4,14.7.66,21.58-1.38,2.87-4.68,6.69-8,10.15Q70.5,359.91,72.5,372c2.14,1.12,4.38,2.41,6.64,3.88,7.19,4.67,9.45,9.25,10.17,11.72,1.33,4.54-.52,8.47-1.92,11.1-1.94,3.64-4.77,4.52-7.25,5.71.29.94.58,1.88.88,2.82l.75.11c3.84.67,7.67,3.64,7.67,3.64a20.78,20.78,0,0,1,3.79,5.35c1.41,3,2.3,6.71,1.41,13.68a45,45,0,0,1-1.78,7.46q1.1,2.34,2.23,4.68c2.47,5,2.71,5.67,5.46,10.46l20.51-5.42c-1.2-2.77,0,0-2.31-5.45-1.6-2.94-3.16-5.91-4.65-8.94a233.12,233.12,0,0,1-11.68-28.3c-.79-.81-1.51-1.6-2.12-2.31a39.76,39.76,0,0,1-5-7.21c-2.41-4.3-4.84-9.92-3.58-15.47a45.16,45.16,0,0,1,2.3-7.34,230.38,230.38,0,0,1-3.29-56.58c-3.4-6.06-5.23-11-6.22-19.85-.58-5.24-1.62-8.67,1.55-16.93,1.56-4.08,5.17-6.27,8.89-7.08a25,25,0,0,1,3-.5c2-7.47,4.33-14.82,7-22,0-1.87,0-3.47,0-4.62a20.46,20.46,0,0,1,3.47-11.32,26.08,26.08,0,0,1,7.19-8.32A230,230,0,0,1,128,203.78a11.59,11.59,0,0,1-2-6.26s-.19-5.77,1.21-9,7-10.44,12-12.69a91.22,91.22,0,0,1,14.19-4.39,230.45,230.45,0,0,1,30.49-27.1c.53-1,1-1.91,1.53-2.7a37.59,37.59,0,0,1,6.77-8.37c3.19-3.18,7.29-6.28,12.2-6.73a45.09,45.09,0,0,1,7.67-.07c2.57-1.39,5.16-2.75,7.8-4.05a232.76,232.76,0,0,1,45-16.62c4.72-5.11,8.82-8.37,17-12.05,4.81-2.18,7.75-4.22,16.58-3.76,4.36.23,7.56,3,9.49,6.26a28.6,28.6,0,0,1,1.39,2.69,228.33,228.33,0,0,1,25.5,0l1.82-.58a20.46,20.46,0,0,1,11.85-.2,27.14,27.14,0,0,1,8.19,3,231.43,231.43,0,0,1,26,5.46A11.62,11.62,0,0,1,388,102.8s5.43-2,9-1.63,12.09,3.44,15.78,7.48a93.24,93.24,0,0,1,8.6,12.22,231.68,231.68,0,0,1,35.17,20.55c1.1.19,2.12.4,3,.62a36.56,36.56,0,0,1,10.5,4.11c3.89,2,7.9,4.94,9.78,9.32a45.1,45.1,0,0,1,2.42,7.17,230.46,230.46,0,0,1,35.88,43.81c6.34,2.93,10.72,5.81,16.75,12.44,3.56,3.89,6.41,6.06,8.7,14.6,1.13,4.22-.5,8.11-3,11a29.93,29.93,0,0,1-2.17,2.19q4.25,10.94,7.33,22.05c1.08,1.47,2,2.76,2.63,3.66a20.55,20.55,0,0,1,3.86,11.21,26.19,26.19,0,0,1-.9,10.85,228.9,228.9,0,0,1,2.51,24.38,11.6,11.6,0,0,1,5.23,3.9s3.54,4.56,4.33,8,.47,12.56-2.24,17.32a93.38,93.38,0,0,1-9,11.94,233.21,233.21,0,0,1-8.7,39.71c.16,1.14.28,2.21.36,3.16a38.3,38.3,0,0,1-.41,10c-.65,4.67-2.09,10-6,13.51a45,45,0,0,1-6.27,4.64c-6.73,14-4.57,12.6-13.61,25.67l21.13,4.94a181.72,181.72,0,0,0,9.92-18c-1.06-2.14-2.11-4.48-3.06-7-3.07-8-2.21-13-1.34-15.46,1.59-4.46,5.4-6.56,8.08-7.86,3.7-1.79,6.49-.86,9.19-.36.33-.94.64-1.88,1-2.83l-.51-.49c-2.72-2.8-4.07-7.46-4.07-7.46a20.65,20.65,0,0,1,.08-6.55c.63-3.28,2.08-6.78,6.9-11.9a46.59,46.59,0,0,1,5.83-5q2.26-11.56,3.43-23.32c-1.3-2.09-2.51-4.13-3.32-5.77-2.81-5.71-4.24-11.27-4.3-14.39a25.1,25.1,0,0,1,3-11.39c.89-1.82,3.17-4.3,5.57-6.61A253.92,253.92,0,0,0,571.71,288.14Z"/><path class="cls-1" d="M85.78,410.51c2.3,8.1-36.12,64.13-36.12,64.13-4.92,6,38.78-45.58,39.42-62.05,7.74,8.11,1.79,28.39-8,42.29C70.51,469.83,43.66,483.6,43.66,483.6h0s-.59-29.62,7.63-46S74.92,404.32,85.78,410.51Z"/></g><g id="blackBEEG"><path class="cls-2" d="M384.86,420.88a90,90,0,0,0,19.93-19.64,73.12,73.12,0,0,0,14.32-45.33H205.29a73.12,73.12,0,0,0,14.32,45.33,90.22,90.22,0,0,0,19.92,19.64Z"/><path class="cls-3" d="M242.49,355.59a73.14,73.14,0,0,0,14.32,45.34,90.22,90.22,0,0,0,19.92,19.64"/><path class="cls-3" d="M386,355.91a73.12,73.12,0,0,1-14.32,45.33,90.22,90.22,0,0,1-19.92,19.64"/><path class="cls-3" d="M278,352.25a73.1,73.1,0,0,0,14.32,45.33,90.1,90.1,0,0,0,19.93,19.65"/><path class="cls-3" d="M350.57,352.25a73.1,73.1,0,0,1-14.32,45.33,90.1,90.1,0,0,1-19.93,19.65"/><line class="cls-4" x1="284.1" y1="188.05" x2="343.51" y2="188.05"/><line class="cls-5" x1="313.8" y1="219.55" x2="313.8" y2="442.89"/><path class="cls-6" d="M313.8,201.93s-85,2.19-85,13.13"/><path class="cls-6" d="M309.74,200.82s85,2.18,85,13.13"/><line class="cls-6" x1="228.79" y1="223.73" x2="394.67" y2="223.73"/><line class="cls-6" x1="234.6" y1="213.95" x2="389.01" y2="213.95"/><line class="cls-7" x1="235.94" y1="249.58" x2="237.07" y2="269.44"/><line class="cls-7" x1="234.6" y1="242.15" x2="234.6" y2="223.76"/><line class="cls-7" x1="238.13" y1="278.23" x2="242.38" y2="298.75"/><path class="cls-7" d="M244.85,308.65a152.55,152.55,0,0,0,8.49,17.69"/><path class="cls-7" d="M257.94,337.3s9.55,12,12.38,14.15"/><line class="cls-7" x1="270.68" y1="240.03" x2="270.32" y2="225.18"/><line class="cls-7" x1="271.03" y1="270.1" x2="270.68" y2="249.58"/><line class="cls-7" x1="272.44" y1="297.69" x2="272.09" y2="279.29"/><path class="cls-7" d="M278.1,327.75s-3.89-15.21-3.89-20.51"/><line class="cls-7" x1="279.16" y1="337.3" x2="286.95" y2="352.51"/><ellipse class="cls-7" cx="235.34" cy="245.11" rx="6.93" ry="9.43" transform="translate(-20.41 21.38) rotate(-4.99)"/><ellipse class="cls-7" cx="237.88" cy="273.97" rx="6.82" ry="9.43" transform="translate(-38.12 38.45) rotate(-8.56)"/><ellipse class="cls-7" cx="243.39" cy="303.18" rx="6.49" ry="9.43" transform="translate(-80.81 88.59) rotate(-17.74)"/><ellipse class="cls-7" cx="255.53" cy="331.46" rx="6.59" ry="9.43" transform="translate(-131.5 172.17) rotate(-30)"/><ellipse class="cls-7" cx="271.19" cy="353.49" rx="6.66" ry="8.25" transform="translate(-155.65 225.8) rotate(-35.85)"/><ellipse class="cls-7" cx="271.23" cy="245.14" rx="6.93" ry="9.43" transform="translate(-12.94 15.13) rotate(-3.12)"/><ellipse class="cls-7" cx="271.84" cy="273.6" rx="6.93" ry="9.43" transform="translate(-12.65 13.18) rotate(-2.71)"/><ellipse class="cls-7" cx="274.32" cy="302.68" rx="6.93" ry="9.43" transform="translate(-39.01 40.58) rotate(-7.9)"/><ellipse class="cls-7" cx="279.23" cy="331.75" rx="6.76" ry="9.07" transform="translate(-86.43 98.69) rotate(-17.4)"/><line class="cls-7" x1="294.93" y1="372.97" x2="331.43" y2="373.28"/><line class="cls-7" x1="393.32" y1="250.06" x2="392.19" y2="269.92"/><line class="cls-7" x1="394.67" y1="242.63" x2="394.67" y2="224.24"/><line class="cls-7" x1="391.13" y1="278.71" x2="386.89" y2="299.23"/><path class="cls-7" d="M384.41,309.13a150.74,150.74,0,0,1-8.49,17.69"/><path class="cls-7" d="M371.32,337.78s-9.55,12-12.38,14.15"/><line class="cls-8" x1="358.59" y1="240.51" x2="358.94" y2="225.65"/><line class="cls-7" x1="358.24" y1="270.58" x2="358.59" y2="250.06"/><line class="cls-7" x1="356.82" y1="298.17" x2="357.17" y2="279.77"/><path class="cls-7" d="M351.16,328.23s3.89-15.21,3.89-20.51"/><line class="cls-7" x1="350.1" y1="337.78" x2="342.32" y2="352.99"/><ellipse class="cls-7" cx="393.92" cy="245.58" rx="9.43" ry="6.93" transform="translate(115.03 616.67) rotate(-85.01)"/><ellipse class="cls-7" cx="391.38" cy="274.45" rx="9.43" ry="6.82" transform="translate(61.74 620.63) rotate(-81.44)"/><ellipse class="cls-7" cx="385.87" cy="303.66" rx="9.43" ry="6.49" transform="translate(-20.93 578.64) rotate(-72.26)"/><ellipse class="cls-7" cx="373.74" cy="331.94" rx="9.43" ry="6.59" transform="translate(-100.6 489.64) rotate(-60)"/><ellipse class="cls-7" cx="358.04" cy="245.61" rx="9.43" ry="6.93" transform="translate(93.3 589.76) rotate(-86.88)"/><ellipse class="cls-7" cx="357.42" cy="274.08" rx="9.43" ry="6.93" transform="translate(66.73 618.12) rotate(-87.29)"/><ellipse class="cls-7" cx="354.95" cy="303.16" rx="9.43" ry="6.93" transform="translate(5.87 613.06) rotate(-82.1)"/><ellipse class="cls-7" cx="350.04" cy="332.22" rx="9.07" ry="6.76" transform="translate(-71.66 566.89) rotate(-72.6)"/><line class="cls-7" x1="373.96" y1="256.17" x2="372.76" y2="277.3"/><line class="cls-7" x1="375.39" y1="248.27" x2="375.39" y2="228.7"/><line class="cls-7" x1="371.63" y1="286.65" x2="367.12" y2="308.47"/><path class="cls-7" d="M364.48,319a159.66,159.66,0,0,1-9,18.81"/><line class="cls-8" x1="337.01" y1="246.01" x2="337.39" y2="230.21"/><line class="cls-7" x1="336.64" y1="277.99" x2="337.01" y2="256.17"/><line class="cls-7" x1="335.13" y1="307.34" x2="335.51" y2="287.78"/><path class="cls-7" d="M329.11,339.33s4.14-16.18,4.14-21.83"/><line class="cls-7" x1="327.98" y1="349.49" x2="319.7" y2="365.67"/><ellipse class="cls-7" cx="374.6" cy="251.41" rx="10.03" ry="7.37" transform="translate(91.58 602.74) rotate(-85.01)"/><ellipse class="cls-7" cx="371.9" cy="282.12" rx="10.03" ry="7.26" transform="matrix(0.15, -0.99, 0.99, 0.15, 37.58, 607.89)"/><ellipse class="cls-7" cx="366.04" cy="313.19" rx="10.03" ry="6.9" transform="translate(-43.8 566.38) rotate(-72.26)"/><ellipse class="cls-7" cx="353.13" cy="343.27" rx="10.03" ry="7.01" transform="translate(-120.72 477.45) rotate(-60)"/><ellipse class="cls-7" cx="336.47" cy="366.7" rx="8.78" ry="7.09" transform="translate(-157.82 424.65) rotate(-54.15)"/><ellipse class="cls-7" cx="336.43" cy="251.44" rx="10.03" ry="7.37" transform="translate(67.05 573.68) rotate(-86.88)"/><ellipse class="cls-7" cx="335.77" cy="281.72" rx="10.03" ry="7.37" transform="translate(38.47 603.78) rotate(-87.29)"/><ellipse class="cls-7" cx="333.14" cy="312.66" rx="10.03" ry="7.37" transform="translate(-22.35 599.65) rotate(-82.1)"/><ellipse class="cls-7" cx="327.92" cy="343.58" rx="9.65" ry="7.19" transform="translate(-98 553.73) rotate(-72.6)"/><line class="cls-7" x1="254.82" y1="256.12" x2="256.05" y2="277.58"/><line class="cls-7" x1="253.37" y1="248.1" x2="253.37" y2="228.22"/><line class="cls-7" x1="257.19" y1="287.08" x2="261.78" y2="309.24"/><path class="cls-7" d="M264.45,319.94a163.06,163.06,0,0,0,9.18,19.11"/><line class="cls-7" x1="292.35" y1="245.8" x2="291.97" y2="229.75"/><line class="cls-7" x1="292.73" y1="278.29" x2="292.35" y2="256.12"/><line class="cls-7" x1="294.26" y1="308.1" x2="293.88" y2="288.22"/><path class="cls-7" d="M300.38,340.58s-4.21-16.43-4.21-22.17"/><line class="cls-7" x1="301.52" y1="350.9" x2="309.93" y2="367.33"/><ellipse class="cls-7" cx="254.18" cy="251.28" rx="7.48" ry="10.19" transform="translate(-20.88 23.05) rotate(-4.99)"/><ellipse class="cls-7" cx="256.92" cy="282.47" rx="7.37" ry="10.19" transform="translate(-39.17 41.38) rotate(-8.56)"/><ellipse class="cls-7" cx="262.88" cy="314.03" rx="7.01" ry="10.19" transform="translate(-83.19 95.04) rotate(-17.74)"/><ellipse class="cls-7" cx="275.99" cy="344.58" rx="7.12" ry="10.19" transform="translate(-135.32 184.16) rotate(-30)"/><ellipse class="cls-7" cx="292.9" cy="368.38" rx="7.2" ry="8.92" transform="translate(-160.26 241.35) rotate(-35.85)"/><ellipse class="cls-7" cx="292.95" cy="251.32" rx="7.48" ry="10.19" transform="translate(-13.24 16.32) rotate(-3.12)"/><ellipse class="cls-7" cx="293.61" cy="282.07" rx="7.48" ry="10.19" transform="translate(-13.02 14.22) rotate(-2.71)"/><ellipse class="cls-7" cx="296.29" cy="313.49" rx="7.48" ry="10.19" transform="translate(-40.28 43.71) rotate(-7.9)"/><ellipse class="cls-7" cx="301.59" cy="344.89" rx="7.3" ry="9.8" transform="translate(-89.34 105.98) rotate(-17.4)"/><line class="cls-4" x1="335.51" y1="207.38" x2="313.18" y2="208.19"/></g><g id="TextLayer"><g id="Bottom_Text" data-name="Bottom Text"><path class="cls-1" d="M120.37,513.63H98.81l-3.46,10.08H79.25l22.1-58.06h16.48l22.1,58.06H123.84Zm-4-11.48-6.78-19.32-6.78,19.32Z"/><path class="cls-1" d="M159.72,465.65v31.57c0,1.7.06,3.43.19,5.2a14.27,14.27,0,0,0,1.15,4.81,8.07,8.07,0,0,0,3.05,3.51,10.68,10.68,0,0,0,5.85,1.35,10.51,10.51,0,0,0,5.81-1.35,8.31,8.31,0,0,0,3-3.51,13.61,13.61,0,0,0,1.2-4.81c.12-1.77.19-3.5.19-5.2V465.65h15V499.3q0,13.56-6.19,19.79T170,525.33q-12.87,0-19.1-6.24t-6.24-19.79V465.65Z"/><path class="cls-1" d="M248.88,485.06A16.1,16.1,0,0,0,236,478.67a15.88,15.88,0,0,0-6.28,1.23,15.39,15.39,0,0,0-5,3.35,15.56,15.56,0,0,0-3.27,5,16.69,16.69,0,0,0-1.19,6.32,16.86,16.86,0,0,0,1.19,6.39,15.67,15.67,0,0,0,3.31,5.08,15.42,15.42,0,0,0,11.13,4.62q7.23,0,13-6.16V522.4l-1.54.54a43.85,43.85,0,0,1-6.47,1.81,30.84,30.84,0,0,1-5.92.58,30,30,0,0,1-11.52-2.27,30.31,30.31,0,0,1-9.7-6.39,32,32,0,0,1-6.74-9.78,31.32,31.32,0,0,1,0-24.64A30.66,30.66,0,0,1,235,464a31.79,31.79,0,0,1,6.82.73,41.16,41.16,0,0,1,7,2.27Z"/><path class="cls-1" d="M275.68,489.6l18.4-24h18.63l-23,27.49,25.18,30.57H295.31l-19.63-25.18v25.18H260.59V465.65h15.09Z"/><path class="cls-1" d="M336.35,465.65v45.28h18.1v12.78H321.26V465.65Z"/><path class="cls-1" d="M399.88,513.63H378.32l-3.47,10.08H358.76l22.1-58.06h16.48l22.09,58.06H403.34Zm-4-11.48-6.77-19.32-6.78,19.32Z"/><path class="cls-1" d="M425.75,523.71V465.65h15.09l27.87,35.5v-35.5h15v58.06h-15l-27.87-35.49v35.49Z"/><path class="cls-1" d="M495.59,465.65h22.33A26.33,26.33,0,0,1,529,468a30.28,30.28,0,0,1,9.09,6.35,29.67,29.67,0,0,1,6.12,9.24,28,28,0,0,1,2.23,11.05,28.39,28.39,0,0,1-2.19,11,29.3,29.3,0,0,1-6.08,9.27,30.33,30.33,0,0,1-9.09,6.4,26.55,26.55,0,0,1-11.2,2.38H495.59Zm15.09,45.28h3.46a18.77,18.77,0,0,0,7-1.23,15,15,0,0,0,5.2-3.39,14.45,14.45,0,0,0,3.23-5.12,18.2,18.2,0,0,0,1.12-6.51,17.81,17.81,0,0,0-1.16-6.46,14.77,14.77,0,0,0-3.27-5.16,14.94,14.94,0,0,0-5.2-3.39,18.52,18.52,0,0,0-6.93-1.23h-3.46Z"/><path class="cls-1" d="M100.55,533h14.5a17.15,17.15,0,0,1,7.22,1.55,19.72,19.72,0,0,1,5.9,4.13,19.11,19.11,0,0,1,4,6,18.47,18.47,0,0,1,0,14.3,19.22,19.22,0,0,1-9.85,10.17,17.1,17.1,0,0,1-7.27,1.55h-14.5Zm9.8,29.4h2.25a12.06,12.06,0,0,0,4.55-.8,9.62,9.62,0,0,0,3.37-2.2,9.31,9.31,0,0,0,2.1-3.32,12,12,0,0,0,.73-4.23,11.6,11.6,0,0,0-.75-4.2,9.69,9.69,0,0,0-2.13-3.35,9.81,9.81,0,0,0-3.37-2.2,12.14,12.14,0,0,0-4.5-.8h-2.25Z"/><path class="cls-1" d="M149.65,533v37.7h-9.8V533Z"/><path class="cls-1" d="M178.25,542.66a12.24,12.24,0,0,0-3.2-1.92,8.45,8.45,0,0,0-3.1-.63,5,5,0,0,0-3.1.9,2.81,2.81,0,0,0-1.2,2.35,2.33,2.33,0,0,0,.6,1.65,5.16,5.16,0,0,0,1.57,1.13,13.68,13.68,0,0,0,2.2.82q1.23.36,2.43.75a15.06,15.06,0,0,1,7,4.28,10.56,10.56,0,0,1,2.23,7,13.53,13.53,0,0,1-1,5.25,11,11,0,0,1-2.85,4,13.28,13.28,0,0,1-4.6,2.6,19.33,19.33,0,0,1-6.17.92,22.64,22.64,0,0,1-13.25-4.25l4.2-7.9a16.73,16.73,0,0,0,4.35,2.9,10.34,10.34,0,0,0,4.25,1,5,5,0,0,0,3.57-1.1,3.39,3.39,0,0,0,.88-4,3.23,3.23,0,0,0-1-1.15,8.13,8.13,0,0,0-1.83-1c-.75-.3-1.66-.63-2.72-1-1.27-.4-2.51-.84-3.73-1.32a11.85,11.85,0,0,1-3.25-1.93,9,9,0,0,1-2.3-3,10.78,10.78,0,0,1-.87-4.63,13.27,13.27,0,0,1,.92-5.07,11.22,11.22,0,0,1,2.6-3.9,11.5,11.5,0,0,1,4.1-2.53,15.54,15.54,0,0,1,5.43-.9,23.68,23.68,0,0,1,5.85.78,25.6,25.6,0,0,1,5.85,2.27Z"/><path class="cls-1" d="M217,545.61a10.49,10.49,0,0,0-8.4-4.15,10.35,10.35,0,0,0-4.08.8,9.84,9.84,0,0,0-5.35,5.45,11.43,11.43,0,0,0,0,8.25,10,10,0,0,0,2.15,3.3,10,10,0,0,0,7.23,3,11.34,11.34,0,0,0,8.45-4v11.6l-1,.35a28.17,28.17,0,0,1-4.2,1.18,20.39,20.39,0,0,1-3.85.37,19.48,19.48,0,0,1-7.48-1.47,19.78,19.78,0,0,1-6.3-4.15,20.65,20.65,0,0,1-4.37-6.35,20.39,20.39,0,0,1,0-16A19.95,19.95,0,0,1,208,532a20.43,20.43,0,0,1,4.42.48,26.85,26.85,0,0,1,4.58,1.47Z"/><path class="cls-1" d="M258.55,549.61H278c0,2-.09,3.82-.25,5.45a19.41,19.41,0,0,1-1,4.55,18.19,18.19,0,0,1-2.85,5.23,16.83,16.83,0,0,1-4.23,3.8,20,20,0,0,1-5.32,2.32,22.63,22.63,0,0,1-6.1.8,21.37,21.37,0,0,1-8-1.45,17.92,17.92,0,0,1-6.22-4.07,18.26,18.26,0,0,1-4.05-6.3,21.9,21.9,0,0,1-1.45-8.13,22.14,22.14,0,0,1,1.42-8.07,17.8,17.8,0,0,1,4.05-6.28,18.49,18.49,0,0,1,6.33-4.05,22.53,22.53,0,0,1,8.25-1.45,20.47,20.47,0,0,1,10.35,2.55,17.77,17.77,0,0,1,7.05,7.9l-9.3,3.85a9.54,9.54,0,0,0-3.38-4.45,8.46,8.46,0,0,0-4.72-1.35,9.48,9.48,0,0,0-4,.83,8.65,8.65,0,0,0-3.08,2.35,11.16,11.16,0,0,0-2,3.67,16.32,16.32,0,0,0-.1,9.25,10,10,0,0,0,1.88,3.55,8.38,8.38,0,0,0,3.1,2.33,10.44,10.44,0,0,0,4.3.82,12.33,12.33,0,0,0,2.8-.32,7.53,7.53,0,0,0,2.42-1.05,6,6,0,0,0,1.78-1.88,7.64,7.64,0,0,0,1-2.8h-8.05Z"/><path class="cls-1" d="M282.5,551.86a19.51,19.51,0,0,1,5.85-14.15,19.48,19.48,0,0,1,6.57-4.22,23.91,23.91,0,0,1,16.83,0,19.8,19.8,0,0,1,6.62,4.22,19.26,19.26,0,0,1,4.32,6.33,20.41,20.41,0,0,1,0,15.65,19.32,19.32,0,0,1-4.32,6.32,20,20,0,0,1-6.62,4.23,24.05,24.05,0,0,1-16.83,0,19.46,19.46,0,0,1-12.42-18.38Zm10.25,0a10,10,0,0,0,.85,4.15,10.42,10.42,0,0,0,5.67,5.48,11.17,11.17,0,0,0,8.15,0,10.64,10.64,0,0,0,3.4-2.18,10.34,10.34,0,0,0,2.33-3.3,10.56,10.56,0,0,0,0-8.3,10.47,10.47,0,0,0-5.73-5.47,11,11,0,0,0-8.15,0,10.27,10.27,0,0,0-3.37,2.17,10.48,10.48,0,0,0-2.3,3.3A10,10,0,0,0,292.75,551.86Z"/><path class="cls-1" d="M340.24,533v29.4H352v8.3H330.44V533Z"/><path class="cls-1" d="M378.64,541.31h-11.8v6.3h10.75v8.3H366.84v14.8H357V533h21.6Z"/><path class="cls-1" d="M428.64,545.61a10.46,10.46,0,0,0-8.4-4.15,10.33,10.33,0,0,0-4.07.8,10,10,0,0,0-3.23,2.18,9.87,9.87,0,0,0-2.12,3.27,11.3,11.3,0,0,0,0,8.25,9.87,9.87,0,0,0,2.15,3.3,10,10,0,0,0,7.22,3,11.33,11.33,0,0,0,8.45-4v11.6l-1,.35a28.17,28.17,0,0,1-4.2,1.18,20.32,20.32,0,0,1-3.85.37,19.43,19.43,0,0,1-7.47-1.47,19.78,19.78,0,0,1-6.3-4.15,20.68,20.68,0,0,1-4.38-6.35,19.39,19.39,0,0,1-1.65-8,19.13,19.13,0,0,1,1.63-8A19.92,19.92,0,0,1,419.64,532a20.52,20.52,0,0,1,4.43.48,26.76,26.76,0,0,1,4.57,1.47Z"/><path class="cls-1" d="M444.64,533v29.4h11.75v8.3H434.84V533Z"/><path class="cls-1" d="M470.54,533v20.5c0,1.1,0,2.23.13,3.38a9,9,0,0,0,.75,3.12,5.16,5.16,0,0,0,2,2.28,7,7,0,0,0,3.8.87,6.89,6.89,0,0,0,3.78-.87,5.42,5.42,0,0,0,2-2.28,8.84,8.84,0,0,0,.78-3.12c.08-1.15.12-2.28.12-3.38V533h9.75v21.85q0,8.8-4,12.85t-12.38,4q-8.34,0-12.4-4t-4.05-12.85V533Z"/><path class="cls-1" d="M501.49,533h14.6c3.47,0,6.1.84,7.9,2.5s2.7,4.07,2.7,7.2a9.83,9.83,0,0,1-1,4.73,8.62,8.62,0,0,1-3.13,3.17,12,12,0,0,1,3.58,1.23,7.83,7.83,0,0,1,2.4,2,7.56,7.56,0,0,1,1.32,2.7,12.25,12.25,0,0,1,.4,3.2,11.39,11.39,0,0,1-.92,4.7,9.6,9.6,0,0,1-2.6,3.45,11,11,0,0,1-4.08,2.1,19.15,19.15,0,0,1-5.4.7H501.49Zm9.8,14.8h1.8c3.07,0,4.6-1.21,4.6-3.65s-1.53-3.65-4.6-3.65h-1.8Zm0,15.3h2.15c2.47,0,4.24-.31,5.3-1a3.71,3.71,0,0,0,0-6.1,10.94,10.94,0,0,0-5.3-.95h-2.15Z"/></g></g></g></svg>