<svg xmlns="http://www.w3.org/2000/svg" viewBox="0 0 113.43 121.61"><defs><style>.cls-1{fill:none;stroke:#000;stroke-miterlimit:10;stroke-width:0.3px;}</style></defs><g id="Layer_2" data-name="Layer 2"><g id="Layer_1-2" data-name="Layer 1"><polyline class="cls-1" points="69.81 29.68 69.96 26.28 70.07 29.68"/><path class="cls-1" d="M79.43,16.33a8.92,8.92,0,0,1-1.65,4.24,9.29,9.29,0,0,1-3.5,2.87,11,11,0,0,1-4.86,1A11.18,11.18,0,0,1,63.57,23a9.73,9.73,0,0,1-3.83-4.21,14.46,14.46,0,0,1-1.35-6.47v0a14.26,14.26,0,0,1,1.36-6.47,9.87,9.87,0,0,1,3.83-4.2A11.23,11.23,0,0,1,69.42.15a11,11,0,0,1,4.85,1,9.34,9.34,0,0,1,3.5,2.89,9,9,0,0,1,1.66,4.23l0,.17H75.32l-.08-.31a6.09,6.09,0,0,0-1.12-2.33,5.2,5.2,0,0,0-2-1.52,6.55,6.55,0,0,0-2.73-.54,6.1,6.1,0,0,0-3.56,1.05,6.67,6.67,0,0,0-2.35,2.94,11.26,11.26,0,0,0-.83,4.52v0a11.4,11.4,0,0,0,.83,4.52,6.79,6.79,0,0,0,2.35,3,6.14,6.14,0,0,0,3.56,1.05,6.43,6.43,0,0,0,2.69-.53,5.25,5.25,0,0,0,2-1.54,6.42,6.42,0,0,0,1.19-2.46l0-.16h4.12Z"/><path class="cls-1" d="M84.49,21.17l3.83-5.09Z"/><path class="cls-1" d="M85.65,14c-.42-1.63,2.67-3.21,2.67-3.21S85.23,12.34,85.65,14s2.67,1.49,2.67,1.49S86.08,15.59,85.65,14Z"/><path class="cls-1" d="M90.69,9.86c1.37.59,2.12,1.53,1.81,2.42.31-.89-.44-1.83-1.81-2.42s-2.37,1.81-2.37,1.81S89.31,9.27,90.69,9.86Z"/><path class="cls-1" d="M108,17c.07.07.1.86-1.32,1s-1.72-2-1.72-2,.31,2.14,1.72,2S108.05,17,108,17Z"/><polygon class="cls-1" points="101.79 15.46 101.38 14.94 100.26 14.94 97.53 14.94 100.26 14.94 100.26 12.65 99.52 12.65 95.78 12.65 94.6 12.65 94.6 14.94 97.26 14.94 94.6 14.94 93.05 15.16 94.6 14.94 94.6 12.65 95.78 12.65 95.78 11.91 96.63 11.91 96.63 3.68 97.77 0.9 99.09 3.55 98.85 11.91 99.52 11.91 99.52 12.65 100.26 12.65 100.26 14.94 101.38 14.94 101.79 15.46 102.83 15.96 101.79 15.46"/><path class="cls-1" d="M103.5,19.54l-12.79-.68Z"/><path class="cls-1" d="M88.34,13.8c0-1.21,1.86-.94,1.86-.94s-1.81-.27-1.86.94-.14,2.69,1.1,2.61a9.4,9.4,0,0,0,2.36-.47s1.44-.3,1.55-1.6-.07-1.52-.8-1.68-2.29,1.14-2.29,1.14,1.56-1.31,2.29-1.14.92.38.8,1.68-1.55,1.6-1.55,1.6a9.4,9.4,0,0,1-2.36.47C88.2,16.49,88.3,15,88.34,13.8Z"/><path class="cls-1" d="M101.09,21.82c-1.43-.44-3.32-.86-4-.65a13.36,13.36,0,0,1-3.71.38A14.52,14.52,0,0,0,90,22a14.52,14.52,0,0,1,3.37-.42,13.36,13.36,0,0,0,3.71-.38c.67-.21,2.56.21,4,.65s2.94-.22,3.85-.28C104,21.6,102.52,22.27,101.09,21.82Z"/><path class="cls-1" d="M107.18,19.24a2.12,2.12,0,0,0-1.66-.65A3,3,0,0,1,103.45,17a3.53,3.53,0,0,0-.86-1.57c-.7-.7,1.21-1.82,2.52-2.06s1.07,1.54,1.07,1.54.24-1.78-1.07-1.54-3.22,1.36-2.52,2.06a3.53,3.53,0,0,1,.86,1.57,3,3,0,0,0,2.07,1.56,2.12,2.12,0,0,1,1.66.65c.21.28,1.35.59,1.73-.2a3.06,3.06,0,0,0,0-2.35,1.5,1.5,0,0,0-1.62-1,1.5,1.5,0,0,1,1.62,1,1.55,1.55,0,0,0,1.14-.23c.38-.36-.14-2.26-.9-3.08s-2.49.26-2.49.26,1.72-1.08,2.49-.26,1.28,2.72.9,3.08a1.55,1.55,0,0,1-1.14.23,3.06,3.06,0,0,1,0,2.35C108.53,19.83,107.39,19.52,107.18,19.24Z"/><line class="cls-1" x1="98.85" y1="11.91" x2="96.63" y2="11.91"/><path class="cls-1" d="M9,29.68v-.4c-.05-.64,1.45-.89,2.73-.94s2.89.24,2.74.58v.76"/><polygon class="cls-1" points="17.77 25.03 15.78 18.95 7.03 18.95 5.04 25.03 0.64 25.03 9.05 1.52 11.45 1.52 13.78 1.52 22.17 25.03 17.77 25.03"/><path class="cls-1" d="M46.83,16.45c-4.23.07-9.61.41-12.47.48s-10.45-.86-10.45-.86,7.43-3.31,8.91-4.05,3.08-3.25,4.07-3.61S39,10,39.7,9.77a10.5,10.5,0,0,0,1.9-1.2,11.72,11.72,0,0,1,3.71,2.15A9.07,9.07,0,0,0,50,12.92c1.43.31,4.86,2.81,4.86,2.81A57.51,57.51,0,0,1,46.83,16.45Z"/><path class="cls-1" d="M9.93,29.68a5.15,5.15,0,0,1-1-.4"/><polygon class="cls-1" points="8.09 15.71 14.72 15.71 11.76 5.74 8.09 15.71"/><path class="cls-1" d="M13.11,29.68a2.47,2.47,0,0,0,1.33-.76"/><polyline class="cls-1" points="69.81 29.67 69.5 36.91 68.8 39.78 67.73 39.78 68.3 41.51 67.3 43.38 64.76 43.38 64.76 44.02 67.13 44.02 68.16 47.11 68.37 50.92 69.5 52.28 69.5 59.25 69.5 52.28 68.37 50.92 68.16 47.11 67.13 44.02 64.76 44.02 64.76 43.38 67.3 43.38 68.3 41.51 67.73 39.78 68.8 39.78 69.5 36.91 69.81 29.67"/><polyline class="cls-1" points="70.07 29.67 70.31 36.91 71.25 39.78 72.4 39.78 71.61 41.36 72.61 43.37 74.9 43.37 74.9 43.97 72.68 44.02 72.2 47.05 72.18 50.92 71.25 52.43 71.25 59.25 71.25 52.43 72.18 50.92 72.2 47.05 72.68 44.02 74.9 43.97 74.9 43.37 72.61 43.37 71.61 41.36 72.4 39.78 71.25 39.78 70.31 36.91 70.07 29.67"/><path class="cls-1" d="M88,31.43h8.59a12.22,12.22,0,0,1,6,1.37,9.13,9.13,0,0,1,3.83,4,13.75,13.75,0,0,1,1.34,6.32v0a14,14,0,0,1-1.33,6.36,9.32,9.32,0,0,1-3.83,4,12.15,12.15,0,0,1-6,1.4H88Z"/><path class="cls-1" d="M70.85,39.8h0Z"/><path class="cls-1" d="M71.11,41.36h0Z"/><path class="cls-1" d="M72.3,43.37h0Z"/><path class="cls-1" d="M67.43,44h0Z"/><polygon class="cls-1" points="68.82 48.38 68.73 47.01 71.67 47.01 71.67 48.38 68.82 48.38"/><polygon class="cls-1" points="70.1 55.98 70.1 56.6 70.1 55.98 70.61 55.98 70.1 55.98"/><polygon class="cls-1" points="70.61 57.77 70.1 57.77 70.1 58.5 70.1 57.77 70.61 57.77"/><polygon class="cls-1" points="70.1 54.5 70.1 55.34 70.1 54.5 70.61 54.5 70.1 54.5"/><polygon class="cls-1" points="70.1 52.55 70.1 53.55 70.1 52.55 70.61 52.55 70.1 52.55"/><path class="cls-1" d="M75.51,96a5.6,5.6,0,0,0-1-.85l-.16,0c-.64.15-1.46.29-2.32.4.35.5.58.92.45,1,.13-.08-.1-.5-.45-1a25.39,25.39,0,0,1-3.41.22,4.2,4.2,0,0,0-.17,1.1,4.2,4.2,0,0,1,.17-1.1h-.17a14.21,14.21,0,0,1-2.06-.3,3.48,3.48,0,0,0-.92,1.25,3.48,3.48,0,0,1,.92-1.25c-1.43-.3-2.85-.71-2.85-.71s1.42.41,2.85.71a17,17,0,0,1,2.06-1.67,17,17,0,0,0-2.06,1.67,14.21,14.21,0,0,0,2.06.3h.17a10,10,0,0,1,.77-2,10,10,0,0,0-.77,2,25.39,25.39,0,0,0,3.41-.22,7.81,7.81,0,0,0-1.64-1.8,7.81,7.81,0,0,1,1.64,1.8c.86-.11,1.68-.25,2.32-.4l.16,0a17.9,17.9,0,0,0-2.9-1.57,17.9,17.9,0,0,1,2.9,1.57,4.65,4.65,0,0,0,1.54-.52,4.65,4.65,0,0,1-1.54.52A5.6,5.6,0,0,1,75.51,96Z"/><path class="cls-1" d="M69.94,93.82a8.41,8.41,0,0,1-2.74-.52s-3.31.26-4.67,1.56.34,1.56.34,1.56a26.23,26.23,0,0,0,5.83,1c2.29,0,5.6-.13,7.43-1s2.13-.74,1.81-1.26a7,7,0,0,0-2.66-1.4,14.33,14.33,0,0,0-2.59-.49,14.33,14.33,0,0,1,2.59.49,7,7,0,0,1,2.66,1.4c.32.52,0,.45-1.81,1.26s-5.14.92-7.43,1a26.23,26.23,0,0,1-5.83-1s-1.7-.26-.34-1.56S67.2,93.3,67.2,93.3V91.64c0-.64,1.46-.89,2.74-.94s2.88.24,2.74.58v2A12.23,12.23,0,0,1,69.94,93.82Z"/><path class="cls-1" d="M74.86,105.89a3.43,3.43,0,0,1,2,.87s-.13,2.47-1.06,3.41c-2.23,2.26-2.52,1.53-4,2.94a2.24,2.24,0,0,0-.92,2.35c0,1,0,.62,0,.62H69.46l0,4.77H70.6l0-4.71,0,4.71H69.41l0-4.77h-.17v-1.34s0-1.1-1.5-1.82-2.67,0-4.41-1.78c-1.32-1.31-.74-3.53-.63-4h0s-.25,0,.68-.78a5,5,0,0,1,2-.55l.15,0c-1.63-3-2-8.77-2-8.77s.41,5.76,2,8.77c.71-.08,1.43-.13,2-.16a41.49,41.49,0,0,1-1.24-8,41.49,41.49,0,0,0,1.24,8l.72,0,.69,0c-.26-2.9-.36-7.78-.36-7.78s.1,4.88.36,7.78c.27,0,.61,0,1,0,.45-3,.84-8,.84-8s-.39,5.06-.84,8l.78,0h.17a40.42,40.42,0,0,0,2.34-8,40.42,40.42,0,0,1-2.34,8c.29,0,.61,0,1,0,2-3.07,3.26-8.43,3.26-8.43s-1.29,5.36-3.26,8.43c.62,0,1.28.07,1.82.12,1.42-2.6,3.72-7.61,3.8-9-.08,1.43-2.38,6.44-3.8,9Z"/><polygon class="cls-1" points="76.01 87.39 74.02 81.31 65.27 81.31 63.28 87.39 58.88 87.39 67.29 63.88 69.69 63.88 72.01 63.88 80.41 87.39 76.01 87.39"/><path class="cls-1" d="M93.92,109.68a6.69,6.69,0,0,0,2.39,3,6.42,6.42,0,0,0,3.66,1,7,7,0,0,0,3.14-.68,5.17,5.17,0,0,0,2.13-1.93,5.45,5.45,0,0,0,.81-2.88l0-.36h-5.84v-3.27h9.94v2.54a11.36,11.36,0,0,1-1.22,5.47,8.39,8.39,0,0,1-3.51,3.52A12.74,12.74,0,0,1,94,115.84a9.76,9.76,0,0,1-3.85-4.23,14.68,14.68,0,0,1-1.35-6.54h0a14.28,14.28,0,0,1,1.35-6.45A9.71,9.71,0,0,1,94,94.46,11.24,11.24,0,0,1,99.84,93a11.5,11.5,0,0,1,4.89,1,9.3,9.3,0,0,1,3.43,2.69,9.13,9.13,0,0,1,1.77,3.87l.06.28h-4.25l-.06-.18a6,6,0,0,0-2.16-3,6.23,6.23,0,0,0-3.66-1.06,6.41,6.41,0,0,0-3.63,1,6.31,6.31,0,0,0-2.33,2.87,11.23,11.23,0,0,0-.82,4.52v0A11.69,11.69,0,0,0,93.92,109.68Z"/><path class="cls-1" d="M105.16,79.53c-4.23.07-9.7-.31-12.56-.25s-10.45-.85-10.45-.85,7.42-3.31,8.91-4.05,3.08-3.25,4.07-3.62,2.44,1.27,3.16,1a9.24,9.24,0,0,0,1.54-.83,11.7,11.7,0,0,1,3.72,2.15A13.16,13.16,0,0,0,108.81,76c1.43.3,4.29,2.82,4.29,2.82A52,52,0,0,1,105.16,79.53Z"/><path class="cls-1" d="M70,111.18c0,.2,0,.46,0,.74l1,.06c.09-.21-.13,0,.54-.8a3.58,3.58,0,0,0,.47-.75l-2.25-.09A2.9,2.9,0,0,1,70,111.18Z"/><path class="cls-1" d="M76.89,106.76a23.73,23.73,0,0,1-7,1.64,20.1,20.1,0,0,1-7.19-1.21"/><path class="cls-1" d="M70.07,111.92c0,1.5,0,3.84,0,3.84s.08-2.34,0-3.84l-1.27-.08a3.91,3.91,0,0,0,.79.85,3.91,3.91,0,0,1-.79-.85c-.62,0-1.21-.09-1.71-.14a8.87,8.87,0,0,0,1.39.66,5.7,5.7,0,0,1,1.11,1.57,5.7,5.7,0,0,0-1.11-1.57,8.87,8.87,0,0,1-1.39-.66H67c-2-.2-4.06-2.38-4.06-2.38s2.11,2.18,4.06,2.38h.07a3.7,3.7,0,0,1-1.31-1.16,2.92,2.92,0,0,1-.36-.89A5.88,5.88,0,0,1,63.56,108a5.88,5.88,0,0,0,1.86,1.69,2.88,2.88,0,0,1,0-1.24,2.88,2.88,0,0,0,0,1.24,4.5,4.5,0,0,0,2.17.62h.21c-.47-.82-.81-1.52-.81-1.52s.34.7.81,1.52l2,.06a4.34,4.34,0,0,0-1-1.38,4.34,4.34,0,0,1,1,1.38"/><path class="cls-1" d="M72.05,110.43a4.41,4.41,0,0,0,.43-1.82,4.41,4.41,0,0,1-.43,1.82l1.8.07A12.58,12.58,0,0,0,75.26,108a12.58,12.58,0,0,1-1.41,2.54l1,0-1,0a3.15,3.15,0,0,1-.69.68,9.37,9.37,0,0,0-1.1.85l.51,0-.51,0a4.15,4.15,0,0,0-1.51,2.13A4.15,4.15,0,0,1,72.06,112l-1,0a5.39,5.39,0,0,1-.44.71A5.39,5.39,0,0,0,71,112"/><path class="cls-1" d="M102.61,47.66a10.82,10.82,0,0,0,.84-4.52v0a10.45,10.45,0,0,0-.85-4.45,6,6,0,0,0-2.49-2.76,8,8,0,0,0-4-.94H92.18V51.4h3.94a7.78,7.78,0,0,0,4-.95A6.09,6.09,0,0,0,102.61,47.66Z"/><path class="cls-1" d="M67.8,110.28a15.38,15.38,0,0,0,1,1.56"/><polygon class="cls-1" points="66.33 78.07 72.96 78.07 70 68.1 66.33 78.07"/><path class="cls-1" d="M67.2,91.64a5.68,5.68,0,0,0,2.67.65,4,4,0,0,0,2.81-1"/><path class="cls-1" d="M71.86,105.67a4.2,4.2,0,0,1-2.31,2c2,.07,2.61,0,3.14-.37a7.46,7.46,0,0,0,1-1.56"/><path class="cls-1" d="M70,105.67a9.18,9.18,0,0,1-.43,1.93,4.67,4.67,0,0,0,1.38-1.95"/><path class="cls-1" d="M65.6,105.84c.56,1,1.27,1.76,2.15,1.8l1,0c-.51-.2-.92-1-1.25-2"/><path class="cls-1" d="M68.8,107.69l.5,0h0a6.45,6.45,0,0,1-.37-2"/><path class="cls-1" d="M14.44,29.67v1.26a12.61,12.61,0,0,1-2.75.53A8.3,8.3,0,0,1,9,30.93s-3.31.27-4.67,1.57.34,1.56.34,1.56a26.46,26.46,0,0,0,5.83,1c2.29,0,5.6-.12,7.43-.94s2.13-.75,1.81-1.27A6.85,6.85,0,0,0,17,31.43a14.66,14.66,0,0,0-2.59-.5,14.66,14.66,0,0,1,2.59.5,6.85,6.85,0,0,1,2.66,1.39c.32.52,0,.46-1.81,1.27s-5.14.91-7.43.94a26.46,26.46,0,0,1-5.83-1s-1.71-.26-.34-1.56S9,30.93,9,30.93V29.67"/><path class="cls-1" d="M17.83,32.27a5,5,0,0,1-1.54.51,5.63,5.63,0,0,1,1,.86,5.63,5.63,0,0,0-1-.86l-.16,0a20.86,20.86,0,0,1-2.33.41c.35.5.58.92.46,1,.12-.07-.11-.49-.46-1a23.5,23.5,0,0,1-3.4.21,4.34,4.34,0,0,0-.17,1.11,4.34,4.34,0,0,1,.17-1.11h-.17a14.21,14.21,0,0,1-2.06-.3,3.48,3.48,0,0,0-.92,1.25,3.48,3.48,0,0,1,.92-1.25c-1.43-.31-2.85-.71-2.85-.71s1.42.4,2.85.71a17.57,17.57,0,0,1,2.06-1.68,17.57,17.57,0,0,0-2.06,1.68,14.21,14.21,0,0,0,2.06.3h.17a10,10,0,0,1,.77-2,10,10,0,0,0-.77,2,23.5,23.5,0,0,0,3.4-.21,7.38,7.38,0,0,0-1.64-1.8,7.38,7.38,0,0,1,1.64,1.8,20.86,20.86,0,0,0,2.33-.41l.16,0a18.72,18.72,0,0,0-2.91-1.57,18.72,18.72,0,0,1,2.91,1.57A5,5,0,0,0,17.83,32.27Z"/><path class="cls-1" d="M52.93,84.84,49.76,81.9Z"/><path class="cls-1" d="M51.81,78.82a1.53,1.53,0,0,1-1.14.22,3.06,3.06,0,0,1,0,2.35c-.38.8-1.52.49-1.73.21A2.13,2.13,0,0,0,47.28,81a3,3,0,0,1-2.07-1.56,3.58,3.58,0,0,0-.87-1.57c-.69-.7,1.21-1.82,2.52-2.06s1.08,1.54,1.08,1.54.24-1.78-1.08-1.54-3.21,1.36-2.52,2.06a3.58,3.58,0,0,1,.87,1.57A3,3,0,0,0,47.28,81a2.13,2.13,0,0,1,1.66.65c.21.28,1.35.59,1.73-.21a3.06,3.06,0,0,0,0-2.35,1.52,1.52,0,0,0-1.63-1,1.52,1.52,0,0,1,1.63,1,1.53,1.53,0,0,0,1.14-.22c.38-.36-.14-2.26-.91-3.08s-2.48.26-2.48.26,1.72-1.08,2.48-.26S52.19,78.46,51.81,78.82Z"/><polygon class="cls-1" points="41.28 74.27 41.28 75.01 42.01 75.01 42.01 77.3 43.13 77.3 43.55 77.82 44.58 78.32 43.55 77.82 43.13 77.3 42.01 77.3 39.29 77.3 42.01 77.3 42.01 75.01 41.28 75.01 37.53 75.01 36.36 75.01 36.36 77.3 39.01 77.3 36.36 77.3 34.8 77.52 36.36 77.3 36.36 75.01 37.53 75.01 37.53 74.27 38.39 74.27 38.39 66.04 39.53 63.26 40.84 65.91 40.6 74.27 41.28 74.27"/><path class="cls-1" d="M32.46,81.21l12.79.69Z"/><path class="cls-1" d="M46.69,83.9c-.9.06-2.41.72-3.84.28s-3.32-.86-4-.65a13.44,13.44,0,0,1-3.72.38,14.4,14.4,0,0,0-3.36.42,14.4,14.4,0,0,1,3.36-.42,13.44,13.44,0,0,0,3.72-.38c.67-.21,2.55.21,4,.65S45.79,84,46.69,83.9Z"/><path class="cls-1" d="M35.11,76.7c-.12,1.3-1.56,1.6-1.56,1.6a9.39,9.39,0,0,1-2.35.47c-1.25.07-1.14-1.4-1.1-2.61S32,75.22,32,75.22s-1.82-.28-1.86.94-.15,2.68,1.1,2.61a9.39,9.39,0,0,0,2.35-.47S35,78,35.11,76.7,35,75.18,34.31,75,32,76.16,32,76.16s1.56-1.31,2.29-1.15S35.23,75.4,35.11,76.7Z"/><path class="cls-1" d="M34.26,74.64c.31-.89-.44-1.83-1.82-2.42S30.08,74,30.08,74s1-2.4,2.36-1.81S34.57,73.75,34.26,74.64Z"/><path class="cls-1" d="M38.32,93.79a12.33,12.33,0,0,1,6,1.37,9.18,9.18,0,0,1,3.83,4,13.77,13.77,0,0,1,1.34,6.33v0a14,14,0,0,1-1.33,6.36,9.27,9.27,0,0,1-3.83,4.05,12.18,12.18,0,0,1-6,1.4H29.73V93.79Z"/><path class="cls-1" d="M49.73,79.32c.07.08.11.87-1.31,1s-1.73-2-1.73-2,.31,2.14,1.73,2S49.8,79.4,49.73,79.32Z"/><path class="cls-1" d="M30.56,42.69a14.26,14.26,0,0,1,1.35-6.44,9.83,9.83,0,0,1,3.83-4.16,11.4,11.4,0,0,1,5.86-1.45,11.35,11.35,0,0,1,4.89,1,9.3,9.3,0,0,1,3.43,2.69,9.13,9.13,0,0,1,1.77,3.87l.06.28H47.5l-.06-.18a6,6,0,0,0-2.16-3,6.16,6.16,0,0,0-3.66-1.06,6.49,6.49,0,0,0-3.63,1,6.4,6.4,0,0,0-2.33,2.88,11.2,11.2,0,0,0-.82,4.52v0a11.6,11.6,0,0,0,.84,4.63,6.52,6.52,0,0,0,2.39,3,6.42,6.42,0,0,0,3.66,1,7,7,0,0,0,3.14-.68A5.17,5.17,0,0,0,47,48.72a5.45,5.45,0,0,0,.81-2.88l0-.36H42V42.21h9.94v2.54a11.36,11.36,0,0,1-1.22,5.47,8.37,8.37,0,0,1-3.51,3.51A11.54,11.54,0,0,1,41.68,55a11.39,11.39,0,0,1-5.92-1.48,9.82,9.82,0,0,1-3.85-4.23,14.68,14.68,0,0,1-1.35-6.54Z"/><path class="cls-1" d="M30.08,73.12S27,74.7,27.41,76.33s2.67,1.49,2.67,1.49-2.25.13-2.67-1.49S30.08,73.12,30.08,73.12Z"/><path class="cls-1" d="M30.08,78.44l-3.83,5.09Z"/><path class="cls-1" d="M4.51,44.83s-.25,0,.67-.78a5.12,5.12,0,0,1,2-.55l.15,0c-1.63-3-2-8.77-2-8.77s.41,5.76,2,8.77c.71-.08,1.43-.13,1.94-.16a42,42,0,0,1-1.23-8,42,42,0,0,0,1.23,8c.44,0,.73,0,.73,0l.69,0c-.26-2.9-.36-7.79-.36-7.79s.1,4.89.36,7.79h1c.44-3,.83-8,.83-8s-.39,5.05-.83,8l.78,0h.17a41.37,41.37,0,0,0,2.34-8,41.37,41.37,0,0,1-2.34,8c.29,0,.61,0,.95,0,2-3.06,3.26-8.43,3.26-8.43s-1.29,5.37-3.26,8.43c.62,0,1.28.08,1.82.12,1.42-2.59,3.72-7.6,3.8-9-.08,1.43-2.38,6.44-3.8,9l1.18.11a3.43,3.43,0,0,1,2,.87s-.13,2.46-1.06,3.41c-2.23,2.26-2.52,1.53-4,2.94a2.27,2.27,0,0,0-.92,2.35c0,1,0,.62,0,.62H11.22l-.05,4.77h1.19l0-4.71,0,4.71H11.17l.05-4.77h-.17V52.38s0-1.11-1.51-1.83-2.66,0-4.4-1.78c-1.32-1.31-.74-3.52-.63-3.94Z"/><path class="cls-1" d="M.15,74.65A14.4,14.4,0,0,1,1.5,68.18,9.88,9.88,0,0,1,5.33,64a11.24,11.24,0,0,1,5.85-1.47,11,11,0,0,1,4.85,1,9.31,9.31,0,0,1,3.49,2.89,9,9,0,0,1,1.67,4.23v.16H17.08l-.08-.3a6,6,0,0,0-1.13-2.33,5.2,5.2,0,0,0-2-1.52,6.51,6.51,0,0,0-2.72-.54,6.11,6.11,0,0,0-3.57,1,6.65,6.65,0,0,0-2.34,2.94,11.09,11.09,0,0,0-.83,4.52h0a11.24,11.24,0,0,0,.83,4.53,6.72,6.72,0,0,0,2.35,3,6.12,6.12,0,0,0,3.56,1,6.38,6.38,0,0,0,2.68-.53,5.28,5.28,0,0,0,2-1.54,6.42,6.42,0,0,0,1.19-2.46l.05-.16h4.12l0,.18a8.92,8.92,0,0,1-1.65,4.24A9.29,9.29,0,0,1,16,85.8a11.11,11.11,0,0,1-4.86,1,11.22,11.22,0,0,1-5.86-1.49,9.91,9.91,0,0,1-3.83-4.21A14.61,14.61,0,0,1,.15,74.66Z"/><polygon class="cls-1" points="11.86 118.35 11.86 118.97 11.86 118.35 12.37 118.35 11.86 118.35"/><polygon class="cls-1" points="12.37 120.13 11.86 120.13 11.86 120.86 11.86 120.13 12.37 120.13"/><polygon class="cls-1" points="11.86 116.86 11.86 117.7 11.86 116.86 12.37 116.86 11.86 116.86"/><polygon class="cls-1" points="11.86 114.91 11.86 115.91 11.86 114.91 12.37 114.91 11.86 114.91"/><polygon class="cls-1" points="10.58 110.74 10.49 109.38 13.43 109.38 13.43 110.74 10.58 110.74"/><path class="cls-1" d="M12.87,103.72h0Z"/><path class="cls-1" d="M10.86,102.17h0Z"/><path class="cls-1" d="M14.06,105.73h0Z"/><path class="cls-1" d="M14.18,106.33h0Z"/><polygon class="cls-1" points="13.01 114.79 13.94 113.28 13.96 109.41 14.44 106.38 16.66 106.33 16.66 105.73 14.37 105.73 13.37 103.73 14.15 102.15 13.01 102.15 12.07 99.27 11.71 88.64 11.26 99.27 10.56 102.15 9.49 102.15 10.06 103.87 9.05 105.74 6.52 105.74 6.52 106.38 8.89 106.38 9.92 109.47 10.13 113.28 11.26 114.64 11.26 121.61 11.26 114.64 10.13 113.28 9.92 109.47 8.89 106.38 6.52 106.38 6.52 105.74 9.05 105.74 10.06 103.87 9.49 102.15 10.56 102.15 11.26 99.27 11.71 88.64 12.07 99.27 13.01 102.15 14.15 102.15 13.37 103.73 14.37 105.73 16.66 105.73 16.66 106.33 14.44 106.38 13.96 109.41 13.94 113.28 13.01 114.79 13.01 121.61 13.01 114.79"/><path class="cls-1" d="M18.65,44.4A23.53,23.53,0,0,1,11.7,46a20,20,0,0,1-7.19-1.2"/><path class="cls-1" d="M7.18,47.29a2.7,2.7,0,0,1,0-1.24,2.7,2.7,0,0,0,0,1.24,4.61,4.61,0,0,0,2.16.62h.22c-.47-.82-.81-1.52-.81-1.52s.34.7.81,1.52l2,.06a4.34,4.34,0,0,0-1-1.38,4.34,4.34,0,0,1,1,1.38l2.25.08a4.38,4.38,0,0,0,.43-1.81,4.38,4.38,0,0,1-.43,1.81l1.8.08A12.53,12.53,0,0,0,17,45.59a12.53,12.53,0,0,1-1.41,2.55l1,0-1,0a3.15,3.15,0,0,1-.69.68,8.61,8.61,0,0,0-1.1.85l.51,0-.51,0a4.12,4.12,0,0,0-1.51,2.13,4.12,4.12,0,0,1,1.51-2.13l-1-.05a5,5,0,0,1-.44.7,5,5,0,0,0,.44-.7l-1-.06c0,1.5-.05,3.84-.05,3.84s.09-2.34.05-3.84l-1.27-.08a3.61,3.61,0,0,0,.79.84,3.61,3.61,0,0,1-.79-.84c-.62,0-1.21-.09-1.71-.14a8.87,8.87,0,0,0,1.39.66,5.76,5.76,0,0,1,1.11,1.56A5.76,5.76,0,0,0,10.24,50a8.87,8.87,0,0,1-1.39-.66H8.77c-1.94-.2-4-2.37-4-2.37s2.11,2.17,4.05,2.37h.08a3.7,3.7,0,0,1-1.31-1.16,3,3,0,0,1-.36-.89,5.85,5.85,0,0,1-1.86-1.7A5.85,5.85,0,0,0,7.18,47.29Z"/><path class="cls-1" d="M13.11,29.67a5.14,5.14,0,0,1-1.48.25,5,5,0,0,1-1.7-.25"/><line class="cls-1" x1="40.6" y1="74.27" x2="38.39" y2="74.27"/><path class="cls-1" d="M41.89,112.81A6.07,6.07,0,0,0,44.37,110a10.87,10.87,0,0,0,.84-4.53v0a10.45,10.45,0,0,0-.85-4.45,6.06,6.06,0,0,0-2.5-2.76,7.92,7.92,0,0,0-4-.94H33.94v16.45h3.94A7.78,7.78,0,0,0,41.89,112.81Z"/><path class="cls-1" d="M11.83,49.56c0-.28,0-.54-.05-.74a2.6,2.6,0,0,0-.22-.84"/><path class="cls-1" d="M9.56,47.92a16.58,16.58,0,0,0,1,1.56"/><path class="cls-1" d="M13.81,48.06a3.64,3.64,0,0,1-.47.76c-.67.81-.45.59-.54.8"/><path class="cls-1" d="M12.67,43.29a4.67,4.67,0,0,1-1.38,2,.36.36,0,0,1-.08.12h.09a4.2,4.2,0,0,0,2.32-2.06"/><path class="cls-1" d="M11.3,45.36c2,.07,2.62,0,3.15-.37a7.66,7.66,0,0,0,1-1.57"/><path class="cls-1" d="M7.36,43.48c.56,1,1.27,1.76,2.15,1.8l1.05,0c-.51-.21-.92-1-1.26-2"/><path class="cls-1" d="M10.72,43.31a6.45,6.45,0,0,0,.37,2l.2-.1a9.35,9.35,0,0,0,.43-1.93"/></g></g></svg>