<svg xmlns="http://www.w3.org/2000/svg" viewBox="0 0 115.01 124.75"><defs><style>.cls-1{fill:none;stroke:#000;stroke-miterlimit:10;stroke-width:0.5px;}</style></defs><g id="Layer_2" data-name="Layer 2"><g id="Layer_1-2" data-name="Layer 1"><path class="cls-1" d="M11.67,0l-.31,7.24-.7,2.87H9.59l.57,1.72-1,1.87H6.62v.65H9l1,3.09.21,3.8,1.13,1.37v0l-1.13-1.37L10,17.45,9,14.36H6.62v-.65H9.16l1-1.87-.57-1.72h1.07l.7-2.87L11.67,0m.26,0,.24,7.24.94,2.87h1.15l-.79,1.58,1,2h2.29v.59l-2.22,0-.49,3v3.86l-.93,1.51v0L14,21.25V17.39l.49-3,2.22,0v-.59H14.47l-1-2,.79-1.58H13.11l-.94-2.87L11.93,0M74.07,0V1.27a12.61,12.61,0,0,1-2.74.53,8.3,8.3,0,0,1-2.74-.53s-3.31.27-4.68,1.57.35,1.56.35,1.56a26.33,26.33,0,0,0,5.83,1c2.29,0,5.6-.13,7.43-.94s2.13-.75,1.8-1.27-1.7-1-2.65-1.4a14.39,14.39,0,0,0-2.6-.49,14.39,14.39,0,0,1,2.6.49c1,.36,2.33.88,2.65,1.4s0,.46-1.8,1.27-5.14.91-7.43.94a26.33,26.33,0,0,1-5.83-1s-1.71-.26-.35-1.56,4.68-1.57,4.68-1.57V0m0,124.73v-.4c0-.64,1.45-.89,2.74-.94s2.88.24,2.73.57v.77m-62.4,0,.14-3.4.12,3.4M77.46,2.61a5,5,0,0,1-1.55.51,5.34,5.34,0,0,1,1,.85,5.34,5.34,0,0,0-1-.85l-.16,0a20.64,20.64,0,0,1-2.32.41c.35.49.58.92.46,1,.12-.07-.11-.5-.46-1A23.64,23.64,0,0,1,70,3.78a5.43,5.43,0,0,0-.17,1.11A5.43,5.43,0,0,1,70,3.78h-.17a13.14,13.14,0,0,1-2-.31,3.57,3.57,0,0,0-.92,1.25,3.57,3.57,0,0,1,.92-1.25c-1.43-.3-2.86-.71-2.86-.71s1.43.41,2.86.71a18.49,18.49,0,0,1,2-1.67,18.49,18.49,0,0,0-2,1.67,13.14,13.14,0,0,0,2,.31H70a10.41,10.41,0,0,1,.78-2,10.41,10.41,0,0,0-.78,2,23.64,23.64,0,0,0,3.41-.21,7.29,7.29,0,0,0-1.64-1.81,7.29,7.29,0,0,1,1.64,1.81,20.64,20.64,0,0,0,2.32-.41l.16,0A17.9,17.9,0,0,0,73,1.55a17.9,17.9,0,0,1,2.9,1.57A5,5,0,0,0,77.46,2.61ZM26.35,116.23l3.83-5.09Zm1.16-7.2c-.42-1.63,2.67-3.21,2.67-3.21s-3.09,1.58-2.67,3.21,2.67,1.49,2.67,1.49S27.93,110.65,27.51,109Zm5-4.11c1.38.59,2.13,1.53,1.82,2.42.31-.89-.44-1.83-1.82-2.42s-2.36,1.81-2.36,1.81S31.17,104.33,32.54,104.92ZM35.78,80a6.57,6.57,0,0,0,2.39,3,6.42,6.42,0,0,0,3.66,1A6.85,6.85,0,0,0,45,83.34a5.09,5.09,0,0,0,2.13-1.92,5.45,5.45,0,0,0,.81-2.88l0-.36H42.09V74.9H52v2.55a11.36,11.36,0,0,1-1.22,5.47,8.37,8.37,0,0,1-3.51,3.51,11.51,11.51,0,0,1-5.52,1.23,11.39,11.39,0,0,1-5.92-1.48A9.82,9.82,0,0,1,32,82a14.68,14.68,0,0,1-1.35-6.54v0A14.23,14.23,0,0,1,32,69a9.79,9.79,0,0,1,3.84-4.16,11.33,11.33,0,0,1,5.85-1.45,11.35,11.35,0,0,1,4.89,1A9.3,9.3,0,0,1,50,67a9.07,9.07,0,0,1,1.77,3.87l.06.28H47.6L47.54,71a6,6,0,0,0-2.16-3A6.16,6.16,0,0,0,41.72,67a6.49,6.49,0,0,0-3.63,1,6.34,6.34,0,0,0-2.33,2.88,11.2,11.2,0,0,0-.82,4.52v0A11.64,11.64,0,0,0,35.78,80Zm14,32c.07.08.11.86-1.31,1s-1.73-2-1.73-2,.31,2.14,1.73,2S49.9,112.1,49.83,112Zm-6.18-1.5-.42-.52H42.11v-2.29H36.46V110h0l-1.56.21,1.56-.21v-2.29h1.17V107h.86V98.74L39.63,96l1.31,2.65L40.7,107h.68v.74h.73V110h1.12l.42.52,1,.5Zm1.7,4.08-12.79-.69ZM30.2,108.85c0-1.21,1.86-.94,1.86-.94s-1.82-.27-1.86.94-.15,2.69,1.1,2.62a9.39,9.39,0,0,0,2.35-.47s1.44-.31,1.56-1.6-.08-1.52-.8-1.69-2.29,1.14-2.29,1.14,1.56-1.3,2.29-1.14.92.39.8,1.69-1.56,1.6-1.56,1.6a9.39,9.39,0,0,1-2.35.47C30.05,111.54,30.16,110.07,30.2,108.85Zm12.75,8c-1.44-.44-3.32-.86-4-.65a13.44,13.44,0,0,1-3.72.38,14.4,14.4,0,0,0-3.36.42,14.4,14.4,0,0,1,3.36-.42,13.44,13.44,0,0,0,3.72-.38c.67-.21,2.55.21,4,.65s2.94-.22,3.84-.28C45.89,116.66,44.38,117.32,43,116.88ZM49,114.3a2.12,2.12,0,0,0-1.66-.66,2.93,2.93,0,0,1-2.07-1.55,3.58,3.58,0,0,0-.87-1.57c-.69-.7,1.21-1.82,2.53-2.06S48,110,48,110s.24-1.78-1.07-1.54-3.22,1.36-2.53,2.06a3.58,3.58,0,0,1,.87,1.57,2.93,2.93,0,0,0,2.07,1.55,2.12,2.12,0,0,1,1.66.66c.21.28,1.35.59,1.73-.21a3.06,3.06,0,0,0,0-2.35,1.52,1.52,0,0,0-1.63-1,1.52,1.52,0,0,1,1.63,1,1.53,1.53,0,0,0,1.14-.22c.38-.36-.14-2.26-.91-3.08s-2.48.26-2.48.26,1.72-1.08,2.48-.26,1.29,2.72.91,3.08a1.53,1.53,0,0,1-1.14.22,3.06,3.06,0,0,1,0,2.35C50.39,114.89,49.25,114.58,49,114.3Zm.82.3L53,117.54Zm62.7-59.42-3.17-2.94Zm-1.13-6a1.53,1.53,0,0,1-1.14.22,3,3,0,0,1,0,2.35c-.38.8-1.52.49-1.72.21a2.12,2.12,0,0,0-1.66-.66,3,3,0,0,1-2.08-1.55,3.39,3.39,0,0,0-.86-1.57c-.69-.7,1.21-1.82,2.52-2.06s1.07,1.53,1.07,1.53.25-1.77-1.07-1.53-3.21,1.36-2.52,2.06a3.39,3.39,0,0,1,.86,1.57,3,3,0,0,0,2.08,1.55,2.12,2.12,0,0,1,1.66.66c.2.28,1.34.59,1.72-.21a3,3,0,0,0,0-2.35,1.51,1.51,0,0,0-1.62-1,1.51,1.51,0,0,1,1.62,1,1.53,1.53,0,0,0,1.14-.22c.38-.37-.13-2.27-.9-3.08s-2.48.26-2.48.26,1.71-1.08,2.48-.26S111.81,48.79,111.43,49.16Zm-10.52-4.55v.74h.73v2.28h1.12l.41.53,1,.5-1-.5-.41-.53h-1.12V45.35H96v2.28h0l-1.55.22L96,47.63V45.35h1.18v-.74H98V36.38l1.13-2.79,1.32,2.66-.24,8.36Zm-8.82,6.94,12.79.69Zm14.23,2.69c-.9.06-2.42.72-3.85.28s-3.32-.86-4-.65a13.13,13.13,0,0,1-3.72.37,15,15,0,0,0-3.36.42,15,15,0,0,1,3.36-.42,13.13,13.13,0,0,0,3.72-.37c.66-.21,2.55.21,4,.65S105.42,54.3,106.32,54.24ZM94.74,47c-.12,1.3-1.56,1.61-1.56,1.61a9.94,9.94,0,0,1-2.35.47c-1.25.07-1.15-1.41-1.1-2.62s1.86-.94,1.86-.94-1.82-.27-1.86.94-.15,2.69,1.1,2.62a9.94,9.94,0,0,0,2.35-.47s1.44-.31,1.56-1.61-.08-1.51-.81-1.68-2.29,1.14-2.29,1.14,1.57-1.3,2.29-1.14S94.86,45.74,94.74,47ZM93.88,45c.32-.9-.44-1.83-1.81-2.42s-2.36,1.81-2.36,1.81,1-2.4,2.36-1.81S94.2,44.08,93.88,45ZM98,64.13a12.22,12.22,0,0,1,6,1.37,9.18,9.18,0,0,1,3.83,4,13.75,13.75,0,0,1,1.34,6.32v0a14.15,14.15,0,0,1-1.33,6.36,9.38,9.38,0,0,1-3.83,4,12.18,12.18,0,0,1-6,1.4H89.36V64.13Zm11.41-14.47c.07.07.1.86-1.31,1s-1.73-2-1.73-2,.31,2.14,1.73,2S109.43,49.73,109.36,49.66ZM90.18,13a14.07,14.07,0,0,1,1.36-6.44,9.78,9.78,0,0,1,3.83-4.16A12.53,12.53,0,0,1,106.12,2a9.12,9.12,0,0,1,5.2,6.56l.06.27h-4.25l-.07-.17a5.84,5.84,0,0,0-2.16-2.95,6.1,6.1,0,0,0-3.65-1.06,6.5,6.5,0,0,0-3.64,1,6.35,6.35,0,0,0-2.33,2.88A11.38,11.38,0,0,0,94.47,13h0a11.65,11.65,0,0,0,.84,4.64,6.61,6.61,0,0,0,2.38,3,6.48,6.48,0,0,0,3.67,1A6.88,6.88,0,0,0,104.5,21a5.15,5.15,0,0,0,2.13-1.92,5.51,5.51,0,0,0,.81-2.88v-.36h-5.83V12.54h9.94v2.54a11.52,11.52,0,0,1-1.22,5.48,8.48,8.48,0,0,1-3.51,3.51,11.54,11.54,0,0,1-5.52,1.23,11.39,11.39,0,0,1-5.92-1.48,9.82,9.82,0,0,1-3.85-4.23,14.54,14.54,0,0,1-1.36-6.54Zm-.47,30.43S86.61,45,87,46.66s2.67,1.5,2.67,1.5-2.25.13-2.67-1.5S89.71,43.46,89.71,43.46Zm0,5.31-3.83,5.1Zm2.73,58.31c1.49-.74,3.08-3.25,4.07-3.62s2.39.64,3.1.37a4.13,4.13,0,0,1,1.61-.2,11.72,11.72,0,0,1,3.71,2.15,15.27,15.27,0,0,0,6.37,2.59,11,11,0,0,1,3.19,1.53,24.93,24.93,0,0,1-8,1.61c-4.23.06-9.62.41-12.48.47s-10.44-.85-10.44-.85S91,107.82,92.44,107.08Zm-15,13-2-6.08H66.66l-2,6.08h-4.4l8.41-23.51H73.4l8.39,23.51ZM69.11,72.48h1.08l.7-2.87L71.34,59l.36,10.63.93,2.87h1.15L73,74.06l1,2h2.29v.6l-2.22,0-.49,3v3.87l-.94,1.51v0l.94-1.51V79.75l.49-3,2.22,0v-.6H74l-1-2,.79-1.58H72.63l-.93-2.87L71.34,59l-.45,10.63-.7,2.87H69.11l.58,1.73-1,1.86H66.14v.65h2.37l1,3.09.22,3.81L70.89,85v0l-1.13-1.36-.22-3.81-1-3.09H66.14v-.65h2.54l1-1.86Zm2.38,16.2v0h0ZM72,90.46h-.51v0Zm-.51-3.26v0h0Zm0-2v0h0Zm-1.28-4.18-.09-1.36h2.94v1.36Zm2.28-7h0Zm-2-1.56h0Zm3.2,3.57h0Zm.12.6h0Zm-9.68-61.5s-.24,0,.68-.78a4.91,4.91,0,0,1,2-.55l.15,0c-1.63-3-2-8.77-2-8.77s.42,5.75,2,8.77c.71-.09,1.43-.14,1.94-.17a42.34,42.34,0,0,1-1.24-8,42.34,42.34,0,0,0,1.24,8l.73,0s.26,0,.69,0C70.08,10.75,70,5.86,70,5.86s.09,4.89.36,7.78h1c.45-3,.84-8,.84-8s-.39,5.06-.84,8l.79,0h.17a41.19,41.19,0,0,0,2.34-8,41.19,41.19,0,0,1-2.34,8c.28,0,.61,0,1,0,2-3.07,3.26-8.43,3.26-8.43s-1.29,5.36-3.26,8.43c.62,0,1.28.07,1.82.12,1.42-2.59,3.72-7.6,3.79-9-.07,1.44-2.37,6.45-3.79,9l1.17.11a3.4,3.4,0,0,1,2,.86s-.13,2.47-1.07,3.42c-2.23,2.26-2.52,1.52-4,2.93a2.26,2.26,0,0,0-.92,2.36c0,1,0,.62,0,.62H70.84l0,4.77H72l0-4.71,0,4.71H70.8l0-4.77h-.17V22.72s0-1.11-1.5-1.83-2.66-.05-4.41-1.78c-1.32-1.31-.73-3.52-.63-3.94ZM59.78,45a14.38,14.38,0,0,1,1.35-6.46A9.82,9.82,0,0,1,65,34.32a11.24,11.24,0,0,1,5.85-1.47,10.89,10.89,0,0,1,4.85,1,9.36,9.36,0,0,1,3.49,2.88A8.93,8.93,0,0,1,80.81,41l0,.16H76.71l-.08-.31a6.11,6.11,0,0,0-1.13-2.33,5.28,5.28,0,0,0-2-1.51,6.51,6.51,0,0,0-2.72-.54,6.18,6.18,0,0,0-3.57,1,6.86,6.86,0,0,0-2.35,2.94A11.33,11.33,0,0,0,64.06,45v0a11.33,11.33,0,0,0,.83,4.52,6.78,6.78,0,0,0,2.36,3,6.1,6.1,0,0,0,3.56,1A6.54,6.54,0,0,0,73.49,53a5.27,5.27,0,0,0,2-1.54A6.28,6.28,0,0,0,76.67,49l0-.16h4.13l0,.18a8.81,8.81,0,0,1-1.64,4.23,9.18,9.18,0,0,1-3.51,2.88,11,11,0,0,1-4.85,1A11.22,11.22,0,0,1,65,55.69a9.84,9.84,0,0,1-3.83-4.21A14.61,14.61,0,0,1,59.78,45ZM29.83,1.76h8.59a12.33,12.33,0,0,1,6,1.37,9.21,9.21,0,0,1,3.83,4,13.73,13.73,0,0,1,1.34,6.32v0a14,14,0,0,1-1.33,6.37,9.32,9.32,0,0,1-3.83,4.05,12.18,12.18,0,0,1-6,1.4H29.83Zm3.09,43C34.4,44,36,41.47,37,41.1s2.38.63,3.1.36a4.18,4.18,0,0,1,1.6-.19,11.61,11.61,0,0,1,3.71,2.15A15.1,15.1,0,0,0,51.77,46,11.18,11.18,0,0,1,55,47.54a24.93,24.93,0,0,1-8,1.61c-4.23.06-9.61.41-12.47.47S24,48.76,24,48.76,31.43,45.45,32.92,44.72ZM12.71,10.14h0ZM13,11.7h0Zm1.19,2h0Zm-4.87.59h0Zm1.39,4.41-.09-1.36h2.94v1.36ZM12,26.32v0h0Zm.51,1.78H12v0ZM12,24.83v0h0Zm0-1.95v0h0ZM9.15,34.22h4.72l8.39,23.51H17.87l-2-6.08H7.13l-2,6.08H.74Zm7.57,42a3.43,3.43,0,0,1,2,.87s-.13,2.46-1.06,3.41c-2.23,2.26-2.52,1.53-4,2.93a2.29,2.29,0,0,0-.92,2.36c0,1,0,.62,0,.62H11.32l-.05,4.77h1.19l0-4.71,0,4.71H11.27l.05-4.77h-.17V85.08s0-1.11-1.51-1.83-2.66,0-4.4-1.78C3.92,80.16,4.5,78,4.61,77.53h0s-.25,0,.67-.78a5,5,0,0,1,2-.55l.15,0c-1.63-3-2-8.77-2-8.77s.41,5.75,2,8.77C8.17,76.09,8.89,76,9.4,76a42.11,42.11,0,0,1-1.23-8A42.11,42.11,0,0,0,9.4,76c.44,0,.73,0,.73,0l.69,0c-.26-2.9-.36-7.79-.36-7.79s.1,4.89.36,7.79h1c.44-3,.83-8,.83-8s-.39,5-.83,8l.78,0h.17a41.37,41.37,0,0,0,2.34-8,41.37,41.37,0,0,1-2.34,8c.29,0,.61,0,1,0,2-3.07,3.26-8.43,3.26-8.43S15.69,72.93,13.72,76c.62,0,1.28.08,1.82.12,1.42-2.59,3.72-7.6,3.8-9-.08,1.44-2.38,6.45-3.8,9ZM18,66.79c-1.83.82-5.14.91-7.43.94a26.46,26.46,0,0,1-5.83-1S3,66.5,4.39,65.2s4.67-1.57,4.67-1.57V62c-.05-.64,1.46-.9,2.74-.94s2.88.24,2.74.57v2a12.61,12.61,0,0,1-2.75.53,8.3,8.3,0,0,1-2.74-.53s-3.31.27-4.67,1.57.34,1.56.34,1.56a26.46,26.46,0,0,0,5.83,1c2.29,0,5.6-.12,7.43-.94s2.13-.75,1.81-1.27a6.85,6.85,0,0,0-2.66-1.39,14.66,14.66,0,0,0-2.59-.5,14.66,14.66,0,0,1,2.59.5,6.85,6.85,0,0,1,2.66,1.39C20.12,66,19.83,66,18,66.79Zm-.62-.45a5.24,5.24,0,0,0-1-.86l-.16,0a21.06,21.06,0,0,1-2.32.41c.34.49.57.92.45,1,.12-.07-.11-.5-.45-1a23.72,23.72,0,0,1-3.41.21,4.34,4.34,0,0,0-.17,1.11,4.34,4.34,0,0,1,.17-1.11h-.17a13.08,13.08,0,0,1-2.06-.31,3.66,3.66,0,0,0-.92,1.25,3.66,3.66,0,0,1,.92-1.25c-1.43-.3-2.85-.7-2.85-.7s1.42.4,2.85.7a18.14,18.14,0,0,1,2.06-1.67,18.14,18.14,0,0,0-2.06,1.67,13.08,13.08,0,0,0,2.06.31h.17a10,10,0,0,1,.77-2,10,10,0,0,0-.77,2,23.72,23.72,0,0,0,3.41-.21,7.6,7.6,0,0,0-1.64-1.8,7.6,7.6,0,0,1,1.64,1.8,21.06,21.06,0,0,0,2.32-.41l.16,0a18.72,18.72,0,0,0-2.91-1.57,18.72,18.72,0,0,1,2.91,1.57A5,5,0,0,0,17.93,65a5,5,0,0,1-1.54.51A5.24,5.24,0,0,1,17.37,66.34Zm-17.12,41a14.4,14.4,0,0,1,1.35-6.47,9.88,9.88,0,0,1,3.83-4.2,11.24,11.24,0,0,1,5.85-1.47,11,11,0,0,1,4.85,1,9.38,9.38,0,0,1,3.49,2.88,9,9,0,0,1,1.67,4.24v.16H17.18l-.08-.31A6.18,6.18,0,0,0,16,100.89a5.28,5.28,0,0,0-2-1.51,6.51,6.51,0,0,0-2.72-.54,6.18,6.18,0,0,0-3.57,1,6.74,6.74,0,0,0-2.34,3,11.09,11.09,0,0,0-.83,4.52h0a11.16,11.16,0,0,0,.83,4.52,6.69,6.69,0,0,0,2.35,3,6.12,6.12,0,0,0,3.56,1.05,6.54,6.54,0,0,0,2.68-.53,5.28,5.28,0,0,0,2-1.54,6.42,6.42,0,0,0,1.19-2.46l.05-.16h4.12l0,.18a8.88,8.88,0,0,1-1.65,4.23,9.23,9.23,0,0,1-3.5,2.88,11.1,11.1,0,0,1-4.86,1,11.22,11.22,0,0,1-5.86-1.48,9.91,9.91,0,0,1-3.83-4.21,14.61,14.61,0,0,1-1.34-6.48Z"/><path class="cls-1" d="M11.66,80.68l-2-.06a16.58,16.58,0,0,0,1,1.56l1.27.08c0-.29,0-.54,0-.75A2.92,2.92,0,0,0,11.66,80.68Z"/><path class="cls-1" d="M12.9,82.32l1,.05a9.77,9.77,0,0,1,1.1-.86,2.89,2.89,0,0,0,.69-.67l-1.8-.08a3.34,3.34,0,0,1-.47.75C12.77,82.32,13,82.11,12.9,82.32Z"/><path class="cls-1" d="M11.15,86.42h.17m7.43-9.32a23.53,23.53,0,0,1-6.95,1.63,20.21,20.21,0,0,1-7.19-1.2m7.05,3.15a4.34,4.34,0,0,0-.95-1.38,4.34,4.34,0,0,1,.95,1.38l2.25.08A4.38,4.38,0,0,0,14.34,79a4.38,4.38,0,0,1-.43,1.81m-3.25,1.42a3.61,3.61,0,0,0,.79.84,3.61,3.61,0,0,1-.79-.84C10,82.14,9.45,82.09,9,82a8.87,8.87,0,0,0,1.39.66,5.76,5.76,0,0,1,1.11,1.56,5.76,5.76,0,0,0-1.11-1.56A8.87,8.87,0,0,1,9,82H8.87c-1.94-.2-4-2.37-4-2.37s2.11,2.17,4,2.37H9a3.7,3.7,0,0,1-1.31-1.16A3,3,0,0,1,7.28,80a5.85,5.85,0,0,1-1.86-1.7A5.85,5.85,0,0,0,7.28,80a2.69,2.69,0,0,1,0-1.24,2.69,2.69,0,0,0,0,1.24,4.61,4.61,0,0,0,2.16.62h.22c-.47-.82-.81-1.52-.81-1.52s.34.7.81,1.52m3.24,1.7a5,5,0,0,1-.44.7,5,5,0,0,0,.44-.7l-1-.06c0,1.5,0,3.84,0,3.84s.08-2.34,0-3.84m2,.11.51,0-.51,0a4.08,4.08,0,0,0-1.51,2.13,4.08,4.08,0,0,1,1.51-2.13m1.79-1.53a12.53,12.53,0,0,0,1.41-2.55,12.53,12.53,0,0,1-1.41,2.55l1,0-1,0"/><path class="cls-1" d="M44.47,18a10.82,10.82,0,0,0,.84-4.52v0A10.45,10.45,0,0,0,44.46,9,6,6,0,0,0,42,6.24a7.82,7.82,0,0,0-4-.94H34V21.74H38a7.88,7.88,0,0,0,4-.95A6.14,6.14,0,0,0,44.47,18Z"/><path class="cls-1" d="M72.43,20l1,.05a9.62,9.62,0,0,1,1.1-.85,2.76,2.76,0,0,0,.69-.68l-1.8-.07a3.58,3.58,0,0,1-.47.75C72.3,20,72.52,19.74,72.43,20Z"/><path class="cls-1" d="M101.52,83.15A6.07,6.07,0,0,0,104,80.36a10.66,10.66,0,0,0,.85-4.52v0a10.45,10.45,0,0,0-.85-4.45,6,6,0,0,0-2.5-2.76,7.84,7.84,0,0,0-4-.94H93.57V84.1h3.94A7.81,7.81,0,0,0,101.52,83.15Z"/><path class="cls-1" d="M71.45,19.9c0-.29,0-.55,0-.75a2.74,2.74,0,0,0-.22-.83l-2-.06c.3.52.65,1.09,1,1.56Z"/><path class="cls-1" d="M78.28,14.73a23.37,23.37,0,0,1-7,1.64,20.29,20.29,0,0,1-7.2-1.2m11.11,3.3a12.3,12.3,0,0,0,1.41-2.54,12.3,12.3,0,0,1-1.41,2.54l1,.05-1-.05m-4-.15a4.34,4.34,0,0,0-1-1.38,4.34,4.34,0,0,1,1,1.38l2.25.08a4.49,4.49,0,0,0,.42-1.82,4.49,4.49,0,0,1-.42,1.82m-3.26,1.42a3.62,3.62,0,0,0,.8.84,3.62,3.62,0,0,1-.8-.84c-.61,0-1.2-.09-1.7-.14a8.43,8.43,0,0,0,1.39.66A5.76,5.76,0,0,1,71,21.9a5.76,5.76,0,0,0-1.11-1.56,8.43,8.43,0,0,1-1.39-.66H68.4c-2-.2-4.05-2.38-4.05-2.38s2.1,2.18,4.05,2.38h.08a3.7,3.7,0,0,1-1.31-1.16,3.3,3.3,0,0,1-.37-.9,5.89,5.89,0,0,1-1.86-1.69,5.89,5.89,0,0,0,1.86,1.69,2.72,2.72,0,0,1,0-1.23,2.72,2.72,0,0,0,0,1.23,4.54,4.54,0,0,0,2.17.63h.22c-.47-.82-.81-1.52-.81-1.52s.34.7.81,1.52m2.8,2.4a4.25,4.25,0,0,0,.44-.71l-1-.05c0,1.49,0,3.84,0,3.84s.09-2.35,0-3.84m2,.1.5,0-.5,0a4.13,4.13,0,0,0-1.51,2.14A4.13,4.13,0,0,1,73.45,20"/><polygon class="cls-1" points="67.72 110.77 74.34 110.77 71.38 100.8 67.72 110.77"/><polygon class="cls-1" points="11.86 38.44 8.19 48.41 14.82 48.41 11.86 38.44"/><path class="cls-1" d="M9.06,62a5.6,5.6,0,0,0,2.67.64,4,4,0,0,0,2.81-1"/><path class="cls-1" d="M11.2,78.05a.09.09,0,0,0,.07,0l0,0Z"/><path class="cls-1" d="M12.77,76a4.56,4.56,0,0,1-1.38,1.94.23.23,0,0,1-.08.12h.09A4.2,4.2,0,0,0,13.72,76"/><path class="cls-1" d="M11.27,78.09l.13,0h-.09Z"/><path class="cls-1" d="M11.15,78.05h0Z"/><path class="cls-1" d="M11.4,78.06c2,.07,2.62,0,3.15-.37a7.66,7.66,0,0,0,1-1.57"/><path class="cls-1" d="M11.39,77.93a1.36,1.36,0,0,1-.2.11h.12A.23.23,0,0,0,11.39,77.93Z"/><path class="cls-1" d="M7.46,76.18c.56,1,1.27,1.76,2.15,1.8l1.05,0c-.51-.21-.92-1-1.26-2"/><path class="cls-1" d="M10.66,78l.49,0h0a6.45,6.45,0,0,1-.37-2"/><path class="cls-1" d="M12.77,76H12.6"/><path class="cls-1" d="M11.82,76a9,9,0,0,1-.43,1.92"/><path class="cls-1" d="M10.93,78.09a.78.78,0,0,0,.22,0l-.49,0A.88.88,0,0,0,10.93,78.09Z"/><path class="cls-1" d="M70.92,15.57a9.39,9.39,0,0,0,.42-1.92"/><path class="cls-1" d="M70.35,13.64a6.82,6.82,0,0,0,.36,2"/><path class="cls-1" d="M70.72,15.69s0,0,.08,0l0,0"/><path class="cls-1" d="M70.46,15.72a.83.83,0,0,0,.22,0l-.49,0A.6.6,0,0,0,70.46,15.72Z"/><path class="cls-1" d="M73.25,13.64a4.2,4.2,0,0,1-2.32,2.06c2,.07,2.62,0,3.14-.38a6.93,6.93,0,0,0,1-1.56"/><path class="cls-1" d="M70.68,15.69h0v0Z"/><path class="cls-1" d="M70.84,15.69a.31.31,0,0,0,.08-.12"/><path class="cls-1" d="M70.71,15.67v0"/><path class="cls-1" d="M70.92,15.57a4.63,4.63,0,0,0,1.38-1.94"/><path class="cls-1" d="M67,13.82c.56,1,1.26,1.75,2.15,1.8l1,0c-.51-.2-.93-1-1.26-2"/><line class="cls-1" x1="98.02" y1="44.61" x2="100.23" y2="44.61"/></g></g></svg>