<svg xmlns="http://www.w3.org/2000/svg" viewBox="0 0 25.47 27.65"><defs><style>.cls-1{fill:none;stroke:#000;stroke-miterlimit:10;stroke-width:0.1px;}</style></defs><g id="Layer_2" data-name="Layer 2"><g id="Layer_1-2" data-name="Layer 1"><path class="cls-1" d="M2.58,0,2.51,1.61l-.15.63H2.12l.13.38L2,3H1.46v.14H2l.22.69,0,.84.25.3V5l-.25-.3,0-.84L2,3.18H1.46V3H2l.23-.42-.13-.38h.24l.15-.63L2.58,0m.06,0,0,1.61.21.63h.25L3,2.59,3.2,3h.51v.13H3.22l-.11.67v.86L2.9,5V5l.21-.33V3.85l.11-.67h.49V3H3.2L3,2.59l.17-.35H2.9l-.21-.63L2.64,0M16.41,0V.28A2.6,2.6,0,0,1,15.8.4a1.8,1.8,0,0,1-.6-.12,2.13,2.13,0,0,0-1,.35c-.3.29.07.34.07.34a5.63,5.63,0,0,0,1.3.22A5.12,5.12,0,0,0,17.18,1c.4-.18.47-.16.39-.28A1.55,1.55,0,0,0,17,.39a3.26,3.26,0,0,0-.58-.11A3.26,3.26,0,0,1,17,.39a1.55,1.55,0,0,1,.58.31c.08.12,0,.1-.39.28a5.12,5.12,0,0,1-1.65.21A5.63,5.63,0,0,1,14.23,1s-.37,0-.07-.34a2.13,2.13,0,0,1,1-.35V0m0,27.64v-.08c0-.15.32-.2.6-.21s.64,0,.61.13v.16m-13.83,0,0-.75,0,.75M17.16.58a1.22,1.22,0,0,1-.34.11L17,.88,16.82.69h0a3.14,3.14,0,0,1-.51.09c.08.11.13.2.1.22s0-.11-.1-.22a7.42,7.42,0,0,1-.76,0,1,1,0,0,0,0,.24,1,1,0,0,1,0-.24h0L15,.77a.67.67,0,0,0-.2.28A.67.67,0,0,1,15,.77C14.7.7,14.39.61,14.39.61s.31.09.63.16A4.5,4.5,0,0,1,15.48.4,4.5,4.5,0,0,0,15,.77l.46.07h0A2.07,2.07,0,0,1,15.69.4a2.07,2.07,0,0,0-.18.44,7.42,7.42,0,0,0,.76,0,1.67,1.67,0,0,0-.36-.4,1.67,1.67,0,0,1,.36.4A3.14,3.14,0,0,0,16.78.7h0a4.83,4.83,0,0,0-.64-.35,4.83,4.83,0,0,1,.64.35A1.22,1.22,0,0,0,17.16.58ZM5.83,25.76l.85-1.13Zm.26-1.6c-.09-.36.59-.71.59-.71s-.68.35-.59.71.59.33.59.33S6.19,24.52,6.09,24.16Zm1.12-.91c.3.13.47.34.4.54.07-.2-.1-.41-.4-.54s-.53.4-.53.4S6.9,23.12,7.21,23.25Zm.71-5.52a1.47,1.47,0,0,0,.53.66,1.39,1.39,0,0,0,.82.23,1.52,1.52,0,0,0,.69-.15,1.09,1.09,0,0,0,.47-.43,1.11,1.11,0,0,0,.18-.63v-.08H9.32V16.6h2.21v.56a2.56,2.56,0,0,1-.27,1.22,2,2,0,0,1-.78.78,2.6,2.6,0,0,1-1.23.27,2.52,2.52,0,0,1-1.31-.33,2.16,2.16,0,0,1-.85-.94,3.23,3.23,0,0,1-.3-1.45h0a3.15,3.15,0,0,1,.3-1.43,2.11,2.11,0,0,1,.85-.92A2.48,2.48,0,0,1,9.24,14a2.6,2.6,0,0,1,1.08.21,2.16,2.16,0,0,1,.76.6,1.93,1.93,0,0,1,.39.86l0,.06h-1v0a1.28,1.28,0,0,0-.48-.65,1.34,1.34,0,0,0-.81-.24,1.47,1.47,0,0,0-.8.22,1.38,1.38,0,0,0-.52.64,2.52,2.52,0,0,0-.18,1h0A2.67,2.67,0,0,0,7.92,17.73ZM11,24.83s0,.19-.29.22-.39-.45-.39-.45.07.48.39.45S11.05,24.84,11,24.83Zm-1.37-.34-.09-.11H9.33v-.51H8.07v.51h0l-.34.05.34-.05v-.51h.26v-.16h.19V21.88l.26-.61.29.58L9,23.71h.15v.16h.16v.51h.25l.09.11.23.11Zm.38.91-2.84-.15ZM6.69,24.12c0-.26.41-.2.41-.2s-.4-.06-.41.2,0,.6.24.58a1.85,1.85,0,0,0,.52-.1.45.45,0,0,0,.35-.36c0-.28,0-.33-.18-.37s-.51.25-.51.25.35-.28.51-.25.2.09.18.37a.45.45,0,0,1-.35.36,1.85,1.85,0,0,1-.52.1C6.66,24.72,6.68,24.39,6.69,24.12ZM9.51,25.9a2.33,2.33,0,0,0-.88-.14,3,3,0,0,1-.82.08,3.42,3.42,0,0,0-.75.1,3.42,3.42,0,0,1,.75-.1,3,3,0,0,0,.82-.08,2.33,2.33,0,0,1,.88.14,2.05,2.05,0,0,0,.85-.06A2.05,2.05,0,0,1,9.51,25.9Zm1.35-.57c0-.06-.14-.13-.36-.14a.65.65,0,0,1-.46-.35.8.8,0,0,0-.2-.35c-.15-.15.27-.4.56-.45s.24.34.24.34,0-.4-.24-.34-.71.3-.56.45a.8.8,0,0,1,.2.35.65.65,0,0,0,.46.35c.22,0,.32.08.36.14s.3.13.39,0a.74.74,0,0,0,0-.53c-.06-.11-.2-.26-.36-.21.16-.05.3.1.36.21a.29.29,0,0,0,.25-.05c.08-.08,0-.5-.2-.68s-.55.06-.55.06.38-.24.55-.06.28.6.2.68a.29.29,0,0,1-.25.05.74.74,0,0,1,0,.53C11.16,25.46,10.91,25.39,10.86,25.33Zm.18.07.71.65Zm13.9-13.17-.7-.65Zm-.25-1.34a.33.33,0,0,1-.25,0,.71.71,0,0,1,0,.52.25.25,0,0,1-.38,0,.48.48,0,0,0-.37-.14.67.67,0,0,1-.46-.35.87.87,0,0,0-.19-.35c-.16-.15.26-.4.56-.45s.23.34.23.34.06-.4-.23-.34-.72.3-.56.45a.87.87,0,0,1,.19.35.67.67,0,0,0,.46.35.48.48,0,0,1,.37.14.25.25,0,0,0,.38,0,.71.71,0,0,0,0-.52c-.06-.11-.19-.26-.36-.21.17-.05.3.1.36.21a.33.33,0,0,0,.25,0c.09-.08,0-.5-.2-.68s-.55.06-.55.06.38-.24.55-.06S24.78,10.81,24.69,10.89Zm-2.33-1v.16h.16v.51h.25l.09.11.23.11-.23-.11-.09-.11h-.25v-.51H21.27v.51h0l-.35,0,.35,0v-.51h.26V9.89h.19V8.06L22,7.45l.29.58-.05,1.86Zm-2,1.53,2.84.16Zm3.16.6a2.1,2.1,0,0,1-.86.06,2.13,2.13,0,0,0-.88-.14A3,3,0,0,1,21,12a3.69,3.69,0,0,0-.75.09A3.69,3.69,0,0,1,21,12a3,3,0,0,0,.82-.08,2.13,2.13,0,0,1,.88.14A2.1,2.1,0,0,0,23.56,12ZM21,10.42a.45.45,0,0,1-.34.36,2,2,0,0,1-.53.1c-.27,0-.25-.31-.24-.58s.41-.2.41-.2-.4-.06-.41.2,0,.6.24.58a2,2,0,0,0,.53-.1.45.45,0,0,0,.34-.36c0-.28,0-.33-.18-.37s-.5.25-.5.25.34-.29.5-.25S21,10.14,21,10.42ZM20.8,10c.07-.2-.1-.41-.4-.54s-.52.4-.52.4.22-.53.52-.4S20.87,9.77,20.8,10Zm.9,4.24a2.72,2.72,0,0,1,1.33.3,2,2,0,0,1,.85.89,3,3,0,0,1,.3,1.4h0a3.19,3.19,0,0,1-.29,1.41,2.06,2.06,0,0,1-.85.9,2.68,2.68,0,0,1-1.34.31H19.8V14.21ZM24.23,11s0,.19-.29.22-.38-.45-.38-.45.07.48.38.45S24.25,11,24.23,11ZM20,2.89a3.15,3.15,0,0,1,.3-1.43,2.11,2.11,0,0,1,.85-.92,2.48,2.48,0,0,1,1.3-.32,2.6,2.6,0,0,1,1.08.21,2.07,2.07,0,0,1,.76.6,1.93,1.93,0,0,1,.39.86l0,.06h-.94l0,0a1.28,1.28,0,0,0-.48-.65A1.34,1.34,0,0,0,22.43,1a1.36,1.36,0,0,0-1.32.86,2.52,2.52,0,0,0-.18,1h0a2.49,2.49,0,0,0,.19,1,1.41,1.41,0,0,0,.53.66,1.36,1.36,0,0,0,.81.23,1.52,1.52,0,0,0,.69-.15,1.17,1.17,0,0,0,.48-.43,1.3,1.3,0,0,0,.18-.64V3.51H22.52V2.78h2.2v.56a2.58,2.58,0,0,1-.27,1.22,1.87,1.87,0,0,1-.78.77,2.47,2.47,0,0,1-1.22.28,2.54,2.54,0,0,1-1.32-.33,2.22,2.22,0,0,1-.85-.94A3.23,3.23,0,0,1,20,2.89Zm-.1,6.74s-.69.35-.6.71.6.33.6.33-.5,0-.6-.33S19.88,9.63,19.88,9.63Zm0,1.18L19,11.94Zm.6,12.92c.33-.16.68-.72.9-.8s.53.14.69.08a.93.93,0,0,1,.36,0,2.56,2.56,0,0,1,.82.47,3.32,3.32,0,0,0,1.41.58,2.25,2.25,0,0,1,.71.34,5.5,5.5,0,0,1-1.78.35c-.94,0-2.13.09-2.77.11s-2.31-.19-2.31-.19Zm-3.33,2.88-.44-1.34H14.77l-.44,1.34h-1l1.86-5.21h1.05l1.86,5.21ZM15.31,16.06h.24l.15-.63.11-2.36.07,2.36.21.63h.26l-.18.35.22.45h.51V17h-.49l-.11.67v.86l-.21.34v0l.21-.34v-.86l.11-.67h.49v-.13h-.51l-.22-.45.18-.35h-.26l-.21-.63-.07-2.36-.11,2.36-.15.63h-.24l.13.39-.22.41h-.57V17h.53l.23.69,0,.84.25.3v0l-.25-.3,0-.84L15.18,17h-.53v-.14h.57l.22-.41Zm.53,3.59v0h0Zm.11.4h-.11v0Zm-.11-.73v0h0Zm0-.43v0h0ZM15.55,18v-.3h.65V18Zm.51-1.56h0Zm-.44-.34h0Zm.71.79h0Zm0,.13h0ZM14.21,3.36s-.06,0,.15-.17a1,1,0,0,1,.45-.12h0a6.17,6.17,0,0,1-.45-1.94,6.17,6.17,0,0,0,.45,1.94l.43,0A9.16,9.16,0,0,1,15,1.25,9.16,9.16,0,0,0,15.27,3h.32c-.06-.64-.08-1.72-.08-1.72s0,1.08.08,1.72h.22c.1-.65.18-1.77.18-1.77S15.91,2.37,15.81,3H16a9.73,9.73,0,0,0,.52-1.77A9.73,9.73,0,0,1,16,3h.21A7.82,7.82,0,0,0,17,1.15,7.82,7.82,0,0,1,16.23,3l.4,0a8.55,8.55,0,0,0,.84-2,8.55,8.55,0,0,1-.84,2l.26,0a.79.79,0,0,1,.45.2,1.51,1.51,0,0,1-.23.75c-.5.5-.56.34-.89.65a.5.5,0,0,0-.21.52c0,.22,0,.14,0,.14H15.7V6.39H16v0h-.26V5.33h0V5s0-.24-.34-.4-.59,0-1-.39a1,1,0,0,1-.14-.88Zm-1,6.61a3.17,3.17,0,0,1,.3-1.43,2.08,2.08,0,0,1,.85-.93,2.67,2.67,0,0,1,2.37-.1,2,2,0,0,1,.78.64,1.89,1.89,0,0,1,.36.94v0H17V9.06a1.4,1.4,0,0,0-.25-.52,1.14,1.14,0,0,0-.44-.34,1.46,1.46,0,0,0-.6-.12,1.3,1.3,0,0,0-.79.24,1.41,1.41,0,0,0-.52.65,2.35,2.35,0,0,0-.19,1h0a2.43,2.43,0,0,0,.19,1,1.41,1.41,0,0,0,.52.65,1.32,1.32,0,0,0,.79.24,1.38,1.38,0,0,0,.59-.12,1.14,1.14,0,0,0,.44-.34,1.49,1.49,0,0,0,.27-.55v0h.91v0a1.89,1.89,0,0,1-.36.94,2,2,0,0,1-.78.64,2.44,2.44,0,0,1-1.07.23,2.49,2.49,0,0,1-1.3-.33,2.19,2.19,0,0,1-.85-.93,3.19,3.19,0,0,1-.3-1.44ZM6.61.39h1.9a2.75,2.75,0,0,1,1.33.3,2.09,2.09,0,0,1,.85.89A3,3,0,0,1,11,3h0a3.06,3.06,0,0,1-.3,1.41,2.06,2.06,0,0,1-.85.9,2.64,2.64,0,0,1-1.33.31H6.61Zm.68,9.52c.33-.16.68-.72.9-.8s.53.14.69.08a.88.88,0,0,1,.35,0,2.66,2.66,0,0,1,.83.47,3.32,3.32,0,0,0,1.41.58,2.25,2.25,0,0,1,.71.34,5.59,5.59,0,0,1-1.78.35c-.94,0-2.14.09-2.77.11s-2.31-.19-2.31-.19ZM2.81,2.25h0Zm.06.34h0ZM3.13,3h0Zm-1.08.13h0Zm.31,1,0-.3H3v.3Zm.29,1.68v0h0Zm.11.4H2.65v0ZM2.65,5.5v0h0Zm0-.43v0h0ZM2,7.58h1l1.86,5.21H4l-.44-1.34H1.57l-.44,1.34h-1ZM3.7,16.89a.79.79,0,0,1,.45.2,1.45,1.45,0,0,1-.24.75c-.49.5-.55.34-.89.65a.51.51,0,0,0-.2.53c0,.21,0,.13,0,.13H2.5v1.06h.27v0H2.49V19.15h0v-.29a.5.5,0,0,0-.33-.41c-.33-.16-.59,0-1-.39A.92.92,0,0,1,1,17.18H1s-.06,0,.15-.17a1,1,0,0,1,.44-.12h0a6.3,6.3,0,0,1-.46-1.94,6.3,6.3,0,0,0,.46,1.94l.43,0a9.5,9.5,0,0,1-.28-1.78,9.5,9.5,0,0,0,.28,1.78h.31c-.06-.64-.08-1.72-.08-1.72s0,1.08.08,1.72a.81.81,0,0,0,.22,0c.1-.65.19-1.77.19-1.77s-.09,1.12-.19,1.77h.21a8.25,8.25,0,0,0,.52-1.77,8.25,8.25,0,0,1-.52,1.77H3A7.81,7.81,0,0,0,3.76,15,7.81,7.81,0,0,1,3,16.84l.4,0a9.1,9.1,0,0,0,.84-2,9.1,9.1,0,0,1-.84,2ZM4,14.8A5.08,5.08,0,0,1,2.33,15,5.83,5.83,0,0,1,1,14.8s-.38-.06-.07-.35a2.1,2.1,0,0,1,1-.35v-.36c0-.15.33-.2.61-.21s.64.05.61.12v.45a2.74,2.74,0,0,1-.61.12A1.89,1.89,0,0,1,2,14.1a2.1,2.1,0,0,0-1,.35c-.31.29.07.35.07.35A5.83,5.83,0,0,0,2.33,15,5.08,5.08,0,0,0,4,14.8c.41-.18.47-.16.4-.28a1.61,1.61,0,0,0-.59-.31,3.06,3.06,0,0,0-.57-.11,3.06,3.06,0,0,1,.57.11,1.61,1.61,0,0,1,.59.31C4.45,14.64,4.39,14.62,4,14.8Zm-.14-.1a1.33,1.33,0,0,0-.21-.19h0a3.14,3.14,0,0,1-.51.09c.07.11.12.2.1.22s0-.11-.1-.22a7.42,7.42,0,0,1-.76.05,1,1,0,0,0,0,.24,1,1,0,0,1,0-.24h0l-.45-.07a.92.92,0,0,0-.21.28.92.92,0,0,1,.21-.28l-.64-.16.64.16a3.83,3.83,0,0,1,.45-.37,3.83,3.83,0,0,0-.45.37l.45.07h0a2.37,2.37,0,0,1,.17-.44,2.37,2.37,0,0,0-.17.44,7.42,7.42,0,0,0,.76-.05,1.88,1.88,0,0,0-.37-.4,1.88,1.88,0,0,1,.37.4,3.14,3.14,0,0,0,.51-.09h0A4.65,4.65,0,0,0,3,14.16a4.65,4.65,0,0,1,.65.35A1.22,1.22,0,0,0,4,14.4a1.22,1.22,0,0,1-.34.11A1.33,1.33,0,0,1,3.84,14.7ZM.05,23.79a3.17,3.17,0,0,1,.3-1.43,2.08,2.08,0,0,1,.85-.93,2.45,2.45,0,0,1,1.29-.33,2.52,2.52,0,0,1,1.08.23,2.1,2.1,0,0,1,.77.64,1.94,1.94,0,0,1,.37.94v0H3.8l0-.07a1.26,1.26,0,0,0-.25-.52A1.2,1.2,0,0,0,3.1,22a1.48,1.48,0,0,0-.61-.11,1.33,1.33,0,0,0-.79.23,1.55,1.55,0,0,0-.52.65,2.52,2.52,0,0,0-.18,1H1a2.6,2.6,0,0,0,.18,1,1.5,1.5,0,0,0,.53.65,1.29,1.29,0,0,0,.78.24,1.43,1.43,0,0,0,.6-.12,1.22,1.22,0,0,0,.44-.34,1.34,1.34,0,0,0,.26-.55l0,0h.91v0a1.89,1.89,0,0,1-.36.93,2,2,0,0,1-.78.64,2.52,2.52,0,0,1-1.08.23,2.45,2.45,0,0,1-1.29-.33,2.19,2.19,0,0,1-.85-.93,3.19,3.19,0,0,1-.3-1.44Z"/><path class="cls-1" d="M2.58,17.88H2.14a2.46,2.46,0,0,0,.22.34l.28,0c0-.06,0-.12,0-.16A1.05,1.05,0,0,0,2.58,17.88Z"/><path class="cls-1" d="M2.85,18.24h.23a1.66,1.66,0,0,1,.24-.18.61.61,0,0,0,.16-.16h-.4a1.2,1.2,0,0,1-.11.17C2.83,18.24,2.87,18.2,2.85,18.24Z"/><path class="cls-1" d="M2.46,19.15h0m1.65-2.06a5.15,5.15,0,0,1-1.54.36A4.44,4.44,0,0,1,1,17.18m1.56.7a1.15,1.15,0,0,0-.21-.31,1.15,1.15,0,0,1,.21.31l.5,0a.91.91,0,0,0,.09-.4.91.91,0,0,1-.09.4m-.72.31a.83.83,0,0,0,.17.19.83.83,0,0,1-.17-.19l-.38,0a2.16,2.16,0,0,0,.31.15,1.23,1.23,0,0,1,.24.34,1.23,1.23,0,0,0-.24-.34A2.16,2.16,0,0,1,2,18.18H2a1.86,1.86,0,0,1-.9-.53,1.86,1.86,0,0,0,.9.53H2a.73.73,0,0,1-.29-.26.6.6,0,0,1-.08-.19,1.44,1.44,0,0,1-.42-.38,1.44,1.44,0,0,0,.42.38.63.63,0,0,1,0-.28.63.63,0,0,0,0,.28,1.13,1.13,0,0,0,.48.14h.05A3.16,3.16,0,0,1,2,17.53a3.16,3.16,0,0,0,.18.34m.71.37-.09.16.09-.16H2.64c0,.33,0,.85,0,.85s0-.52,0-.85m.44,0h0c-.17.16-.33.35-.33.48,0-.13.16-.32.33-.48m.4-.34a2.91,2.91,0,0,0,.31-.56,2.91,2.91,0,0,1-.31.56h0"/><path class="cls-1" d="M9.85,4A2.48,2.48,0,0,0,10,3h0a2.43,2.43,0,0,0-.19-1,1.33,1.33,0,0,0-.56-.61,1.71,1.71,0,0,0-.88-.21H7.54V4.82h.87a1.75,1.75,0,0,0,.89-.21A1.39,1.39,0,0,0,9.85,4Z"/><path class="cls-1" d="M16.05,4.42h.22a2.07,2.07,0,0,1,.25-.19.53.53,0,0,0,.15-.15h-.4a1.4,1.4,0,0,1-.1.16C16,4.42,16.07,4.38,16.05,4.42Z"/><path class="cls-1" d="M22.49,18.43a1.33,1.33,0,0,0,.55-.62,2.29,2.29,0,0,0,.19-1h0a2.27,2.27,0,0,0-.19-1,1.42,1.42,0,0,0-.55-.61,1.75,1.75,0,0,0-.89-.2h-.87v3.64h.87A1.72,1.72,0,0,0,22.49,18.43Z"/><path class="cls-1" d="M15.83,4.41a.91.91,0,0,0,0-.17.61.61,0,0,0-.05-.18h-.44a2.46,2.46,0,0,0,.22.34Z"/><path class="cls-1" d="M17.34,3.27a5.15,5.15,0,0,1-1.54.36,4.5,4.5,0,0,1-1.59-.27m2.46.73A2.91,2.91,0,0,0,17,3.53a2.91,2.91,0,0,1-.31.56h0m-.9,0a.94.94,0,0,0-.21-.31.94.94,0,0,1,.21.31l.5,0a1,1,0,0,0,.09-.41,1,1,0,0,1-.09.41m-.72.31a1.12,1.12,0,0,0,.17.19,1.12,1.12,0,0,1-.17-.19l-.38,0a2.94,2.94,0,0,0,.31.15,1.23,1.23,0,0,1,.24.34,1.23,1.23,0,0,0-.24-.34,2.94,2.94,0,0,1-.31-.15h0a1.81,1.81,0,0,1-.89-.53,1.81,1.81,0,0,0,.89.53h0a.81.81,0,0,1-.29-.26.6.6,0,0,1-.08-.19,1.32,1.32,0,0,1-.41-.38,1.32,1.32,0,0,0,.41.38.63.63,0,0,1,0-.28.63.63,0,0,0,0,.28,1,1,0,0,0,.48.13h.05c-.11-.19-.18-.34-.18-.34s.07.15.18.34m.62.53.1-.16h-.22c0,.33,0,.85,0,.85s0-.52,0-.85m.44,0h0c-.17.16-.33.35-.33.48,0-.13.16-.32.33-.48"/><polygon class="cls-1" points="15 24.55 16.47 24.55 15.81 22.34 15 24.55"/><polygon class="cls-1" points="2.62 8.52 1.81 10.73 3.28 10.73 2.62 8.52"/><path class="cls-1" d="M2,13.74a1.27,1.27,0,0,0,.59.14.87.87,0,0,0,.63-.23"/><path class="cls-1" d="M2.48,17.3h0Z"/><path class="cls-1" d="M2.82,16.84a.89.89,0,0,1-.3.43l0,0h0A.93.93,0,0,0,3,16.84"/><path class="cls-1" d="M2.49,17.31h0Z"/><polygon class="cls-1" points="2.47 17.3 2.48 17.3 2.47 17.29 2.47 17.3"/><path class="cls-1" d="M2.52,17.3c.44,0,.58,0,.7-.08a2,2,0,0,0,.22-.35"/><path class="cls-1" d="M2.52,17.27l0,0h0Z"/><path class="cls-1" d="M1.65,16.88c.12.23.28.39.47.4h.24c-.12,0-.21-.21-.28-.44"/><path class="cls-1" d="M2.36,17.29h.11a1.4,1.4,0,0,1-.08-.45"/><path class="cls-1" d="M2.82,16.84h0"/><path class="cls-1" d="M2.61,16.84a2,2,0,0,1-.09.43"/><path class="cls-1" d="M2.42,17.31H2.36Z"/><path class="cls-1" d="M15.71,3.45a2,2,0,0,0,.1-.43"/><path class="cls-1" d="M15.59,3a1.16,1.16,0,0,0,.08.45"/><path class="cls-1" d="M15.67,3.48a0,0,0,0,0,0,0h0"/><path class="cls-1" d="M15.61,3.48h0Z"/><path class="cls-1" d="M16.23,3a1,1,0,0,1-.52.46c.44,0,.58,0,.7-.08a1.51,1.51,0,0,0,.22-.35"/><polygon class="cls-1" points="15.66 3.48 15.67 3.48 15.67 3.47 15.66 3.48"/><path class="cls-1" d="M15.69,3.48l0,0"/><path class="cls-1" d="M15.67,3.47h0"/><path class="cls-1" d="M15.71,3.45A1,1,0,0,0,16,3"/><path class="cls-1" d="M14.84,3.06c.13.23.28.39.48.4h.23c-.11,0-.2-.21-.28-.44"/><line class="cls-1" x1="21.72" y1="9.89" x2="22.21" y2="9.89"/></g></g></svg>